<svg xmlns="http://www.w3.org/2000/svg" xmlns:xlink="http://www.w3.org/1999/xlink" xmlns:lucid="lucid" width="884.45" height="845"><g transform="translate(-378 -198)" lucid:page-tab-id="0_0"><path d="M400 760a8 8 0 0 1 8-8h304a8 8 0 0 1 8 8v147a8 8 0 0 1-8 8H408a8 8 0 0 1-8-8z" stroke="#635dff" stroke-width="2" fill-opacity="0"/><path d="M569.6 780.76l3.43 5.2c.82.92 1.63 1.75 2.62 2.58 2.92 2.3 5.66 4.78 8.17 7.37 5.82 6.14 9.8 13 12.64 20.36 1.7 4.56 2.63 9.23 2.7 13.9.28 14.02-5.73 26.06-17.85 36.02-1.97 1.56-4.13 3.12-6.34 4.36-1.23 0-1.8-.72-2.28-1.35-.93-1.25-1.5-2.7-1.8-4.16-.4-1.66-.7-3.32-.53-5.08v-.84c-.12-.1-1.17-77.95-.76-78.36z" stroke="#000" stroke-opacity="0" stroke-width="2" fill="#599636"/><path d="M569.6 780.55c-.13-.2-.3 0-.42.1.06 1.14-.46 2.08-1.22 3.12-.82.93-1.98 1.66-3.1 2.5-6.3 4.35-11.24 9.54-15.2 15.46-5.25 7.88-8 16.4-8.75 25.32-.34 3.22 1.3 14.53 2.52 17.86 3.5 8.72 9.73 16 17.78 22.32 1.98 1.56 4.08 2.9 6.3 4.26.63 0 .7-.42.8-.73.3-.83.53-1.45.65-2.18l1.46-8.5-.8-79.52z" stroke="#000" stroke-opacity="0" stroke-width="2" fill="#6cac48"/><path d="M573.03 873.97c.18-1.25.93-2.4 1.8-3.43-.87-.3-1.5-.83-1.97-1.45-.4-.53-.82-1.26-1.05-1.88-.98-2.4-1.22-4.88-1.5-7.26v-1.46c-.36.2-.42 2.08-.42 2.4-.23 2.7-.58 4.97-1.28 7.67-.17.93-.35 1.97-1.1 2.9 0 .1 0 .2.05.42 1.28 3 1.63 6 1.8 9.13v1.14c0 1.35-.05 1.04 1.35 1.56.58.1 1.22.2 1.8.5.4 0 .47-.3.47-.5l-.17-1.87v-5.2c-.12-.93.12-1.76.23-2.7z" stroke="#000" stroke-opacity="0" stroke-width="2" fill="#c2bfbf"/><path d="M519.9 844.56c-.5-1.93-2.2-4.16-5.8-4.16-.8 0-1.6.1-2.5.3-1.7.3-3.1.5-4.4.5 9.8-16.23 16.2-38.76 9.9-46.58-8.3-10.35-19.5-11.87-25.4-11.87h-.6c-2.2 0-4.5.3-6.8.8l-8.5 1.73c-1.1-.1-2.3-.2-3.5-.2h-.5c-3.8 0-7.2.8-10.3 2.23l-3-1.1c-4-1.63-10.2-3.45-16.2-3.45h-1.1c-5.9.2-11.1 2.43-14.8 6.4-4.7 4.96-6.8 12.17-6.3 21.5 0 .52 5.8 48.22 22.3 48.22h.2c2.1-.1 4.1-.9 6-2.54 1.5 1.12 3.4 1.73 5.1 2.03 1.2.2 3.3.6 5.8.6 3 0 5.8-.6 8.1-1.7v8.2c.2 3.25.8 6.2 1.7 8.53 2.5 6.6 6.8 10.24 12.1 10.24h.7c4.4-.3 8.8-2.63 11.8-6.4 3.4-4.05 4.1-8.3 4.4-11.56v-9.85h.3l1 .1h1.1c3.6 0 8-.9 11-2.23 2.8-1.22 9.3-4.77 8.2-9.74z" stroke="#000" stroke-opacity="0" stroke-width="10" fill="#fff"/><path d="M493.6 854.3v-1.32-1l.1-.1c.3-6.1 2.1-8.54 3.9-9.86-.2-.4-.5-.7-.8-1.12-.8-1-1.8-2.23-2.8-3.85l-.2-.4c-.2-.3-.6-1.02-1.1-1.83-2.8-4.98-8.6-15.23-4.6-21.73 1.7-2.85 5-4.47 9.8-4.88-2-5.38-9.2-18.27-25.7-18.57-14.3-.2-19 12.48-20.6 20 2.1-.82 4.5-1.33 6.7-1.33h.1c5.5 0 9.2 2.85 10.3 7.72.8 3.55 1.2 6.7 1.2 9.54-.1 6.3-1.4 9.54-2.5 12.48l-.4.92c-.3.8-.6 1.52-.9 2.23-.3.62-.5 1.23-.7 1.84 1.1.2 2 .6 2.6.9l.4.1c.1 0 .2.1.3.2 2 1.13 3.3 2.96 3.6 5.1.1 1.2.1 9.02 0 15.82.2 2.95.8 5.48 1.4 7.3 1 2.55 3.4 7.42 8.1 7.12 3.2-.2 6.4-2.04 8.4-4.57 2.3-2.73 3.1-5.78 3.4-9.13V854.3z" stroke="#000" stroke-opacity="0" stroke-width="10" fill="#0277bd"/><path d="M451.2 842.53c-3.9-3.86-5.7-9.14-5-14 .6-4.68.3-9.24.1-11.68-.1-.9-.2-1.52-.2-1.83h.1v-.1c.2-6.9 3-17.96 10.6-24.46-3.7-1.42-9.7-3.25-15.4-3.05-8.9.32-17.5 6.2-16.6 23.06.3 6.3 7.6 44.04 17.6 43.84 1.5-.1 3-1 4.5-2.74 2.4-2.84 4.7-5.38 6.4-7.2-.7-.5-1.5-1.12-2.1-1.83zm51.9-32.68c.1.3 0 .6 0 .9 0 2.14-.2 4.17-.4 6.2-.2 1.42-.4 2.94-.4 4.47-.1 1.52.1 2.94.4 4.56.5 3.56 1 7.72-1.9 12.5.6.7 1 1.3 1.4 1.92 11-17.26 15.4-37.76 11.2-42.94-6.4-7.9-15.2-10.25-22.2-10.05-2.2 0-4.2.32-5.9.62 12.1 5.7 17.4 17.87 17.8 21.83zm9.5 35.32c-6.4 1.32-9.4.6-10.9-.3-.2.2-.5.3-.7.5-.9.5-2.3 1.32-2.6 6.4.2 0 .4 0 .6.1l1 .1c3.2.1 7.3-.7 9.7-1.83 5.1-2.33 8-6 2.9-4.97zm-45.1 4.77c0-.7-.4-1.22-1.1-1.73l-.3-.1c-.8-.4-1.8-.8-3.3-.8h-.1c-.3.1-.6.1-.9.1h-.3c-1.2.8-2.8 1.42-6.7 2.23-7.1 1.73-2.9 3.86-.2 4.16 2.6.6 8.9 1.42 13-1.93 0-1.02 0-1.73-.1-1.93z" stroke="#000" stroke-opacity="0" stroke-width="10" fill="#0277bd"/><path d="M464.4 818.47c-.7.7-1.8 1.32-3 1.12-2-.3-3.5-2.55-3.4-3.46.1-.8 1.8-1.32 3.8-1.02.6.1 1.3.3 1.8.5-.8-1.5-2.2-2.42-4.3-2.63-3.7-.4-7.6 1.4-8.4 2.43 0 .3.1.6.1 1 .2 2.65.6 7.63-.1 12.8-.5 3.35.9 7.3 3.7 10.15 1.8 1.83 3.9 2.95 5.9 3.25.3-1.12.8-2.13 1.3-3.25.2-.6.5-1.32.8-1.93l.4-1c1-2.65 2.1-5.5 2.1-10.87 0-2.13-.2-4.47-.7-7.1zm33.6 8.12c-.3-1.73-.5-3.46-.5-5.28.1-1.73.3-3.35.5-4.88l.3-3.65c-3.1.3-5.1 1.1-6.1 2.53.4-.1.9-.2 1.4-.2 2.1-.3 3.6.3 3.8 1.4.2.83-.6 1.64-.9 1.94-.7.6-1.5 1.02-2.3 1.12h-.5c-.8 0-1.6-.2-2.2-.62.2 4.47 3.7 10.56 5.4 13.6.3.6.6 1.12.9 1.52.9-2.53.5-4.87.2-7.5z" stroke="#000" stroke-opacity="0" stroke-width="10" fill="#0277bd"/><path d="M611 268a8 8 0 0 1 8-8h414.5a8 8 0 0 1 8 8v224a8 8 0 0 1-8 8H619a8 8 0 0 1-8-8z" fill="url(#a)"/><path d="M612.5 268c0 .83-.67 1.5-1.5 1.5s-1.5-.67-1.5-1.5.67-1.5 1.5-1.5 1.5.67 1.5 1.5zm2.34-5.66c0 .83-.67 1.5-1.5 1.5s-1.5-.67-1.5-1.5c0-.82.67-1.5 1.5-1.5s1.5.68 1.5 1.5zm5.66-2.34c0 .83-.67 1.5-1.5 1.5s-1.5-.67-1.5-1.5.67-1.5 1.5-1.5 1.5.67 1.5 1.5zm6 0c0 .83-.67 1.5-1.5 1.5-.82 0-1.5-.67-1.5-1.5s.68-1.5 1.5-1.5c.83 0 1.5.67 1.5 1.5zm6 0c0 .83-.66 1.5-1.5 1.5-.82 0-1.5-.67-1.5-1.5s.68-1.5 1.5-1.5c.84 0 1.5.67 1.5 1.5zm6.02 0c0 .83-.67 1.5-1.5 1.5s-1.5-.67-1.5-1.5.67-1.5 1.5-1.5 1.5.67 1.5 1.5zm6 0c0 .83-.67 1.5-1.5 1.5-.82 0-1.5-.67-1.5-1.5s.68-1.5 1.5-1.5c.83 0 1.5.67 1.5 1.5zm6 0c0 .83-.66 1.5-1.5 1.5-.8 0-1.5-.67-1.5-1.5s.7-1.5 1.5-1.5c.84 0 1.5.67 1.5 1.5zm6.02 0c0 .83-.67 1.5-1.5 1.5s-1.5-.67-1.5-1.5.67-1.5 1.5-1.5 1.5.67 1.5 1.5zm6 0c0 .83-.66 1.5-1.5 1.5-.82 0-1.5-.67-1.5-1.5s.68-1.5 1.5-1.5c.84 0 1.5.67 1.5 1.5zm6 0c0 .83-.66 1.5-1.5 1.5-.8 0-1.5-.67-1.5-1.5s.7-1.5 1.5-1.5c.84 0 1.5.67 1.5 1.5zm6.02 0c0 .83-.67 1.5-1.5 1.5s-1.5-.67-1.5-1.5.67-1.5 1.5-1.5 1.5.67 1.5 1.5zm6 0c0 .83-.66 1.5-1.5 1.5-.82 0-1.5-.67-1.5-1.5s.68-1.5 1.5-1.5c.84 0 1.5.67 1.5 1.5zm6.02 0c0 .83-.68 1.5-1.5 1.5-.83 0-1.5-.67-1.5-1.5s.67-1.5 1.5-1.5c.82 0 1.5.67 1.5 1.5zm6 0c0 .83-.67 1.5-1.5 1.5s-1.5-.67-1.5-1.5.67-1.5 1.5-1.5 1.5.67 1.5 1.5zm6 0c0 .83-.66 1.5-1.5 1.5-.82 0-1.5-.67-1.5-1.5s.68-1.5 1.5-1.5c.84 0 1.5.67 1.5 1.5zm6.02 0c0 .83-.67 1.5-1.5 1.5s-1.5-.67-1.5-1.5.67-1.5 1.5-1.5 1.5.67 1.5 1.5zm6 0c0 .83-.67 1.5-1.5 1.5-.82 0-1.5-.67-1.5-1.5s.68-1.5 1.5-1.5c.83 0 1.5.67 1.5 1.5zm6 0c0 .83-.66 1.5-1.5 1.5-.82 0-1.5-.67-1.5-1.5s.68-1.5 1.5-1.5c.84 0 1.5.67 1.5 1.5zm6.02 0c0 .83-.67 1.5-1.5 1.5s-1.5-.67-1.5-1.5.67-1.5 1.5-1.5 1.5.67 1.5 1.5zm6 0c0 .83-.66 1.5-1.5 1.5-.82 0-1.5-.67-1.5-1.5s.68-1.5 1.5-1.5c.84 0 1.5.67 1.5 1.5zm6 0c0 .83-.66 1.5-1.5 1.5-.8 0-1.5-.67-1.5-1.5s.7-1.5 1.5-1.5c.84 0 1.5.67 1.5 1.5zm6.02 0c0 .83-.67 1.5-1.5 1.5s-1.5-.67-1.5-1.5.67-1.5 1.5-1.5 1.5.67 1.5 1.5zm6 0c0 .83-.66 1.5-1.5 1.5-.82 0-1.5-.67-1.5-1.5s.68-1.5 1.5-1.5c.84 0 1.5.67 1.5 1.5zm6.02 0c0 .83-.67 1.5-1.5 1.5s-1.5-.67-1.5-1.5.67-1.5 1.5-1.5 1.5.67 1.5 1.5zm6 0c0 .83-.67 1.5-1.5 1.5-.82 0-1.5-.67-1.5-1.5s.68-1.5 1.5-1.5c.83 0 1.5.67 1.5 1.5zm6 0c0 .83-.66 1.5-1.5 1.5-.82 0-1.5-.67-1.5-1.5s.68-1.5 1.5-1.5c.84 0 1.5.67 1.5 1.5zm6.02 0c0 .83-.67 1.5-1.5 1.5s-1.5-.67-1.5-1.5.67-1.5 1.5-1.5 1.5.67 1.5 1.5zm6 0c0 .83-.67 1.5-1.5 1.5-.82 0-1.5-.67-1.5-1.5s.68-1.5 1.5-1.5c.83 0 1.5.67 1.5 1.5zm6 0c0 .83-.66 1.5-1.5 1.5-.82 0-1.5-.67-1.5-1.5s.68-1.5 1.5-1.5c.84 0 1.5.67 1.5 1.5zm6.02 0c0 .83-.67 1.5-1.5 1.5s-1.5-.67-1.5-1.5.67-1.5 1.5-1.5 1.5.67 1.5 1.5zm6 0c0 .83-.66 1.5-1.5 1.5-.82 0-1.5-.67-1.5-1.5s.68-1.5 1.5-1.5c.84 0 1.5.67 1.5 1.5zm6 0c0 .83-.66 1.5-1.5 1.5-.8 0-1.5-.67-1.5-1.5s.7-1.5 1.5-1.5c.84 0 1.5.67 1.5 1.5zm6.02 0c0 .83-.67 1.5-1.5 1.5s-1.5-.67-1.5-1.5.67-1.5 1.5-1.5 1.5.67 1.5 1.5zm6 0c0 .83-.66 1.5-1.5 1.5-.82 0-1.5-.67-1.5-1.5s.68-1.5 1.5-1.5c.84 0 1.5.67 1.5 1.5zm6.02 0c0 .83-.67 1.5-1.5 1.5s-1.5-.67-1.5-1.5.67-1.5 1.5-1.5 1.5.67 1.5 1.5zm6 0c0 .83-.67 1.5-1.5 1.5s-1.5-.67-1.5-1.5.67-1.5 1.5-1.5 1.5.67 1.5 1.5zm6 0c0 .83-.66 1.5-1.5 1.5-.82 0-1.5-.67-1.5-1.5s.68-1.5 1.5-1.5c.84 0 1.5.67 1.5 1.5zm6.02 0c0 .83-.67 1.5-1.5 1.5s-1.5-.67-1.5-1.5.67-1.5 1.5-1.5 1.5.67 1.5 1.5zm6 0c0 .83-.67 1.5-1.5 1.5-.82 0-1.5-.67-1.5-1.5s.68-1.5 1.5-1.5c.83 0 1.5.67 1.5 1.5zm6 0c0 .83-.66 1.5-1.5 1.5-.82 0-1.5-.67-1.5-1.5s.68-1.5 1.5-1.5c.84 0 1.5.67 1.5 1.5zm6.02 0c0 .83-.67 1.5-1.5 1.5s-1.5-.67-1.5-1.5.67-1.5 1.5-1.5 1.5.67 1.5 1.5zm6 0c0 .83-.66 1.5-1.5 1.5-.82 0-1.5-.67-1.5-1.5s.68-1.5 1.5-1.5c.84 0 1.5.67 1.5 1.5zm6 0c0 .83-.66 1.5-1.5 1.5-.8 0-1.5-.67-1.5-1.5s.7-1.5 1.5-1.5c.84 0 1.5.67 1.5 1.5zm6.02 0c0 .83-.67 1.5-1.5 1.5s-1.5-.67-1.5-1.5.67-1.5 1.5-1.5 1.5.67 1.5 1.5zm6 0c0 .83-.66 1.5-1.5 1.5-.82 0-1.5-.67-1.5-1.5s.68-1.5 1.5-1.5c.84 0 1.5.67 1.5 1.5zm6.02 0c0 .83-.68 1.5-1.5 1.5-.83 0-1.5-.67-1.5-1.5s.67-1.5 1.5-1.5c.82 0 1.5.67 1.5 1.5zm6 0c0 .83-.67 1.5-1.5 1.5s-1.5-.67-1.5-1.5.67-1.5 1.5-1.5 1.5.67 1.5 1.5zm6 0c0 .83-.66 1.5-1.5 1.5-.82 0-1.5-.67-1.5-1.5s.68-1.5 1.5-1.5c.84 0 1.5.67 1.5 1.5zm6.02 0c0 .83-.67 1.5-1.5 1.5s-1.5-.67-1.5-1.5.67-1.5 1.5-1.5 1.5.67 1.5 1.5zm6 0c0 .83-.67 1.5-1.5 1.5-.82 0-1.5-.67-1.5-1.5s.68-1.5 1.5-1.5c.83 0 1.5.67 1.5 1.5zm6 0c0 .83-.66 1.5-1.5 1.5-.82 0-1.5-.67-1.5-1.5s.68-1.5 1.5-1.5c.84 0 1.5.67 1.5 1.5zm6.02 0c0 .83-.67 1.5-1.5 1.5s-1.5-.67-1.5-1.5.67-1.5 1.5-1.5 1.5.67 1.5 1.5zm6 0c0 .83-.66 1.5-1.5 1.5-.82 0-1.5-.67-1.5-1.5s.68-1.5 1.5-1.5c.84 0 1.5.67 1.5 1.5zm6 0c0 .83-.66 1.5-1.5 1.5-.82 0-1.5-.67-1.5-1.5s.68-1.5 1.5-1.5c.84 0 1.5.67 1.5 1.5zm6.02 0c0 .83-.67 1.5-1.5 1.5s-1.5-.67-1.5-1.5.67-1.5 1.5-1.5 1.5.67 1.5 1.5zm6 0c0 .83-.66 1.5-1.5 1.5-.82 0-1.5-.67-1.5-1.5s.68-1.5 1.5-1.5c.84 0 1.5.67 1.5 1.5zm6.02 0c0 .83-.68 1.5-1.5 1.5-.83 0-1.5-.67-1.5-1.5s.67-1.5 1.5-1.5c.82 0 1.5.67 1.5 1.5zm6 0c0 .83-.67 1.5-1.5 1.5s-1.5-.67-1.5-1.5.67-1.5 1.5-1.5 1.5.67 1.5 1.5zm6 0c0 .83-.66 1.5-1.5 1.5-.82 0-1.5-.67-1.5-1.5s.68-1.5 1.5-1.5c.84 0 1.5.67 1.5 1.5zm6.02 0c0 .83-.67 1.5-1.5 1.5s-1.5-.67-1.5-1.5.67-1.5 1.5-1.5 1.5.67 1.5 1.5zm6 0c0 .83-.67 1.5-1.5 1.5-.82 0-1.5-.67-1.5-1.5s.68-1.5 1.5-1.5c.83 0 1.5.67 1.5 1.5zm6 0c0 .83-.66 1.5-1.5 1.5-.82 0-1.5-.67-1.5-1.5s.68-1.5 1.5-1.5c.84 0 1.5.67 1.5 1.5zm6.02 0c0 .83-.67 1.5-1.5 1.5s-1.5-.67-1.5-1.5.67-1.5 1.5-1.5 1.5.67 1.5 1.5zm6 0c0 .83-.67 1.5-1.5 1.5-.82 0-1.5-.67-1.5-1.5s.68-1.5 1.5-1.5c.83 0 1.5.67 1.5 1.5zm6 0c0 .83-.66 1.5-1.5 1.5-.82 0-1.5-.67-1.5-1.5s.68-1.5 1.5-1.5c.84 0 1.5.67 1.5 1.5zm6.02 0c0 .83-.67 1.5-1.5 1.5s-1.5-.67-1.5-1.5.67-1.5 1.5-1.5 1.5.67 1.5 1.5zm6 0c0 .83-.66 1.5-1.5 1.5-.82 0-1.5-.67-1.5-1.5s.68-1.5 1.5-1.5c.84 0 1.5.67 1.5 1.5zm6 0c0 .83-.66 1.5-1.5 1.5-.8 0-1.5-.67-1.5-1.5s.7-1.5 1.5-1.5c.84 0 1.5.67 1.5 1.5zm6.02 0c0 .83-.67 1.5-1.5 1.5s-1.5-.67-1.5-1.5.67-1.5 1.5-1.5 1.5.67 1.5 1.5zm6 0c0 .83-.66 1.5-1.5 1.5-.82 0-1.5-.67-1.5-1.5s.68-1.5 1.5-1.5c.84 0 1.5.67 1.5 1.5zm6.02 0c0 .83-.67 1.5-1.5 1.5s-1.5-.67-1.5-1.5.67-1.5 1.5-1.5 1.5.67 1.5 1.5zm5.65 2.34c0 .83-.67 1.5-1.5 1.5s-1.5-.67-1.5-1.5c0-.82.67-1.5 1.5-1.5s1.5.68 1.5 1.5zM1043 268c0 .83-.67 1.5-1.5 1.5s-1.5-.67-1.5-1.5.67-1.5 1.5-1.5 1.5.67 1.5 1.5zm0 6.05c0 .83-.67 1.5-1.5 1.5s-1.5-.67-1.5-1.5c0-.82.67-1.5 1.5-1.5s1.5.68 1.5 1.5zm0 6.06c0 .84-.67 1.5-1.5 1.5s-1.5-.66-1.5-1.5c0-.82.67-1.5 1.5-1.5s1.5.68 1.5 1.5zm0 6.06c0 .83-.67 1.5-1.5 1.5s-1.5-.67-1.5-1.5.67-1.5 1.5-1.5 1.5.67 1.5 1.5zm0 6.06c0 .82-.67 1.5-1.5 1.5s-1.5-.68-1.5-1.5c0-.83.67-1.5 1.5-1.5s1.5.67 1.5 1.5zm0 6.05c0 .83-.67 1.5-1.5 1.5s-1.5-.67-1.5-1.5.67-1.5 1.5-1.5 1.5.67 1.5 1.5zm0 6.05c0 .83-.67 1.5-1.5 1.5s-1.5-.67-1.5-1.5c0-.82.67-1.5 1.5-1.5s1.5.68 1.5 1.5zm0 6.06c0 .83-.67 1.5-1.5 1.5s-1.5-.67-1.5-1.5.67-1.5 1.5-1.5 1.5.67 1.5 1.5zm0 6.05c0 .83-.67 1.5-1.5 1.5s-1.5-.67-1.5-1.5.67-1.5 1.5-1.5 1.5.67 1.5 1.5zm0 6.06c0 .8-.67 1.5-1.5 1.5s-1.5-.7-1.5-1.5c0-.84.67-1.5 1.5-1.5s1.5.66 1.5 1.5zm0 6.04c0 .83-.67 1.5-1.5 1.5s-1.5-.67-1.5-1.5.67-1.5 1.5-1.5 1.5.67 1.5 1.5zm0 6.06c0 .82-.67 1.5-1.5 1.5s-1.5-.68-1.5-1.5c0-.83.67-1.5 1.5-1.5s1.5.67 1.5 1.5zm0 6.05c0 .83-.67 1.5-1.5 1.5s-1.5-.67-1.5-1.5.67-1.5 1.5-1.5 1.5.67 1.5 1.5zm0 6.05c0 .83-.67 1.5-1.5 1.5s-1.5-.67-1.5-1.5.67-1.5 1.5-1.5 1.5.67 1.5 1.5zm0 6.06c0 .82-.67 1.5-1.5 1.5s-1.5-.68-1.5-1.5c0-.83.67-1.5 1.5-1.5s1.5.67 1.5 1.5zm0 6.05c0 .84-.67 1.5-1.5 1.5s-1.5-.66-1.5-1.5c0-.82.67-1.5 1.5-1.5s1.5.68 1.5 1.5zm0 6.06c0 .83-.67 1.5-1.5 1.5s-1.5-.67-1.5-1.5c0-.82.67-1.5 1.5-1.5s1.5.68 1.5 1.5zm0 6.06c0 .83-.67 1.5-1.5 1.5s-1.5-.67-1.5-1.5.67-1.5 1.5-1.5 1.5.67 1.5 1.5zm0 6.05c0 .83-.67 1.5-1.5 1.5s-1.5-.67-1.5-1.5.67-1.5 1.5-1.5 1.5.67 1.5 1.5zm0 6.06c0 .83-.67 1.5-1.5 1.5s-1.5-.67-1.5-1.5.67-1.5 1.5-1.5 1.5.67 1.5 1.5zm0 6.05c0 .83-.67 1.5-1.5 1.5s-1.5-.67-1.5-1.5.67-1.5 1.5-1.5 1.5.67 1.5 1.5zm0 6.06c0 .82-.67 1.5-1.5 1.5s-1.5-.68-1.5-1.5c0-.83.67-1.5 1.5-1.5s1.5.67 1.5 1.5zm0 6.05c0 .82-.67 1.5-1.5 1.5s-1.5-.68-1.5-1.5c0-.84.67-1.5 1.5-1.5s1.5.66 1.5 1.5zm0 6.04c0 .83-.67 1.5-1.5 1.5s-1.5-.67-1.5-1.5c0-.82.67-1.5 1.5-1.5s1.5.68 1.5 1.5zm0 6.06c0 .83-.67 1.5-1.5 1.5s-1.5-.67-1.5-1.5.67-1.5 1.5-1.5 1.5.67 1.5 1.5zm0 6.05c0 .83-.67 1.5-1.5 1.5s-1.5-.67-1.5-1.5.67-1.5 1.5-1.5 1.5.67 1.5 1.5zm0 6.05c0 .83-.67 1.5-1.5 1.5s-1.5-.67-1.5-1.5c0-.82.67-1.5 1.5-1.5s1.5.68 1.5 1.5zm0 6.06c0 .83-.67 1.5-1.5 1.5s-1.5-.67-1.5-1.5.67-1.5 1.5-1.5 1.5.67 1.5 1.5zm0 6.05c0 .84-.67 1.5-1.5 1.5s-1.5-.66-1.5-1.5c0-.8.67-1.5 1.5-1.5s1.5.7 1.5 1.5zm0 6.07c0 .83-.67 1.5-1.5 1.5s-1.5-.67-1.5-1.5.67-1.5 1.5-1.5 1.5.67 1.5 1.5zm0 6.05c0 .83-.67 1.5-1.5 1.5s-1.5-.67-1.5-1.5.67-1.5 1.5-1.5 1.5.67 1.5 1.5zm0 6.06c0 .82-.67 1.5-1.5 1.5s-1.5-.68-1.5-1.5c0-.83.67-1.5 1.5-1.5s1.5.67 1.5 1.5zm0 6.05c0 .83-.67 1.5-1.5 1.5s-1.5-.67-1.5-1.5.67-1.5 1.5-1.5 1.5.67 1.5 1.5zm0 6.05c0 .83-.67 1.5-1.5 1.5s-1.5-.67-1.5-1.5c0-.82.67-1.5 1.5-1.5s1.5.68 1.5 1.5zm0 6.06c0 .83-.67 1.5-1.5 1.5s-1.5-.67-1.5-1.5.67-1.5 1.5-1.5 1.5.67 1.5 1.5zm0 6.05c0 .82-.67 1.5-1.5 1.5s-1.5-.68-1.5-1.5c0-.84.67-1.5 1.5-1.5s1.5.66 1.5 1.5zm0 6.05c0 .82-.67 1.5-1.5 1.5s-1.5-.68-1.5-1.5c0-.83.67-1.5 1.5-1.5s1.5.67 1.5 1.5zm0 6.05c0 .83-.67 1.5-1.5 1.5s-1.5-.67-1.5-1.5.67-1.5 1.5-1.5 1.5.67 1.5 1.5zm-2.35 5.66c0 .82-.67 1.5-1.5 1.5s-1.5-.68-1.5-1.5c0-.83.67-1.5 1.5-1.5s1.5.67 1.5 1.5zM1035 500c0 .83-.67 1.5-1.5 1.5s-1.5-.67-1.5-1.5.67-1.5 1.5-1.5 1.5.67 1.5 1.5zm-6 0c0 .83-.68 1.5-1.5 1.5-.84 0-1.5-.67-1.5-1.5s.66-1.5 1.5-1.5c.82 0 1.5.67 1.5 1.5zm-6.02 0c0 .83-.67 1.5-1.5 1.5s-1.5-.67-1.5-1.5.67-1.5 1.5-1.5 1.5.67 1.5 1.5zm-6 0c0 .83-.68 1.5-1.5 1.5-.83 0-1.5-.67-1.5-1.5s.67-1.5 1.5-1.5c.82 0 1.5.67 1.5 1.5zm-6 0c0 .83-.68 1.5-1.5 1.5-.84 0-1.5-.67-1.5-1.5s.66-1.5 1.5-1.5c.82 0 1.5.67 1.5 1.5zm-6.02 0c0 .83-.67 1.5-1.5 1.5s-1.5-.67-1.5-1.5.67-1.5 1.5-1.5 1.5.67 1.5 1.5zm-6 0c0 .83-.68 1.5-1.5 1.5-.84 0-1.5-.67-1.5-1.5s.66-1.5 1.5-1.5c.82 0 1.5.67 1.5 1.5zm-6 0c0 .83-.7 1.5-1.5 1.5-.84 0-1.5-.67-1.5-1.5s.66-1.5 1.5-1.5c.8 0 1.5.67 1.5 1.5zm-6.02 0c0 .83-.67 1.5-1.5 1.5s-1.5-.67-1.5-1.5.67-1.5 1.5-1.5 1.5.67 1.5 1.5zm-6 0c0 .83-.68 1.5-1.5 1.5-.84 0-1.5-.67-1.5-1.5s.66-1.5 1.5-1.5c.82 0 1.5.67 1.5 1.5zm-6.02 0c0 .83-.67 1.5-1.5 1.5-.82 0-1.5-.67-1.5-1.5s.68-1.5 1.5-1.5c.83 0 1.5.67 1.5 1.5zm-6 0c0 .83-.67 1.5-1.5 1.5s-1.5-.67-1.5-1.5.67-1.5 1.5-1.5 1.5.67 1.5 1.5zm-6 0c0 .83-.68 1.5-1.5 1.5-.84 0-1.5-.67-1.5-1.5s.66-1.5 1.5-1.5c.82 0 1.5.67 1.5 1.5zm-6.02 0c0 .83-.67 1.5-1.5 1.5s-1.5-.67-1.5-1.5.67-1.5 1.5-1.5 1.5.67 1.5 1.5zm-6 0c0 .83-.68 1.5-1.5 1.5-.83 0-1.5-.67-1.5-1.5s.67-1.5 1.5-1.5c.82 0 1.5.67 1.5 1.5zm-6 0c0 .83-.68 1.5-1.5 1.5-.84 0-1.5-.67-1.5-1.5s.66-1.5 1.5-1.5c.82 0 1.5.67 1.5 1.5zm-6.02 0c0 .83-.67 1.5-1.5 1.5s-1.5-.67-1.5-1.5.67-1.5 1.5-1.5 1.5.67 1.5 1.5zm-6 0c0 .83-.68 1.5-1.5 1.5-.84 0-1.5-.67-1.5-1.5s.66-1.5 1.5-1.5c.82 0 1.5.67 1.5 1.5zm-6 0c0 .83-.68 1.5-1.5 1.5-.84 0-1.5-.67-1.5-1.5s.66-1.5 1.5-1.5c.82 0 1.5.67 1.5 1.5zm-6.02 0c0 .83-.67 1.5-1.5 1.5s-1.5-.67-1.5-1.5.67-1.5 1.5-1.5 1.5.67 1.5 1.5zm-6 0c0 .83-.68 1.5-1.5 1.5-.84 0-1.5-.67-1.5-1.5s.66-1.5 1.5-1.5c.82 0 1.5.67 1.5 1.5zm-6 0c0 .83-.7 1.5-1.5 1.5-.84 0-1.5-.67-1.5-1.5s.66-1.5 1.5-1.5c.8 0 1.5.67 1.5 1.5zm-6.02 0c0 .83-.67 1.5-1.5 1.5s-1.5-.67-1.5-1.5.67-1.5 1.5-1.5 1.5.67 1.5 1.5zm-6 0c0 .83-.68 1.5-1.5 1.5-.84 0-1.5-.67-1.5-1.5s.66-1.5 1.5-1.5c.82 0 1.5.67 1.5 1.5zm-6.02 0c0 .83-.67 1.5-1.5 1.5s-1.5-.67-1.5-1.5.67-1.5 1.5-1.5 1.5.67 1.5 1.5zm-6 0c0 .83-.68 1.5-1.5 1.5-.83 0-1.5-.67-1.5-1.5s.67-1.5 1.5-1.5c.82 0 1.5.67 1.5 1.5zm-6 0c0 .83-.68 1.5-1.5 1.5-.84 0-1.5-.67-1.5-1.5s.66-1.5 1.5-1.5c.82 0 1.5.67 1.5 1.5zm-6.02 0c0 .83-.67 1.5-1.5 1.5s-1.5-.67-1.5-1.5.67-1.5 1.5-1.5 1.5.67 1.5 1.5zm-6 0c0 .83-.68 1.5-1.5 1.5-.83 0-1.5-.67-1.5-1.5s.67-1.5 1.5-1.5c.82 0 1.5.67 1.5 1.5zm-6 0c0 .83-.68 1.5-1.5 1.5-.84 0-1.5-.67-1.5-1.5s.66-1.5 1.5-1.5c.82 0 1.5.67 1.5 1.5zm-6.02 0c0 .83-.67 1.5-1.5 1.5s-1.5-.67-1.5-1.5.67-1.5 1.5-1.5 1.5.67 1.5 1.5zm-6 0c0 .83-.68 1.5-1.5 1.5-.84 0-1.5-.67-1.5-1.5s.66-1.5 1.5-1.5c.82 0 1.5.67 1.5 1.5zm-6 0c0 .83-.7 1.5-1.5 1.5-.84 0-1.5-.67-1.5-1.5s.66-1.5 1.5-1.5c.8 0 1.5.67 1.5 1.5zm-6.02 0c0 .83-.67 1.5-1.5 1.5s-1.5-.67-1.5-1.5.67-1.5 1.5-1.5 1.5.67 1.5 1.5zm-6 0c0 .83-.68 1.5-1.5 1.5-.84 0-1.5-.67-1.5-1.5s.66-1.5 1.5-1.5c.82 0 1.5.67 1.5 1.5zm-6.02 0c0 .83-.67 1.5-1.5 1.5s-1.5-.67-1.5-1.5.67-1.5 1.5-1.5 1.5.67 1.5 1.5zm-6 0c0 .83-.67 1.5-1.5 1.5s-1.5-.67-1.5-1.5.67-1.5 1.5-1.5 1.5.67 1.5 1.5zm-6 0c0 .83-.68 1.5-1.5 1.5-.84 0-1.5-.67-1.5-1.5s.66-1.5 1.5-1.5c.82 0 1.5.67 1.5 1.5zm-6.02 0c0 .83-.67 1.5-1.5 1.5s-1.5-.67-1.5-1.5.67-1.5 1.5-1.5 1.5.67 1.5 1.5zm-6 0c0 .83-.68 1.5-1.5 1.5-.83 0-1.5-.67-1.5-1.5s.67-1.5 1.5-1.5c.82 0 1.5.67 1.5 1.5zm-6 0c0 .83-.68 1.5-1.5 1.5-.84 0-1.5-.67-1.5-1.5s.66-1.5 1.5-1.5c.82 0 1.5.67 1.5 1.5zm-6.02 0c0 .83-.67 1.5-1.5 1.5s-1.5-.67-1.5-1.5.67-1.5 1.5-1.5 1.5.67 1.5 1.5zm-6 0c0 .83-.68 1.5-1.5 1.5-.84 0-1.5-.67-1.5-1.5s.66-1.5 1.5-1.5c.82 0 1.5.67 1.5 1.5zm-6.02 0c0 .83-.67 1.5-1.5 1.5-.82 0-1.5-.67-1.5-1.5s.68-1.5 1.5-1.5c.83 0 1.5.67 1.5 1.5zm-6 0c0 .83-.67 1.5-1.5 1.5s-1.5-.67-1.5-1.5.67-1.5 1.5-1.5 1.5.67 1.5 1.5zm-6 0c0 .83-.68 1.5-1.5 1.5-.84 0-1.5-.67-1.5-1.5s.66-1.5 1.5-1.5c.82 0 1.5.67 1.5 1.5zm-6.02 0c0 .83-.67 1.5-1.5 1.5-.82 0-1.5-.67-1.5-1.5s.68-1.5 1.5-1.5c.83 0 1.5.67 1.5 1.5zm-6 0c0 .83-.67 1.5-1.5 1.5s-1.5-.67-1.5-1.5.67-1.5 1.5-1.5 1.5.67 1.5 1.5zm-6 0c0 .83-.68 1.5-1.5 1.5-.84 0-1.5-.67-1.5-1.5s.66-1.5 1.5-1.5c.82 0 1.5.67 1.5 1.5zm-6.02 0c0 .83-.67 1.5-1.5 1.5s-1.5-.67-1.5-1.5.67-1.5 1.5-1.5 1.5.67 1.5 1.5zm-6 0c0 .83-.68 1.5-1.5 1.5-.83 0-1.5-.67-1.5-1.5s.67-1.5 1.5-1.5c.82 0 1.5.67 1.5 1.5zm-6 0c0 .83-.68 1.5-1.5 1.5-.84 0-1.5-.67-1.5-1.5s.66-1.5 1.5-1.5c.82 0 1.5.67 1.5 1.5zm-6.02 0c0 .83-.67 1.5-1.5 1.5s-1.5-.67-1.5-1.5.67-1.5 1.5-1.5 1.5.67 1.5 1.5zm-6 0c0 .83-.68 1.5-1.5 1.5-.84 0-1.5-.67-1.5-1.5s.66-1.5 1.5-1.5c.82 0 1.5.67 1.5 1.5zm-6 0c0 .83-.7 1.5-1.5 1.5-.84 0-1.5-.67-1.5-1.5s.66-1.5 1.5-1.5c.8 0 1.5.67 1.5 1.5zm-6.02 0c0 .83-.67 1.5-1.5 1.5s-1.5-.67-1.5-1.5.67-1.5 1.5-1.5 1.5.67 1.5 1.5zm-6 0c0 .83-.68 1.5-1.5 1.5-.84 0-1.5-.67-1.5-1.5s.66-1.5 1.5-1.5c.82 0 1.5.67 1.5 1.5zm-6.02 0c0 .83-.67 1.5-1.5 1.5s-1.5-.67-1.5-1.5.67-1.5 1.5-1.5 1.5.67 1.5 1.5zm-6 0c0 .83-.68 1.5-1.5 1.5-.83 0-1.5-.67-1.5-1.5s.67-1.5 1.5-1.5c.82 0 1.5.67 1.5 1.5zm-6 0c0 .83-.68 1.5-1.5 1.5-.84 0-1.5-.67-1.5-1.5s.66-1.5 1.5-1.5c.82 0 1.5.67 1.5 1.5zm-6.02 0c0 .83-.67 1.5-1.5 1.5s-1.5-.67-1.5-1.5.67-1.5 1.5-1.5 1.5.67 1.5 1.5zm-6 0c0 .83-.68 1.5-1.5 1.5-.83 0-1.5-.67-1.5-1.5s.67-1.5 1.5-1.5c.82 0 1.5.67 1.5 1.5zm-6 0c0 .83-.68 1.5-1.5 1.5-.84 0-1.5-.67-1.5-1.5s.66-1.5 1.5-1.5c.82 0 1.5.67 1.5 1.5zm-6.02 0c0 .83-.67 1.5-1.5 1.5s-1.5-.67-1.5-1.5.67-1.5 1.5-1.5 1.5.67 1.5 1.5zm-6 0c0 .83-.68 1.5-1.5 1.5-.83 0-1.5-.67-1.5-1.5s.67-1.5 1.5-1.5c.82 0 1.5.67 1.5 1.5zm-6 0c0 .83-.7 1.5-1.5 1.5-.84 0-1.5-.67-1.5-1.5s.66-1.5 1.5-1.5c.8 0 1.5.67 1.5 1.5zm-6.02 0c0 .83-.67 1.5-1.5 1.5s-1.5-.67-1.5-1.5.67-1.5 1.5-1.5 1.5.67 1.5 1.5zm-6 0c0 .83-.68 1.5-1.5 1.5-.84 0-1.5-.67-1.5-1.5s.66-1.5 1.5-1.5c.82 0 1.5.67 1.5 1.5zm-6.02 0c0 .83-.67 1.5-1.5 1.5-.82 0-1.5-.67-1.5-1.5s.68-1.5 1.5-1.5c.83 0 1.5.67 1.5 1.5zm-6 0c0 .83-.67 1.5-1.5 1.5s-1.5-.67-1.5-1.5.67-1.5 1.5-1.5 1.5.67 1.5 1.5zm-5.66-2.34c0 .82-.67 1.5-1.5 1.5s-1.5-.68-1.5-1.5c0-.83.67-1.5 1.5-1.5s1.5.67 1.5 1.5zM612.5 492c0 .83-.67 1.5-1.5 1.5s-1.5-.67-1.5-1.5.67-1.5 1.5-1.5 1.5.67 1.5 1.5zm0-6.05c0 .82-.67 1.5-1.5 1.5s-1.5-.68-1.5-1.5c0-.83.67-1.5 1.5-1.5s1.5.67 1.5 1.5zm0-6.06c0 .82-.67 1.5-1.5 1.5s-1.5-.68-1.5-1.5c0-.84.67-1.5 1.5-1.5s1.5.66 1.5 1.5zm0-6.06c0 .83-.67 1.5-1.5 1.5s-1.5-.67-1.5-1.5.67-1.5 1.5-1.5 1.5.67 1.5 1.5zm0-6.06c0 .83-.67 1.5-1.5 1.5s-1.5-.67-1.5-1.5c0-.82.67-1.5 1.5-1.5s1.5.68 1.5 1.5zm0-6.05c0 .83-.67 1.5-1.5 1.5s-1.5-.67-1.5-1.5.67-1.5 1.5-1.5 1.5.67 1.5 1.5zm0-6.05c0 .82-.67 1.5-1.5 1.5s-1.5-.68-1.5-1.5c0-.83.67-1.5 1.5-1.5s1.5.67 1.5 1.5zm0-6.06c0 .83-.67 1.5-1.5 1.5s-1.5-.67-1.5-1.5.67-1.5 1.5-1.5 1.5.67 1.5 1.5zm0-6.05c0 .83-.67 1.5-1.5 1.5s-1.5-.67-1.5-1.5.67-1.5 1.5-1.5 1.5.67 1.5 1.5zm0-6.06c0 .84-.67 1.5-1.5 1.5s-1.5-.66-1.5-1.5c0-.8.67-1.5 1.5-1.5s1.5.7 1.5 1.5zm0-6.04c0 .83-.67 1.5-1.5 1.5s-1.5-.67-1.5-1.5.67-1.5 1.5-1.5 1.5.67 1.5 1.5zm0-6.06c0 .83-.67 1.5-1.5 1.5s-1.5-.67-1.5-1.5c0-.82.67-1.5 1.5-1.5s1.5.68 1.5 1.5zm0-6.05c0 .83-.67 1.5-1.5 1.5s-1.5-.67-1.5-1.5.67-1.5 1.5-1.5 1.5.67 1.5 1.5zm0-6.05c0 .83-.67 1.5-1.5 1.5s-1.5-.67-1.5-1.5.67-1.5 1.5-1.5 1.5.67 1.5 1.5zm0-6.06c0 .83-.67 1.5-1.5 1.5s-1.5-.67-1.5-1.5c0-.82.67-1.5 1.5-1.5s1.5.68 1.5 1.5zm0-6.05c0 .82-.67 1.5-1.5 1.5s-1.5-.68-1.5-1.5c0-.84.67-1.5 1.5-1.5s1.5.66 1.5 1.5zm0-6.06c0 .82-.67 1.5-1.5 1.5s-1.5-.68-1.5-1.5c0-.83.67-1.5 1.5-1.5s1.5.67 1.5 1.5zm0-6.06c0 .83-.67 1.5-1.5 1.5s-1.5-.67-1.5-1.5.67-1.5 1.5-1.5 1.5.67 1.5 1.5zm0-6.05c0 .83-.67 1.5-1.5 1.5s-1.5-.67-1.5-1.5.67-1.5 1.5-1.5 1.5.67 1.5 1.5zm0-6.06c0 .83-.67 1.5-1.5 1.5s-1.5-.67-1.5-1.5.67-1.5 1.5-1.5 1.5.67 1.5 1.5zm0-6.05c0 .83-.67 1.5-1.5 1.5s-1.5-.67-1.5-1.5.67-1.5 1.5-1.5 1.5.67 1.5 1.5zm0-6.06c0 .83-.67 1.5-1.5 1.5s-1.5-.67-1.5-1.5c0-.82.67-1.5 1.5-1.5s1.5.68 1.5 1.5zm0-6.05c0 .84-.67 1.5-1.5 1.5s-1.5-.66-1.5-1.5c0-.82.67-1.5 1.5-1.5s1.5.68 1.5 1.5zm0-6.04c0 .82-.67 1.5-1.5 1.5s-1.5-.68-1.5-1.5c0-.83.67-1.5 1.5-1.5s1.5.67 1.5 1.5zm0-6.06c0 .83-.67 1.5-1.5 1.5s-1.5-.67-1.5-1.5.67-1.5 1.5-1.5 1.5.67 1.5 1.5zm0-6.05c0 .83-.67 1.5-1.5 1.5s-1.5-.67-1.5-1.5.67-1.5 1.5-1.5 1.5.67 1.5 1.5zm0-6.05c0 .82-.67 1.5-1.5 1.5s-1.5-.68-1.5-1.5c0-.83.67-1.5 1.5-1.5s1.5.67 1.5 1.5zm0-6.06c0 .83-.67 1.5-1.5 1.5s-1.5-.67-1.5-1.5.67-1.5 1.5-1.5 1.5.67 1.5 1.5zm0-6.05c0 .8-.67 1.5-1.5 1.5s-1.5-.7-1.5-1.5c0-.84.67-1.5 1.5-1.5s1.5.66 1.5 1.5zm0-6.07c0 .83-.67 1.5-1.5 1.5s-1.5-.67-1.5-1.5.67-1.5 1.5-1.5 1.5.67 1.5 1.5zm0-6.05c0 .83-.67 1.5-1.5 1.5s-1.5-.67-1.5-1.5.67-1.5 1.5-1.5 1.5.67 1.5 1.5zm0-6.06c0 .83-.67 1.5-1.5 1.5s-1.5-.67-1.5-1.5c0-.82.67-1.5 1.5-1.5s1.5.68 1.5 1.5zm0-6.05c0 .83-.67 1.5-1.5 1.5s-1.5-.67-1.5-1.5.67-1.5 1.5-1.5 1.5.67 1.5 1.5zm0-6.05c0 .82-.67 1.5-1.5 1.5s-1.5-.68-1.5-1.5c0-.83.67-1.5 1.5-1.5s1.5.67 1.5 1.5zm0-6.06c0 .83-.67 1.5-1.5 1.5s-1.5-.67-1.5-1.5.67-1.5 1.5-1.5 1.5.67 1.5 1.5zm0-6.05c0 .84-.67 1.5-1.5 1.5s-1.5-.66-1.5-1.5c0-.82.67-1.5 1.5-1.5s1.5.68 1.5 1.5zm0-6.05c0 .83-.67 1.5-1.5 1.5s-1.5-.67-1.5-1.5c0-.82.67-1.5 1.5-1.5s1.5.68 1.5 1.5zm0-6.05c0 .83-.67 1.5-1.5 1.5s-1.5-.67-1.5-1.5.67-1.5 1.5-1.5 1.5.67 1.5 1.5z" fill="#333"/><path d="M440 517.05a8 8 0 0 1 8-8h275a8 8 0 0 1 8 8v113.4a8 8 0 0 1-8 8H448a8 8 0 0 1-8-8z" stroke="#000" stroke-opacity="0" stroke-width="10" fill="#fff" fill-opacity="0"/><use xlink:href="#b" transform="matrix(1,0,0,1,445,514.0501469345926) translate(36.091500946969774 27.645833333333318)"/><use xlink:href="#c" transform="matrix(1,0,0,1,445,514.0501469345926) translate(136.17720170454544 27.645833333333318)"/><use xlink:href="#d" transform="matrix(1,0,0,1,445,514.0501469345926) translate(193.9371448863636 27.645833333333318)"/><use xlink:href="#e" transform="matrix(1,0,0,1,445,514.0501469345926) translate(230.59552556818176 27.645833333333318)"/><use xlink:href="#f" transform="matrix(1,0,0,1,445,514.0501469345926) translate(42.56912878787885 57.49810606060602)"/><use xlink:href="#g" transform="matrix(1,0,0,1,445,514.0501469345926) translate(184.55137310606057 57.49810606060602)"/><use xlink:href="#h" transform="matrix(1,0,0,1,445,514.0501469345926) translate(20.451467803030383 87.35037878787873)"/><use xlink:href="#i" transform="matrix(1,0,0,1,445,514.0501469345926) translate(111.24337121212122 87.35037878787873)"/><use xlink:href="#j" transform="matrix(1,0,0,1,445,514.0501469345926) translate(141.68252840909088 87.35037878787873)"/><use xlink:href="#k" transform="matrix(1,0,0,1,445,514.0501469345926) translate(205.53906249999994 87.35037878787873)"/><use xlink:href="#l" transform="matrix(1,0,0,1,445,514.0501469345926) translate(113.56025094696972 117.20265151515143)"/><path d="M440 923.5a8 8 0 0 1 8-8h224a8 8 0 0 1 8 8v58.25a8 8 0 0 1-8 8H448a8 8 0 0 1-8-8z" stroke="#000" stroke-opacity="0" stroke-width="10" fill="#fff" fill-opacity="0"/><use xlink:href="#m" transform="matrix(1,0,0,1,445,920.4975683728687) translate(8.046875000000227 25.927083333333282)"/><use xlink:href="#n" transform="matrix(1,0,0,1,445,920.4975683728687) translate(62.11032196969708 25.927083333333282)"/><use xlink:href="#o" transform="matrix(1,0,0,1,445,920.4975683728687) translate(166.9436553030302 25.927083333333282)"/><use xlink:href="#p" transform="matrix(1,0,0,1,445,920.4975683728687) translate(58.768584280303145 55.77935606060595)"/><path d="M600.5 268a8 8 0 0 1 8-8h425a8 8 0 0 1 8 8v113.68a8 8 0 0 1-8 8h-425a8 8 0 0 1-8-8z" stroke="#000" stroke-opacity="0" stroke-width="10" fill="#fff" fill-opacity="0"/><use xlink:href="#b" transform="matrix(1,0,0,1,605.4969632279276,265) translate(34.62133049242436 38.895833333333314)"/><use xlink:href="#q" transform="matrix(1,0,0,1,605.4969632279276,265) translate(134.70703125000006 38.895833333333314)"/><use xlink:href="#r" transform="matrix(1,0,0,1,605.4969632279276,265) translate(304.5706676136363 38.895833333333314)"/><use xlink:href="#s" transform="matrix(1,0,0,1,605.4969632279276,265) translate(25.380089962121332 68.74810606060602)"/><use xlink:href="#t" transform="matrix(1,0,0,1,605.4969632279276,265) translate(181.61399147727278 68.74810606060602)"/><use xlink:href="#u" transform="matrix(1,0,0,1,605.4969632279276,265) translate(232.65542140151516 68.74810606060602)"/><use xlink:href="#v" transform="matrix(1,0,0,1,605.4969632279276,265) translate(315.633877840909 68.74810606060602)"/><use xlink:href="#w" transform="matrix(1,0,0,1,605.4969632279276,265) translate(383.572324810606 68.74810606060602)"/><use xlink:href="#x" transform="matrix(1,0,0,1,605.4969632279276,265) translate(117.16619318181826 98.60037878787873)"/><use xlink:href="#y" transform="matrix(1,0,0,1,605.4969632279276,265) translate(201.37097537878788 98.60037878787873)"/><path d="M828.75 441.72v-22.2c1.2-.56 2.1-1.4 2.7-2.6 1.4-2.8.2-6.26-2.7-7.62-2.9-1.4-6.3-.2-7.7 2.6-1.4 2.83-.2 6.28 2.6 7.63v22.14h-21.6v-14.1c1.9-1.04 3.1-2.87 3.1-5.06 0-3.18-2.6-5.73-5.8-5.68-2.2 0-4.1 1.1-5.1 3.03-1.5 2.8-.4 6.26 2.4 7.72v14.15h-1.1c-10.7-.05-19.3-8.62-19.3-19.2 0-10.56 8.8-19.06 19.5-19.06 2.5.05 4.6.4 6.9 1.3 6.2-13.05 22-18.74 35.2-12.63 5.8 2.66 10 6.68 12.7 12.42 2.1-.73 4-1 6.3-1.04 10.7 0 19.4 8.62 19.4 19.22s-8.7 19.15-19.4 19.15h-1.3v-14.3c1.1-.57 1.9-1.36 2.4-2.4 1.5-2.82.4-6.26-2.4-7.73-2.8-1.46-6.3-.36-7.8 2.4-1.5 2.83-.4 6.27 2.4 7.73v14.15z" stroke="#000" stroke-opacity="0" fill="#4285f4"/><path d="M802.05 456.5c4.78 1.1 7.98 5.2 7.83 10 0 5.7-4.7 10.36-10.5 10.4-5.83 0-10.53-4.65-10.53-10.36 0-4.8 3.13-8.83 7.9-10.03V441.7h5.08zm-2.68 15.03c2.83 0 5.07-2.25 5.07-5.04 0-2.75-2.24-5-5.07-5-2.84 0-5.08 2.25-5.08 5 0 2.77 2.23 5.03 5.07 5.03zm56.24-15.02c5.6 1.45 8.97 7.1 7.47 12.68-1.5 5.52-7.23 8.83-12.83 7.34-5.6-1.44-8.95-7.15-7.46-12.67.97-3.7 3.73-6.38 7.46-7.34v-14.78h5.37zm-2.67 15.03c2.3.1 4.25-1.2 5.07-3.3.9-2.65-.45-5.48-3.06-6.44-.52-.16-.97-.25-1.5-.3-2.75-.14-5.14 1.97-5.3 4.75-.13 2.74 2.03 5.14 4.8 5.28zm-24.1-2.16c5.6 1.4 9.03 6.96 7.6 12.48-1.4 5.52-7.07 8.88-12.67 7.54-5.6-1.4-9.03-7.02-7.6-12.54.96-3.8 3.72-6.53 7.6-7.5v-27.54h5.37zm-2.76 15.02c.67 0 1.27-.15 1.87-.4 2.6-1.05 3.88-3.97 2.83-6.52-1.12-2.6-4.03-3.8-6.64-2.73-2.6 1.05-3.88 3.98-2.76 6.52.82 1.88 2.6 3.03 4.7 2.98z" stroke="#000" stroke-opacity="0" fill="#669df6"/><path d="M791.25 409.68v32h70v-32z" stroke="#000" stroke-opacity="0" fill-opacity="0"/><path d="M941.74 864.2l26-26.03c2.37-2.33 4.7-2.33 7.04 0l.52.52c2.33 2.33 2.33 4.66 0 7.04l-26 26.02c-2.37 2.33-4.7 2.33-7.04 0l-.52-.52c-2.33-2.34-2.33-4.67 0-7.04z" stroke="#000" stroke-opacity="0" stroke-width=".71" fill="#198ab3"/><path d="M1020 823.56c0 17.7-14.35 32.06-32.04 32.06-17.7 0-32.04-14.36-32.04-32.06 0-17.7 14.35-32.06 32.04-32.06 17.7 0 32.04 14.36 32.04 32.06z" stroke="#000" stroke-opacity="0" fill="url(#z)"/><path d="M1013.04 823.02c0 13.92-11.27 25.2-25.16 25.2-13.9 0-25.16-11.28-25.16-25.2S974 797.8 987.88 797.8c13.9 0 25.16 11.3 25.16 25.22z" stroke="#000" stroke-opacity="0" fill="#fff"/><path d="M963.56 829.25s6.88-34.53 39.08-26.72c-9-6.67-20.8-6.58-29.72.26-8.52 6.1-12.12 16.32-9.36 26.45z" stroke="#000" stroke-opacity="0" fill="#c3f1ff"/><path d="M842.55 923a8 8 0 0 1 8-8h378.9a8 8 0 0 1 8 8v87a8 8 0 0 1-8 8h-378.9a8 8 0 0 1-8-8z" stroke="#000" stroke-opacity="0" stroke-width="10" fill="#fff" fill-opacity="0"/><g><use xlink:href="#A" transform="matrix(1,0,0,1,847.546753842209,919.9954657406079) translate(48.07824337121221 26.833333333333318)"/><use xlink:href="#B" transform="matrix(1,0,0,1,847.546753842209,919.9954657406079) translate(102.14169034090915 26.833333333333318)"/><use xlink:href="#t" transform="matrix(1,0,0,1,847.546753842209,919.9954657406079) translate(190.7437263257576 26.833333333333318)"/><use xlink:href="#C" transform="matrix(1,0,0,1,847.546753842209,919.9954657406079) translate(241.78515624999997 26.833333333333318)"/><use xlink:href="#D" transform="matrix(1,0,0,1,847.546753842209,919.9954657406079) translate(27.02485795454558 56.68560606060602)"/><use xlink:href="#E" transform="matrix(1,0,0,1,847.546753842209,919.9954657406079) translate(169.39251893939397 56.68560606060602)"/><use xlink:href="#F" transform="matrix(1,0,0,1,847.546753842209,919.9954657406079) translate(241.97348484848482 56.68560606060602)"/><use xlink:href="#G" transform="matrix(1,0,0,1,847.546753842209,919.9954657406079) translate(312.65364583333326 56.68560606060602)"/><use xlink:href="#H" transform="matrix(1,0,0,1,847.546753842209,919.9954657406079) translate(135.29190340909093 86.53787878787873)"/><use xlink:href="#I" transform="matrix(1,0,0,1,847.546753842209,919.9954657406079) translate(208.3633996212121 86.53787878787873)"/></g><path d="M692.76 856.85c-4.27-.1-7.6.42-10.43 1.67-.8.34-2.06.34-2.2 1.42.46.5.46 1.26.86 1.84.62 1.18 1.8 2.77 2.83 3.6l3.4 2.6c2.13 1.42 4.42 2.26 6.47 3.6 1.2.83 2.37 1.92 3.56 2.76.63.5.95 1.26 1.74 1.5v-.16c-.4-.5-.48-1.26-.87-1.84l-1.58-1.68c-1.58-2.26-3.56-4.26-5.6-5.86-1.75-1.33-5.46-3-6.17-5.18l-.16-.1c1.18-.15 2.6-.57 3.7-1 1.83-.5 3.57-.33 5.38-.9l2.6-.77v-.58c-.94-1-1.65-2.43-2.67-3.35-2.77-2.6-5.77-5.1-8.85-7.2-1.66-1.1-3.87-1.92-5.6-2.84-.64-.34-1.75-.6-2.14-1.1-.95-1.33-1.5-3-2.14-4.5l-4.42-10.06c-.95-2.26-1.58-4.52-2.77-6.6-5.52-9.88-11.52-15.83-20.76-21.7-1.98-1.24-4.35-1.74-6.88-2.4l-4.02-.26c-.87-.34-1.74-1.5-2.45-2-3.1-2.1-11-6.63-13.28-.68-1.43 3.76 2.2 7.53 3.4 9.45.94 1.34 2.13 2.85 2.76 4.36.3.9.47 2 .87 3 .8 2.6 1.66 5.44 2.76 7.78.64 1.26 1.28 2.52 2 3.6.46.67 1.17.92 1.33 2-.7 1.18-.8 2.86-1.26 4.37-1.9 6.52-1.2 14.64 1.58 19.5.86 1.42 2.92 4.6 5.68 3.35 2.37-1 1.82-4.36 2.53-7.2.16-.76.08-1.17.4-1.68v.17l2.2 4.76c1.67 2.85 4.6 5.86 6.96 7.8 1.34 1.07 2.37 2.83 3.95 3.5v-.17h-.08c-.32-.5-.88-.76-1.27-1.18-.95-1.1-2.06-2.34-2.77-3.5-2.3-3.2-4.26-6.8-6.08-10.56-.8-1.76-1.58-3.77-2.3-5.52-.3-.76-.3-1.76-.86-2.1-.8 1.26-1.98 2.35-2.53 3.94-1.04 2.5-1.2 5.52-1.5 8.8-.25 0-.17 0-.25.07-1.74-.42-2.3-2.35-3-4.02-1.58-4.1-1.82-10.7-.47-15.48.4-1.17 2.05-5.02 1.34-6.2-.32-1.1-1.34-1.75-1.98-2.6-.7-1.08-1.42-2.5-1.9-3.67-1.33-3.27-1.97-6.87-3.3-10.13-.72-1.5-1.82-3.1-2.77-4.44-.95-1.58-2.14-2.67-2.93-4.5-.23-.68-.63-1.68-.23-2.44.16-.4.32-.58.8-.75.7-.57 2.68.18 3.4.6 1.97.84 3.63 1.67 5.3 2.84.78.6 1.57 1.68 2.5 2h1.12c1.74.43 3.7.1 5.3.68 2.84.92 5.44 2.43 7.74 3.94 7.03 4.85 12.87 11.7 16.74 19.83.63 1.33.95 2.6 1.5 3.93 1.2 2.84 2.53 5.77 3.64 8.53 1.18 2.77 2.2 5.53 3.87 7.8.8 1.24 4.04 1.83 5.46 2.5 1.1.5 2.76 1 3.7 1.6 1.83 1.24 3.64 2.58 5.38 3.92.87.76 3.56 2.18 3.72 3.35zm-54.83-50.4c-.7 0-1.42.1-2.13.34v.16h.08c.4.92 1.18 1.5 1.74 2.35l1.18 2.77.16-.1c.7-.57 1.1-1.5 1.1-2.92-.3-.4-.4-.83-.63-1.25-.3-.5-1.02-.84-1.5-1.26z" stroke="#000" stroke-opacity="0" stroke-width=".97" fill="#00678c"/><path d="M400 233a13 13 0 0 1 13-13h734a13 13 0 0 1 13 13v403.67a13 13 0 0 1-13 13H413a13 13 0 0 1-13-13z" fill-opacity="0"/><path d="M409.64 220.48l1.33-.32L413 220h3.95m15.78 0h7.9m15.78 0h7.9m15.8 0h7.88m15.78 0h7.9m15.78 0h7.9m15.78 0h7.9m15.78 0h7.9m15.77 0h7.9m15.78 0h7.9m15.78 0h7.9m15.77 0h7.9m15.78 0h7.9m15.78 0h7.9m15.78 0h7.9m15.77 0h7.9m15.8 0h7.88m15.8 0h7.88m15.8 0h7.88m15.78 0h7.9m15.78 0h7.9m15.78 0h7.9m15.78 0h7.9m15.77 0h7.9m15.78 0h7.9m15.8 0h7.88m15.8 0h7.88m15.78 0h7.9m15.78 0h7.9m15.78 0h7.9m15.78 0h7.9m15.77 0h3.95l2.03.16 1.33.32m9.16 9.16l.32 1.33.16 2.03v3.96m0 15.83v7.9m0 15.83v7.92m0 15.83v7.9m0 15.84v7.92m0 15.83v7.92m0 15.82v7.9m0 15.84v7.92m0 15.83v7.92m0 15.83v7.92m0 15.83v7.9m0 15.84v7.92m0 15.83v7.9m0 15.84v7.9m0 15.84v7.92m0 15.83v7.9m0 15.84v7.92m0 15.82v3.95l-.16 2.04-.32 1.33m-9.16 9.17l-1.33.3-2.03.17h-3.95m-15.78 0h-7.9m-15.78 0h-7.9m-15.8 0h-7.88m-15.78 0h-7.9m-15.78 0h-7.9m-15.78 0h-7.9m-15.78 0h-7.9m-15.77 0h-7.9m-15.78 0h-7.9m-15.78 0h-7.9m-15.77 0h-7.9m-15.78 0h-7.9m-15.78 0h-7.9m-15.78 0h-7.9m-15.77 0h-7.9m-15.8 0h-7.88m-15.8 0h-7.88m-15.8 0h-7.88m-15.78 0h-7.9m-15.78 0h-7.9m-15.78 0h-7.9m-15.78 0h-7.9m-15.77 0h-7.9m-15.78 0h-7.9m-15.8 0h-7.88m-15.8 0h-7.88m-15.78 0h-7.9m-15.78 0h-7.9m-15.78 0h-7.9m-15.78 0h-7.9m-15.77 0H413l-2.03-.15-1.33-.32m-9.16-9.17l-.32-1.32-.16-2.03v-3.95m0-15.83v-7.93m0-15.83v-7.9m0-15.84v-7.92m0-15.83v-7.9m0-15.85V514m0-15.84v-7.92m0-15.83v-7.9m0-15.83v-7.92m0-15.83v-7.9m0-15.84v-7.92m0-15.83v-7.9m0-15.84v-7.93m0-15.83v-7.92m0-15.83v-7.92m0-15.83v-7.92m0-15.83v-7.9m0-15.84V233l.16-2.03.32-1.33" stroke="#ff80df" stroke-width="4" fill="none"/><path d="M920 760.5a8 8 0 0 1 8-8h224a8 8 0 0 1 8 8v147a8 8 0 0 1-8 8H928a8 8 0 0 1-8-8z" stroke="#635dff" stroke-width="2" fill-opacity="0"/><path d="M1119.38 810.17c.4.33.62.8.62 1.3v52.02c0 2.02-1.77 3.64-4 3.64h-34.68v-3.64H1116l-.08-51.3v1.54h-16.22c-1.16 0-2.08-.8-2.08-1.87v-14.75h-30.53v42.4h-4.1v-42.4c0-2.02 1.86-3.64 4.1-3.64h33.2c.55 0 1.1.16 1.47.57zm-41.06 47.1c.92.4 1.38 1.36 1.07 2.25l-3 8.2c-.3.88-1.3 1.37-2.3 1.2l-4.86-.9-.6.42-.63 4.45c-.07.9-1 1.62-2 1.62h-9.53c-1 0-1.84-.73-2-1.63l-.53-4.46-.62-.4-4.84.88c-1.08.17-2-.4-2.4-1.3l-2.9-8.18c-.32-.9.14-1.78 1.07-2.2l4.54-1.93.22-.56-2.4-3.97c-.53-.8-.3-1.78.55-2.35l7.7-5.02c.84-.57 2-.5 2.68.24l3.4 3.24h.75l3.3-3.24c.7-.73 1.86-.8 2.7-.24l7.7 5.02c.84.57 1.07 1.62.6 2.43l-2.45 3.9.23.64zm-5.23 7.68l1.83-5.02-3.7-1.54c-.53-.25-.9-.66-1.07-1.14l-.76-2.2c-.16-.48-.08-.96.15-1.45l2-3.15-4.77-3.16-2.7 2.66c-.38.4-.9.57-1.45.57l-2.62.08c-.6-.07-1.06-.23-1.45-.64l-2.77-2.67-4.76 3.15 2 3.16c.3.5.3.98.15 1.55l-.77 2.1c-.16.5-.54.9-1.08 1.14l-3.7 1.53 1.78 5.02 4-.73c.54-.08 1.15.08 1.6.33l2 1.38c.47.32.78.8.86 1.3l.46 3.56 5.92.07.46-3.65c.08-.57.3-.97.77-1.3l2.08-1.37c.46-.25 1-.4 1.62-.33zm-14.1-23.58h-4.06V804.5c0-2.03 1.77-3.65 4-3.65h2.07v3.65h-2.06zm48.77 27.64h4.08v1.87c0 2.02-1.77 3.65-4 3.65h-30.53v-3.73h30.53zm-34.53-40.5v-3.74h34.53v3.73zm-16.7 25.76c2.55-2.35 6.7-2.43 9.24-.16 1.3 1.05 2 2.6 2 4.13.08 1.62-.62 3.08-1.77 4.2-1.22 1.15-2.83 1.8-4.6 1.88h-.16c-1.7 0-3.3-.64-4.53-1.7-2.53-2.27-2.7-6-.15-8.34zm16.7-16.62V834h24.38v3.64zm28.46-27.55h11.84l-11.84-10.95zm-28.46 9.15v-3.65h16.23v3.65zm-10.15 40.68c.45-.5.68-1.05.68-1.62-.08-.56-.3-1.13-.77-1.53-.45-.4-1.06-.65-1.76-.65s-1.3.24-1.77.65c-.92.9-.92 2.35.08 3.16.46.5 1.08.65 1.77.65.7 0 1.3-.25 1.77-.65z" stroke="#000" stroke-opacity="0" fill="#fe7070"/><path d="M1077.3 874.52h-20.93l-1.55-8.03-7.2.07-2.75-7.95 6.38-2.95-2.9-6.2 6.54-6.04v-2.06l.06-36.97 6-3.58h2.1l3.48-5.72 33.84-.08 18.1 16.7.6 51.27-7.2 4.12-.07 1.9-3.92 4.54z" stroke="#000" stroke-opacity="0" fill-opacity="0"/><path d="M560.03 749.5l.05-2.44.24-3.8.38-3.65.53-3.55.66-3.47.8-3.4.92-3.35 1.08-3.3 1.22-3.3 1.38-3.27 1.55-3.28 1.72-3.3 1.93-3.34 2.15-3.4 2.42-3.46 2.7-3.56 3.05-3.7 3.46-3.83 3.96-4.05 4.56-4.28 5.34-4.6 6.37-5.04 7.8-5.66 9.94-6.6 13.8-8.32 25.45-13.88 61.96-32.72 13.8-8.33 9.94-6.6 7.8-5.65 6.35-5.04 5.35-4.6 4.56-4.3 3.96-4.02 3.46-3.83 3.05-3.7 2.7-3.55 2.4-3.47 2.17-3.4 1.92-3.33 1.73-3.3 1.55-3.3 1.38-3.26 1.22-3.3 1.07-3.3.94-3.34.33-1.4" stroke="#635dff" stroke-width="3" stroke-linejoin="round" fill="none"/><path d="M561.53 749.48l-.03 1.5h-3l.03-1.56z" stroke="#635dff" stroke-width=".05" fill="#635dff"/><path d="M802.94 506.32l2.96 14.7-9.2-1.06z" stroke="#635dff" stroke-width="3" fill="#635dff"/><path d="M588.78 749.5l.06-2.65.24-3.9.4-3.7.5-3.55.66-3.4.77-3.26.9-3.16 1-3.08 1.1-3 1.25-2.96 1.37-2.92 1.5-2.88 1.67-2.87 1.8-2.88 2.02-2.9 2.22-2.92 2.46-2.97 2.75-3.04 3.07-3.14 3.48-3.26 3.98-3.43 4.62-3.66 5.45-3.96 6.64-4.4 8.44-5.1 11.74-6.43 22.54-11.1 52.7-25.17 13.5-7.4 10.07-6.1 8.15-5.4 6.88-5 5.94-4.7 5.23-4.5 4.65-4.38 4.18-4.27 3.8-4.2 3.44-4.17 3.16-4.16 2.9-4.17 2.66-4.2 2.45-4.25 2.26-4.32 2.1-4.42 1.9-4.54 1.74-4.68 1.57-4.85 1.42-5.05 1.23-5.27.35-1.83" stroke="#635dff" stroke-width="3" stroke-linejoin="round" fill="none"/><path d="M590.28 749.48l-.03 1.5h-3l.03-1.56z" stroke="#635dff" stroke-width=".05" fill="#635dff"/><path d="M825.65 506.32l2.84 14.73-9.2-1.15z" stroke="#635dff" stroke-width="3" fill="#635dff"/><path d="M1040 730.88v-77.7" stroke="#635dff" stroke-width="3" fill="none"/><path d="M1040 746.64l-4.63-14.26h9.27z" stroke="#635dff" stroke-width="3" fill="#635dff"/><path d="M1041.5 653.2h-3v-1.53h3z" stroke="#635dff" stroke-width=".05" fill="#635dff"/><defs><radialGradient gradientUnits="userSpaceOnUse" id="a" fx="1018.84" fy="316.84" cx="1018.84" cy="316.84" r="215.25"><stop offset="0%" stop-color="#fff0f0"/><stop offset="71.04%" stop-color="#fff0f0"/><stop offset="100%" stop-color="#fff3d9"/></radialGradient><path fill="#635dff" d="M100-1691v-357h1682v357h-627V0H727v-1691H100" id="J"/><path fill="#635dff" d="M862-340c181-5 293-121 293-314v-882h426V0h-409v-279h-16C1091-107 926 25 690 20c-339-8-520-231-520-578v-978h426v902c-2 171 100 299 266 294" id="K"/><path fill="#635dff" d="M922-1188c-196 6-326 123-326 319V0H170v-1536h413v268h16c51-208 247-335 503-275v378c-39-12-127-24-180-23" id="L"/><path fill="#635dff" d="M1053 25C821 27 691-95 617-246h-19V0H178v-2048h426v770h13c75-152 201-281 437-278 264 7 438 150 537 350 107 217 109 653 3 874-98 204-271 351-541 357zM918-1217c-238 0-318 201-323 449-1 177 52 320 148 398 91 74 261 72 351-2 95-78 147-221 147-396-5-246-86-449-323-449" id="M"/><path fill="#635dff" d="M170 0v-1536h426V0H170zm444-1950c0 117-110 216-230 216s-230-99-230-216c0-116 111-215 230-215s230 99 230 215" id="N"/><path fill="#635dff" d="M887-1202c-189 5-291 122-291 314V0H170v-1536h406v271h18c64-171 229-295 462-291 345 6 530 227 530 578V0h-426v-902c4-180-98-301-273-300" id="O"/><path fill="#635dff" d="M1566-440c-72 303-322 466-696 470-330 0-552-147-670-370-119-225-120-610 0-837 116-220 332-379 653-379 350 0 567 173 667 438 50 125 59 283 55 459H278v-264h896c-6-192-121-315-314-315-200 0-331 133-331 329v251c4 228 123 370 348 370 153 0 252-66 295-178" id="P"/><g id="b"><use transform="matrix(0.008759469696969691,0,0,0.008759469696969691,0,0)" xlink:href="#J"/><use transform="matrix(0.008759469696969691,0,0,0.008759469696969691,16.485321969696958,0)" xlink:href="#K"/><use transform="matrix(0.008759469696969691,0,0,0.008759469696969691,31.82315340909089,0)" xlink:href="#L"/><use transform="matrix(0.008759469696969691,0,0,0.008759469696969691,41.905303030303,0)" xlink:href="#M"/><use transform="matrix(0.008759469696969691,0,0,0.008759469696969691,57.57599431818178,0)" xlink:href="#N"/><use transform="matrix(0.008759469696969691,0,0,0.008759469696969691,64.28574810606057,0)" xlink:href="#O"/><use transform="matrix(0.008759469696969691,0,0,0.008759469696969691,79.62357954545449,0)" xlink:href="#P"/></g><path fill="#635dff" d="M800-277c126 3 250-49 250-156 0-102-90-132-197-153l-266-53c-150-30-260-84-335-156-133-126-143-389-28-538 110-143 314-223 570-223 361 0 612 158 654 458l-390 24c-27-112-117-179-257-180-113-2-234 49-235 152 0 37 15 68 44 93 90 69 294 86 429 117 149 34 259 82 334 148 141 124 140 385 21 533C1276-63 1065 30 799 30c-377 0-651-164-697-475l419-22c24 124 129 191 279 190" id="Q"/><path fill="#635dff" d="M987-1536v320H62v-320h925zM842-322c33 1 81-10 106-14l67 317c-131 47-368 57-501-1-147-64-242-189-242-396v-1488h426v1432c-2 104 46 150 144 150" id="R"/><g id="c"><use transform="matrix(0.008759469696969691,0,0,0.008759469696969691,0,0)" xlink:href="#Q"/><use transform="matrix(0.008759469696969691,0,0,0.008759469696969691,13.857481060606052,0)" xlink:href="#P"/><use transform="matrix(0.008759469696969691,0,0,0.008759469696969691,28.59966856060604,0)" xlink:href="#R"/><use transform="matrix(0.008759469696969691,0,0,0.008759469696969691,38.182528409090885,0)" xlink:href="#Q"/></g><path fill="#635dff" d="M1045 25C813 27 683-95 609-246h-13v822H170v-2112h420v258h19c75-152 201-281 437-278 264 7 438 150 537 350 107 217 109 653 3 874-98 204-271 351-541 357zM910-1217c-238 0-318 201-323 449-1 177 52 320 148 398 91 74 261 72 351-2 95-78 147-221 147-396-5-246-86-449-323-449" id="S"/><g id="d"><use transform="matrix(0.008759469696969691,0,0,0.008759469696969691,0,0)" xlink:href="#K"/><use transform="matrix(0.008759469696969691,0,0,0.008759469696969691,15.337831439393929,0)" xlink:href="#S"/></g><path fill="#635dff" d="M1057-213C978-65 835 29 608 29 303 29 98-121 98-429c0-345 264-439 577-473 140-18 250-18 335-64 26-18 37-43 37-80 0-132-91-199-228-199-145 0-241 72-273 177l-394-32c69-295 305-456 669-456 282 0 499 96 599 284 35 66 53 145 53 236V0h-404v-213h-12zM505-443c-2 120 103 179 225 178 185-5 311-104 320-284v-163c-172 97-533 15-545 269" id="T"/><use transform="matrix(0.008759469696969691,0,0,0.008759469696969691,0,0)" xlink:href="#T" id="e"/><path fill="#635dff" d="M869-307c166-4 255-106 279-256h402c-32 376-281 588-686 593-329 1-550-156-666-380-118-229-117-599 2-826 116-222 335-380 662-380 276-1 479 109 591 278 59 88 91 191 97 310h-402c-20-144-117-261-279-256-238 8-325 203-328 456-1 186 52 331 155 407 49 36 107 54 173 54" id="U"/><path fill="#635dff" d="M1266-70C1051 59 677 59 462-70 250-197 108-434 108-762c0-330 142-566 354-694 215-129 589-129 804 0 213 128 354 364 354 694 0 328-142 565-354 692zM686-360c91 78 267 79 357 0 93-82 144-229 144-405s-51-323-144-405c-90-80-266-79-357 0-95 82-145 228-145 405s50 323 145 405" id="V"/><g id="f"><use transform="matrix(0.008759469696969691,0,0,0.008759469696969691,0,0)" xlink:href="#U"/><use transform="matrix(0.008759469696969691,0,0,0.008759469696969691,14.488162878787868,0)" xlink:href="#V"/><use transform="matrix(0.008759469696969691,0,0,0.008759469696969691,29.624526515151494,0)" xlink:href="#O"/><use transform="matrix(0.008759469696969691,0,0,0.008759469696969691,44.962357954545425,0)" xlink:href="#R"/><use transform="matrix(0.008759469696969691,0,0,0.008759469696969691,54.54521780303026,0)" xlink:href="#N"/><use transform="matrix(0.008759469696969691,0,0,0.008759469696969691,61.25497159090905,0)" xlink:href="#O"/><use transform="matrix(0.008759469696969691,0,0,0.008759469696969691,76.59280303030297,0)" xlink:href="#K"/><use transform="matrix(0.008759469696969691,0,0,0.008759469696969691,91.93063446969688,0)" xlink:href="#V"/><use transform="matrix(0.008759469696969691,0,0,0.008759469696969691,107.06699810606051,0)" xlink:href="#K"/><use transform="matrix(0.008759469696969691,0,0,0.008759469696969691,122.40482954545445,0)" xlink:href="#Q"/></g><path fill="#635dff" d="M1172-246C1097-96 968 27 736 25c-270-6-442-153-540-357-106-221-106-657 2-874 100-201 271-343 537-350 236-3 362 126 437 278h13v-770h425V0h-420v-246h-18zm-301-971c-237 0-318 203-323 449 0 175 51 318 146 396 90 74 262 76 352 2 96-78 149-221 148-398-4-248-86-449-323-449" id="W"/><g id="g"><use transform="matrix(0.008759469696969691,0,0,0.008759469696969691,0,0)" xlink:href="#W"/><use transform="matrix(0.008759469696969691,0,0,0.008759469696969691,15.670691287878777,0)" xlink:href="#T"/><use transform="matrix(0.008759469696969691,0,0,0.008759469696969691,29.983664772727252,0)" xlink:href="#R"/><use transform="matrix(0.008759469696969691,0,0,0.008759469696969691,39.566524621212096,0)" xlink:href="#T"/></g><path fill="#635dff" d="M846-1205c-159 5-250 118-250 283V0H170v-1536h406v271h18c58-168 209-291 428-291 214-2 373 120 417 291h16c58-170 236-293 463-291 297 0 484 209 484 523V0h-425v-949c5-159-93-254-238-256-155-3-246 112-246 267V0h-413v-958c3-145-93-251-234-247" id="X"/><g id="h"><use transform="matrix(0.008759469696969691,0,0,0.008759469696969691,0,0)" xlink:href="#Q"/><use transform="matrix(0.008759469696969691,0,0,0.008759469696969691,13.857481060606052,0)" xlink:href="#R"/><use transform="matrix(0.008759469696969691,0,0,0.008759469696969691,23.440340909090892,0)" xlink:href="#L"/><use transform="matrix(0.008759469696969691,0,0,0.008759469696969691,33.522490530303,0)" xlink:href="#P"/><use transform="matrix(0.008759469696969691,0,0,0.008759469696969691,48.26467803030299,0)" xlink:href="#T"/><use transform="matrix(0.008759469696969691,0,0,0.008759469696969691,62.577651515151466,0)" xlink:href="#X"/></g><g id="i"><use transform="matrix(0.008759469696969691,0,0,0.008759469696969691,0,0)" xlink:href="#R"/><use transform="matrix(0.008759469696969691,0,0,0.008759469696969691,9.582859848484842,0)" xlink:href="#V"/></g><path fill="#635dff" d="M703 526c-137 64-396 64-538 6l96-318c88 25 171 42 241-3 46-26 75-106 97-167L48-1536h448L814-408h16l321-1128h451L1005 166c-58 163-152 290-302 360" id="Y"/><g id="j"><use transform="matrix(0.008759469696969691,0,0,0.008759469696969691,0,0)" xlink:href="#Q"/><use transform="matrix(0.008759469696969691,0,0,0.008759469696969691,13.857481060606052,0)" xlink:href="#Y"/><use transform="matrix(0.008759469696969691,0,0,0.008759469696969691,28.31060606060604,0)" xlink:href="#O"/><use transform="matrix(0.008759469696969691,0,0,0.008759469696969691,43.64843749999997,0)" xlink:href="#U"/></g><g id="k"><use transform="matrix(0.008759469696969691,0,0,0.008759469696969691,0,0)" xlink:href="#Y"/><use transform="matrix(0.008759469696969691,0,0,0.008759469696969691,14.45312499999999,0)" xlink:href="#V"/><use transform="matrix(0.008759469696969691,0,0,0.008759469696969691,29.589488636363615,0)" xlink:href="#K"/><use transform="matrix(0.008759469696969691,0,0,0.008759469696969691,44.92732007575754,0)" xlink:href="#L"/></g><g id="l"><use transform="matrix(0.008759469696969691,0,0,0.008759469696969691,0,0)" xlink:href="#W"/><use transform="matrix(0.008759469696969691,0,0,0.008759469696969691,15.670691287878777,0)" xlink:href="#T"/><use transform="matrix(0.008759469696969691,0,0,0.008759469696969691,29.983664772727252,0)" xlink:href="#R"/><use transform="matrix(0.008759469696969691,0,0,0.008759469696969691,39.566524621212096,0)" xlink:href="#T"/></g><path fill="#635dff" d="M58-2048h485l467 882h20l467-882h485L1235-724V0H805v-724" id="Z"/><g id="m"><use transform="matrix(0.008759469696969679,0,0,0.008759469696969679,0,0)" xlink:href="#Z"/><use transform="matrix(0.008759469696969679,0,0,0.008759469696969679,17.869318181818144,0)" xlink:href="#V"/><use transform="matrix(0.008759469696969679,0,0,0.008759469696969679,33.00568181818175,0)" xlink:href="#K"/></g><g id="n"><use transform="matrix(0.008759469696969679,0,0,0.008759469696969679,0,0)" xlink:href="#U"/><use transform="matrix(0.008759469696969679,0,0,0.008759469696969679,14.488162878787849,0)" xlink:href="#V"/><use transform="matrix(0.008759469696969679,0,0,0.008759469696969679,29.624526515151448,0)" xlink:href="#O"/><use transform="matrix(0.008759469696969679,0,0,0.008759469696969679,44.96235795454536,0)" xlink:href="#O"/><use transform="matrix(0.008759469696969679,0,0,0.008759469696969679,60.30018939393927,0)" xlink:href="#P"/><use transform="matrix(0.008759469696969679,0,0,0.008759469696969679,75.04237689393923,0)" xlink:href="#U"/><use transform="matrix(0.008759469696969679,0,0,0.008759469696969679,89.53053977272708,0)" xlink:href="#R"/></g><g id="o"><use transform="matrix(0.008759469696969679,0,0,0.008759469696969679,0,0)" xlink:href="#Y"/><use transform="matrix(0.008759469696969679,0,0,0.008759469696969679,14.45312499999997,0)" xlink:href="#V"/><use transform="matrix(0.008759469696969679,0,0,0.008759469696969679,29.589488636363576,0)" xlink:href="#K"/><use transform="matrix(0.008759469696969679,0,0,0.008759469696969679,44.927320075757486,0)" xlink:href="#L"/></g><g id="p"><use transform="matrix(0.008759469696969679,0,0,0.008759469696969679,0,0)" xlink:href="#W"/><use transform="matrix(0.008759469696969679,0,0,0.008759469696969679,15.670691287878755,0)" xlink:href="#T"/><use transform="matrix(0.008759469696969679,0,0,0.008759469696969679,29.98366477272721,0)" xlink:href="#R"/><use transform="matrix(0.008759469696969679,0,0,0.008759469696969679,39.56652462121204,0)" xlink:href="#T"/><use transform="matrix(0.008759469696969679,0,0,0.008759469696969679,53.879498106060495,0)" xlink:href="#M"/><use transform="matrix(0.008759469696969679,0,0,0.008759469696969679,69.55018939393925,0)" xlink:href="#T"/><use transform="matrix(0.008759469696969679,0,0,0.008759469696969679,83.8631628787877,0)" xlink:href="#Q"/><use transform="matrix(0.008759469696969679,0,0,0.008759469696969679,97.72064393939374,0)" xlink:href="#P"/></g><path fill="#635dff" d="M596-2048V0H170v-2048h426" id="aa"/><g id="q"><use transform="matrix(0.008759469696969691,0,0,0.008759469696969691,0,0)" xlink:href="#T"/><use transform="matrix(0.008759469696969691,0,0,0.008759469696969691,14.312973484848476,0)" xlink:href="#K"/><use transform="matrix(0.008759469696969691,0,0,0.008759469696969691,29.650804924242404,0)" xlink:href="#R"/><use transform="matrix(0.008759469696969691,0,0,0.008759469696969691,39.233664772727245,0)" xlink:href="#V"/><use transform="matrix(0.008759469696969691,0,0,0.008759469696969691,54.37002840909087,0)" xlink:href="#X"/><use transform="matrix(0.008759469696969691,0,0,0.008759469696969691,76.86434659090904,0)" xlink:href="#T"/><use transform="matrix(0.008759469696969691,0,0,0.008759469696969691,91.1773200757575,0)" xlink:href="#R"/><use transform="matrix(0.008759469696969691,0,0,0.008759469696969691,100.76017992424235,0)" xlink:href="#N"/><use transform="matrix(0.008759469696969691,0,0,0.008759469696969691,107.46993371212113,0)" xlink:href="#U"/><use transform="matrix(0.008759469696969691,0,0,0.008759469696969691,121.95809659090901,0)" xlink:href="#T"/><use transform="matrix(0.008759469696969691,0,0,0.008759469696969691,136.27107007575748,0)" xlink:href="#aa"/><use transform="matrix(0.008759469696969691,0,0,0.008759469696969691,142.98082386363626,0)" xlink:href="#aa"/><use transform="matrix(0.008759469696969691,0,0,0.008759469696969691,149.69057765151504,0)" xlink:href="#Y"/></g><g id="r"><use transform="matrix(0.008759469696969691,0,0,0.008759469696969691,0,0)" xlink:href="#U"/><use transform="matrix(0.008759469696969691,0,0,0.008759469696969691,14.488162878787868,0)" xlink:href="#L"/><use transform="matrix(0.008759469696969691,0,0,0.008759469696969691,24.570312499999982,0)" xlink:href="#P"/><use transform="matrix(0.008759469696969691,0,0,0.008759469696969691,39.31249999999997,0)" xlink:href="#T"/><use transform="matrix(0.008759469696969691,0,0,0.008759469696969691,53.62547348484845,0)" xlink:href="#R"/><use transform="matrix(0.008759469696969691,0,0,0.008759469696969691,63.20833333333329,0)" xlink:href="#P"/><use transform="matrix(0.008759469696969691,0,0,0.008759469696969691,77.95052083333329,0)" xlink:href="#Q"/></g><path fill="#635dff" d="M735-1556c237-3 363 127 439 278h16v-258h423V15c-9 421-324 586-751 593-265 2-467-76-589-210-58-65-96-137-113-218l394-53c47 111 153 176 318 175 190-3 320-88 320-293v-281h-18C1103-123 962-16 736-22 316-33 113-322 113-771c-4-332 116-575 311-698 94-58 198-87 311-87zM548-773c0 244 87 431 323 431 235 0 323-187 323-431 0-246-87-444-323-444s-323 200-323 444" id="ab"/><g id="s"><use transform="matrix(0.008759469696969691,0,0,0.008759469696969691,0,0)" xlink:href="#P"/><use transform="matrix(0.008759469696969691,0,0,0.008759469696969691,14.74218749999999,0)" xlink:href="#X"/><use transform="matrix(0.008759469696969691,0,0,0.008759469696969691,37.23650568181816,0)" xlink:href="#M"/><use transform="matrix(0.008759469696969691,0,0,0.008759469696969691,52.90719696969693,0)" xlink:href="#P"/><use transform="matrix(0.008759469696969691,0,0,0.008759469696969691,67.64938446969693,0)" xlink:href="#W"/><use transform="matrix(0.008759469696969691,0,0,0.008759469696969691,83.32007575757572,0)" xlink:href="#W"/><use transform="matrix(0.008759469696969691,0,0,0.008759469696969691,98.99076704545449,0)" xlink:href="#N"/><use transform="matrix(0.008759469696969691,0,0,0.008759469696969691,105.70052083333327,0)" xlink:href="#O"/><use transform="matrix(0.008759469696969691,0,0,0.008759469696969691,121.0383522727272,0)" xlink:href="#ab"/><use transform="matrix(0.008759469696969691,0,0,0.008759469696969691,136.65648674242416,0)" xlink:href="#Q"/></g><g id="t"><use transform="matrix(0.008759469696969691,0,0,0.008759469696969691,0,0)" xlink:href="#T"/><use transform="matrix(0.008759469696969691,0,0,0.008759469696969691,14.312973484848476,0)" xlink:href="#O"/><use transform="matrix(0.008759469696969691,0,0,0.008759469696969691,29.650804924242404,0)" xlink:href="#W"/></g><g id="u"><use transform="matrix(0.008759469696969691,0,0,0.008759469696969691,0,0)" xlink:href="#Q"/><use transform="matrix(0.008759469696969691,0,0,0.008759469696969691,13.857481060606052,0)" xlink:href="#R"/><use transform="matrix(0.008759469696969691,0,0,0.008759469696969691,23.440340909090892,0)" xlink:href="#V"/><use transform="matrix(0.008759469696969691,0,0,0.008759469696969691,38.57670454545452,0)" xlink:href="#L"/><use transform="matrix(0.008759469696969691,0,0,0.008759469696969691,48.65885416666662,0)" xlink:href="#P"/><use transform="matrix(0.008759469696969691,0,0,0.008759469696969691,63.401041666666615,0)" xlink:href="#Q"/></g><path fill="#635dff" d="M892-1202c-190 5-296 121-296 314V0H170v-2048h414v783h18c67-175 220-295 459-291 345 6 531 226 531 578V0h-426v-902c4-182-97-301-274-300" id="ac"/><g id="v"><use transform="matrix(0.008759469696969691,0,0,0.008759469696969691,0,0)" xlink:href="#R"/><use transform="matrix(0.008759469696969691,0,0,0.008759469696969691,9.582859848484842,0)" xlink:href="#ac"/><use transform="matrix(0.008759469696969691,0,0,0.008759469696969691,24.98200757575756,0)" xlink:href="#P"/><use transform="matrix(0.008759469696969691,0,0,0.008759469696969691,39.72419507575755,0)" xlink:href="#X"/></g><g id="w"><use transform="matrix(0.008759469696969691,0,0,0.008759469696969691,0,0)" xlink:href="#N"/><use transform="matrix(0.008759469696969691,0,0,0.008759469696969691,6.709753787878784,0)" xlink:href="#O"/></g><path fill="#635dff" d="M1602-1536L1065 0H585L48-1536h450L817-437h16l318-1099h451" id="ad"/><g id="x"><use transform="matrix(0.008759469696969691,0,0,0.008759469696969691,0,0)" xlink:href="#ad"/><use transform="matrix(0.008759469696969691,0,0,0.008759469696969691,14.45312499999999,0)" xlink:href="#P"/><use transform="matrix(0.008759469696969691,0,0,0.008759469696969691,29.19531249999998,0)" xlink:href="#U"/><use transform="matrix(0.008759469696969691,0,0,0.008759469696969691,43.68347537878785,0)" xlink:href="#R"/><use transform="matrix(0.008759469696969691,0,0,0.008759469696969691,53.26633522727269,0)" xlink:href="#V"/><use transform="matrix(0.008759469696969691,0,0,0.008759469696969691,68.40269886363632,0)" xlink:href="#L"/></g><g id="y"><use transform="matrix(0.008759469696969691,0,0,0.008759469696969691,0,0)" xlink:href="#W"/><use transform="matrix(0.008759469696969691,0,0,0.008759469696969691,15.670691287878777,0)" xlink:href="#T"/><use transform="matrix(0.008759469696969691,0,0,0.008759469696969691,29.983664772727252,0)" xlink:href="#R"/><use transform="matrix(0.008759469696969691,0,0,0.008759469696969691,39.566524621212096,0)" xlink:href="#T"/><use transform="matrix(0.008759469696969691,0,0,0.008759469696969691,53.87949810606057,0)" xlink:href="#M"/><use transform="matrix(0.008759469696969691,0,0,0.008759469696969691,69.55018939393935,0)" xlink:href="#T"/><use transform="matrix(0.008759469696969691,0,0,0.008759469696969691,83.86316287878782,0)" xlink:href="#Q"/><use transform="matrix(0.008759469696969691,0,0,0.008759469696969691,97.72064393939387,0)" xlink:href="#P"/></g><radialGradient gradientUnits="userSpaceOnUse" id="z" fx="980" fy="832.5" cx="980" cy="832.5" r="41"><stop offset="22.5%" stop-color="#32d4f5"/><stop offset="59%" stop-color="#32d2f2"/><stop offset="82.5%" stop-color="#32caea"/><stop offset="100%" stop-color="#32bedd"/></radialGradient><g id="A"><use transform="matrix(0.008759469696969691,0,0,0.008759469696969691,0,0)" xlink:href="#Z"/><use transform="matrix(0.008759469696969691,0,0,0.008759469696969691,17.86931818181817,0)" xlink:href="#V"/><use transform="matrix(0.008759469696969691,0,0,0.008759469696969691,33.0056818181818,0)" xlink:href="#K"/></g><g id="B"><use transform="matrix(0.008759469696969691,0,0,0.008759469696969691,0,0)" xlink:href="#Q"/><use transform="matrix(0.008759469696969691,0,0,0.008759469696969691,13.857481060606052,0)" xlink:href="#P"/><use transform="matrix(0.008759469696969691,0,0,0.008759469696969691,28.59966856060604,0)" xlink:href="#T"/><use transform="matrix(0.008759469696969691,0,0,0.008759469696969691,42.91264204545452,0)" xlink:href="#L"/><use transform="matrix(0.008759469696969691,0,0,0.008759469696969691,52.99479166666663,0)" xlink:href="#U"/><use transform="matrix(0.008759469696969691,0,0,0.008759469696969691,67.4829545454545,0)" xlink:href="#ac"/></g><g id="C"><use transform="matrix(0.008759469696969691,0,0,0.008759469696969691,0,0)" xlink:href="#L"/><use transform="matrix(0.008759469696969691,0,0,0.008759469696969691,10.082149621212114,0)" xlink:href="#P"/><use transform="matrix(0.008759469696969691,0,0,0.008759469696969691,24.824337121212103,0)" xlink:href="#R"/><use transform="matrix(0.008759469696969691,0,0,0.008759469696969691,34.40719696969695,0)" xlink:href="#L"/><use transform="matrix(0.008759469696969691,0,0,0.008759469696969691,44.489346590909065,0)" xlink:href="#N"/><use transform="matrix(0.008759469696969691,0,0,0.008759469696969691,51.19910037878785,0)" xlink:href="#P"/><use transform="matrix(0.008759469696969691,0,0,0.008759469696969691,65.94128787878783,0)" xlink:href="#ad"/><use transform="matrix(0.008759469696969691,0,0,0.008759469696969691,80.39441287878782,0)" xlink:href="#P"/></g><g id="D"><use transform="matrix(0.008759469696969691,0,0,0.008759469696969691,0,0)" xlink:href="#W"/><use transform="matrix(0.008759469696969691,0,0,0.008759469696969691,15.670691287878777,0)" xlink:href="#V"/><use transform="matrix(0.008759469696969691,0,0,0.008759469696969691,30.8070549242424,0)" xlink:href="#U"/><use transform="matrix(0.008759469696969691,0,0,0.008759469696969691,45.29521780303027,0)" xlink:href="#K"/><use transform="matrix(0.008759469696969691,0,0,0.008759469696969691,60.6330492424242,0)" xlink:href="#X"/><use transform="matrix(0.008759469696969691,0,0,0.008759469696969691,83.12736742424237,0)" xlink:href="#P"/><use transform="matrix(0.008759469696969691,0,0,0.008759469696969691,97.86955492424235,0)" xlink:href="#O"/><use transform="matrix(0.008759469696969691,0,0,0.008759469696969691,113.20738636363627,0)" xlink:href="#R"/><use transform="matrix(0.008759469696969691,0,0,0.008759469696969691,122.7902462121211,0)" xlink:href="#Q"/></g><g id="E"><use transform="matrix(0.008759469696969691,0,0,0.008759469696969691,0,0)" xlink:href="#K"/><use transform="matrix(0.008759469696969691,0,0,0.008759469696969691,15.337831439393929,0)" xlink:href="#Q"/><use transform="matrix(0.008759469696969691,0,0,0.008759469696969691,29.19531249999998,0)" xlink:href="#N"/><use transform="matrix(0.008759469696969691,0,0,0.008759469696969691,35.90506628787876,0)" xlink:href="#O"/><use transform="matrix(0.008759469696969691,0,0,0.008759469696969691,51.24289772727269,0)" xlink:href="#ab"/></g><path fill="#635dff" d="M531-643c17 213 175 305 401 309 142 1 257-44 318-121 56-66 62-182 4-247-110-118-345-146-530-196-172-46-309-108-409-197s-150-210-149-361c2-278 170-448 376-542 222-101 579-102 798 0 203 94 356 268 364 539h-415c-17-169-155-257-350-255-181 2-329 63-329 229 0 178 174 218 324 254 392 93 798 184 798 646 0 279-156 447-368 539-226 98-630 97-858-1-230-98-387-286-394-596h419" id="ae"/><path fill="#635dff" d="M904 0H178v-2048h732c430 0 721 186 876 474 156 289 156 808 0 1098S1337 0 904 0zm570-1026c0-421-175-650-587-651H611v1306h275c413-1 588-231 588-655" id="af"/><path fill="#635dff" d="M178 0v-2048h433v903h27l737-903h519l-760 917L1903 0h-518L824-842 611-582V0H178" id="ag"/><g id="F"><use transform="matrix(0.008759469696969691,0,0,0.008759469696969691,0,0)" xlink:href="#ae"/><use transform="matrix(0.008759469696969691,0,0,0.008759469696969691,16.15246212121211,0)" xlink:href="#af"/><use transform="matrix(0.008759469696969691,0,0,0.008759469696969691,34.091856060606034,0)" xlink:href="#ag"/><use transform="matrix(0.008759469696969691,0,0,0.008759469696969691,51.102746212121176,0)" xlink:href="#Q"/></g><g id="G"><use transform="matrix(0.008759469696969691,0,0,0.008759469696969691,0,0)" xlink:href="#T"/><use transform="matrix(0.008759469696969691,0,0,0.008759469696969691,14.312973484848476,0)" xlink:href="#O"/><use transform="matrix(0.008759469696969691,0,0,0.008759469696969691,29.650804924242404,0)" xlink:href="#W"/></g><path fill="#635dff" d="M178 0v-2048h433v845h879v-845h432V0h-432v-846H611V0H178" id="ah"/><path fill="#635dff" d="M1274-1354c0-226-136-340-371-340H611V0H178v-2048h808c315-2 534 132 648 334 113 200 113 521-2 720-117 202-339 330-657 330H460v-347h445c234 0 369-118 369-343" id="ai"/><g id="H"><use transform="matrix(0.008759469696969691,0,0,0.008759469696969691,0,0)" xlink:href="#ah"/><use transform="matrix(0.008759469696969691,0,0,0.008759469696969691,18.40364583333332,0)" xlink:href="#J"/><use transform="matrix(0.008759469696969691,0,0,0.008759469696969691,34.88896780303028,0)" xlink:href="#J"/><use transform="matrix(0.008759469696969691,0,0,0.008759469696969691,51.37428977272724,0)" xlink:href="#ai"/></g><path fill="#635dff" d="M531 0H67l707-2048h558L2038 0h-464l-513-1580h-16zm-29-805h1096v338H502v-338" id="aj"/><path fill="#635dff" d="M611-2048V0H178v-2048h433" id="ak"/><g id="I"><use transform="matrix(0.008759469696969691,0,0,0.008759469696969691,0,0)" xlink:href="#aj"/><use transform="matrix(0.008759469696969691,0,0,0.008759469696969691,18.44744318181817,0)" xlink:href="#ai"/><use transform="matrix(0.008759469696969691,0,0,0.008759469696969691,34.424715909090885,0)" xlink:href="#ak"/></g></defs></g></svg>