<svg xmlns="http://www.w3.org/2000/svg" xmlns:xlink="http://www.w3.org/1999/xlink" xmlns:lucid="lucid" width="836.45" height="887.5"><g transform="translate(-377 -177)" lucid:page-tab-id="0_0"><path d="M400 781.5a8 8 0 0 1 8-8h304a8 8 0 0 1 8 8v147a8 8 0 0 1-8 8H408a8 8 0 0 1-8-8z" stroke="#635dff" stroke-width="2" fill-opacity="0"/><path d="M569.6 802.26l3.43 5.2c.82.92 1.63 1.75 2.62 2.58 2.92 2.3 5.66 4.78 8.17 7.37 5.82 6.14 9.8 13 12.64 20.36 1.7 4.56 2.63 9.23 2.7 13.9.28 14.02-5.73 26.06-17.85 36.02-1.97 1.56-4.13 3.12-6.34 4.36-1.23 0-1.8-.72-2.28-1.35-.93-1.25-1.5-2.7-1.8-4.16-.4-1.66-.7-3.32-.53-5.08v-.84c-.12-.1-1.17-77.95-.76-78.36z" stroke="#000" stroke-opacity="0" stroke-width="2" fill="#599636"/><path d="M569.6 802.05c-.13-.2-.3 0-.42.1.06 1.14-.46 2.08-1.22 3.12-.82.93-1.98 1.66-3.1 2.5-6.3 4.35-11.24 9.54-15.2 15.46-5.25 7.88-8 16.4-8.75 25.32-.34 3.22 1.3 14.53 2.52 17.85 3.5 8.72 9.73 16 17.78 22.32 1.98 1.56 4.08 2.9 6.3 4.26.63 0 .7-.42.8-.73.3-.83.53-1.45.65-2.18l1.46-8.5-.8-79.52z" stroke="#000" stroke-opacity="0" stroke-width="2" fill="#6cac48"/><path d="M573.03 895.47c.18-1.25.93-2.4 1.8-3.43-.87-.3-1.5-.83-1.97-1.45-.4-.53-.82-1.26-1.05-1.88-.98-2.4-1.22-4.88-1.5-7.26V880c-.36.2-.42 2.08-.42 2.4-.23 2.7-.58 4.97-1.28 7.67-.17.93-.35 1.97-1.1 2.9 0 .1 0 .2.05.42 1.28 3 1.63 6 1.8 9.13v1.14c0 1.35-.05 1.04 1.35 1.56.58.1 1.22.2 1.8.5.4 0 .47-.3.47-.5l-.17-1.87v-5.2c-.12-.93.12-1.76.23-2.7z" stroke="#000" stroke-opacity="0" stroke-width="2" fill="#c2bfbf"/><path d="M519.9 866.06c-.5-1.93-2.2-4.16-5.8-4.16-.8 0-1.6.1-2.5.3-1.7.3-3.1.5-4.4.5 9.8-16.23 16.2-38.76 9.9-46.58-8.3-10.35-19.5-11.87-25.4-11.87h-.6c-2.2 0-4.5.3-6.8.8l-8.5 1.73c-1.1-.1-2.3-.2-3.5-.2h-.5c-3.8 0-7.2.8-10.3 2.23l-3-1.1c-4-1.63-10.2-3.45-16.2-3.45h-1.1c-5.9.2-11.1 2.43-14.8 6.4-4.7 4.96-6.8 12.17-6.3 21.5 0 .52 5.8 48.22 22.3 48.22h.2c2.1-.1 4.1-.9 6-2.54 1.5 1.12 3.4 1.73 5.1 2.03 1.2.2 3.3.6 5.8.6 3 0 5.8-.6 8.1-1.7v8.2c.2 3.25.8 6.2 1.7 8.53 2.5 6.6 6.8 10.24 12.1 10.24h.7c4.4-.3 8.8-2.63 11.8-6.4 3.4-4.05 4.1-8.3 4.4-11.56v-9.85h.3l1 .1h1.1c3.6 0 8-.9 11-2.23 2.8-1.22 9.3-4.77 8.2-9.74z" stroke="#000" stroke-opacity="0" stroke-width="10" fill="#fff"/><path d="M493.6 875.8v-1.32-1l.1-.1c.3-6.1 2.1-8.54 3.9-9.86-.2-.4-.5-.7-.8-1.12-.8-1-1.8-2.23-2.8-3.85l-.2-.4c-.2-.3-.6-1.02-1.1-1.83-2.8-4.98-8.6-15.23-4.6-21.73 1.7-2.85 5-4.47 9.8-4.88-2-5.38-9.2-18.27-25.7-18.57-14.3-.2-19 12.48-20.6 20 2.1-.82 4.5-1.33 6.7-1.33h.1c5.5 0 9.2 2.85 10.3 7.72.8 3.55 1.2 6.7 1.2 9.54-.1 6.3-1.4 9.54-2.5 12.48l-.4.92c-.3.8-.6 1.52-.9 2.23-.3.62-.5 1.23-.7 1.84 1.1.2 2 .6 2.6.9l.4.1c.1 0 .2.1.3.2 2 1.13 3.3 2.96 3.6 5.1.1 1.2.1 9.02 0 15.82.2 2.95.8 5.48 1.4 7.3 1 2.55 3.4 7.42 8.1 7.12 3.2-.2 6.4-2.04 8.4-4.57 2.3-2.73 3.1-5.78 3.4-9.13V875.8z" stroke="#000" stroke-opacity="0" stroke-width="10" fill="#0277bd"/><path d="M451.2 864.03c-3.9-3.86-5.7-9.14-5-14 .6-4.68.3-9.25.1-11.68-.1-.9-.2-1.52-.2-1.83h.1v-.1c.2-6.9 3-17.96 10.6-24.46-3.7-1.42-9.7-3.25-15.4-3.05-8.9.32-17.5 6.2-16.6 23.06.3 6.3 7.6 44.04 17.6 43.84 1.5-.1 3-1 4.5-2.74 2.4-2.84 4.7-5.38 6.4-7.2-.7-.5-1.5-1.12-2.1-1.83zm51.9-32.68c.1.3 0 .6 0 .9 0 2.14-.2 4.17-.4 6.2-.2 1.42-.4 2.94-.4 4.47-.1 1.52.1 2.94.4 4.56.5 3.56 1 7.72-1.9 12.5.6.7 1 1.3 1.4 1.92 11-17.26 15.4-37.76 11.2-42.94-6.4-7.9-15.2-10.25-22.2-10.05-2.2 0-4.2.32-5.9.62 12.1 5.7 17.4 17.87 17.8 21.83zm9.5 35.32c-6.4 1.32-9.4.6-10.9-.3-.2.2-.5.3-.7.5-.9.5-2.3 1.32-2.6 6.4.2 0 .4 0 .6.1l1 .1c3.2.1 7.3-.7 9.7-1.83 5.1-2.33 8-6 2.9-4.97zm-45.1 4.77c0-.7-.4-1.22-1.1-1.73l-.3-.1c-.8-.4-1.8-.8-3.3-.8h-.1c-.3.1-.6.1-.9.1h-.3c-1.2.8-2.8 1.42-6.7 2.23-7.1 1.73-2.9 3.86-.2 4.16 2.6.6 8.9 1.42 13-1.93 0-1.02 0-1.73-.1-1.93z" stroke="#000" stroke-opacity="0" stroke-width="10" fill="#0277bd"/><path d="M464.4 839.97c-.7.7-1.8 1.32-3 1.12-2-.32-3.5-2.55-3.4-3.46.1-.8 1.8-1.32 3.8-1.02.6.1 1.3.3 1.8.5-.8-1.5-2.2-2.42-4.3-2.63-3.7-.4-7.6 1.4-8.4 2.43 0 .3.1.6.1 1 .2 2.65.6 7.63-.1 12.8-.5 3.35.9 7.3 3.7 10.15 1.8 1.83 3.9 2.95 5.9 3.25.3-1.12.8-2.13 1.3-3.25.2-.6.5-1.32.8-1.93l.4-1c1-2.65 2.1-5.5 2.1-10.87 0-2.13-.2-4.47-.7-7.1zm33.6 8.12c-.3-1.73-.5-3.46-.5-5.28.1-1.73.3-3.35.5-4.88l.3-3.65c-3.1.3-5.1 1.1-6.1 2.53.4-.1.9-.2 1.4-.2 2.1-.3 3.6.3 3.8 1.4.2.83-.6 1.64-.9 1.94-.7.6-1.5 1.02-2.3 1.12h-.5c-.8 0-1.6-.2-2.2-.62.2 4.47 3.7 10.56 5.4 13.6.3.6.6 1.12.9 1.52.9-2.53.5-4.87.2-7.5z" stroke="#000" stroke-opacity="0" stroke-width="10" fill="#0277bd"/><path d="M611 268a8 8 0 0 1 8-8h414.5a8 8 0 0 1 8 8v224a8 8 0 0 1-8 8H619a8 8 0 0 1-8-8z" fill="url(#a)"/><path d="M612.5 268c0 .83-.67 1.5-1.5 1.5s-1.5-.67-1.5-1.5.67-1.5 1.5-1.5 1.5.67 1.5 1.5zm2.34-5.66c0 .83-.67 1.5-1.5 1.5s-1.5-.67-1.5-1.5c0-.82.67-1.5 1.5-1.5s1.5.68 1.5 1.5zm5.66-2.34c0 .83-.67 1.5-1.5 1.5s-1.5-.67-1.5-1.5.67-1.5 1.5-1.5 1.5.67 1.5 1.5zm6 0c0 .83-.67 1.5-1.5 1.5-.82 0-1.5-.67-1.5-1.5s.68-1.5 1.5-1.5c.83 0 1.5.67 1.5 1.5zm6 0c0 .83-.66 1.5-1.5 1.5-.82 0-1.5-.67-1.5-1.5s.68-1.5 1.5-1.5c.84 0 1.5.67 1.5 1.5zm6.02 0c0 .83-.67 1.5-1.5 1.5s-1.5-.67-1.5-1.5.67-1.5 1.5-1.5 1.5.67 1.5 1.5zm6 0c0 .83-.67 1.5-1.5 1.5-.82 0-1.5-.67-1.5-1.5s.68-1.5 1.5-1.5c.83 0 1.5.67 1.5 1.5zm6 0c0 .83-.66 1.5-1.5 1.5-.8 0-1.5-.67-1.5-1.5s.7-1.5 1.5-1.5c.84 0 1.5.67 1.5 1.5zm6.02 0c0 .83-.67 1.5-1.5 1.5s-1.5-.67-1.5-1.5.67-1.5 1.5-1.5 1.5.67 1.5 1.5zm6 0c0 .83-.66 1.5-1.5 1.5-.82 0-1.5-.67-1.5-1.5s.68-1.5 1.5-1.5c.84 0 1.5.67 1.5 1.5zm6 0c0 .83-.66 1.5-1.5 1.5-.8 0-1.5-.67-1.5-1.5s.7-1.5 1.5-1.5c.84 0 1.5.67 1.5 1.5zm6.02 0c0 .83-.67 1.5-1.5 1.5s-1.5-.67-1.5-1.5.67-1.5 1.5-1.5 1.5.67 1.5 1.5zm6 0c0 .83-.66 1.5-1.5 1.5-.82 0-1.5-.67-1.5-1.5s.68-1.5 1.5-1.5c.84 0 1.5.67 1.5 1.5zm6.02 0c0 .83-.68 1.5-1.5 1.5-.83 0-1.5-.67-1.5-1.5s.67-1.5 1.5-1.5c.82 0 1.5.67 1.5 1.5zm6 0c0 .83-.67 1.5-1.5 1.5s-1.5-.67-1.5-1.5.67-1.5 1.5-1.5 1.5.67 1.5 1.5zm6 0c0 .83-.66 1.5-1.5 1.5-.82 0-1.5-.67-1.5-1.5s.68-1.5 1.5-1.5c.84 0 1.5.67 1.5 1.5zm6.02 0c0 .83-.67 1.5-1.5 1.5s-1.5-.67-1.5-1.5.67-1.5 1.5-1.5 1.5.67 1.5 1.5zm6 0c0 .83-.67 1.5-1.5 1.5-.82 0-1.5-.67-1.5-1.5s.68-1.5 1.5-1.5c.83 0 1.5.67 1.5 1.5zm6 0c0 .83-.66 1.5-1.5 1.5-.82 0-1.5-.67-1.5-1.5s.68-1.5 1.5-1.5c.84 0 1.5.67 1.5 1.5zm6.02 0c0 .83-.67 1.5-1.5 1.5s-1.5-.67-1.5-1.5.67-1.5 1.5-1.5 1.5.67 1.5 1.5zm6 0c0 .83-.66 1.5-1.5 1.5-.82 0-1.5-.67-1.5-1.5s.68-1.5 1.5-1.5c.84 0 1.5.67 1.5 1.5zm6 0c0 .83-.66 1.5-1.5 1.5-.8 0-1.5-.67-1.5-1.5s.7-1.5 1.5-1.5c.84 0 1.5.67 1.5 1.5zm6.02 0c0 .83-.67 1.5-1.5 1.5s-1.5-.67-1.5-1.5.67-1.5 1.5-1.5 1.5.67 1.5 1.5zm6 0c0 .83-.66 1.5-1.5 1.5-.82 0-1.5-.67-1.5-1.5s.68-1.5 1.5-1.5c.84 0 1.5.67 1.5 1.5zm6.02 0c0 .83-.67 1.5-1.5 1.5s-1.5-.67-1.5-1.5.67-1.5 1.5-1.5 1.5.67 1.5 1.5zm6 0c0 .83-.67 1.5-1.5 1.5-.82 0-1.5-.67-1.5-1.5s.68-1.5 1.5-1.5c.83 0 1.5.67 1.5 1.5zm6 0c0 .83-.66 1.5-1.5 1.5-.82 0-1.5-.67-1.5-1.5s.68-1.5 1.5-1.5c.84 0 1.5.67 1.5 1.5zm6.02 0c0 .83-.67 1.5-1.5 1.5s-1.5-.67-1.5-1.5.67-1.5 1.5-1.5 1.5.67 1.5 1.5zm6 0c0 .83-.67 1.5-1.5 1.5-.82 0-1.5-.67-1.5-1.5s.68-1.5 1.5-1.5c.83 0 1.5.67 1.5 1.5zm6 0c0 .83-.66 1.5-1.5 1.5-.82 0-1.5-.67-1.5-1.5s.68-1.5 1.5-1.5c.84 0 1.5.67 1.5 1.5zm6.02 0c0 .83-.67 1.5-1.5 1.5s-1.5-.67-1.5-1.5.67-1.5 1.5-1.5 1.5.67 1.5 1.5zm6 0c0 .83-.66 1.5-1.5 1.5-.82 0-1.5-.67-1.5-1.5s.68-1.5 1.5-1.5c.84 0 1.5.67 1.5 1.5zm6 0c0 .83-.66 1.5-1.5 1.5-.8 0-1.5-.67-1.5-1.5s.7-1.5 1.5-1.5c.84 0 1.5.67 1.5 1.5zm6.02 0c0 .83-.67 1.5-1.5 1.5s-1.5-.67-1.5-1.5.67-1.5 1.5-1.5 1.5.67 1.5 1.5zm6 0c0 .83-.66 1.5-1.5 1.5-.82 0-1.5-.67-1.5-1.5s.68-1.5 1.5-1.5c.84 0 1.5.67 1.5 1.5zm6.02 0c0 .83-.67 1.5-1.5 1.5s-1.5-.67-1.5-1.5.67-1.5 1.5-1.5 1.5.67 1.5 1.5zm6 0c0 .83-.67 1.5-1.5 1.5s-1.5-.67-1.5-1.5.67-1.5 1.5-1.5 1.5.67 1.5 1.5zm6 0c0 .83-.66 1.5-1.5 1.5-.82 0-1.5-.67-1.5-1.5s.68-1.5 1.5-1.5c.84 0 1.5.67 1.5 1.5zm6.02 0c0 .83-.67 1.5-1.5 1.5s-1.5-.67-1.5-1.5.67-1.5 1.5-1.5 1.5.67 1.5 1.5zm6 0c0 .83-.67 1.5-1.5 1.5-.82 0-1.5-.67-1.5-1.5s.68-1.5 1.5-1.5c.83 0 1.5.67 1.5 1.5zm6 0c0 .83-.66 1.5-1.5 1.5-.82 0-1.5-.67-1.5-1.5s.68-1.5 1.5-1.5c.84 0 1.5.67 1.5 1.5zm6.02 0c0 .83-.67 1.5-1.5 1.5s-1.5-.67-1.5-1.5.67-1.5 1.5-1.5 1.5.67 1.5 1.5zm6 0c0 .83-.66 1.5-1.5 1.5-.82 0-1.5-.67-1.5-1.5s.68-1.5 1.5-1.5c.84 0 1.5.67 1.5 1.5zm6 0c0 .83-.66 1.5-1.5 1.5-.8 0-1.5-.67-1.5-1.5s.7-1.5 1.5-1.5c.84 0 1.5.67 1.5 1.5zm6.02 0c0 .83-.67 1.5-1.5 1.5s-1.5-.67-1.5-1.5.67-1.5 1.5-1.5 1.5.67 1.5 1.5zm6 0c0 .83-.66 1.5-1.5 1.5-.82 0-1.5-.67-1.5-1.5s.68-1.5 1.5-1.5c.84 0 1.5.67 1.5 1.5zm6.02 0c0 .83-.68 1.5-1.5 1.5-.83 0-1.5-.67-1.5-1.5s.67-1.5 1.5-1.5c.82 0 1.5.67 1.5 1.5zm6 0c0 .83-.67 1.5-1.5 1.5s-1.5-.67-1.5-1.5.67-1.5 1.5-1.5 1.5.67 1.5 1.5zm6 0c0 .83-.66 1.5-1.5 1.5-.82 0-1.5-.67-1.5-1.5s.68-1.5 1.5-1.5c.84 0 1.5.67 1.5 1.5zm6.02 0c0 .83-.67 1.5-1.5 1.5s-1.5-.67-1.5-1.5.67-1.5 1.5-1.5 1.5.67 1.5 1.5zm6 0c0 .83-.67 1.5-1.5 1.5-.82 0-1.5-.67-1.5-1.5s.68-1.5 1.5-1.5c.83 0 1.5.67 1.5 1.5zm6 0c0 .83-.66 1.5-1.5 1.5-.82 0-1.5-.67-1.5-1.5s.68-1.5 1.5-1.5c.84 0 1.5.67 1.5 1.5zm6.02 0c0 .83-.67 1.5-1.5 1.5s-1.5-.67-1.5-1.5.67-1.5 1.5-1.5 1.5.67 1.5 1.5zm6 0c0 .83-.66 1.5-1.5 1.5-.82 0-1.5-.67-1.5-1.5s.68-1.5 1.5-1.5c.84 0 1.5.67 1.5 1.5zm6 0c0 .83-.66 1.5-1.5 1.5-.82 0-1.5-.67-1.5-1.5s.68-1.5 1.5-1.5c.84 0 1.5.67 1.5 1.5zm6.02 0c0 .83-.67 1.5-1.5 1.5s-1.5-.67-1.5-1.5.67-1.5 1.5-1.5 1.5.67 1.5 1.5zm6 0c0 .83-.66 1.5-1.5 1.5-.82 0-1.5-.67-1.5-1.5s.68-1.5 1.5-1.5c.84 0 1.5.67 1.5 1.5zm6.02 0c0 .83-.68 1.5-1.5 1.5-.83 0-1.5-.67-1.5-1.5s.67-1.5 1.5-1.5c.82 0 1.5.67 1.5 1.5zm6 0c0 .83-.67 1.5-1.5 1.5s-1.5-.67-1.5-1.5.67-1.5 1.5-1.5 1.5.67 1.5 1.5zm6 0c0 .83-.66 1.5-1.5 1.5-.82 0-1.5-.67-1.5-1.5s.68-1.5 1.5-1.5c.84 0 1.5.67 1.5 1.5zm6.02 0c0 .83-.67 1.5-1.5 1.5s-1.5-.67-1.5-1.5.67-1.5 1.5-1.5 1.5.67 1.5 1.5zm6 0c0 .83-.67 1.5-1.5 1.5-.82 0-1.5-.67-1.5-1.5s.68-1.5 1.5-1.5c.83 0 1.5.67 1.5 1.5zm6 0c0 .83-.66 1.5-1.5 1.5-.82 0-1.5-.67-1.5-1.5s.68-1.5 1.5-1.5c.84 0 1.5.67 1.5 1.5zm6.02 0c0 .83-.67 1.5-1.5 1.5s-1.5-.67-1.5-1.5.67-1.5 1.5-1.5 1.5.67 1.5 1.5zm6 0c0 .83-.67 1.5-1.5 1.5-.82 0-1.5-.67-1.5-1.5s.68-1.5 1.5-1.5c.83 0 1.5.67 1.5 1.5zm6 0c0 .83-.66 1.5-1.5 1.5-.82 0-1.5-.67-1.5-1.5s.68-1.5 1.5-1.5c.84 0 1.5.67 1.5 1.5zm6.02 0c0 .83-.67 1.5-1.5 1.5s-1.5-.67-1.5-1.5.67-1.5 1.5-1.5 1.5.67 1.5 1.5zm6 0c0 .83-.66 1.5-1.5 1.5-.82 0-1.5-.67-1.5-1.5s.68-1.5 1.5-1.5c.84 0 1.5.67 1.5 1.5zm6 0c0 .83-.66 1.5-1.5 1.5-.8 0-1.5-.67-1.5-1.5s.7-1.5 1.5-1.5c.84 0 1.5.67 1.5 1.5zm6.02 0c0 .83-.67 1.5-1.5 1.5s-1.5-.67-1.5-1.5.67-1.5 1.5-1.5 1.5.67 1.5 1.5zm6 0c0 .83-.66 1.5-1.5 1.5-.82 0-1.5-.67-1.5-1.5s.68-1.5 1.5-1.5c.84 0 1.5.67 1.5 1.5zm6.02 0c0 .83-.67 1.5-1.5 1.5s-1.5-.67-1.5-1.5.67-1.5 1.5-1.5 1.5.67 1.5 1.5zm5.65 2.34c0 .83-.67 1.5-1.5 1.5s-1.5-.67-1.5-1.5c0-.82.67-1.5 1.5-1.5s1.5.68 1.5 1.5zM1043 268c0 .83-.67 1.5-1.5 1.5s-1.5-.67-1.5-1.5.67-1.5 1.5-1.5 1.5.67 1.5 1.5zm0 6.05c0 .83-.67 1.5-1.5 1.5s-1.5-.67-1.5-1.5c0-.82.67-1.5 1.5-1.5s1.5.68 1.5 1.5zm0 6.06c0 .84-.67 1.5-1.5 1.5s-1.5-.66-1.5-1.5c0-.82.67-1.5 1.5-1.5s1.5.68 1.5 1.5zm0 6.06c0 .83-.67 1.5-1.5 1.5s-1.5-.67-1.5-1.5.67-1.5 1.5-1.5 1.5.67 1.5 1.5zm0 6.06c0 .82-.67 1.5-1.5 1.5s-1.5-.68-1.5-1.5c0-.83.67-1.5 1.5-1.5s1.5.67 1.5 1.5zm0 6.05c0 .83-.67 1.5-1.5 1.5s-1.5-.67-1.5-1.5.67-1.5 1.5-1.5 1.5.67 1.5 1.5zm0 6.05c0 .83-.67 1.5-1.5 1.5s-1.5-.67-1.5-1.5c0-.82.67-1.5 1.5-1.5s1.5.68 1.5 1.5zm0 6.06c0 .83-.67 1.5-1.5 1.5s-1.5-.67-1.5-1.5.67-1.5 1.5-1.5 1.5.67 1.5 1.5zm0 6.05c0 .83-.67 1.5-1.5 1.5s-1.5-.67-1.5-1.5.67-1.5 1.5-1.5 1.5.67 1.5 1.5zm0 6.06c0 .8-.67 1.5-1.5 1.5s-1.5-.7-1.5-1.5c0-.84.67-1.5 1.5-1.5s1.5.66 1.5 1.5zm0 6.04c0 .83-.67 1.5-1.5 1.5s-1.5-.67-1.5-1.5.67-1.5 1.5-1.5 1.5.67 1.5 1.5zm0 6.06c0 .82-.67 1.5-1.5 1.5s-1.5-.68-1.5-1.5c0-.83.67-1.5 1.5-1.5s1.5.67 1.5 1.5zm0 6.05c0 .83-.67 1.5-1.5 1.5s-1.5-.67-1.5-1.5.67-1.5 1.5-1.5 1.5.67 1.5 1.5zm0 6.05c0 .83-.67 1.5-1.5 1.5s-1.5-.67-1.5-1.5.67-1.5 1.5-1.5 1.5.67 1.5 1.5zm0 6.06c0 .82-.67 1.5-1.5 1.5s-1.5-.68-1.5-1.5c0-.83.67-1.5 1.5-1.5s1.5.67 1.5 1.5zm0 6.05c0 .84-.67 1.5-1.5 1.5s-1.5-.66-1.5-1.5c0-.82.67-1.5 1.5-1.5s1.5.68 1.5 1.5zm0 6.06c0 .83-.67 1.5-1.5 1.5s-1.5-.67-1.5-1.5c0-.82.67-1.5 1.5-1.5s1.5.68 1.5 1.5zm0 6.06c0 .83-.67 1.5-1.5 1.5s-1.5-.67-1.5-1.5.67-1.5 1.5-1.5 1.5.67 1.5 1.5zm0 6.05c0 .83-.67 1.5-1.5 1.5s-1.5-.67-1.5-1.5.67-1.5 1.5-1.5 1.5.67 1.5 1.5zm0 6.06c0 .83-.67 1.5-1.5 1.5s-1.5-.67-1.5-1.5.67-1.5 1.5-1.5 1.5.67 1.5 1.5zm0 6.05c0 .83-.67 1.5-1.5 1.5s-1.5-.67-1.5-1.5.67-1.5 1.5-1.5 1.5.67 1.5 1.5zm0 6.06c0 .82-.67 1.5-1.5 1.5s-1.5-.68-1.5-1.5c0-.83.67-1.5 1.5-1.5s1.5.67 1.5 1.5zm0 6.05c0 .82-.67 1.5-1.5 1.5s-1.5-.68-1.5-1.5c0-.84.67-1.5 1.5-1.5s1.5.66 1.5 1.5zm0 6.04c0 .83-.67 1.5-1.5 1.5s-1.5-.67-1.5-1.5c0-.82.67-1.5 1.5-1.5s1.5.68 1.5 1.5zm0 6.06c0 .83-.67 1.5-1.5 1.5s-1.5-.67-1.5-1.5.67-1.5 1.5-1.5 1.5.67 1.5 1.5zm0 6.05c0 .83-.67 1.5-1.5 1.5s-1.5-.67-1.5-1.5.67-1.5 1.5-1.5 1.5.67 1.5 1.5zm0 6.05c0 .83-.67 1.5-1.5 1.5s-1.5-.67-1.5-1.5c0-.82.67-1.5 1.5-1.5s1.5.68 1.5 1.5zm0 6.06c0 .83-.67 1.5-1.5 1.5s-1.5-.67-1.5-1.5.67-1.5 1.5-1.5 1.5.67 1.5 1.5zm0 6.05c0 .84-.67 1.5-1.5 1.5s-1.5-.66-1.5-1.5c0-.8.67-1.5 1.5-1.5s1.5.7 1.5 1.5zm0 6.07c0 .83-.67 1.5-1.5 1.5s-1.5-.67-1.5-1.5.67-1.5 1.5-1.5 1.5.67 1.5 1.5zm0 6.05c0 .83-.67 1.5-1.5 1.5s-1.5-.67-1.5-1.5.67-1.5 1.5-1.5 1.5.67 1.5 1.5zm0 6.06c0 .82-.67 1.5-1.5 1.5s-1.5-.68-1.5-1.5c0-.83.67-1.5 1.5-1.5s1.5.67 1.5 1.5zm0 6.05c0 .83-.67 1.5-1.5 1.5s-1.5-.67-1.5-1.5.67-1.5 1.5-1.5 1.5.67 1.5 1.5zm0 6.05c0 .83-.67 1.5-1.5 1.5s-1.5-.67-1.5-1.5c0-.82.67-1.5 1.5-1.5s1.5.68 1.5 1.5zm0 6.06c0 .83-.67 1.5-1.5 1.5s-1.5-.67-1.5-1.5.67-1.5 1.5-1.5 1.5.67 1.5 1.5zm0 6.05c0 .82-.67 1.5-1.5 1.5s-1.5-.68-1.5-1.5c0-.84.67-1.5 1.5-1.5s1.5.66 1.5 1.5zm0 6.05c0 .82-.67 1.5-1.5 1.5s-1.5-.68-1.5-1.5c0-.83.67-1.5 1.5-1.5s1.5.67 1.5 1.5zm0 6.05c0 .83-.67 1.5-1.5 1.5s-1.5-.67-1.5-1.5.67-1.5 1.5-1.5 1.5.67 1.5 1.5zm-2.35 5.66c0 .82-.67 1.5-1.5 1.5s-1.5-.68-1.5-1.5c0-.83.67-1.5 1.5-1.5s1.5.67 1.5 1.5zM1035 500c0 .83-.67 1.5-1.5 1.5s-1.5-.67-1.5-1.5.67-1.5 1.5-1.5 1.5.67 1.5 1.5zm-6 0c0 .83-.68 1.5-1.5 1.5-.84 0-1.5-.67-1.5-1.5s.66-1.5 1.5-1.5c.82 0 1.5.67 1.5 1.5zm-6.02 0c0 .83-.67 1.5-1.5 1.5s-1.5-.67-1.5-1.5.67-1.5 1.5-1.5 1.5.67 1.5 1.5zm-6 0c0 .83-.68 1.5-1.5 1.5-.83 0-1.5-.67-1.5-1.5s.67-1.5 1.5-1.5c.82 0 1.5.67 1.5 1.5zm-6 0c0 .83-.68 1.5-1.5 1.5-.84 0-1.5-.67-1.5-1.5s.66-1.5 1.5-1.5c.82 0 1.5.67 1.5 1.5zm-6.02 0c0 .83-.67 1.5-1.5 1.5s-1.5-.67-1.5-1.5.67-1.5 1.5-1.5 1.5.67 1.5 1.5zm-6 0c0 .83-.68 1.5-1.5 1.5-.84 0-1.5-.67-1.5-1.5s.66-1.5 1.5-1.5c.82 0 1.5.67 1.5 1.5zm-6 0c0 .83-.7 1.5-1.5 1.5-.84 0-1.5-.67-1.5-1.5s.66-1.5 1.5-1.5c.8 0 1.5.67 1.5 1.5zm-6.02 0c0 .83-.67 1.5-1.5 1.5s-1.5-.67-1.5-1.5.67-1.5 1.5-1.5 1.5.67 1.5 1.5zm-6 0c0 .83-.68 1.5-1.5 1.5-.84 0-1.5-.67-1.5-1.5s.66-1.5 1.5-1.5c.82 0 1.5.67 1.5 1.5zm-6.02 0c0 .83-.67 1.5-1.5 1.5-.82 0-1.5-.67-1.5-1.5s.68-1.5 1.5-1.5c.83 0 1.5.67 1.5 1.5zm-6 0c0 .83-.67 1.5-1.5 1.5s-1.5-.67-1.5-1.5.67-1.5 1.5-1.5 1.5.67 1.5 1.5zm-6 0c0 .83-.68 1.5-1.5 1.5-.84 0-1.5-.67-1.5-1.5s.66-1.5 1.5-1.5c.82 0 1.5.67 1.5 1.5zm-6.02 0c0 .83-.67 1.5-1.5 1.5s-1.5-.67-1.5-1.5.67-1.5 1.5-1.5 1.5.67 1.5 1.5zm-6 0c0 .83-.68 1.5-1.5 1.5-.83 0-1.5-.67-1.5-1.5s.67-1.5 1.5-1.5c.82 0 1.5.67 1.5 1.5zm-6 0c0 .83-.68 1.5-1.5 1.5-.84 0-1.5-.67-1.5-1.5s.66-1.5 1.5-1.5c.82 0 1.5.67 1.5 1.5zm-6.02 0c0 .83-.67 1.5-1.5 1.5s-1.5-.67-1.5-1.5.67-1.5 1.5-1.5 1.5.67 1.5 1.5zm-6 0c0 .83-.68 1.5-1.5 1.5-.84 0-1.5-.67-1.5-1.5s.66-1.5 1.5-1.5c.82 0 1.5.67 1.5 1.5zm-6 0c0 .83-.68 1.5-1.5 1.5-.84 0-1.5-.67-1.5-1.5s.66-1.5 1.5-1.5c.82 0 1.5.67 1.5 1.5zm-6.02 0c0 .83-.67 1.5-1.5 1.5s-1.5-.67-1.5-1.5.67-1.5 1.5-1.5 1.5.67 1.5 1.5zm-6 0c0 .83-.68 1.5-1.5 1.5-.84 0-1.5-.67-1.5-1.5s.66-1.5 1.5-1.5c.82 0 1.5.67 1.5 1.5zm-6 0c0 .83-.7 1.5-1.5 1.5-.84 0-1.5-.67-1.5-1.5s.66-1.5 1.5-1.5c.8 0 1.5.67 1.5 1.5zm-6.02 0c0 .83-.67 1.5-1.5 1.5s-1.5-.67-1.5-1.5.67-1.5 1.5-1.5 1.5.67 1.5 1.5zm-6 0c0 .83-.68 1.5-1.5 1.5-.84 0-1.5-.67-1.5-1.5s.66-1.5 1.5-1.5c.82 0 1.5.67 1.5 1.5zm-6.02 0c0 .83-.67 1.5-1.5 1.5s-1.5-.67-1.5-1.5.67-1.5 1.5-1.5 1.5.67 1.5 1.5zm-6 0c0 .83-.68 1.5-1.5 1.5-.83 0-1.5-.67-1.5-1.5s.67-1.5 1.5-1.5c.82 0 1.5.67 1.5 1.5zm-6 0c0 .83-.68 1.5-1.5 1.5-.84 0-1.5-.67-1.5-1.5s.66-1.5 1.5-1.5c.82 0 1.5.67 1.5 1.5zm-6.02 0c0 .83-.67 1.5-1.5 1.5s-1.5-.67-1.5-1.5.67-1.5 1.5-1.5 1.5.67 1.5 1.5zm-6 0c0 .83-.68 1.5-1.5 1.5-.83 0-1.5-.67-1.5-1.5s.67-1.5 1.5-1.5c.82 0 1.5.67 1.5 1.5zm-6 0c0 .83-.68 1.5-1.5 1.5-.84 0-1.5-.67-1.5-1.5s.66-1.5 1.5-1.5c.82 0 1.5.67 1.5 1.5zm-6.02 0c0 .83-.67 1.5-1.5 1.5s-1.5-.67-1.5-1.5.67-1.5 1.5-1.5 1.5.67 1.5 1.5zm-6 0c0 .83-.68 1.5-1.5 1.5-.84 0-1.5-.67-1.5-1.5s.66-1.5 1.5-1.5c.82 0 1.5.67 1.5 1.5zm-6 0c0 .83-.7 1.5-1.5 1.5-.84 0-1.5-.67-1.5-1.5s.66-1.5 1.5-1.5c.8 0 1.5.67 1.5 1.5zm-6.02 0c0 .83-.67 1.5-1.5 1.5s-1.5-.67-1.5-1.5.67-1.5 1.5-1.5 1.5.67 1.5 1.5zm-6 0c0 .83-.68 1.5-1.5 1.5-.84 0-1.5-.67-1.5-1.5s.66-1.5 1.5-1.5c.82 0 1.5.67 1.5 1.5zm-6.02 0c0 .83-.67 1.5-1.5 1.5s-1.5-.67-1.5-1.5.67-1.5 1.5-1.5 1.5.67 1.5 1.5zm-6 0c0 .83-.67 1.5-1.5 1.5s-1.5-.67-1.5-1.5.67-1.5 1.5-1.5 1.5.67 1.5 1.5zm-6 0c0 .83-.68 1.5-1.5 1.5-.84 0-1.5-.67-1.5-1.5s.66-1.5 1.5-1.5c.82 0 1.5.67 1.5 1.5zm-6.02 0c0 .83-.67 1.5-1.5 1.5s-1.5-.67-1.5-1.5.67-1.5 1.5-1.5 1.5.67 1.5 1.5zm-6 0c0 .83-.68 1.5-1.5 1.5-.83 0-1.5-.67-1.5-1.5s.67-1.5 1.5-1.5c.82 0 1.5.67 1.5 1.5zm-6 0c0 .83-.68 1.5-1.5 1.5-.84 0-1.5-.67-1.5-1.5s.66-1.5 1.5-1.5c.82 0 1.5.67 1.5 1.5zm-6.02 0c0 .83-.67 1.5-1.5 1.5s-1.5-.67-1.5-1.5.67-1.5 1.5-1.5 1.5.67 1.5 1.5zm-6 0c0 .83-.68 1.5-1.5 1.5-.84 0-1.5-.67-1.5-1.5s.66-1.5 1.5-1.5c.82 0 1.5.67 1.5 1.5zm-6.02 0c0 .83-.67 1.5-1.5 1.5-.82 0-1.5-.67-1.5-1.5s.68-1.5 1.5-1.5c.83 0 1.5.67 1.5 1.5zm-6 0c0 .83-.67 1.5-1.5 1.5s-1.5-.67-1.5-1.5.67-1.5 1.5-1.5 1.5.67 1.5 1.5zm-6 0c0 .83-.68 1.5-1.5 1.5-.84 0-1.5-.67-1.5-1.5s.66-1.5 1.5-1.5c.82 0 1.5.67 1.5 1.5zm-6.02 0c0 .83-.67 1.5-1.5 1.5-.82 0-1.5-.67-1.5-1.5s.68-1.5 1.5-1.5c.83 0 1.5.67 1.5 1.5zm-6 0c0 .83-.67 1.5-1.5 1.5s-1.5-.67-1.5-1.5.67-1.5 1.5-1.5 1.5.67 1.5 1.5zm-6 0c0 .83-.68 1.5-1.5 1.5-.84 0-1.5-.67-1.5-1.5s.66-1.5 1.5-1.5c.82 0 1.5.67 1.5 1.5zm-6.02 0c0 .83-.67 1.5-1.5 1.5s-1.5-.67-1.5-1.5.67-1.5 1.5-1.5 1.5.67 1.5 1.5zm-6 0c0 .83-.68 1.5-1.5 1.5-.83 0-1.5-.67-1.5-1.5s.67-1.5 1.5-1.5c.82 0 1.5.67 1.5 1.5zm-6 0c0 .83-.68 1.5-1.5 1.5-.84 0-1.5-.67-1.5-1.5s.66-1.5 1.5-1.5c.82 0 1.5.67 1.5 1.5zm-6.02 0c0 .83-.67 1.5-1.5 1.5s-1.5-.67-1.5-1.5.67-1.5 1.5-1.5 1.5.67 1.5 1.5zm-6 0c0 .83-.68 1.5-1.5 1.5-.84 0-1.5-.67-1.5-1.5s.66-1.5 1.5-1.5c.82 0 1.5.67 1.5 1.5zm-6 0c0 .83-.7 1.5-1.5 1.5-.84 0-1.5-.67-1.5-1.5s.66-1.5 1.5-1.5c.8 0 1.5.67 1.5 1.5zm-6.02 0c0 .83-.67 1.5-1.5 1.5s-1.5-.67-1.5-1.5.67-1.5 1.5-1.5 1.5.67 1.5 1.5zm-6 0c0 .83-.68 1.5-1.5 1.5-.84 0-1.5-.67-1.5-1.5s.66-1.5 1.5-1.5c.82 0 1.5.67 1.5 1.5zm-6.02 0c0 .83-.67 1.5-1.5 1.5s-1.5-.67-1.5-1.5.67-1.5 1.5-1.5 1.5.67 1.5 1.5zm-6 0c0 .83-.68 1.5-1.5 1.5-.83 0-1.5-.67-1.5-1.5s.67-1.5 1.5-1.5c.82 0 1.5.67 1.5 1.5zm-6 0c0 .83-.68 1.5-1.5 1.5-.84 0-1.5-.67-1.5-1.5s.66-1.5 1.5-1.5c.82 0 1.5.67 1.5 1.5zm-6.02 0c0 .83-.67 1.5-1.5 1.5s-1.5-.67-1.5-1.5.67-1.5 1.5-1.5 1.5.67 1.5 1.5zm-6 0c0 .83-.68 1.5-1.5 1.5-.83 0-1.5-.67-1.5-1.5s.67-1.5 1.5-1.5c.82 0 1.5.67 1.5 1.5zm-6 0c0 .83-.68 1.5-1.5 1.5-.84 0-1.5-.67-1.5-1.5s.66-1.5 1.5-1.5c.82 0 1.5.67 1.5 1.5zm-6.02 0c0 .83-.67 1.5-1.5 1.5s-1.5-.67-1.5-1.5.67-1.5 1.5-1.5 1.5.67 1.5 1.5zm-6 0c0 .83-.68 1.5-1.5 1.5-.83 0-1.5-.67-1.5-1.5s.67-1.5 1.5-1.5c.82 0 1.5.67 1.5 1.5zm-6 0c0 .83-.7 1.5-1.5 1.5-.84 0-1.5-.67-1.5-1.5s.66-1.5 1.5-1.5c.8 0 1.5.67 1.5 1.5zm-6.02 0c0 .83-.67 1.5-1.5 1.5s-1.5-.67-1.5-1.5.67-1.5 1.5-1.5 1.5.67 1.5 1.5zm-6 0c0 .83-.68 1.5-1.5 1.5-.84 0-1.5-.67-1.5-1.5s.66-1.5 1.5-1.5c.82 0 1.5.67 1.5 1.5zm-6.02 0c0 .83-.67 1.5-1.5 1.5-.82 0-1.5-.67-1.5-1.5s.68-1.5 1.5-1.5c.83 0 1.5.67 1.5 1.5zm-6 0c0 .83-.67 1.5-1.5 1.5s-1.5-.67-1.5-1.5.67-1.5 1.5-1.5 1.5.67 1.5 1.5zm-5.66-2.34c0 .82-.67 1.5-1.5 1.5s-1.5-.68-1.5-1.5c0-.83.67-1.5 1.5-1.5s1.5.67 1.5 1.5zM612.5 492c0 .83-.67 1.5-1.5 1.5s-1.5-.67-1.5-1.5.67-1.5 1.5-1.5 1.5.67 1.5 1.5zm0-6.05c0 .82-.67 1.5-1.5 1.5s-1.5-.68-1.5-1.5c0-.83.67-1.5 1.5-1.5s1.5.67 1.5 1.5zm0-6.06c0 .82-.67 1.5-1.5 1.5s-1.5-.68-1.5-1.5c0-.84.67-1.5 1.5-1.5s1.5.66 1.5 1.5zm0-6.06c0 .83-.67 1.5-1.5 1.5s-1.5-.67-1.5-1.5.67-1.5 1.5-1.5 1.5.67 1.5 1.5zm0-6.06c0 .83-.67 1.5-1.5 1.5s-1.5-.67-1.5-1.5c0-.82.67-1.5 1.5-1.5s1.5.68 1.5 1.5zm0-6.05c0 .83-.67 1.5-1.5 1.5s-1.5-.67-1.5-1.5.67-1.5 1.5-1.5 1.5.67 1.5 1.5zm0-6.05c0 .82-.67 1.5-1.5 1.5s-1.5-.68-1.5-1.5c0-.83.67-1.5 1.5-1.5s1.5.67 1.5 1.5zm0-6.06c0 .83-.67 1.5-1.5 1.5s-1.5-.67-1.5-1.5.67-1.5 1.5-1.5 1.5.67 1.5 1.5zm0-6.05c0 .83-.67 1.5-1.5 1.5s-1.5-.67-1.5-1.5.67-1.5 1.5-1.5 1.5.67 1.5 1.5zm0-6.06c0 .84-.67 1.5-1.5 1.5s-1.5-.66-1.5-1.5c0-.8.67-1.5 1.5-1.5s1.5.7 1.5 1.5zm0-6.04c0 .83-.67 1.5-1.5 1.5s-1.5-.67-1.5-1.5.67-1.5 1.5-1.5 1.5.67 1.5 1.5zm0-6.06c0 .83-.67 1.5-1.5 1.5s-1.5-.67-1.5-1.5c0-.82.67-1.5 1.5-1.5s1.5.68 1.5 1.5zm0-6.05c0 .83-.67 1.5-1.5 1.5s-1.5-.67-1.5-1.5.67-1.5 1.5-1.5 1.5.67 1.5 1.5zm0-6.05c0 .83-.67 1.5-1.5 1.5s-1.5-.67-1.5-1.5.67-1.5 1.5-1.5 1.5.67 1.5 1.5zm0-6.06c0 .83-.67 1.5-1.5 1.5s-1.5-.67-1.5-1.5c0-.82.67-1.5 1.5-1.5s1.5.68 1.5 1.5zm0-6.05c0 .82-.67 1.5-1.5 1.5s-1.5-.68-1.5-1.5c0-.84.67-1.5 1.5-1.5s1.5.66 1.5 1.5zm0-6.06c0 .82-.67 1.5-1.5 1.5s-1.5-.68-1.5-1.5c0-.83.67-1.5 1.5-1.5s1.5.67 1.5 1.5zm0-6.06c0 .83-.67 1.5-1.5 1.5s-1.5-.67-1.5-1.5.67-1.5 1.5-1.5 1.5.67 1.5 1.5zm0-6.05c0 .83-.67 1.5-1.5 1.5s-1.5-.67-1.5-1.5.67-1.5 1.5-1.5 1.5.67 1.5 1.5zm0-6.06c0 .83-.67 1.5-1.5 1.5s-1.5-.67-1.5-1.5.67-1.5 1.5-1.5 1.5.67 1.5 1.5zm0-6.05c0 .83-.67 1.5-1.5 1.5s-1.5-.67-1.5-1.5.67-1.5 1.5-1.5 1.5.67 1.5 1.5zm0-6.06c0 .83-.67 1.5-1.5 1.5s-1.5-.67-1.5-1.5c0-.82.67-1.5 1.5-1.5s1.5.68 1.5 1.5zm0-6.05c0 .84-.67 1.5-1.5 1.5s-1.5-.66-1.5-1.5c0-.82.67-1.5 1.5-1.5s1.5.68 1.5 1.5zm0-6.04c0 .82-.67 1.5-1.5 1.5s-1.5-.68-1.5-1.5c0-.83.67-1.5 1.5-1.5s1.5.67 1.5 1.5zm0-6.06c0 .83-.67 1.5-1.5 1.5s-1.5-.67-1.5-1.5.67-1.5 1.5-1.5 1.5.67 1.5 1.5zm0-6.05c0 .83-.67 1.5-1.5 1.5s-1.5-.67-1.5-1.5.67-1.5 1.5-1.5 1.5.67 1.5 1.5zm0-6.05c0 .82-.67 1.5-1.5 1.5s-1.5-.68-1.5-1.5c0-.83.67-1.5 1.5-1.5s1.5.67 1.5 1.5zm0-6.06c0 .83-.67 1.5-1.5 1.5s-1.5-.67-1.5-1.5.67-1.5 1.5-1.5 1.5.67 1.5 1.5zm0-6.05c0 .8-.67 1.5-1.5 1.5s-1.5-.7-1.5-1.5c0-.84.67-1.5 1.5-1.5s1.5.66 1.5 1.5zm0-6.07c0 .83-.67 1.5-1.5 1.5s-1.5-.67-1.5-1.5.67-1.5 1.5-1.5 1.5.67 1.5 1.5zm0-6.05c0 .83-.67 1.5-1.5 1.5s-1.5-.67-1.5-1.5.67-1.5 1.5-1.5 1.5.67 1.5 1.5zm0-6.06c0 .83-.67 1.5-1.5 1.5s-1.5-.67-1.5-1.5c0-.82.67-1.5 1.5-1.5s1.5.68 1.5 1.5zm0-6.05c0 .83-.67 1.5-1.5 1.5s-1.5-.67-1.5-1.5.67-1.5 1.5-1.5 1.5.67 1.5 1.5zm0-6.05c0 .82-.67 1.5-1.5 1.5s-1.5-.68-1.5-1.5c0-.83.67-1.5 1.5-1.5s1.5.67 1.5 1.5zm0-6.06c0 .83-.67 1.5-1.5 1.5s-1.5-.67-1.5-1.5.67-1.5 1.5-1.5 1.5.67 1.5 1.5zm0-6.05c0 .84-.67 1.5-1.5 1.5s-1.5-.66-1.5-1.5c0-.82.67-1.5 1.5-1.5s1.5.68 1.5 1.5zm0-6.05c0 .83-.67 1.5-1.5 1.5s-1.5-.67-1.5-1.5c0-.82.67-1.5 1.5-1.5s1.5.68 1.5 1.5zm0-6.05c0 .83-.67 1.5-1.5 1.5s-1.5-.67-1.5-1.5.67-1.5 1.5-1.5 1.5.67 1.5 1.5z" fill="#333"/><path d="M429 528a8 8 0 0 1 8-8h275a8 8 0 0 1 8 8v91.5a8 8 0 0 1-8 8H437a8 8 0 0 1-8-8z" stroke="#000" stroke-opacity="0" stroke-width="10" fill="#fff" fill-opacity="0"/><use xlink:href="#b" transform="matrix(1,0,0,1,434.0030367720724,525) translate(39.240530303030354 26.958333333333318)"/><use xlink:href="#c" transform="matrix(1,0,0,1,434.0030367720724,525) translate(135.48958333333331 26.958333333333318)"/><use xlink:href="#d" transform="matrix(1,0,0,1,434.0030367720724,525) translate(191.55018939393938 26.958333333333318)"/><use xlink:href="#e" transform="matrix(1,0,0,1,434.0030367720724,525) translate(227.84943181818176 26.958333333333318)"/><use xlink:href="#f" transform="matrix(1,0,0,1,434.0030367720724,525) translate(2.9062500000000853 56.81060606060602)"/><use xlink:href="#g" transform="matrix(1,0,0,1,434.0030367720724,525) translate(138.29261363636363 56.81060606060602)"/><use xlink:href="#h" transform="matrix(1,0,0,1,434.0030367720724,525) translate(197.33143939393935 56.81060606060602)"/><use xlink:href="#i" transform="matrix(1,0,0,1,434.0030367720724,525) translate(38.8025568181819 86.66287878787873)"/><use xlink:href="#j" transform="matrix(1,0,0,1,434.0030367720724,525) translate(69.42566287878793 86.66287878787873)"/><use xlink:href="#k" transform="matrix(1,0,0,1,434.0030367720724,525) translate(131.1974431818182 86.66287878787873)"/><use xlink:href="#l" transform="matrix(1,0,0,1,434.0030367720724,525) translate(190.09611742424238 86.66287878787873)"/><path d="M440 945a8 8 0 0 1 8-8h224a8 8 0 0 1 8 8v58.25a8 8 0 0 1-8 8H448a8 8 0 0 1-8-8z" stroke="#000" stroke-opacity="0" stroke-width="10" fill="#fff" fill-opacity="0"/><use xlink:href="#m" transform="matrix(1,0,0,1,445,941.9975183728689) translate(12.128787878788089 25.927083333333282)"/><use xlink:href="#n" transform="matrix(1,0,0,1,445,941.9975183728689) translate(64.51041666666677 25.927083333333282)"/><use xlink:href="#o" transform="matrix(1,0,0,1,445,941.9975183728689) translate(165.91003787878776 25.927083333333282)"/><use xlink:href="#p" transform="matrix(1,0,0,1,445,941.9975183728689) translate(60.708806818181934 55.77935606060595)"/><path d="M600.5 268a8 8 0 0 1 8-8h425a8 8 0 0 1 8 8v113.68a8 8 0 0 1-8 8h-425a8 8 0 0 1-8-8z" stroke="#000" stroke-opacity="0" stroke-width="10" fill="#fff" fill-opacity="0"/><use xlink:href="#b" transform="matrix(1,0,0,1,605.4969632279276,265) translate(42.57054924242436 38.895833333333314)"/><use xlink:href="#q" transform="matrix(1,0,0,1,605.4969632279276,265) translate(138.81960227272734 38.895833333333314)"/><use xlink:href="#r" transform="matrix(1,0,0,1,605.4969632279276,265) translate(300.97490530303025 38.895833333333314)"/><use xlink:href="#s" transform="matrix(1,0,0,1,605.4969632279276,265) translate(31.305871212121332 68.74810606060602)"/><use xlink:href="#t" transform="matrix(1,0,0,1,605.4969632279276,265) translate(182.56439393939394 68.74810606060602)"/><use xlink:href="#u" transform="matrix(1,0,0,1,605.4969632279276,265) translate(233.15909090909088 68.74810606060602)"/><use xlink:href="#v" transform="matrix(1,0,0,1,605.4969632279276,265) translate(313.11553030303025 68.74810606060602)"/><use xlink:href="#w" transform="matrix(1,0,0,1,605.4969632279276,265) translate(379.4071969696969 68.74810606060602)"/><use xlink:href="#x" transform="matrix(1,0,0,1,605.4969632279276,265) translate(120.37215909090915 98.60037878787873)"/><use xlink:href="#y" transform="matrix(1,0,0,1,605.4969632279276,265) translate(202.04545454545456 98.60037878787873)"/><path d="M828.75 441.72v-22.2c1.2-.56 2.1-1.4 2.7-2.6 1.4-2.8.2-6.26-2.7-7.62-2.9-1.4-6.3-.2-7.7 2.6-1.4 2.83-.2 6.28 2.6 7.63v22.14h-21.6v-14.1c1.9-1.04 3.1-2.87 3.1-5.06 0-3.18-2.6-5.73-5.8-5.68-2.2 0-4.1 1.1-5.1 3.03-1.5 2.8-.4 6.26 2.4 7.72v14.15h-1.1c-10.7-.05-19.3-8.62-19.3-19.2 0-10.56 8.8-19.06 19.5-19.06 2.5.05 4.6.4 6.9 1.3 6.2-13.05 22-18.74 35.2-12.63 5.8 2.66 10 6.68 12.7 12.42 2.1-.73 4-1 6.3-1.04 10.7 0 19.4 8.62 19.4 19.22s-8.7 19.15-19.4 19.15h-1.3v-14.3c1.1-.57 1.9-1.36 2.4-2.4 1.5-2.82.4-6.26-2.4-7.73-2.8-1.46-6.3-.36-7.8 2.4-1.5 2.83-.4 6.27 2.4 7.73v14.15z" stroke="#000" stroke-opacity="0" fill="#4285f4"/><path d="M802.05 456.5c4.78 1.1 7.98 5.2 7.83 10 0 5.7-4.7 10.36-10.5 10.4-5.83 0-10.53-4.65-10.53-10.36 0-4.8 3.13-8.83 7.9-10.03V441.7h5.08zm-2.68 15.03c2.83 0 5.07-2.25 5.07-5.04 0-2.75-2.24-5-5.07-5-2.84 0-5.08 2.25-5.08 5 0 2.77 2.23 5.03 5.07 5.03zm56.24-15.02c5.6 1.45 8.97 7.1 7.47 12.68-1.5 5.52-7.23 8.83-12.83 7.34-5.6-1.44-8.95-7.15-7.46-12.67.97-3.7 3.73-6.38 7.46-7.34v-14.78h5.37zm-2.67 15.03c2.3.1 4.25-1.2 5.07-3.3.9-2.65-.45-5.48-3.06-6.44-.52-.16-.97-.25-1.5-.3-2.75-.14-5.14 1.97-5.3 4.75-.13 2.74 2.03 5.14 4.8 5.28zm-24.1-2.16c5.6 1.4 9.03 6.96 7.6 12.48-1.4 5.52-7.07 8.88-12.67 7.54-5.6-1.4-9.03-7.02-7.6-12.54.96-3.8 3.72-6.53 7.6-7.5v-27.54h5.37zm-2.76 15.02c.67 0 1.27-.15 1.87-.4 2.6-1.05 3.88-3.97 2.83-6.52-1.12-2.6-4.03-3.8-6.64-2.73-2.6 1.05-3.88 3.98-2.76 6.52.82 1.88 2.6 3.03 4.7 2.98z" stroke="#000" stroke-opacity="0" fill="#669df6"/><path d="M791.25 409.68v32h70v-32z" stroke="#000" stroke-opacity="0" fill-opacity="0"/><path d="M892.74 885.7l26-26.03c2.37-2.33 4.7-2.33 7.04 0l.52.52c2.33 2.33 2.33 4.66 0 7.04l-26 26.02c-2.38 2.33-4.7 2.33-7.04 0l-.52-.52c-2.34-2.34-2.34-4.67 0-7.04z" stroke="#000" stroke-opacity="0" stroke-width=".71" fill="#198ab3"/><path d="M971 845.06c0 17.7-14.36 32.06-32.04 32.06-17.7 0-32.04-14.36-32.04-32.06 0-17.7 14.35-32.06 32.04-32.06 17.68 0 32.04 14.36 32.04 32.06z" stroke="#000" stroke-opacity="0" fill="url(#z)"/><path d="M964.04 844.52c0 13.92-11.27 25.2-25.16 25.2-13.9 0-25.16-11.28-25.16-25.2S925 819.3 938.88 819.3c13.88 0 25.16 11.3 25.16 25.22z" stroke="#000" stroke-opacity="0" fill="#fff"/><path d="M914.56 850.75s6.88-34.53 39.08-26.72c-9-6.67-20.8-6.58-29.72.26-8.52 6.1-12.12 16.32-9.36 26.45z" stroke="#000" stroke-opacity="0" fill="#c3f1ff"/><path d="M793.54 944.5a8 8 0 0 1 8-8h378.9a8 8 0 0 1 8 8v87a8 8 0 0 1-8 8h-378.9a8 8 0 0 1-8-8z" stroke="#000" stroke-opacity="0" stroke-width="10" fill="#fff" fill-opacity="0"/><g><use xlink:href="#A" transform="matrix(1,0,0,1,798.5437170701366,941.4954157406078) translate(53.18939393939405 26.833333333333318)"/><use xlink:href="#B" transform="matrix(1,0,0,1,798.5437170701366,941.4954157406078) translate(105.5710227272728 26.833333333333318)"/><use xlink:href="#t" transform="matrix(1,0,0,1,798.5437170701366,941.4954157406078) translate(191.2035984848485 26.833333333333318)"/><use xlink:href="#C" transform="matrix(1,0,0,1,798.5437170701366,941.4954157406078) translate(241.79829545454544 26.833333333333318)"/><use xlink:href="#D" transform="matrix(1,0,0,1,798.5437170701366,941.4954157406078) translate(32.65719696969708 56.68560606060602)"/><use xlink:href="#E" transform="matrix(1,0,0,1,798.5437170701366,941.4954157406078) translate(169.83049242424246 56.68560606060602)"/><use xlink:href="#F" transform="matrix(1,0,0,1,798.5437170701366,941.4954157406078) translate(239.31060606060603 56.68560606060602)"/><use xlink:href="#G" transform="matrix(1,0,0,1,798.5437170701366,941.4954157406078) translate(308.685606060606 56.68560606060602)"/><use xlink:href="#H" transform="matrix(1,0,0,1,798.5437170701366,941.4954157406078) translate(136.80729166666669 86.53787878787873)"/><use xlink:href="#I" transform="matrix(1,0,0,1,798.5437170701366,941.4954157406078) translate(209.33570075757575 86.53787878787873)"/></g><path d="M692.76 878.35c-4.27-.1-7.6.42-10.43 1.67-.8.34-2.06.34-2.2 1.42.46.5.46 1.26.86 1.84.62 1.18 1.8 2.77 2.83 3.6l3.4 2.6c2.13 1.42 4.42 2.26 6.47 3.6 1.2.83 2.37 1.92 3.56 2.76.63.5.95 1.26 1.74 1.5v-.16c-.4-.5-.48-1.26-.87-1.84l-1.58-1.68c-1.58-2.26-3.56-4.26-5.6-5.86-1.75-1.33-5.46-3-6.17-5.18l-.16-.1c1.18-.15 2.6-.57 3.7-1 1.83-.5 3.57-.33 5.38-.9l2.6-.77v-.58c-.94-1-1.65-2.43-2.67-3.35-2.77-2.6-5.77-5.1-8.85-7.2-1.66-1.1-3.87-1.92-5.6-2.84-.64-.34-1.75-.6-2.14-1.1-.95-1.33-1.5-3-2.14-4.5l-4.42-10.06c-.95-2.26-1.58-4.52-2.77-6.6-5.52-9.88-11.52-15.83-20.76-21.7-1.98-1.24-4.35-1.74-6.88-2.4l-4.02-.26c-.87-.34-1.74-1.5-2.45-2-3.1-2.1-11-6.63-13.28-.68-1.43 3.76 2.2 7.53 3.4 9.45.94 1.34 2.13 2.85 2.76 4.36.3.9.47 2 .87 3 .8 2.6 1.66 5.44 2.76 7.78.64 1.26 1.28 2.52 2 3.6.46.67 1.17.92 1.33 2-.7 1.18-.8 2.86-1.26 4.37-1.9 6.52-1.2 14.64 1.58 19.5.86 1.42 2.92 4.6 5.68 3.35 2.37-1 1.82-4.36 2.53-7.2.16-.76.08-1.17.4-1.68v.17l2.2 4.76c1.67 2.85 4.6 5.86 6.96 7.8 1.34 1.07 2.37 2.83 3.95 3.5v-.17h-.08c-.32-.5-.88-.76-1.27-1.18-.95-1.1-2.06-2.34-2.77-3.5-2.3-3.2-4.26-6.8-6.08-10.56-.8-1.76-1.58-3.77-2.3-5.53-.3-.75-.3-1.75-.86-2.1-.8 1.27-1.98 2.36-2.53 3.95-1.04 2.5-1.2 5.52-1.5 8.8-.25 0-.17 0-.25.07-1.74-.42-2.3-2.35-3-4.02-1.58-4.1-1.82-10.7-.47-15.48.4-1.17 2.05-5.02 1.34-6.2-.32-1.1-1.34-1.75-1.98-2.6-.7-1.08-1.42-2.5-1.9-3.67-1.33-3.27-1.97-6.87-3.3-10.13-.72-1.5-1.82-3.1-2.77-4.44-.95-1.58-2.14-2.67-2.93-4.5-.23-.68-.63-1.68-.23-2.44.16-.4.32-.58.8-.75.7-.57 2.68.18 3.4.6 1.97.84 3.63 1.67 5.3 2.84.78.6 1.57 1.68 2.5 2h1.12c1.74.43 3.7.1 5.3.68 2.84.92 5.44 2.43 7.74 3.94 7.03 4.85 12.87 11.7 16.74 19.83.63 1.33.95 2.6 1.5 3.93 1.2 2.84 2.53 5.77 3.64 8.53 1.18 2.77 2.2 5.53 3.87 7.8.8 1.24 4.04 1.83 5.46 2.5 1.1.5 2.76 1 3.7 1.6 1.83 1.24 3.64 2.58 5.38 3.92.87.76 3.56 2.18 3.72 3.35zm-54.83-50.4c-.7 0-1.42.1-2.13.34v.16h.08c.4.92 1.18 1.5 1.74 2.35l1.18 2.77.16-.1c.7-.57 1.1-1.5 1.1-2.92-.3-.4-.4-.83-.63-1.25-.3-.5-1.02-.84-1.5-1.26z" stroke="#000" stroke-opacity="0" stroke-width=".97" fill="#00678c"/><path d="M400 213a13 13 0 0 1 13-13h685a13 13 0 0 1 13 13v434a13 13 0 0 1-13 13H413a13 13 0 0 1-13-13z" fill-opacity="0"/><path d="M449.7 200h24.46m24.46 0h24.47m24.45 0h24.47m24.46 0h24.47m24.46 0h24.47m24.47 0h24.46m24.47 0h24.46m24.47 0h24.46m24.46 0h24.47m24.45 0h24.47m24.46 0h24.46m24.47 0h24.47m24.47 0h24.46m24.47 0H1098l2.03.16 1.98.48 1.9.78 1.74 1.06 1.55 1.33 1.3 1.56 1.08 1.74.78 1.88.48 2 .16 2.02v12.06m0 24.1v24.12m0 24.1v24.12m0 24.1v24.12m0 24.1v24.12m0 24.12v24.1m0 24.12v24.1m0 24.12v24.1m0 24.12v24.1m0 24.12V647l-.16 2.03-.48 2-.78 1.87-1.07 1.74-1.3 1.55-1.56 1.32-1.74 1.06-1.9.78-1.97.48-2.03.16h-12.23m-24.47 0h-24.46m-24.47 0H987.9m-24.46 0h-24.46m-24.46 0h-24.47m-24.46 0H841.1m-24.46 0H792.2m-24.47 0h-24.46m-24.47 0h-24.46m-24.47 0H645.4m-24.45 0h-24.47m-24.46 0h-24.47m-24.46 0H498.6m-24.46 0H449.7m-24.47 0H413l-2.03-.16-2-.48-1.87-.78-1.74-1.06-1.55-1.33-1.32-1.56-1.06-1.74-.78-1.88-.48-2L400 647v-12.06m0-24.1V586.7m0-24.1V538.5m0-24.1v-24.12m0-24.1v-24.12m0-24.12v-24.1m0-24.12v-24.1m0-24.12v-24.1m0-24.12v-24.1m0-24.12V213l.16-2.03.48-2 .78-1.87 1.06-1.74 1.33-1.55 1.56-1.32 1.74-1.06 1.88-.78 2-.48L413 200h12.23" stroke="#ff80df" stroke-width="6" fill="none"/><path d="M871 782a8 8 0 0 1 8-8h224a8 8 0 0 1 8 8v147a8 8 0 0 1-8 8H879a8 8 0 0 1-8-8z" stroke="#635dff" stroke-width="2" fill-opacity="0"/><path d="M1070.38 831.67c.4.33.62.8.62 1.3V885c0 2.02-1.77 3.64-4 3.64h-34.7V885h34.7l-.08-51.3v1.54h-16.23c-1.16 0-2.08-.8-2.08-1.87v-14.75h-30.53v42.4h-4.1v-42.4c0-2.02 1.86-3.64 4.1-3.64h33.2c.55 0 1.1.16 1.47.57zm-41.07 47.1c.94.4 1.4 1.36 1.1 2.25l-3 8.2c-.32.88-1.32 1.37-2.32 1.2l-4.84-.9-.62.42-.6 4.45c-.1.9-1 1.62-2 1.62h-9.55c-1 0-1.84-.73-2-1.63l-.54-4.46-.6-.4-4.86.88c-1.07.17-2-.4-2.38-1.3l-2.93-8.18c-.3-.9.15-1.78 1.07-2.2l4.54-1.93.23-.56-2.37-3.97c-.54-.8-.3-1.78.54-2.35l7.7-5.02c.83-.57 2-.5 2.68.24l3.38 3.24h.77l3.3-3.24c.7-.73 1.86-.8 2.7-.24l7.7 5.02c.84.57 1.07 1.62.6 2.43l-2.45 3.9.23.64zm-5.22 7.68l1.85-5.02-3.7-1.54c-.53-.25-.9-.66-1.07-1.14l-.77-2.2c-.16-.48-.08-.96.15-1.45l2-3.15-4.77-3.16-2.7 2.66c-.38.4-.92.57-1.46.57l-2.6.08c-.63-.07-1.1-.23-1.47-.64l-2.77-2.67-4.77 3.15 2 3.16c.32.5.32.98.16 1.55l-.76 2.1c-.16.5-.54.9-1.08 1.14l-3.7 1.53 1.78 5.02 4-.73c.53-.08 1.15.08 1.6.33l2 1.38c.47.32.78.8.86 1.3l.46 3.56 5.92.07.46-3.65c.08-.57.3-.97.77-1.3l2.08-1.37c.46-.25 1-.4 1.6-.33zM1010 862.87h-4.07V826c0-2.03 1.77-3.65 4-3.65h2.08V826h-2.07zm48.77 27.63h4.08v1.87c0 2.02-1.77 3.65-4 3.65h-30.54v-3.73h30.55zm-34.53-40.5v-3.74h34.53V850zm-16.7 25.76c2.55-2.35 6.7-2.43 9.24-.16 1.3 1.05 2 2.6 2 4.13.07 1.62-.62 3.08-1.77 4.2-1.22 1.15-2.84 1.8-4.6 1.88h-.16c-1.7 0-3.3-.64-4.54-1.7-2.54-2.27-2.7-6-.15-8.34zm16.7-16.62v-3.64h24.38v3.64zm28.45-27.55h11.84l-11.85-10.95zm-28.46 9.15v-3.65h16.22v3.65zm-10.15 40.68c.45-.5.68-1.05.68-1.62-.08-.56-.3-1.13-.77-1.53-.45-.4-1.07-.65-1.76-.65-.7 0-1.3.24-1.77.65-.92.9-.92 2.35.08 3.16.46.5 1.08.65 1.77.65.7 0 1.3-.25 1.77-.65z" stroke="#000" stroke-opacity="0" fill="#fe7070"/><path d="M1028.3 896.02h-20.93l-1.56-8.03-7.2.07-2.73-7.95 6.38-2.95-2.9-6.2 6.54-6.04v-2.06l.06-36.97 6-3.58h2.1l3.48-5.72 33.84-.08 18.1 16.7.6 51.27-7.2 4.12-.07 1.9-3.92 4.54z" stroke="#000" stroke-opacity="0" fill-opacity="0"/><path d="M560.03 771l.07-3.14.28-4.45.45-4.27.6-4.15.78-4.03.93-3.95 1.1-3.87 1.23-3.82 1.4-3.78 1.6-3.76 1.76-3.77 1.98-3.8 2.2-3.82 2.47-3.88 2.76-3.96 3.1-4.07 3.48-4.22 3.98-4.4 4.54-4.64 5.28-4.95 6.24-5.37 7.53-5.96 9.47-6.87L636 663.6l21.14-12.74 70.35-40.46 12.76-8.46 9.47-6.86 7.53-5.97 6.23-5.36 5.27-4.95 4.55-4.65 3.97-4.4 3.48-4.22 3.1-4.08 2.75-3.96 2.46-3.9 2.2-3.8 1.98-3.8 1.77-3.76 1.58-3.77 1.4-3.78 1.25-3.83 1.08-3.88.93-3.95.2-1.06" stroke="#635dff" stroke-width="3" stroke-linejoin="round" fill="none"/><path d="M561.53 770.98l-.03 1.5h-3l.03-1.56z" stroke="#635dff" stroke-width=".05" fill="#635dff"/><path d="M803.02 506.33l3.23 14.65-9.23-.9z" stroke="#635dff" stroke-width="3" fill="#635dff"/><path d="M588.78 771l.07-3.26.3-4.54.45-4.38.62-4.24.8-4.12.93-4.03 1.1-3.94 1.27-3.9 1.43-3.85 1.6-3.83 1.8-3.83 2.02-3.86 2.25-3.88 2.5-3.94 2.8-4.02 3.14-4.14 3.54-4.3 4.04-4.46 4.63-4.73 5.4-5.05 6.37-5.5 7.77-6.15 9.88-7.16 13.68-9.06 26.68-16.02 54-31.67 13.68-9.06 9.87-7.17 7.76-6.15 6.38-5.5 5.4-5.06 4.62-4.72 4.03-4.48 3.54-4.28 3.14-4.14 2.8-4.02 2.5-3.95 2.25-3.88 2-3.84 1.8-3.82 1.62-3.83 1.43-3.85 1.27-3.9 1.1-3.94.94-4.02.28-1.55" stroke="#635dff" stroke-width="3" stroke-linejoin="round" fill="none"/><path d="M590.28 770.98l-.03 1.5h-3l.03-1.56z" stroke="#635dff" stroke-width=".05" fill="#635dff"/><path d="M825.78 506.33l3.26 14.65-9.23-.9z" stroke="#635dff" stroke-width="3" fill="#635dff"/><path d="M991 752.38V664.5" stroke="#635dff" stroke-width="3" fill="none"/><path d="M991 768.14l-4.64-14.26h9.27z" stroke="#635dff" stroke-width="3" fill="#635dff"/><path d="M992.5 664.54h-3V663h3z" stroke="#635dff" stroke-width=".05" fill="#635dff"/><defs><radialGradient gradientUnits="userSpaceOnUse" id="a" fx="1018.84" fy="316.84" cx="1018.84" cy="316.84" r="215.25"><stop offset="0%" stop-color="#fff0f0"/><stop offset="71.04%" stop-color="#fff0f0"/><stop offset="100%" stop-color="#fff3d9"/></radialGradient><path fill="#635dff" d="M136-1828v-220h1536v220h-644V0H780v-1828H136" id="J"/><path fill="#635dff" d="M452-576c-6 211 135 376 336 368 233-10 396-164 396-420v-908h236V0h-236v-260h-16C1095-108 943 25 712 20 377 9 216-206 216-560v-976h236v960" id="K"/><path fill="#635dff" d="M840-1332c-228 7-388 135-388 360V0H216v-1536h228v232h16c48-143 212-258 400-256 29 0 98 1 124 4v240c-30-6-100-18-144-16" id="L"/><path fill="#635dff" d="M952 32C708 38 588-97 504-236h-28V0H248v-2048h236v756h20c84-136 200-270 444-264 288 7 472 161 573 372 108 226 107 617 0 842-100 211-282 367-569 374zM530-1070c-67 166-66 442 1 608 62 160 181 282 389 282 319 0 448-265 448-588 0-322-129-576-448-576-208 0-329 116-390 274" id="M"/><path fill="#635dff" d="M216 0v-1536h236V0H216zm288-1952c0 86-81 160-168 160s-168-74-168-160 81-160 168-160 168 74 168 160" id="N"/><path fill="#635dff" d="M844-1344c-250 5-392 162-392 420V0H216v-1536h228v240h20c73-154 217-263 448-260 349 8 519 217 520 580V0h-236v-960c3-231-128-388-352-384" id="O"/><path fill="#635dff" d="M1472-356c-81 240-294 384-612 388-314 0-521-155-630-374-113-227-112-601 0-830 106-217 302-384 606-384 475 0 684 339 660 868H312v-204h944c-7-269-152-447-420-452-198-4-333 114-401 250-58 110-57 222-55 374 4 329 162 540 480 540 202 0 327-90 384-240" id="P"/><g id="b"><use transform="matrix(0.008759469696969691,0,0,0.008759469696969691,0,0)" xlink:href="#J"/><use transform="matrix(0.008759469696969691,0,0,0.008759469696969691,15.8371212121212,0)" xlink:href="#K"/><use transform="matrix(0.008759469696969691,0,0,0.008759469696969691,30.167613636363615,0)" xlink:href="#L"/><use transform="matrix(0.008759469696969691,0,0,0.008759469696969691,39.347537878787854,0)" xlink:href="#M"/><use transform="matrix(0.008759469696969691,0,0,0.008759469696969691,54.65909090909088,0)" xlink:href="#N"/><use transform="matrix(0.008759469696969691,0,0,0.008759469696969691,60.51041666666662,0)" xlink:href="#O"/><use transform="matrix(0.008759469696969691,0,0,0.008759469696969691,74.94602272727268,0)" xlink:href="#P"/></g><path fill="#635dff" d="M728-176c184 3 360-85 360-240 0-133-100-185-228-216l-256-60c-141-33-244-86-310-156-120-119-130-353-24-494 95-127 270-214 490-214 302 0 467 146 544 364l-212 60c-51-127-146-220-332-220-162 0-326 82-328 228 0 59 21 105 64 139 86 72 291 106 428 141s240 84 307 152c125 117 132 357 25 500C1155-57 969 34 732 32c-311 1-533-140-584-400l224-56c41 161 158 245 356 248" id="Q"/><path fill="#635dff" d="M884-1536v200H88v-200h796zM912-8C806 31 647 29 540-23 419-82 320-195 320-376v-1528h236v1464c-3 157 61 231 204 232 42 1 74-6 104-12" id="R"/><g id="c"><use transform="matrix(0.008759469696969691,0,0,0.008759469696969691,0,0)" xlink:href="#Q"/><use transform="matrix(0.008759469696969691,0,0,0.008759469696969691,12.893939393939386,0)" xlink:href="#P"/><use transform="matrix(0.008759469696969691,0,0,0.008759469696969691,27.25946969696968,0)" xlink:href="#R"/><use transform="matrix(0.008759469696969691,0,0,0.008759469696969691,36.22916666666664,0)" xlink:href="#Q"/></g><path fill="#635dff" d="M920 32C676 38 556-97 472-236h-20v812H216v-2112h228v244h28c84-136 200-270 444-264 288 7 472 161 573 372 108 226 107 617 0 842-100 211-282 367-569 374zM498-1070c-67 166-66 442 1 608 62 160 181 282 389 282 319 0 448-265 448-588 0-322-129-576-448-576-208 0-329 116-390 274" id="S"/><g id="d"><use transform="matrix(0.008759469696969691,0,0,0.008759469696969691,0,0)" xlink:href="#K"/><use transform="matrix(0.008759469696969691,0,0,0.008759469696969691,14.330492424242415,0)" xlink:href="#S"/></g><path fill="#635dff" d="M1124-208C1047-67 898 39 668 36c-306-9-520-163-524-472-5-429 452-428 824-480 100-15 168-19 168-120 0-203-114-312-324-312-206 0-337 110-400 232l-224-80c96-234 308-360 616-360 350 0 568 167 568 544V0h-236v-208h-12zM380-424c-2 171 150 249 324 248 185 3 312-84 382-197 66-107 46-242 50-399-190 112-562 41-708 206-32 35-48 82-48 142" id="T"/><use transform="matrix(0.008759469696969691,0,0,0.008759469696969691,0,0)" xlink:href="#T" id="e"/><path fill="#635dff" d="M1444-448c-53 291-263 480-604 480-309 0-507-165-612-383-110-230-110-595 2-823 106-216 303-382 606-382 338 0 559 184 608 480h-236c-39-143-171-276-368-268-314 13-455 250-460 576-1 235 79 419 216 515 69 49 151 73 244 73 201-4 323-106 368-268h236" id="U"/><path fill="#635dff" d="M1204-67C1004 62 676 62 476-67S143-436 144-760c-1-326 132-568 332-697s528-129 728 0 333 371 332 697c1 324-133 564-332 693zM580-261c128 104 389 100 520 0 184-140 253-512 151-786-62-165-189-298-411-297-325 7-460 262-460 584 0 217 75 397 200 499" id="V"/><g id="f"><use transform="matrix(0.008759469696969691,0,0,0.008759469696969691,0,0)" xlink:href="#U"/><use transform="matrix(0.008759469696969691,0,0,0.008759469696969691,13.769886363636354,0)" xlink:href="#V"/><use transform="matrix(0.008759469696969691,0,0,0.008759469696969691,28.485795454545435,0)" xlink:href="#O"/><use transform="matrix(0.008759469696969691,0,0,0.008759469696969691,42.92140151515149,0)" xlink:href="#R"/><use transform="matrix(0.008759469696969691,0,0,0.008759469696969691,51.89109848484845,0)" xlink:href="#N"/><use transform="matrix(0.008759469696969691,0,0,0.008759469696969691,57.7424242424242,0)" xlink:href="#O"/><use transform="matrix(0.008759469696969691,0,0,0.008759469696969691,72.17803030303025,0)" xlink:href="#K"/><use transform="matrix(0.008759469696969691,0,0,0.008759469696969691,86.50852272727266,0)" xlink:href="#V"/><use transform="matrix(0.008759469696969691,0,0,0.008759469696969691,101.22443181818174,0)" xlink:href="#K"/><use transform="matrix(0.008759469696969691,0,0,0.008759469696969691,115.55492424242416,0)" xlink:href="#Q"/></g><path fill="#635dff" d="M1244-236C1160-98 1040 38 796 32c-286-7-469-163-569-374-107-225-108-616 0-842 101-211 285-365 573-372 244-6 359 127 444 264h20v-756h236V0h-228v-236h-28zm-664-22c123 99 362 103 488 4 128-101 200-285 200-514 0-227-69-406-198-504-125-96-370-93-492 4-126 100-198 279-198 500 0 223 74 408 200 510" id="W"/><g id="g"><use transform="matrix(0.008759469696969691,0,0,0.008759469696969691,0,0)" xlink:href="#W"/><use transform="matrix(0.008759469696969691,0,0,0.008759469696969691,15.31155303030302,0)" xlink:href="#T"/><use transform="matrix(0.008759469696969691,0,0,0.008759469696969691,29.221590909090892,0)" xlink:href="#R"/><use transform="matrix(0.008759469696969691,0,0,0.008759469696969691,38.191287878787854,0)" xlink:href="#T"/></g><path fill="#635dff" d="M1104-1052c4-173-131-299-304-292-212 9-348 163-348 384V0H216v-1536h228v240h20c59-155 204-260 412-260 216 0 340 107 412 260h16c75-152 235-262 460-260 300 6 468 196 468 528V0h-236v-1028c9-209-128-311-312-316-208-6-341 144-340 344V0h-240v-1052" id="X"/><g id="h"><use transform="matrix(0.008759469696969691,0,0,0.008759469696969691,0,0)" xlink:href="#Q"/><use transform="matrix(0.008759469696969691,0,0,0.008759469696969691,12.893939393939386,0)" xlink:href="#R"/><use transform="matrix(0.008759469696969691,0,0,0.008759469696969691,21.86363636363635,0)" xlink:href="#L"/><use transform="matrix(0.008759469696969691,0,0,0.008759469696969691,31.043560606060588,0)" xlink:href="#P"/><use transform="matrix(0.008759469696969691,0,0,0.008759469696969691,45.40909090909088,0)" xlink:href="#T"/><use transform="matrix(0.008759469696969691,0,0,0.008759469696969691,59.319128787878746,0)" xlink:href="#X"/></g><g id="i"><use transform="matrix(0.008759469696969691,0,0,0.008759469696969691,0,0)" xlink:href="#R"/><use transform="matrix(0.008759469696969691,0,0,0.008759469696969691,8.969696969696964,0)" xlink:href="#V"/></g><path fill="#635dff" d="M820 224c-80 231-250 391-559 342-31-6-53-12-65-18l60-208c117 28 200 27 270-42 54-53 103-195 138-290L96-1536h256L776-312h16l424-1224h256" id="Y"/><g id="j"><use transform="matrix(0.008759469696969691,0,0,0.008759469696969691,0,0)" xlink:href="#Q"/><use transform="matrix(0.008759469696969691,0,0,0.008759469696969691,12.893939393939386,0)" xlink:href="#Y"/><use transform="matrix(0.008759469696969691,0,0,0.008759469696969691,26.62878787878786,0)" xlink:href="#O"/><use transform="matrix(0.008759469696969691,0,0,0.008759469696969691,41.06439393939391,0)" xlink:href="#U"/></g><g id="k"><use transform="matrix(0.008759469696969691,0,0,0.008759469696969691,0,0)" xlink:href="#Y"/><use transform="matrix(0.008759469696969691,0,0,0.008759469696969691,13.734848484848476,0)" xlink:href="#V"/><use transform="matrix(0.008759469696969691,0,0,0.008759469696969691,28.450757575757557,0)" xlink:href="#K"/><use transform="matrix(0.008759469696969691,0,0,0.008759469696969691,42.78124999999997,0)" xlink:href="#L"/></g><g id="l"><use transform="matrix(0.008759469696969691,0,0,0.008759469696969691,0,0)" xlink:href="#W"/><use transform="matrix(0.008759469696969691,0,0,0.008759469696969691,15.31155303030302,0)" xlink:href="#T"/><use transform="matrix(0.008759469696969691,0,0,0.008759469696969691,29.221590909090892,0)" xlink:href="#R"/><use transform="matrix(0.008759469696969691,0,0,0.008759469696969691,38.191287878787854,0)" xlink:href="#T"/></g><path fill="#635dff" d="M72-2048h284l568 956h24l568-956h284L1060-844V0H812v-844" id="Z"/><g id="m"><use transform="matrix(0.008759469696969679,0,0,0.008759469696969679,0,0)" xlink:href="#Z"/><use transform="matrix(0.008759469696969679,0,0,0.008759469696969679,16.397727272727238,0)" xlink:href="#V"/><use transform="matrix(0.008759469696969679,0,0,0.008759469696969679,31.113636363636296,0)" xlink:href="#K"/></g><g id="n"><use transform="matrix(0.008759469696969679,0,0,0.008759469696969679,0,0)" xlink:href="#U"/><use transform="matrix(0.008759469696969679,0,0,0.008759469696969679,13.769886363636335,0)" xlink:href="#V"/><use transform="matrix(0.008759469696969679,0,0,0.008759469696969679,28.485795454545396,0)" xlink:href="#O"/><use transform="matrix(0.008759469696969679,0,0,0.008759469696969679,42.92140151515144,0)" xlink:href="#O"/><use transform="matrix(0.008759469696969679,0,0,0.008759469696969679,57.357007575757464,0)" xlink:href="#P"/><use transform="matrix(0.008759469696969679,0,0,0.008759469696969679,71.72253787878773,0)" xlink:href="#U"/><use transform="matrix(0.008759469696969679,0,0,0.008759469696969679,85.49242424242406,0)" xlink:href="#R"/></g><g id="o"><use transform="matrix(0.008759469696969679,0,0,0.008759469696969679,0,0)" xlink:href="#Y"/><use transform="matrix(0.008759469696969679,0,0,0.008759469696969679,13.734848484848456,0)" xlink:href="#V"/><use transform="matrix(0.008759469696969679,0,0,0.008759469696969679,28.450757575757514,0)" xlink:href="#K"/><use transform="matrix(0.008759469696969679,0,0,0.008759469696969679,42.78124999999991,0)" xlink:href="#L"/></g><g id="p"><use transform="matrix(0.008759469696969679,0,0,0.008759469696969679,0,0)" xlink:href="#W"/><use transform="matrix(0.008759469696969679,0,0,0.008759469696969679,15.311553030303,0)" xlink:href="#T"/><use transform="matrix(0.008759469696969679,0,0,0.008759469696969679,29.22159090909085,0)" xlink:href="#R"/><use transform="matrix(0.008759469696969679,0,0,0.008759469696969679,38.191287878787804,0)" xlink:href="#T"/><use transform="matrix(0.008759469696969679,0,0,0.008759469696969679,52.10132575757565,0)" xlink:href="#M"/><use transform="matrix(0.008759469696969679,0,0,0.008759469696969679,67.41287878787865,0)" xlink:href="#T"/><use transform="matrix(0.008759469696969679,0,0,0.008759469696969679,81.3229166666665,0)" xlink:href="#Q"/><use transform="matrix(0.008759469696969679,0,0,0.008759469696969679,94.21685606060586,0)" xlink:href="#P"/></g><path fill="#635dff" d="M452-2048V0H216v-2048h236" id="aa"/><g id="q"><use transform="matrix(0.008759469696969691,0,0,0.008759469696969691,0,0)" xlink:href="#T"/><use transform="matrix(0.008759469696969691,0,0,0.008759469696969691,13.91003787878787,0)" xlink:href="#K"/><use transform="matrix(0.008759469696969691,0,0,0.008759469696969691,28.240530303030283,0)" xlink:href="#R"/><use transform="matrix(0.008759469696969691,0,0,0.008759469696969691,37.210227272727245,0)" xlink:href="#V"/><use transform="matrix(0.008759469696969691,0,0,0.008759469696969691,51.92613636363633,0)" xlink:href="#X"/><use transform="matrix(0.008759469696969691,0,0,0.008759469696969691,73.36931818181813,0)" xlink:href="#T"/><use transform="matrix(0.008759469696969691,0,0,0.008759469696969691,87.279356060606,0)" xlink:href="#R"/><use transform="matrix(0.008759469696969691,0,0,0.008759469696969691,96.24905303030297,0)" xlink:href="#N"/><use transform="matrix(0.008759469696969691,0,0,0.008759469696969691,102.10037878787871,0)" xlink:href="#U"/><use transform="matrix(0.008759469696969691,0,0,0.008759469696969691,115.87026515151508,0)" xlink:href="#T"/><use transform="matrix(0.008759469696969691,0,0,0.008759469696969691,129.78030303030295,0)" xlink:href="#aa"/><use transform="matrix(0.008759469696969691,0,0,0.008759469696969691,135.6316287878787,0)" xlink:href="#aa"/><use transform="matrix(0.008759469696969691,0,0,0.008759469696969691,141.48295454545445,0)" xlink:href="#Y"/></g><g id="r"><use transform="matrix(0.008759469696969691,0,0,0.008759469696969691,0,0)" xlink:href="#U"/><use transform="matrix(0.008759469696969691,0,0,0.008759469696969691,13.769886363636354,0)" xlink:href="#L"/><use transform="matrix(0.008759469696969691,0,0,0.008759469696969691,22.94981060606059,0)" xlink:href="#P"/><use transform="matrix(0.008759469696969691,0,0,0.008759469696969691,37.315340909090885,0)" xlink:href="#T"/><use transform="matrix(0.008759469696969691,0,0,0.008759469696969691,51.22537878787875,0)" xlink:href="#R"/><use transform="matrix(0.008759469696969691,0,0,0.008759469696969691,60.195075757575715,0)" xlink:href="#P"/><use transform="matrix(0.008759469696969691,0,0,0.008759469696969691,74.560606060606,0)" xlink:href="#Q"/></g><path fill="#635dff" d="M800-1556c245-6 363 127 448 264h24v-244h228V44c-3 395-276 558-664 564-313 5-510-121-628-308l188-132c90 123 207 236 440 232 245-5 428-117 428-372v-312h-20c-83 138-204 266-448 260-278-7-463-145-566-344-111-214-110-600-3-820 101-208 286-361 573-368zM380-780c0 315 135 544 448 544 312 0 440-225 440-544s-127-564-440-564c-315 0-448 249-448 564" id="ab"/><g id="s"><use transform="matrix(0.008759469696969691,0,0,0.008759469696969691,0,0)" xlink:href="#P"/><use transform="matrix(0.008759469696969691,0,0,0.008759469696969691,14.365530303030294,0)" xlink:href="#X"/><use transform="matrix(0.008759469696969691,0,0,0.008759469696969691,35.808712121212096,0)" xlink:href="#M"/><use transform="matrix(0.008759469696969691,0,0,0.008759469696969691,51.12026515151511,0)" xlink:href="#P"/><use transform="matrix(0.008759469696969691,0,0,0.008759469696969691,65.48579545454541,0)" xlink:href="#W"/><use transform="matrix(0.008759469696969691,0,0,0.008759469696969691,80.79734848484843,0)" xlink:href="#W"/><use transform="matrix(0.008759469696969691,0,0,0.008759469696969691,96.10890151515144,0)" xlink:href="#N"/><use transform="matrix(0.008759469696969691,0,0,0.008759469696969691,101.96022727272721,0)" xlink:href="#O"/><use transform="matrix(0.008759469696969691,0,0,0.008759469696969691,116.39583333333324,0)" xlink:href="#ab"/><use transform="matrix(0.008759469696969691,0,0,0.008759469696969691,131.42708333333323,0)" xlink:href="#Q"/></g><g id="t"><use transform="matrix(0.008759469696969691,0,0,0.008759469696969691,0,0)" xlink:href="#T"/><use transform="matrix(0.008759469696969691,0,0,0.008759469696969691,13.91003787878787,0)" xlink:href="#O"/><use transform="matrix(0.008759469696969691,0,0,0.008759469696969691,28.34564393939392,0)" xlink:href="#W"/></g><g id="u"><use transform="matrix(0.008759469696969691,0,0,0.008759469696969691,0,0)" xlink:href="#Q"/><use transform="matrix(0.008759469696969691,0,0,0.008759469696969691,12.893939393939386,0)" xlink:href="#R"/><use transform="matrix(0.008759469696969691,0,0,0.008759469696969691,21.86363636363635,0)" xlink:href="#V"/><use transform="matrix(0.008759469696969691,0,0,0.008759469696969691,36.57954545454543,0)" xlink:href="#L"/><use transform="matrix(0.008759469696969691,0,0,0.008759469696969691,45.75946969696967,0)" xlink:href="#P"/><use transform="matrix(0.008759469696969691,0,0,0.008759469696969691,60.12499999999996,0)" xlink:href="#Q"/></g><path fill="#635dff" d="M856-1344c-254 4-404 159-404 420V0H216v-2048h236v752h20c75-159 213-263 452-260 352 7 524 215 524 580V0h-236v-960c3-234-128-388-356-384" id="ac"/><g id="v"><use transform="matrix(0.008759469696969691,0,0,0.008759469696969691,0,0)" xlink:href="#R"/><use transform="matrix(0.008759469696969691,0,0,0.008759469696969691,8.969696969696964,0)" xlink:href="#ac"/><use transform="matrix(0.008759469696969691,0,0,0.008759469696969691,23.54545454545453,0)" xlink:href="#P"/><use transform="matrix(0.008759469696969691,0,0,0.008759469696969691,37.91098484848482,0)" xlink:href="#X"/></g><g id="w"><use transform="matrix(0.008759469696969691,0,0,0.008759469696969691,0,0)" xlink:href="#N"/><use transform="matrix(0.008759469696969691,0,0,0.008759469696969691,5.851325757575753,0)" xlink:href="#O"/></g><path fill="#635dff" d="M1472-1536L904 0H664L96-1536h256L776-312h16l424-1224h256" id="ad"/><g id="x"><use transform="matrix(0.008759469696969691,0,0,0.008759469696969691,0,0)" xlink:href="#ad"/><use transform="matrix(0.008759469696969691,0,0,0.008759469696969691,13.734848484848476,0)" xlink:href="#P"/><use transform="matrix(0.008759469696969691,0,0,0.008759469696969691,28.100378787878768,0)" xlink:href="#U"/><use transform="matrix(0.008759469696969691,0,0,0.008759469696969691,41.87026515151512,0)" xlink:href="#R"/><use transform="matrix(0.008759469696969691,0,0,0.008759469696969691,50.839962121212075,0)" xlink:href="#V"/><use transform="matrix(0.008759469696969691,0,0,0.008759469696969691,65.55587121212116,0)" xlink:href="#L"/></g><g id="y"><use transform="matrix(0.008759469696969691,0,0,0.008759469696969691,0,0)" xlink:href="#W"/><use transform="matrix(0.008759469696969691,0,0,0.008759469696969691,15.31155303030302,0)" xlink:href="#T"/><use transform="matrix(0.008759469696969691,0,0,0.008759469696969691,29.221590909090892,0)" xlink:href="#R"/><use transform="matrix(0.008759469696969691,0,0,0.008759469696969691,38.191287878787854,0)" xlink:href="#T"/><use transform="matrix(0.008759469696969691,0,0,0.008759469696969691,52.10132575757572,0)" xlink:href="#M"/><use transform="matrix(0.008759469696969691,0,0,0.008759469696969691,67.41287878787874,0)" xlink:href="#T"/><use transform="matrix(0.008759469696969691,0,0,0.008759469696969691,81.32291666666661,0)" xlink:href="#Q"/><use transform="matrix(0.008759469696969691,0,0,0.008759469696969691,94.216856060606,0)" xlink:href="#P"/></g><radialGradient gradientUnits="userSpaceOnUse" id="z" fx="931" fy="854" cx="931" cy="854" r="41"><stop offset="22.5%" stop-color="#32d4f5"/><stop offset="59%" stop-color="#32d2f2"/><stop offset="82.5%" stop-color="#32caea"/><stop offset="100%" stop-color="#32bedd"/></radialGradient><g id="A"><use transform="matrix(0.008759469696969691,0,0,0.008759469696969691,0,0)" xlink:href="#Z"/><use transform="matrix(0.008759469696969691,0,0,0.008759469696969691,16.397727272727263,0)" xlink:href="#V"/><use transform="matrix(0.008759469696969691,0,0,0.008759469696969691,31.113636363636346,0)" xlink:href="#K"/></g><g id="B"><use transform="matrix(0.008759469696969691,0,0,0.008759469696969691,0,0)" xlink:href="#Q"/><use transform="matrix(0.008759469696969691,0,0,0.008759469696969691,12.893939393939386,0)" xlink:href="#P"/><use transform="matrix(0.008759469696969691,0,0,0.008759469696969691,27.25946969696968,0)" xlink:href="#T"/><use transform="matrix(0.008759469696969691,0,0,0.008759469696969691,41.16950757575755,0)" xlink:href="#L"/><use transform="matrix(0.008759469696969691,0,0,0.008759469696969691,50.349431818181785,0)" xlink:href="#U"/><use transform="matrix(0.008759469696969691,0,0,0.008759469696969691,64.11931818181814,0)" xlink:href="#ac"/></g><g id="C"><use transform="matrix(0.008759469696969691,0,0,0.008759469696969691,0,0)" xlink:href="#L"/><use transform="matrix(0.008759469696969691,0,0,0.008759469696969691,9.179924242424237,0)" xlink:href="#P"/><use transform="matrix(0.008759469696969691,0,0,0.008759469696969691,23.545454545454533,0)" xlink:href="#R"/><use transform="matrix(0.008759469696969691,0,0,0.008759469696969691,32.515151515151494,0)" xlink:href="#L"/><use transform="matrix(0.008759469696969691,0,0,0.008759469696969691,41.69507575757573,0)" xlink:href="#N"/><use transform="matrix(0.008759469696969691,0,0,0.008759469696969691,47.54640151515148,0)" xlink:href="#P"/><use transform="matrix(0.008759469696969691,0,0,0.008759469696969691,61.91193181818177,0)" xlink:href="#ad"/><use transform="matrix(0.008759469696969691,0,0,0.008759469696969691,75.64678030303024,0)" xlink:href="#P"/></g><g id="D"><use transform="matrix(0.008759469696969691,0,0,0.008759469696969691,0,0)" xlink:href="#W"/><use transform="matrix(0.008759469696969691,0,0,0.008759469696969691,15.31155303030302,0)" xlink:href="#V"/><use transform="matrix(0.008759469696969691,0,0,0.008759469696969691,30.027462121212103,0)" xlink:href="#U"/><use transform="matrix(0.008759469696969691,0,0,0.008759469696969691,43.797348484848456,0)" xlink:href="#K"/><use transform="matrix(0.008759469696969691,0,0,0.008759469696969691,58.12784090909087,0)" xlink:href="#X"/><use transform="matrix(0.008759469696969691,0,0,0.008759469696969691,79.57102272727268,0)" xlink:href="#P"/><use transform="matrix(0.008759469696969691,0,0,0.008759469696969691,93.93655303030297,0)" xlink:href="#O"/><use transform="matrix(0.008759469696969691,0,0,0.008759469696969691,108.37215909090902,0)" xlink:href="#R"/><use transform="matrix(0.008759469696969691,0,0,0.008759469696969691,117.34185606060599,0)" xlink:href="#Q"/></g><g id="E"><use transform="matrix(0.008759469696969691,0,0,0.008759469696969691,0,0)" xlink:href="#K"/><use transform="matrix(0.008759469696969691,0,0,0.008759469696969691,14.330492424242415,0)" xlink:href="#Q"/><use transform="matrix(0.008759469696969691,0,0,0.008759469696969691,27.2244318181818,0)" xlink:href="#N"/><use transform="matrix(0.008759469696969691,0,0,0.008759469696969691,33.07575757575755,0)" xlink:href="#O"/><use transform="matrix(0.008759469696969691,0,0,0.008759469696969691,47.5113636363636,0)" xlink:href="#ab"/></g><path fill="#635dff" d="M416-528c25 237 225 334 480 340 191 1 347-70 434-176 77-95 92-271 9-362-134-144-391-180-603-246-159-49-287-112-380-197s-140-197-140-335c2-255 159-414 346-500 201-93 507-96 706-2 181 82 329 236 340 470h-240c-21-207-226-322-460-320-179-1-321 63-396 165-66 83-79 226-16 315 149 209 491 208 742 314 205 86 398 215 398 506 0 256-147 420-338 513-201 98-573 103-782 8-194-88-336-247-356-493h256" id="ae"/><path fill="#635dff" d="M880 0H248v-2048h660c417 0 690 188 835 474 147 290 146 807-1 1096C1593-185 1311 0 880 0zm736-1028c0-494-230-796-724-800H496v1608h368c511-2 752-300 752-808" id="af"/><path fill="#635dff" d="M248 0v-2048h248v1016h24l920-1016h324l-860 924L1764 0h-300L752-952 496-664V0H248" id="ag"/><g id="F"><use transform="matrix(0.008759469696969691,0,0,0.008759469696969691,0,0)" xlink:href="#ae"/><use transform="matrix(0.008759469696969691,0,0,0.008759469696969691,15.732007575757565,0)" xlink:href="#af"/><use transform="matrix(0.008759469696969691,0,0,0.008759469696969691,33.46117424242422,0)" xlink:href="#ag"/><use transform="matrix(0.008759469696969691,0,0,0.008759469696969691,49.54356060606057,0)" xlink:href="#Q"/></g><g id="G"><use transform="matrix(0.008759469696969691,0,0,0.008759469696969691,0,0)" xlink:href="#T"/><use transform="matrix(0.008759469696969691,0,0,0.008759469696969691,13.91003787878787,0)" xlink:href="#O"/><use transform="matrix(0.008759469696969691,0,0,0.008759469696969691,28.34564393939392,0)" xlink:href="#W"/></g><path fill="#635dff" d="M248 0v-2048h248v912h1092v-912h248V0h-248v-916H496V0H248" id="ah"/><path fill="#635dff" d="M1392-1400c0-284-160-428-460-428H496V0H248v-2048h692c313-4 518 120 622 320 49 98 74 207 74 328-13 418-252 652-692 652H448v-220h488c298 2 456-149 456-432" id="ai"/><g id="H"><use transform="matrix(0.008759469696969691,0,0,0.008759469696969691,0,0)" xlink:href="#ah"/><use transform="matrix(0.008759469696969691,0,0,0.008759469696969691,18.254734848484837,0)" xlink:href="#J"/><use transform="matrix(0.008759469696969691,0,0,0.008759469696969691,34.091856060606034,0)" xlink:href="#J"/><use transform="matrix(0.008759469696969691,0,0,0.008759469696969691,49.92897727272724,0)" xlink:href="#ai"/></g><path fill="#635dff" d="M332 0H72l752-2048h256L1832 0h-260L960-1724h-16zm96-800h1048v220H428v-220" id="aj"/><path fill="#635dff" d="M496-2048V0H248v-2048h248" id="ak"/><g id="I"><use transform="matrix(0.008759469696969691,0,0,0.008759469696969691,0,0)" xlink:href="#aj"/><use transform="matrix(0.008759469696969691,0,0,0.008759469696969691,16.67803030303029,0)" xlink:href="#ai"/><use transform="matrix(0.008759469696969691,0,0,0.008759469696969691,32.339962121212096,0)" xlink:href="#ak"/></g></defs></g></svg>