<svg xmlns="http://www.w3.org/2000/svg" xmlns:xlink="http://www.w3.org/1999/xlink" xmlns:lucid="lucid" width="1368" height="761.01"><g transform="translate(-155 -259.5)" lucid:page-tab-id="0_0"><path d="M260 523.8a8 8 0 0 1 8-8h304a8 8 0 0 1 8 8v147a8 8 0 0 1-8 8H268a8 8 0 0 1-8-8z" stroke="#635dff" stroke-width="2" fill-opacity="0"/><path d="M429.6 544.56l3.43 5.2c.82.92 1.63 1.75 2.62 2.58 2.92 2.28 5.66 4.78 8.17 7.37 5.82 6.13 9.8 13 12.64 20.36 1.7 4.56 2.63 9.23 2.7 13.9.28 14.02-5.73 26.06-17.85 36.02-1.97 1.56-4.13 3.12-6.35 4.36-1.22 0-1.8-.73-2.27-1.35-.93-1.25-1.5-2.7-1.8-4.16-.4-1.66-.7-3.32-.53-5.1v-.82c-.12-.1-1.17-77.95-.76-78.36z" stroke="#000" stroke-opacity="0" stroke-width="2" fill="#599636"/><path d="M429.6 544.35c-.13-.2-.3 0-.42.1.06 1.14-.46 2.08-1.22 3.12-.82.93-1.98 1.66-3.1 2.5-6.3 4.35-11.24 9.54-15.2 15.45-5.25 7.9-8 16.4-8.75 25.33-.34 3.22 1.3 14.53 2.52 17.85 3.5 8.72 9.73 16 17.78 22.32 1.98 1.56 4.08 2.9 6.3 4.26.63 0 .7-.42.8-.73.3-.83.53-1.45.65-2.18l1.46-8.5-.8-79.52z" stroke="#000" stroke-opacity="0" stroke-width="2" fill="#6cac48"/><path d="M433.03 637.77c.18-1.25.93-2.4 1.8-3.43-.87-.3-1.5-.83-1.97-1.45-.4-.53-.82-1.26-1.05-1.88-.98-2.4-1.22-4.88-1.5-7.26v-1.46c-.36.2-.42 2.08-.42 2.4-.23 2.7-.58 4.97-1.28 7.67-.17.93-.35 1.97-1.1 2.9 0 .1 0 .2.05.42 1.28 3 1.63 6 1.8 9.13v1.14c0 1.35-.05 1.03 1.35 1.55.58.1 1.22.2 1.8.52.42 0 .47-.3.47-.52l-.17-1.86v-5.2c-.12-.93.12-1.76.23-2.7z" stroke="#000" stroke-opacity="0" stroke-width="2" fill="#c2bfbf"/><path d="M379.9 608.36c-.5-1.93-2.2-4.16-5.8-4.16-.8 0-1.6.1-2.5.3-1.7.3-3.1.5-4.4.5 9.8-16.23 16.2-38.76 9.9-46.58-8.3-10.35-19.5-11.87-25.4-11.87h-.6c-2.2 0-4.5.3-6.8.8l-8.5 1.73c-1.1-.1-2.3-.2-3.5-.2h-.5c-3.8 0-7.2.8-10.3 2.23l-3-1.1c-4-1.63-10.2-3.45-16.2-3.45h-1.1c-5.9.2-11.1 2.43-14.8 6.4-4.7 4.96-6.8 12.17-6.3 21.5 0 .5 5.8 48.22 22.3 48.22h.2c2.1-.1 4.1-.9 6-2.54 1.5 1.12 3.4 1.73 5.1 2.03 1.2.2 3.3.6 5.8.6 3 0 5.8-.6 8.1-1.72V629.26c.2 3.25.8 6.2 1.7 8.53 2.5 6.6 6.8 10.24 12.1 10.24h.7c4.4-.3 8.8-2.64 11.8-6.4 3.4-4.05 4.1-8.3 4.4-11.56v-9.85h.3l1 .1h1.1c3.6 0 8-.9 11-2.23 2.8-1.22 9.3-4.77 8.2-9.74z" stroke="#000" stroke-opacity="0" stroke-width="10" fill="#fff"/><path d="M353.6 618.1v-1.32-1l.1-.1c.3-6.1 2.1-8.54 3.9-9.86-.2-.4-.5-.7-.8-1.12-.8-1-1.8-2.23-2.8-3.85l-.2-.4c-.2-.3-.6-1.02-1.1-1.84-2.8-4.96-8.6-15.2-4.6-21.7 1.7-2.85 5-4.47 9.8-4.88-2-5.38-9.2-18.27-25.7-18.57-14.3-.2-19 12.48-20.6 20 2.1-.82 4.5-1.33 6.7-1.33h.1c5.5 0 9.2 2.85 10.3 7.72.8 3.55 1.2 6.7 1.2 9.54-.1 6.3-1.4 9.54-2.5 12.48l-.4.9c-.3.83-.6 1.54-.9 2.25-.3.62-.5 1.23-.7 1.84 1.1.2 2 .6 2.6.9l.4.1c.1 0 .2.1.3.2 2 1.13 3.3 2.96 3.6 5.1.1 1.2.1 9.02 0 15.82.2 2.94.8 5.48 1.4 7.3 1 2.55 3.4 7.42 8.1 7.1 3.2-.2 6.4-2.02 8.4-4.55 2.3-2.73 3.1-5.78 3.4-9.13V618.1z" stroke="#000" stroke-opacity="0" stroke-width="10" fill="#0277bd"/><path d="M311.2 606.33c-3.9-3.86-5.7-9.14-5-14 .6-4.68.3-9.25.1-11.68-.1-.9-.2-1.52-.2-1.83h.1v-.1c.2-6.9 3-17.97 10.6-24.46-3.7-1.42-9.7-3.25-15.4-3.04-8.9.3-17.5 6.2-16.6 23.03.3 6.3 7.6 44.05 17.6 43.85 1.5-.1 3-1 4.5-2.74 2.4-2.84 4.7-5.38 6.4-7.2-.7-.5-1.5-1.12-2.1-1.83zm51.9-32.68c.1.3 0 .6 0 .9 0 2.14-.2 4.17-.4 6.2-.2 1.42-.4 2.94-.4 4.47-.1 1.52.1 2.94.4 4.56.5 3.56 1 7.72-1.9 12.5.6.7 1 1.3 1.4 1.92 11-17.26 15.4-37.76 11.2-42.94-6.4-7.9-15.2-10.25-22.2-10.04-2.2 0-4.2.3-5.9.6 12.1 5.7 17.4 17.87 17.8 21.83zm9.5 35.32c-6.4 1.32-9.4.6-10.9-.3-.2.2-.5.3-.7.5-.9.5-2.3 1.32-2.6 6.4.2 0 .4 0 .6.1l1 .1c3.2.1 7.3-.7 9.7-1.83 5.1-2.33 8-6 2.9-4.97zm-45.1 4.77c0-.7-.4-1.22-1.1-1.73l-.3-.1c-.8-.4-1.8-.8-3.3-.8h-.1c-.3.1-.6.1-.9.1h-.3c-1.2.8-2.8 1.42-6.7 2.23-7.1 1.73-2.9 3.86-.2 4.16 2.6.6 8.9 1.4 13-1.93 0-1.02 0-1.73-.1-1.93z" stroke="#000" stroke-opacity="0" stroke-width="10" fill="#0277bd"/><path d="M324.4 582.27c-.7.7-1.8 1.32-3 1.12-2-.3-3.5-2.55-3.4-3.46.1-.8 1.8-1.32 3.8-1.02.6.1 1.3.3 1.8.5-.8-1.5-2.2-2.42-4.3-2.63-3.7-.4-7.6 1.4-8.4 2.43 0 .3.1.6.1 1 .2 2.65.6 7.63-.1 12.8-.5 3.35.9 7.3 3.7 10.15 1.8 1.83 3.9 2.95 5.9 3.25.3-1.12.8-2.13 1.3-3.25.2-.6.5-1.32.8-1.93l.4-1c1-2.65 2.1-5.5 2.1-10.87 0-2.13-.2-4.47-.7-7.1zm33.6 8.12c-.3-1.73-.5-3.46-.5-5.28.1-1.73.3-3.36.5-4.88l.3-3.65c-3.1.3-5.1 1.1-6.1 2.53.4-.1.9-.2 1.4-.2 2.1-.3 3.6.3 3.8 1.4.2.83-.6 1.64-.9 1.94-.7.6-1.5 1.02-2.3 1.12h-.5c-.8 0-1.6-.2-2.2-.62.2 4.47 3.7 10.56 5.4 13.6.3.6.6 1.12.9 1.52.9-2.53.5-4.87.2-7.5z" stroke="#000" stroke-opacity="0" stroke-width="10" fill="#0277bd"/><path d="M1003.1 475.3a8 8 0 0 1 8-8h444a8 8 0 0 1 8 8v244a8 8 0 0 1-8 8h-444a8 8 0 0 1-8-8z" fill="url(#a)"/><path d="M1004.6 475.3c0 .82-.68 1.5-1.5 1.5-.84 0-1.5-.68-1.5-1.5 0-.83.66-1.5 1.5-1.5.82 0 1.5.67 1.5 1.5zm2.34-5.66c0 .83-.68 1.5-1.5 1.5-.83 0-1.5-.67-1.5-1.5s.67-1.5 1.5-1.5c.82 0 1.5.67 1.5 1.5zm5.65-2.34c0 .82-.68 1.5-1.5 1.5-.84 0-1.5-.68-1.5-1.5 0-.83.66-1.5 1.5-1.5.82 0 1.5.67 1.5 1.5zm6 0c0 .82-.68 1.5-1.5 1.5-.84 0-1.5-.68-1.5-1.5 0-.83.66-1.5 1.5-1.5.82 0 1.5.67 1.5 1.5zm6 0c0 .82-.68 1.5-1.5 1.5-.84 0-1.5-.68-1.5-1.5 0-.83.66-1.5 1.5-1.5.82 0 1.5.67 1.5 1.5zm6 0c0 .82-.68 1.5-1.5 1.5-.83 0-1.5-.68-1.5-1.5 0-.83.67-1.5 1.5-1.5.82 0 1.5.67 1.5 1.5zm6 0c0 .82-.68 1.5-1.5 1.5-.83 0-1.5-.68-1.5-1.5 0-.83.67-1.5 1.5-1.5.82 0 1.5.67 1.5 1.5zm6 0c0 .82-.68 1.5-1.5 1.5-.83 0-1.5-.68-1.5-1.5 0-.83.67-1.5 1.5-1.5.82 0 1.5.67 1.5 1.5zm6 0c0 .82-.68 1.5-1.5 1.5-.83 0-1.5-.68-1.5-1.5 0-.83.67-1.5 1.5-1.5.82 0 1.5.67 1.5 1.5zm6 0c0 .82-.68 1.5-1.5 1.5-.83 0-1.5-.68-1.5-1.5 0-.83.67-1.5 1.5-1.5.82 0 1.5.67 1.5 1.5zm6 0c0 .82-.68 1.5-1.5 1.5-.83 0-1.5-.68-1.5-1.5 0-.83.67-1.5 1.5-1.5.82 0 1.5.67 1.5 1.5zm6 0c0 .82-.68 1.5-1.5 1.5-.83 0-1.5-.68-1.5-1.5 0-.83.67-1.5 1.5-1.5.82 0 1.5.67 1.5 1.5zm6 0c0 .82-.68 1.5-1.5 1.5-.83 0-1.5-.68-1.5-1.5 0-.83.67-1.5 1.5-1.5.82 0 1.5.67 1.5 1.5zm6 0c0 .82-.68 1.5-1.5 1.5-.83 0-1.5-.68-1.5-1.5 0-.83.67-1.5 1.5-1.5.82 0 1.5.67 1.5 1.5zm6 0c0 .82-.68 1.5-1.5 1.5-.83 0-1.5-.68-1.5-1.5 0-.83.67-1.5 1.5-1.5.82 0 1.5.67 1.5 1.5zm6 0c0 .82-.68 1.5-1.5 1.5-.83 0-1.5-.68-1.5-1.5 0-.83.67-1.5 1.5-1.5.82 0 1.5.67 1.5 1.5zm6 0c0 .82-.68 1.5-1.5 1.5-.83 0-1.5-.68-1.5-1.5 0-.83.67-1.5 1.5-1.5.82 0 1.5.67 1.5 1.5zm6 0c0 .82-.68 1.5-1.5 1.5-.83 0-1.5-.68-1.5-1.5 0-.83.67-1.5 1.5-1.5.82 0 1.5.67 1.5 1.5zm6 0c0 .82-.68 1.5-1.5 1.5-.83 0-1.5-.68-1.5-1.5 0-.83.67-1.5 1.5-1.5.82 0 1.5.67 1.5 1.5zm6 0c0 .82-.68 1.5-1.5 1.5-.83 0-1.5-.68-1.5-1.5 0-.83.67-1.5 1.5-1.5.82 0 1.5.67 1.5 1.5zm6 0c0 .82-.68 1.5-1.5 1.5-.83 0-1.5-.68-1.5-1.5 0-.83.67-1.5 1.5-1.5.82 0 1.5.67 1.5 1.5zm6 0c0 .82-.68 1.5-1.5 1.5-.83 0-1.5-.68-1.5-1.5 0-.83.67-1.5 1.5-1.5.82 0 1.5.67 1.5 1.5zm6 0c0 .82-.68 1.5-1.5 1.5-.83 0-1.5-.68-1.5-1.5 0-.83.67-1.5 1.5-1.5.82 0 1.5.67 1.5 1.5zm6 0c0 .82-.68 1.5-1.5 1.5-.83 0-1.5-.68-1.5-1.5 0-.83.67-1.5 1.5-1.5.82 0 1.5.67 1.5 1.5zm6 0c0 .82-.68 1.5-1.5 1.5-.83 0-1.5-.68-1.5-1.5 0-.83.67-1.5 1.5-1.5.82 0 1.5.67 1.5 1.5zm6 0c0 .82-.68 1.5-1.5 1.5-.83 0-1.5-.68-1.5-1.5 0-.83.67-1.5 1.5-1.5.82 0 1.5.67 1.5 1.5zm6 0c0 .82-.68 1.5-1.5 1.5-.83 0-1.5-.68-1.5-1.5 0-.83.67-1.5 1.5-1.5.82 0 1.5.67 1.5 1.5zm6 0c0 .82-.68 1.5-1.5 1.5-.83 0-1.5-.68-1.5-1.5 0-.83.67-1.5 1.5-1.5.82 0 1.5.67 1.5 1.5zm6 0c0 .82-.68 1.5-1.5 1.5-.83 0-1.5-.68-1.5-1.5 0-.83.67-1.5 1.5-1.5.82 0 1.5.67 1.5 1.5zm6 0c0 .82-.68 1.5-1.5 1.5-.83 0-1.5-.68-1.5-1.5 0-.83.67-1.5 1.5-1.5.82 0 1.5.67 1.5 1.5zm6 0c0 .82-.68 1.5-1.5 1.5-.83 0-1.5-.68-1.5-1.5 0-.83.67-1.5 1.5-1.5.82 0 1.5.67 1.5 1.5zm6 0c0 .82-.68 1.5-1.5 1.5-.83 0-1.5-.68-1.5-1.5 0-.83.67-1.5 1.5-1.5.82 0 1.5.67 1.5 1.5zm6 0c0 .82-.68 1.5-1.5 1.5-.83 0-1.5-.68-1.5-1.5 0-.83.67-1.5 1.5-1.5.82 0 1.5.67 1.5 1.5zm6 0c0 .82-.68 1.5-1.5 1.5-.83 0-1.5-.68-1.5-1.5 0-.83.67-1.5 1.5-1.5.82 0 1.5.67 1.5 1.5zm6 0c0 .82-.68 1.5-1.5 1.5-.83 0-1.5-.68-1.5-1.5 0-.83.67-1.5 1.5-1.5.82 0 1.5.67 1.5 1.5zm6 0c0 .82-.68 1.5-1.5 1.5-.83 0-1.5-.68-1.5-1.5 0-.83.67-1.5 1.5-1.5.82 0 1.5.67 1.5 1.5zm6 0c0 .82-.68 1.5-1.5 1.5-.83 0-1.5-.68-1.5-1.5 0-.83.67-1.5 1.5-1.5.82 0 1.5.67 1.5 1.5zm6 0c0 .82-.68 1.5-1.5 1.5-.83 0-1.5-.68-1.5-1.5 0-.83.67-1.5 1.5-1.5.82 0 1.5.67 1.5 1.5zm6 0c0 .82-.68 1.5-1.5 1.5-.83 0-1.5-.68-1.5-1.5 0-.83.67-1.5 1.5-1.5.82 0 1.5.67 1.5 1.5zm6 0c0 .82-.68 1.5-1.5 1.5-.83 0-1.5-.68-1.5-1.5 0-.83.67-1.5 1.5-1.5.82 0 1.5.67 1.5 1.5zm6 0c0 .82-.68 1.5-1.5 1.5-.83 0-1.5-.68-1.5-1.5 0-.83.67-1.5 1.5-1.5.82 0 1.5.67 1.5 1.5zm6 0c0 .82-.68 1.5-1.5 1.5-.83 0-1.5-.68-1.5-1.5 0-.83.67-1.5 1.5-1.5.82 0 1.5.67 1.5 1.5zm6 0c0 .82-.68 1.5-1.5 1.5-.83 0-1.5-.68-1.5-1.5 0-.83.67-1.5 1.5-1.5.82 0 1.5.67 1.5 1.5zm6 0c0 .82-.68 1.5-1.5 1.5-.83 0-1.5-.68-1.5-1.5 0-.83.67-1.5 1.5-1.5.82 0 1.5.67 1.5 1.5zm6 0c0 .82-.68 1.5-1.5 1.5-.83 0-1.5-.68-1.5-1.5 0-.83.67-1.5 1.5-1.5.82 0 1.5.67 1.5 1.5zm6 0c0 .82-.68 1.5-1.5 1.5-.83 0-1.5-.68-1.5-1.5 0-.83.67-1.5 1.5-1.5.82 0 1.5.67 1.5 1.5zm6 0c0 .82-.68 1.5-1.5 1.5-.83 0-1.5-.68-1.5-1.5 0-.83.67-1.5 1.5-1.5.82 0 1.5.67 1.5 1.5zm6 0c0 .82-.68 1.5-1.5 1.5-.83 0-1.5-.68-1.5-1.5 0-.83.67-1.5 1.5-1.5.82 0 1.5.67 1.5 1.5zm6 0c0 .82-.68 1.5-1.5 1.5-.83 0-1.5-.68-1.5-1.5 0-.83.67-1.5 1.5-1.5.82 0 1.5.67 1.5 1.5zm6 0c0 .82-.68 1.5-1.5 1.5-.83 0-1.5-.68-1.5-1.5 0-.83.67-1.5 1.5-1.5.82 0 1.5.67 1.5 1.5zm6 0c0 .82-.68 1.5-1.5 1.5-.83 0-1.5-.68-1.5-1.5 0-.83.67-1.5 1.5-1.5.82 0 1.5.67 1.5 1.5zm6 0c0 .82-.68 1.5-1.5 1.5-.83 0-1.5-.68-1.5-1.5 0-.83.67-1.5 1.5-1.5.82 0 1.5.67 1.5 1.5zm6 0c0 .82-.68 1.5-1.5 1.5-.83 0-1.5-.68-1.5-1.5 0-.83.67-1.5 1.5-1.5.82 0 1.5.67 1.5 1.5zm6 0c0 .82-.68 1.5-1.5 1.5-.83 0-1.5-.68-1.5-1.5 0-.83.67-1.5 1.5-1.5.82 0 1.5.67 1.5 1.5zm6 0c0 .82-.68 1.5-1.5 1.5-.83 0-1.5-.68-1.5-1.5 0-.83.67-1.5 1.5-1.5.82 0 1.5.67 1.5 1.5zm6 0c0 .82-.68 1.5-1.5 1.5-.83 0-1.5-.68-1.5-1.5 0-.83.67-1.5 1.5-1.5.82 0 1.5.67 1.5 1.5zm6 0c0 .82-.68 1.5-1.5 1.5-.83 0-1.5-.68-1.5-1.5 0-.83.67-1.5 1.5-1.5.82 0 1.5.67 1.5 1.5zm6 0c0 .82-.68 1.5-1.5 1.5-.83 0-1.5-.68-1.5-1.5 0-.83.67-1.5 1.5-1.5.82 0 1.5.67 1.5 1.5zm6 0c0 .82-.68 1.5-1.5 1.5-.83 0-1.5-.68-1.5-1.5 0-.83.67-1.5 1.5-1.5.82 0 1.5.67 1.5 1.5zm6 0c0 .82-.68 1.5-1.5 1.5-.83 0-1.5-.68-1.5-1.5 0-.83.67-1.5 1.5-1.5.82 0 1.5.67 1.5 1.5zm6 0c0 .82-.68 1.5-1.5 1.5-.83 0-1.5-.68-1.5-1.5 0-.83.67-1.5 1.5-1.5.82 0 1.5.67 1.5 1.5zm6 0c0 .82-.68 1.5-1.5 1.5-.83 0-1.5-.68-1.5-1.5 0-.83.67-1.5 1.5-1.5.82 0 1.5.67 1.5 1.5zm6 0c0 .82-.68 1.5-1.5 1.5-.83 0-1.5-.68-1.5-1.5 0-.83.67-1.5 1.5-1.5.82 0 1.5.67 1.5 1.5zm6 0c0 .82-.68 1.5-1.5 1.5-.83 0-1.5-.68-1.5-1.5 0-.83.67-1.5 1.5-1.5.82 0 1.5.67 1.5 1.5zm6 0c0 .82-.68 1.5-1.5 1.5-.83 0-1.5-.68-1.5-1.5 0-.83.67-1.5 1.5-1.5.82 0 1.5.67 1.5 1.5zm6 0c0 .82-.68 1.5-1.5 1.5-.83 0-1.5-.68-1.5-1.5 0-.83.67-1.5 1.5-1.5.82 0 1.5.67 1.5 1.5zm6 0c0 .82-.68 1.5-1.5 1.5-.83 0-1.5-.68-1.5-1.5 0-.83.67-1.5 1.5-1.5.82 0 1.5.67 1.5 1.5zm6 0c0 .82-.68 1.5-1.5 1.5-.83 0-1.5-.68-1.5-1.5 0-.83.67-1.5 1.5-1.5.82 0 1.5.67 1.5 1.5zm6 0c0 .82-.68 1.5-1.5 1.5-.83 0-1.5-.68-1.5-1.5 0-.83.67-1.5 1.5-1.5.82 0 1.5.67 1.5 1.5zm6 0c0 .82-.68 1.5-1.5 1.5-.83 0-1.5-.68-1.5-1.5 0-.83.67-1.5 1.5-1.5.82 0 1.5.67 1.5 1.5zm6 0c0 .82-.68 1.5-1.5 1.5-.83 0-1.5-.68-1.5-1.5 0-.83.67-1.5 1.5-1.5.82 0 1.5.67 1.5 1.5zm6 0c0 .82-.68 1.5-1.5 1.5-.83 0-1.5-.68-1.5-1.5 0-.83.67-1.5 1.5-1.5.82 0 1.5.67 1.5 1.5zm6 0c0 .82-.68 1.5-1.5 1.5-.83 0-1.5-.68-1.5-1.5 0-.83.67-1.5 1.5-1.5.82 0 1.5.67 1.5 1.5zm6 0c0 .82-.68 1.5-1.5 1.5-.83 0-1.5-.68-1.5-1.5 0-.83.67-1.5 1.5-1.5.82 0 1.5.67 1.5 1.5zm6 0c0 .82-.68 1.5-1.5 1.5-.83 0-1.5-.68-1.5-1.5 0-.83.67-1.5 1.5-1.5.82 0 1.5.67 1.5 1.5zm6 0c0 .82-.68 1.5-1.5 1.5-.83 0-1.5-.68-1.5-1.5 0-.83.67-1.5 1.5-1.5.82 0 1.5.67 1.5 1.5zm6 0c0 .82-.68 1.5-1.5 1.5-.83 0-1.5-.68-1.5-1.5 0-.83.67-1.5 1.5-1.5.82 0 1.5.67 1.5 1.5zm5.65 2.34c0 .83-.67 1.5-1.5 1.5s-1.5-.67-1.5-1.5.67-1.5 1.5-1.5 1.5.67 1.5 1.5zm2.34 5.66c0 .82-.68 1.5-1.5 1.5-.83 0-1.5-.68-1.5-1.5 0-.83.67-1.5 1.5-1.5.82 0 1.5.67 1.5 1.5zm0 5.95c0 .82-.68 1.5-1.5 1.5-.83 0-1.5-.68-1.5-1.5 0-.83.67-1.5 1.5-1.5.82 0 1.5.67 1.5 1.5zm0 5.95c0 .82-.68 1.5-1.5 1.5-.83 0-1.5-.68-1.5-1.5 0-.83.67-1.5 1.5-1.5.82 0 1.5.67 1.5 1.5zm0 5.95c0 .83-.68 1.5-1.5 1.5-.83 0-1.5-.67-1.5-1.5s.67-1.5 1.5-1.5c.82 0 1.5.67 1.5 1.5zm0 5.95c0 .83-.68 1.5-1.5 1.5-.83 0-1.5-.67-1.5-1.5s.67-1.5 1.5-1.5c.82 0 1.5.67 1.5 1.5zm0 5.95c0 .83-.68 1.5-1.5 1.5-.83 0-1.5-.67-1.5-1.5s.67-1.5 1.5-1.5c.82 0 1.5.67 1.5 1.5zm0 5.95c0 .83-.68 1.5-1.5 1.5-.83 0-1.5-.67-1.5-1.5s.67-1.5 1.5-1.5c.82 0 1.5.67 1.5 1.5zm0 5.95c0 .83-.68 1.5-1.5 1.5-.83 0-1.5-.67-1.5-1.5s.67-1.5 1.5-1.5c.82 0 1.5.67 1.5 1.5zm0 5.95c0 .83-.68 1.5-1.5 1.5-.83 0-1.5-.67-1.5-1.5 0-.82.67-1.5 1.5-1.5.82 0 1.5.68 1.5 1.5zm0 5.96c0 .82-.68 1.5-1.5 1.5-.83 0-1.5-.68-1.5-1.5 0-.83.67-1.5 1.5-1.5.82 0 1.5.67 1.5 1.5zm0 5.95c0 .84-.68 1.5-1.5 1.5-.83 0-1.5-.66-1.5-1.5 0-.82.67-1.5 1.5-1.5.82 0 1.5.68 1.5 1.5zm0 5.96c0 .83-.68 1.5-1.5 1.5-.83 0-1.5-.67-1.5-1.5s.67-1.5 1.5-1.5c.82 0 1.5.67 1.5 1.5zm0 5.95c0 .84-.68 1.5-1.5 1.5-.83 0-1.5-.66-1.5-1.5 0-.82.67-1.5 1.5-1.5.82 0 1.5.68 1.5 1.5zm0 5.96c0 .83-.68 1.5-1.5 1.5-.83 0-1.5-.67-1.5-1.5s.67-1.5 1.5-1.5c.82 0 1.5.67 1.5 1.5zm0 5.95c0 .84-.68 1.5-1.5 1.5-.83 0-1.5-.66-1.5-1.5 0-.82.67-1.5 1.5-1.5.82 0 1.5.68 1.5 1.5zm0 5.96c0 .83-.68 1.5-1.5 1.5-.83 0-1.5-.67-1.5-1.5s.67-1.5 1.5-1.5c.82 0 1.5.67 1.5 1.5zm0 5.95c0 .84-.68 1.5-1.5 1.5-.83 0-1.5-.66-1.5-1.5 0-.8.67-1.5 1.5-1.5.82 0 1.5.7 1.5 1.5zm0 5.97c0 .82-.68 1.5-1.5 1.5-.83 0-1.5-.68-1.5-1.5 0-.83.67-1.5 1.5-1.5.82 0 1.5.67 1.5 1.5zm0 5.95c0 .83-.68 1.5-1.5 1.5-.83 0-1.5-.67-1.5-1.5s.67-1.5 1.5-1.5c.82 0 1.5.67 1.5 1.5zm0 5.95c0 .83-.68 1.5-1.5 1.5-.83 0-1.5-.67-1.5-1.5s.67-1.5 1.5-1.5c.82 0 1.5.67 1.5 1.5zm0 5.95c0 .83-.68 1.5-1.5 1.5-.83 0-1.5-.67-1.5-1.5s.67-1.5 1.5-1.5c.82 0 1.5.67 1.5 1.5zm0 5.95c0 .83-.68 1.5-1.5 1.5-.83 0-1.5-.67-1.5-1.5s.67-1.5 1.5-1.5c.82 0 1.5.67 1.5 1.5zm0 5.95c0 .83-.68 1.5-1.5 1.5-.83 0-1.5-.67-1.5-1.5s.67-1.5 1.5-1.5c.82 0 1.5.67 1.5 1.5zm0 5.95c0 .83-.68 1.5-1.5 1.5-.83 0-1.5-.67-1.5-1.5s.67-1.5 1.5-1.5c.82 0 1.5.67 1.5 1.5zm0 5.95c0 .83-.68 1.5-1.5 1.5-.83 0-1.5-.67-1.5-1.5s.67-1.5 1.5-1.5c.82 0 1.5.67 1.5 1.5zm0 5.96c0 .82-.68 1.5-1.5 1.5-.83 0-1.5-.68-1.5-1.5 0-.83.67-1.5 1.5-1.5.82 0 1.5.67 1.5 1.5zm0 5.95c0 .83-.68 1.5-1.5 1.5-.83 0-1.5-.67-1.5-1.5s.67-1.5 1.5-1.5c.82 0 1.5.67 1.5 1.5zm0 5.95c0 .83-.68 1.5-1.5 1.5-.83 0-1.5-.67-1.5-1.5s.67-1.5 1.5-1.5c.82 0 1.5.67 1.5 1.5zm0 5.95c0 .83-.68 1.5-1.5 1.5-.83 0-1.5-.67-1.5-1.5s.67-1.5 1.5-1.5c.82 0 1.5.67 1.5 1.5zm0 5.95c0 .83-.68 1.5-1.5 1.5-.83 0-1.5-.67-1.5-1.5s.67-1.5 1.5-1.5c.82 0 1.5.67 1.5 1.5zm0 5.95c0 .83-.68 1.5-1.5 1.5-.83 0-1.5-.67-1.5-1.5s.67-1.5 1.5-1.5c.82 0 1.5.67 1.5 1.5zm0 5.95c0 .83-.68 1.5-1.5 1.5-.83 0-1.5-.67-1.5-1.5s.67-1.5 1.5-1.5c.82 0 1.5.67 1.5 1.5zm0 5.95c0 .83-.68 1.5-1.5 1.5-.83 0-1.5-.67-1.5-1.5s.67-1.5 1.5-1.5c.82 0 1.5.67 1.5 1.5zm0 5.95c0 .83-.68 1.5-1.5 1.5-.83 0-1.5-.67-1.5-1.5 0-.82.67-1.5 1.5-1.5.82 0 1.5.68 1.5 1.5zm0 5.96c0 .82-.68 1.5-1.5 1.5-.83 0-1.5-.68-1.5-1.5 0-.83.67-1.5 1.5-1.5.82 0 1.5.67 1.5 1.5zm0 5.95c0 .82-.68 1.5-1.5 1.5-.83 0-1.5-.68-1.5-1.5 0-.84.67-1.5 1.5-1.5.82 0 1.5.66 1.5 1.5zm0 5.94c0 .83-.68 1.5-1.5 1.5-.83 0-1.5-.67-1.5-1.5s.67-1.5 1.5-1.5c.82 0 1.5.67 1.5 1.5zm0 5.95c0 .82-.68 1.5-1.5 1.5-.83 0-1.5-.68-1.5-1.5 0-.84.67-1.5 1.5-1.5.82 0 1.5.66 1.5 1.5zm0 5.94c0 .83-.68 1.5-1.5 1.5-.83 0-1.5-.67-1.5-1.5s.67-1.5 1.5-1.5c.82 0 1.5.67 1.5 1.5zm0 5.95c0 .82-.68 1.5-1.5 1.5-.83 0-1.5-.68-1.5-1.5 0-.84.67-1.5 1.5-1.5.82 0 1.5.66 1.5 1.5zm0 5.94c0 .83-.68 1.5-1.5 1.5-.83 0-1.5-.67-1.5-1.5s.67-1.5 1.5-1.5c.82 0 1.5.67 1.5 1.5zm0 5.95c0 .82-.68 1.5-1.5 1.5-.83 0-1.5-.68-1.5-1.5 0-.83.67-1.5 1.5-1.5.82 0 1.5.67 1.5 1.5zm-2.35 5.65c0 .83-.67 1.5-1.5 1.5s-1.5-.67-1.5-1.5.67-1.5 1.5-1.5 1.5.67 1.5 1.5zm-5.66 2.34c0 .82-.68 1.5-1.5 1.5-.83 0-1.5-.68-1.5-1.5 0-.83.67-1.5 1.5-1.5.82 0 1.5.67 1.5 1.5zm-6 0c0 .82-.68 1.5-1.5 1.5-.83 0-1.5-.68-1.5-1.5 0-.83.67-1.5 1.5-1.5.82 0 1.5.67 1.5 1.5zm-6 0c0 .82-.68 1.5-1.5 1.5-.83 0-1.5-.68-1.5-1.5 0-.83.67-1.5 1.5-1.5.82 0 1.5.67 1.5 1.5zm-6 0c0 .82-.68 1.5-1.5 1.5-.83 0-1.5-.68-1.5-1.5 0-.83.67-1.5 1.5-1.5.82 0 1.5.67 1.5 1.5zm-6 0c0 .82-.68 1.5-1.5 1.5-.83 0-1.5-.68-1.5-1.5 0-.83.67-1.5 1.5-1.5.82 0 1.5.67 1.5 1.5zm-6 0c0 .82-.68 1.5-1.5 1.5-.83 0-1.5-.68-1.5-1.5 0-.83.67-1.5 1.5-1.5.82 0 1.5.67 1.5 1.5zm-6 0c0 .82-.68 1.5-1.5 1.5-.83 0-1.5-.68-1.5-1.5 0-.83.67-1.5 1.5-1.5.82 0 1.5.67 1.5 1.5zm-6 0c0 .82-.68 1.5-1.5 1.5-.83 0-1.5-.68-1.5-1.5 0-.83.67-1.5 1.5-1.5.82 0 1.5.67 1.5 1.5zm-6 0c0 .82-.68 1.5-1.5 1.5-.83 0-1.5-.68-1.5-1.5 0-.83.67-1.5 1.5-1.5.82 0 1.5.67 1.5 1.5zm-6 0c0 .82-.68 1.5-1.5 1.5-.83 0-1.5-.68-1.5-1.5 0-.83.67-1.5 1.5-1.5.82 0 1.5.67 1.5 1.5zm-6 0c0 .82-.68 1.5-1.5 1.5-.83 0-1.5-.68-1.5-1.5 0-.83.67-1.5 1.5-1.5.82 0 1.5.67 1.5 1.5zm-6 0c0 .82-.68 1.5-1.5 1.5-.83 0-1.5-.68-1.5-1.5 0-.83.67-1.5 1.5-1.5.82 0 1.5.67 1.5 1.5zm-6 0c0 .82-.68 1.5-1.5 1.5-.83 0-1.5-.68-1.5-1.5 0-.83.67-1.5 1.5-1.5.82 0 1.5.67 1.5 1.5zm-6 0c0 .82-.68 1.5-1.5 1.5-.83 0-1.5-.68-1.5-1.5 0-.83.67-1.5 1.5-1.5.82 0 1.5.67 1.5 1.5zm-6 0c0 .82-.68 1.5-1.5 1.5-.83 0-1.5-.68-1.5-1.5 0-.83.67-1.5 1.5-1.5.82 0 1.5.67 1.5 1.5zm-6 0c0 .82-.68 1.5-1.5 1.5-.83 0-1.5-.68-1.5-1.5 0-.83.67-1.5 1.5-1.5.82 0 1.5.67 1.5 1.5zm-6 0c0 .82-.68 1.5-1.5 1.5-.83 0-1.5-.68-1.5-1.5 0-.83.67-1.5 1.5-1.5.82 0 1.5.67 1.5 1.5zm-6 0c0 .82-.68 1.5-1.5 1.5-.83 0-1.5-.68-1.5-1.5 0-.83.67-1.5 1.5-1.5.82 0 1.5.67 1.5 1.5zm-6 0c0 .82-.68 1.5-1.5 1.5-.83 0-1.5-.68-1.5-1.5 0-.83.67-1.5 1.5-1.5.82 0 1.5.67 1.5 1.5zm-6 0c0 .82-.68 1.5-1.5 1.5-.83 0-1.5-.68-1.5-1.5 0-.83.67-1.5 1.5-1.5.82 0 1.5.67 1.5 1.5zm-6 0c0 .82-.68 1.5-1.5 1.5-.83 0-1.5-.68-1.5-1.5 0-.83.67-1.5 1.5-1.5.82 0 1.5.67 1.5 1.5zm-6 0c0 .82-.68 1.5-1.5 1.5-.83 0-1.5-.68-1.5-1.5 0-.83.67-1.5 1.5-1.5.82 0 1.5.67 1.5 1.5zm-6 0c0 .82-.68 1.5-1.5 1.5-.83 0-1.5-.68-1.5-1.5 0-.83.67-1.5 1.5-1.5.82 0 1.5.67 1.5 1.5zm-6 0c0 .82-.68 1.5-1.5 1.5-.83 0-1.5-.68-1.5-1.5 0-.83.67-1.5 1.5-1.5.82 0 1.5.67 1.5 1.5zm-6 0c0 .82-.68 1.5-1.5 1.5-.83 0-1.5-.68-1.5-1.5 0-.83.67-1.5 1.5-1.5.82 0 1.5.67 1.5 1.5zm-6 0c0 .82-.68 1.5-1.5 1.5-.83 0-1.5-.68-1.5-1.5 0-.83.67-1.5 1.5-1.5.82 0 1.5.67 1.5 1.5zm-6 0c0 .82-.68 1.5-1.5 1.5-.83 0-1.5-.68-1.5-1.5 0-.83.67-1.5 1.5-1.5.82 0 1.5.67 1.5 1.5zm-6 0c0 .82-.68 1.5-1.5 1.5-.83 0-1.5-.68-1.5-1.5 0-.83.67-1.5 1.5-1.5.82 0 1.5.67 1.5 1.5zm-6 0c0 .82-.68 1.5-1.5 1.5-.83 0-1.5-.68-1.5-1.5 0-.83.67-1.5 1.5-1.5.82 0 1.5.67 1.5 1.5zm-6 0c0 .82-.68 1.5-1.5 1.5-.83 0-1.5-.68-1.5-1.5 0-.83.67-1.5 1.5-1.5.82 0 1.5.67 1.5 1.5zm-6 0c0 .82-.68 1.5-1.5 1.5-.83 0-1.5-.68-1.5-1.5 0-.83.67-1.5 1.5-1.5.82 0 1.5.67 1.5 1.5zm-6 0c0 .82-.68 1.5-1.5 1.5-.83 0-1.5-.68-1.5-1.5 0-.83.67-1.5 1.5-1.5.82 0 1.5.67 1.5 1.5zm-6 0c0 .82-.68 1.5-1.5 1.5-.83 0-1.5-.68-1.5-1.5 0-.83.67-1.5 1.5-1.5.82 0 1.5.67 1.5 1.5zm-6 0c0 .82-.68 1.5-1.5 1.5-.83 0-1.5-.68-1.5-1.5 0-.83.67-1.5 1.5-1.5.82 0 1.5.67 1.5 1.5zm-6 0c0 .82-.68 1.5-1.5 1.5-.83 0-1.5-.68-1.5-1.5 0-.83.67-1.5 1.5-1.5.82 0 1.5.67 1.5 1.5zm-6 0c0 .82-.68 1.5-1.5 1.5-.83 0-1.5-.68-1.5-1.5 0-.83.67-1.5 1.5-1.5.82 0 1.5.67 1.5 1.5zm-6 0c0 .82-.68 1.5-1.5 1.5-.83 0-1.5-.68-1.5-1.5 0-.83.67-1.5 1.5-1.5.82 0 1.5.67 1.5 1.5zm-6 0c0 .82-.68 1.5-1.5 1.5-.83 0-1.5-.68-1.5-1.5 0-.83.67-1.5 1.5-1.5.82 0 1.5.67 1.5 1.5zm-6 0c0 .82-.68 1.5-1.5 1.5-.83 0-1.5-.68-1.5-1.5 0-.83.67-1.5 1.5-1.5.82 0 1.5.67 1.5 1.5zm-6 0c0 .82-.68 1.5-1.5 1.5-.83 0-1.5-.68-1.5-1.5 0-.83.67-1.5 1.5-1.5.82 0 1.5.67 1.5 1.5zm-6 0c0 .82-.68 1.5-1.5 1.5-.83 0-1.5-.68-1.5-1.5 0-.83.67-1.5 1.5-1.5.82 0 1.5.67 1.5 1.5zm-6 0c0 .82-.68 1.5-1.5 1.5-.83 0-1.5-.68-1.5-1.5 0-.83.67-1.5 1.5-1.5.82 0 1.5.67 1.5 1.5zm-6 0c0 .82-.68 1.5-1.5 1.5-.83 0-1.5-.68-1.5-1.5 0-.83.67-1.5 1.5-1.5.82 0 1.5.67 1.5 1.5zm-6 0c0 .82-.68 1.5-1.5 1.5-.83 0-1.5-.68-1.5-1.5 0-.83.67-1.5 1.5-1.5.82 0 1.5.67 1.5 1.5zm-6 0c0 .82-.68 1.5-1.5 1.5-.83 0-1.5-.68-1.5-1.5 0-.83.67-1.5 1.5-1.5.82 0 1.5.67 1.5 1.5zm-6 0c0 .82-.68 1.5-1.5 1.5-.83 0-1.5-.68-1.5-1.5 0-.83.67-1.5 1.5-1.5.82 0 1.5.67 1.5 1.5zm-6 0c0 .82-.68 1.5-1.5 1.5-.83 0-1.5-.68-1.5-1.5 0-.83.67-1.5 1.5-1.5.82 0 1.5.67 1.5 1.5zm-6 0c0 .82-.68 1.5-1.5 1.5-.83 0-1.5-.68-1.5-1.5 0-.83.67-1.5 1.5-1.5.82 0 1.5.67 1.5 1.5zm-6 0c0 .82-.68 1.5-1.5 1.5-.83 0-1.5-.68-1.5-1.5 0-.83.67-1.5 1.5-1.5.82 0 1.5.67 1.5 1.5zm-6 0c0 .82-.68 1.5-1.5 1.5-.83 0-1.5-.68-1.5-1.5 0-.83.67-1.5 1.5-1.5.82 0 1.5.67 1.5 1.5zm-6 0c0 .82-.68 1.5-1.5 1.5-.83 0-1.5-.68-1.5-1.5 0-.83.67-1.5 1.5-1.5.82 0 1.5.67 1.5 1.5zm-6 0c0 .82-.68 1.5-1.5 1.5-.83 0-1.5-.68-1.5-1.5 0-.83.67-1.5 1.5-1.5.82 0 1.5.67 1.5 1.5zm-6 0c0 .82-.68 1.5-1.5 1.5-.83 0-1.5-.68-1.5-1.5 0-.83.67-1.5 1.5-1.5.82 0 1.5.67 1.5 1.5zm-6 0c0 .82-.68 1.5-1.5 1.5-.83 0-1.5-.68-1.5-1.5 0-.83.67-1.5 1.5-1.5.82 0 1.5.67 1.5 1.5zm-6 0c0 .82-.68 1.5-1.5 1.5-.83 0-1.5-.68-1.5-1.5 0-.83.67-1.5 1.5-1.5.82 0 1.5.67 1.5 1.5zm-6 0c0 .82-.68 1.5-1.5 1.5-.83 0-1.5-.68-1.5-1.5 0-.83.67-1.5 1.5-1.5.82 0 1.5.67 1.5 1.5zm-6 0c0 .82-.68 1.5-1.5 1.5-.83 0-1.5-.68-1.5-1.5 0-.83.67-1.5 1.5-1.5.82 0 1.5.67 1.5 1.5zm-6 0c0 .82-.68 1.5-1.5 1.5-.83 0-1.5-.68-1.5-1.5 0-.83.67-1.5 1.5-1.5.82 0 1.5.67 1.5 1.5zm-6 0c0 .82-.68 1.5-1.5 1.5-.83 0-1.5-.68-1.5-1.5 0-.83.67-1.5 1.5-1.5.82 0 1.5.67 1.5 1.5zm-6 0c0 .82-.68 1.5-1.5 1.5-.83 0-1.5-.68-1.5-1.5 0-.83.67-1.5 1.5-1.5.82 0 1.5.67 1.5 1.5zm-6 0c0 .82-.68 1.5-1.5 1.5-.83 0-1.5-.68-1.5-1.5 0-.83.67-1.5 1.5-1.5.82 0 1.5.67 1.5 1.5zm-6 0c0 .82-.68 1.5-1.5 1.5-.83 0-1.5-.68-1.5-1.5 0-.83.67-1.5 1.5-1.5.82 0 1.5.67 1.5 1.5zm-6 0c0 .82-.68 1.5-1.5 1.5-.83 0-1.5-.68-1.5-1.5 0-.83.67-1.5 1.5-1.5.82 0 1.5.67 1.5 1.5zm-6 0c0 .82-.68 1.5-1.5 1.5-.83 0-1.5-.68-1.5-1.5 0-.83.67-1.5 1.5-1.5.82 0 1.5.67 1.5 1.5zm-6 0c0 .82-.68 1.5-1.5 1.5-.83 0-1.5-.68-1.5-1.5 0-.83.67-1.5 1.5-1.5.82 0 1.5.67 1.5 1.5zm-6 0c0 .82-.68 1.5-1.5 1.5-.83 0-1.5-.68-1.5-1.5 0-.83.67-1.5 1.5-1.5.82 0 1.5.67 1.5 1.5zm-6 0c0 .82-.68 1.5-1.5 1.5-.83 0-1.5-.68-1.5-1.5 0-.83.67-1.5 1.5-1.5.82 0 1.5.67 1.5 1.5zm-6 0c0 .82-.68 1.5-1.5 1.5-.83 0-1.5-.68-1.5-1.5 0-.83.67-1.5 1.5-1.5.82 0 1.5.67 1.5 1.5zm-6 0c0 .82-.68 1.5-1.5 1.5-.83 0-1.5-.68-1.5-1.5 0-.83.67-1.5 1.5-1.5.82 0 1.5.67 1.5 1.5zm-6 0c0 .82-.68 1.5-1.5 1.5-.83 0-1.5-.68-1.5-1.5 0-.83.67-1.5 1.5-1.5.82 0 1.5.67 1.5 1.5zm-6 0c0 .82-.68 1.5-1.5 1.5-.83 0-1.5-.68-1.5-1.5 0-.83.67-1.5 1.5-1.5.82 0 1.5.67 1.5 1.5zm-6 0c0 .82-.68 1.5-1.5 1.5-.83 0-1.5-.68-1.5-1.5 0-.83.67-1.5 1.5-1.5.82 0 1.5.67 1.5 1.5zm-6 0c0 .82-.68 1.5-1.5 1.5-.84 0-1.5-.68-1.5-1.5 0-.83.66-1.5 1.5-1.5.82 0 1.5.67 1.5 1.5zm-6 0c0 .82-.68 1.5-1.5 1.5-.84 0-1.5-.68-1.5-1.5 0-.83.66-1.5 1.5-1.5.82 0 1.5.67 1.5 1.5zm-6 0c0 .82-.68 1.5-1.5 1.5-.84 0-1.5-.68-1.5-1.5 0-.83.66-1.5 1.5-1.5.82 0 1.5.67 1.5 1.5zm-5.66-2.35c0 .83-.68 1.5-1.5 1.5-.83 0-1.5-.67-1.5-1.5s.67-1.5 1.5-1.5c.82 0 1.5.67 1.5 1.5zm-2.35-5.66c0 .82-.68 1.5-1.5 1.5-.84 0-1.5-.68-1.5-1.5 0-.83.66-1.5 1.5-1.5.82 0 1.5.67 1.5 1.5zm0-5.96c0 .83-.68 1.5-1.5 1.5-.84 0-1.5-.67-1.5-1.5s.66-1.5 1.5-1.5c.82 0 1.5.67 1.5 1.5zm0-5.95c0 .82-.68 1.5-1.5 1.5-.84 0-1.5-.68-1.5-1.5 0-.84.66-1.5 1.5-1.5.82 0 1.5.66 1.5 1.5zm0-5.96c0 .83-.68 1.5-1.5 1.5-.84 0-1.5-.67-1.5-1.5s.66-1.5 1.5-1.5c.82 0 1.5.67 1.5 1.5zm0-5.95c0 .82-.68 1.5-1.5 1.5-.84 0-1.5-.68-1.5-1.5 0-.84.66-1.5 1.5-1.5.82 0 1.5.66 1.5 1.5zm0-5.96c0 .83-.68 1.5-1.5 1.5-.84 0-1.5-.67-1.5-1.5s.66-1.5 1.5-1.5c.82 0 1.5.67 1.5 1.5zm0-5.95c0 .82-.68 1.5-1.5 1.5-.84 0-1.5-.68-1.5-1.5 0-.84.66-1.5 1.5-1.5.82 0 1.5.66 1.5 1.5zm0-5.96c0 .82-.68 1.5-1.5 1.5-.84 0-1.5-.68-1.5-1.5 0-.83.66-1.5 1.5-1.5.82 0 1.5.67 1.5 1.5zm0-5.96c0 .83-.68 1.5-1.5 1.5-.84 0-1.5-.67-1.5-1.5 0-.82.66-1.5 1.5-1.5.82 0 1.5.68 1.5 1.5zm0-5.95c0 .83-.68 1.5-1.5 1.5-.84 0-1.5-.67-1.5-1.5s.66-1.5 1.5-1.5c.82 0 1.5.67 1.5 1.5zm0-5.95c0 .83-.68 1.5-1.5 1.5-.84 0-1.5-.67-1.5-1.5s.66-1.5 1.5-1.5c.82 0 1.5.67 1.5 1.5zm0-5.95c0 .83-.68 1.5-1.5 1.5-.84 0-1.5-.67-1.5-1.5s.66-1.5 1.5-1.5c.82 0 1.5.67 1.5 1.5zm0-5.95c0 .83-.68 1.5-1.5 1.5-.84 0-1.5-.67-1.5-1.5s.66-1.5 1.5-1.5c.82 0 1.5.67 1.5 1.5zm0-5.95c0 .83-.68 1.5-1.5 1.5-.84 0-1.5-.67-1.5-1.5s.66-1.5 1.5-1.5c.82 0 1.5.67 1.5 1.5zm0-5.95c0 .83-.68 1.5-1.5 1.5-.84 0-1.5-.67-1.5-1.5s.66-1.5 1.5-1.5c.82 0 1.5.67 1.5 1.5zm0-5.95c0 .83-.68 1.5-1.5 1.5-.84 0-1.5-.67-1.5-1.5s.66-1.5 1.5-1.5c.82 0 1.5.67 1.5 1.5zm0-5.95c0 .82-.68 1.5-1.5 1.5-.84 0-1.5-.68-1.5-1.5 0-.83.66-1.5 1.5-1.5.82 0 1.5.67 1.5 1.5zm0-5.96c0 .83-.68 1.5-1.5 1.5-.84 0-1.5-.67-1.5-1.5s.66-1.5 1.5-1.5c.82 0 1.5.67 1.5 1.5zm0-5.95c0 .83-.68 1.5-1.5 1.5-.84 0-1.5-.67-1.5-1.5s.66-1.5 1.5-1.5c.82 0 1.5.67 1.5 1.5zm0-5.95c0 .83-.68 1.5-1.5 1.5-.84 0-1.5-.67-1.5-1.5s.66-1.5 1.5-1.5c.82 0 1.5.67 1.5 1.5zm0-5.95c0 .83-.68 1.5-1.5 1.5-.84 0-1.5-.67-1.5-1.5s.66-1.5 1.5-1.5c.82 0 1.5.67 1.5 1.5zm0-5.95c0 .83-.68 1.5-1.5 1.5-.84 0-1.5-.67-1.5-1.5s.66-1.5 1.5-1.5c.82 0 1.5.67 1.5 1.5zm0-5.95c0 .83-.68 1.5-1.5 1.5-.84 0-1.5-.67-1.5-1.5s.66-1.5 1.5-1.5c.82 0 1.5.67 1.5 1.5zm0-5.95c0 .83-.68 1.5-1.5 1.5-.84 0-1.5-.67-1.5-1.5s.66-1.5 1.5-1.5c.82 0 1.5.67 1.5 1.5zm0-5.95c0 .82-.68 1.5-1.5 1.5-.84 0-1.5-.68-1.5-1.5 0-.83.66-1.5 1.5-1.5.82 0 1.5.67 1.5 1.5zm0-5.96c0 .84-.68 1.5-1.5 1.5-.84 0-1.5-.66-1.5-1.5 0-.8.66-1.5 1.5-1.5.82 0 1.5.7 1.5 1.5zm0-5.94c0 .83-.68 1.5-1.5 1.5-.84 0-1.5-.67-1.5-1.5s.66-1.5 1.5-1.5c.82 0 1.5.67 1.5 1.5zm0-5.95c0 .84-.68 1.5-1.5 1.5-.84 0-1.5-.66-1.5-1.5 0-.82.66-1.5 1.5-1.5.82 0 1.5.68 1.5 1.5zm0-5.94c0 .83-.68 1.5-1.5 1.5-.84 0-1.5-.67-1.5-1.5s.66-1.5 1.5-1.5c.82 0 1.5.67 1.5 1.5zm0-5.95c0 .84-.68 1.5-1.5 1.5-.84 0-1.5-.66-1.5-1.5 0-.82.66-1.5 1.5-1.5.82 0 1.5.68 1.5 1.5zm0-5.94c0 .83-.68 1.5-1.5 1.5-.84 0-1.5-.67-1.5-1.5s.66-1.5 1.5-1.5c.82 0 1.5.67 1.5 1.5zm0-5.95c0 .84-.68 1.5-1.5 1.5-.84 0-1.5-.66-1.5-1.5 0-.82.66-1.5 1.5-1.5.82 0 1.5.68 1.5 1.5zm0-5.94c0 .82-.68 1.5-1.5 1.5-.84 0-1.5-.68-1.5-1.5 0-.83.66-1.5 1.5-1.5.82 0 1.5.67 1.5 1.5zm0-5.96c0 .83-.68 1.5-1.5 1.5-.84 0-1.5-.67-1.5-1.5 0-.82.66-1.5 1.5-1.5.82 0 1.5.68 1.5 1.5zm0-5.95c0 .83-.68 1.5-1.5 1.5-.84 0-1.5-.67-1.5-1.5s.66-1.5 1.5-1.5c.82 0 1.5.67 1.5 1.5zm0-5.95c0 .83-.68 1.5-1.5 1.5-.84 0-1.5-.67-1.5-1.5s.66-1.5 1.5-1.5c.82 0 1.5.67 1.5 1.5zm0-5.95c0 .83-.68 1.5-1.5 1.5-.84 0-1.5-.67-1.5-1.5s.66-1.5 1.5-1.5c.82 0 1.5.67 1.5 1.5zm0-5.95c0 .83-.68 1.5-1.5 1.5-.84 0-1.5-.67-1.5-1.5s.66-1.5 1.5-1.5c.82 0 1.5.67 1.5 1.5zm0-5.95c0 .83-.68 1.5-1.5 1.5-.84 0-1.5-.67-1.5-1.5s.66-1.5 1.5-1.5c.82 0 1.5.67 1.5 1.5zm0-5.95c0 .82-.68 1.5-1.5 1.5-.84 0-1.5-.68-1.5-1.5 0-.83.66-1.5 1.5-1.5.82 0 1.5.67 1.5 1.5zm0-5.95c0 .82-.68 1.5-1.5 1.5-.84 0-1.5-.68-1.5-1.5 0-.83.66-1.5 1.5-1.5.82 0 1.5.67 1.5 1.5z" fill="#333"/><path d="M582.86 598.05l9.96 4.05 10.98 3.93 10.28 3.2 9.7 2.6 9.23 2.04 8.86 1.58 8.55 1.15 8.33.77 8.15.4 8.05.1 8.03-.28 8.08-.62 8.22-.97 8.46-1.35 8.87-1.8 9.48-2.35 10.5-3.08 12.3-4.17 16.6-6.44 65.16-27.4 10.78-3.65 8.94-2.62 7.88-1.96 7.2-1.47 6.76-1.08 6.42-.75 6.2-.47 6.06-.2 5.98.05 5.95.3 5.98.55 6.04.82 6.15 1.1 6.3 1.4 6.54 1.73 6.8 2.12 7.13 2.55 7.53 3.06 8.03 3.66 8.63 4.4 9.37 5.25 1.2.74" stroke="#635dff" stroke-width="4" stroke-linejoin="round" fill="none"/><path d="M583.66 596.22l-1.5 3.7-1.16-.47v-4.3z" stroke="#635dff" stroke-width=".05" fill="#635dff"/><path d="M996.16 593.78l-14.5-3.87 5.05-7.77z" stroke="#635dff" stroke-width="4" fill="#635dff"/><path d="M624.1 429.15a8 8 0 0 1 8-8h354a8 8 0 0 1 8 8v144a8 8 0 0 1-8 8h-354a8 8 0 0 1-8-8z" stroke="#000" stroke-opacity="0" stroke-width="10" fill="#fff" fill-opacity="0"/><use xlink:href="#b" transform="matrix(1,0,0,1,629.0965444564904,426.1501736111111) translate(42.844346788194514 50.5105251736111)"/><use xlink:href="#c" transform="matrix(1,0,0,1,629.0965444564904,426.1501736111111) translate(171.93202039930557 50.5105251736111)"/><use xlink:href="#d" transform="matrix(1,0,0,1,629.0965444564904,426.1501736111111) translate(252.61181640625 50.5105251736111)"/><use xlink:href="#e" transform="matrix(1,0,0,1,629.0965444564904,426.1501736111111) translate(301.01969401041663 50.5105251736111)"/><use xlink:href="#f" transform="matrix(1,0,0,1,629.0965444564904,426.1501736111111) translate(2.5044487847222854 80.97059461805554)"/><use xlink:href="#g" transform="matrix(1,0,0,1,629.0965444564904,426.1501736111111) translate(180 80.97059461805554)"/><use xlink:href="#h" transform="matrix(1,0,0,1,629.0965444564904,426.1501736111111) translate(260.6797960069444 80.97059461805554)"/><use xlink:href="#i" transform="matrix(1,0,0,1,629.0965444564904,426.1501736111111) translate(42.844346788194485 111.43066406249997)"/><use xlink:href="#j" transform="matrix(1,0,0,1,629.0965444564904,426.1501736111111) translate(91.25222439236113 111.43066406249997)"/><use xlink:href="#k" transform="matrix(1,0,0,1,629.0965444564904,426.1501736111111) translate(171.93202039930554 111.43066406249997)"/><use xlink:href="#l" transform="matrix(1,0,0,1,629.0965444564904,426.1501736111111) translate(252.61181640624997 111.43066406249997)"/><path d="M300 417.65a8 8 0 0 1 8-8h224a8 8 0 0 1 8 8v100.5a8 8 0 0 1-8 8H308a8 8 0 0 1-8-8z" stroke="#000" stroke-opacity="0" stroke-width="10" fill="#fff" fill-opacity="0"/><use xlink:href="#m" transform="matrix(1,0,0,1,305,414.6549479166666) translate(26.252224392361256 45.79177517361107)"/><use xlink:href="#n" transform="matrix(1,0,0,1,305,414.6549479166666) translate(90.79606119791671 45.79177517361107)"/><use xlink:href="#o" transform="matrix(1,0,0,1,305,414.6549479166666) translate(10.116265190972399 76.25184461805547)"/><use xlink:href="#p" transform="matrix(1,0,0,1,305,414.6549479166666) translate(90.79606119791671 76.25184461805547)"/><path d="M1033.1 481.2a8 8 0 0 1 8-8h384a8 8 0 0 1 8 8v144.02a8 8 0 0 1-8 8h-384a8 8 0 0 1-8-8z" stroke="#000" stroke-opacity="0" stroke-width="10" fill="#fff" fill-opacity="0"/><use xlink:href="#b" transform="matrix(1,0,0,1,1038.093507684418,478.2147100982595) translate(25.572428385416742 36.4480251736111)"/><use xlink:href="#q" transform="matrix(1,0,0,1,1038.093507684418,478.2147100982595) translate(154.6601019965278 36.4480251736111)"/><use xlink:href="#r" transform="matrix(1,0,0,1,1038.093507684418,478.2147100982595) translate(17.504448784722285 66.90809461805554)"/><use xlink:href="#s" transform="matrix(1,0,0,1,1038.093507684418,478.2147100982595) translate(146.59212239583334 66.90809461805554)"/><use xlink:href="#t" transform="matrix(1,0,0,1,1038.093507684418,478.2147100982595) translate(324.0876736111111 66.90809461805554)"/><use xlink:href="#u" transform="matrix(1,0,0,1,1038.093507684418,478.2147100982595) translate(25.572428385416714 97.36816406249997)"/><use xlink:href="#v" transform="matrix(1,0,0,1,1038.093507684418,478.2147100982595) translate(138.5241427951389 97.36816406249997)"/><use xlink:href="#w" transform="matrix(1,0,0,1,1038.093507684418,478.2147100982595) translate(219.20393880208331 97.36816406249997)"/><use xlink:href="#x" transform="matrix(1,0,0,1,1038.093507684418,478.2147100982595) translate(267.61181640625 97.36816406249997)"/><use xlink:href="#y" transform="matrix(1,0,0,1,1038.093507684418,478.2147100982595) translate(130.45616319444446 127.82823350694441)"/><path d="M1235.6 671.18v-22.2c1.2-.56 2.1-1.4 2.7-2.6 1.4-2.82.2-6.26-2.7-7.62-2.9-1.4-6.3-.2-7.7 2.6-1.4 2.83-.2 6.28 2.6 7.63v22.13h-21.6v-14.1c1.9-1.04 3.1-2.87 3.1-5.06 0-3.2-2.6-5.74-5.8-5.7-2.2 0-4.1 1.1-5.1 3.04-1.5 2.83-.4 6.27 2.4 7.73v14.15h-1.1c-10.7-.05-19.3-8.6-19.3-19.2 0-10.56 8.8-19.06 19.5-19.06 2.5.05 4.6.4 6.9 1.3 6.2-13.05 22-18.74 35.2-12.63 5.8 2.65 10 6.67 12.7 12.4 2.1-.72 4-.98 6.3-1.03 10.7 0 19.4 8.6 19.4 19.2s-8.7 19.17-19.4 19.17h-1.3v-14.3c1.1-.58 1.9-1.37 2.4-2.4 1.5-2.83.4-6.27-2.4-7.74-2.8-1.46-6.3-.36-7.8 2.4-1.5 2.83-.4 6.27 2.4 7.73v14.15z" stroke="#000" stroke-opacity="0" fill="#4285f4"/><path d="M1208.9 685.97c4.77 1.1 7.98 5.18 7.83 9.98 0 5.7-4.7 10.37-10.52 10.42-5.8 0-10.5-4.66-10.5-10.37 0-4.8 3.13-8.83 7.9-10.03v-14.84h5.07zm-2.7 15.02c2.85 0 5.1-2.26 5.1-5.05 0-2.74-2.25-5-5.1-5-2.82 0-5.06 2.26-5.06 5 0 2.78 2.24 5.04 5.07 5.04zm56.26-15.03c5.6 1.44 8.95 7.1 7.46 12.67-1.5 5.52-7.24 8.83-12.83 7.34-5.6-1.44-8.96-7.15-7.47-12.67.97-3.68 3.73-6.37 7.46-7.33v-14.8h5.36zm-2.68 15.02c2.3.1 4.25-1.2 5.07-3.32.9-2.64-.45-5.47-3.06-6.43-.53-.15-.98-.24-1.5-.3-2.76-.13-5.15 1.98-5.3 4.76-.15 2.75 2.02 5.15 4.78 5.3zm-24.1-2.17c5.6 1.4 9.03 6.96 7.6 12.48-1.4 5.53-7.08 8.9-12.67 7.55-5.6-1.4-9.02-7-7.6-12.53.97-3.8 3.73-6.53 7.6-7.5V671.3h5.38zm-2.76 15.02c.67 0 1.27-.14 1.86-.38 2.62-1.06 3.88-3.98 2.84-6.53-1.12-2.6-4.03-3.8-6.64-2.73-2.6 1.06-3.88 4-2.76 6.53.82 1.88 2.6 3.03 4.7 2.98z" stroke="#000" stroke-opacity="0" fill="#669df6"/><path d="M1198.1 639.13v32h70v-32z" stroke="#000" stroke-opacity="0" fill-opacity="0"/><path d="M582.86 620.86l9.96 4.05 10.98 3.94 10.28 3.2 9.7 2.6 9.23 2.03 8.86 1.58 8.55 1.16 8.33.78 8.15.4 8.05.08 8.03-.26 8.08-.6 8.22-.98 8.46-1.36 8.87-1.8 9.48-2.36 10.5-3.07 12.3-4.18 16.6-6.43 65.16-27.4 10.78-3.67 8.94-2.62 7.88-1.95 7.2-1.47 6.76-1.07 6.42-.76 6.2-.47 6.06-.2 5.98.05 5.95.3 5.98.56 6.04.83 6.15 1.1 6.3 1.4 6.54 1.73 6.8 2.12 7.13 2.55 7.53 3.06 8.03 3.65 8.63 4.38 9.37 5.27 1.2.75" stroke="#635dff" stroke-width="4" stroke-linejoin="round" fill="none"/><path d="M583.66 619.02l-1.5 3.7-1.16-.46v-4.32z" stroke="#635dff" stroke-width=".05" fill="#635dff"/><path d="M996.16 616.58l-14.5-3.86 5.05-7.78z" stroke="#635dff" stroke-width="4" fill="#635dff"/><path d="M343.7 986.4l38.37-38.1c3.5-3.4 6.94-3.4 10.38 0l.76.77c3.45 3.42 3.45 6.83 0 10.3l-38.34 38.08c-3.5 3.42-6.94 3.42-10.38 0l-.77-.76c-3.43-3.43-3.43-6.84 0-10.3z" stroke="#000" stroke-opacity="0" stroke-width=".71" fill="#198ab3"/><path d="M459.15 926.92c0 25.9-21.17 46.92-47.26 46.92-26.1 0-47.27-21.02-47.27-46.92 0-25.9 21.17-46.92 47.26-46.92 26.08 0 47.25 21.02 47.25 46.92z" stroke="#000" stroke-opacity="0" fill="url(#z)"/><path d="M448.88 926.13c0 20.37-16.63 36.9-37.1 36.9-20.5 0-37.12-16.53-37.12-36.9 0-20.37 16.63-36.9 37.1-36.9 20.5 0 37.12 16.53 37.12 36.9z" stroke="#000" stroke-opacity="0" fill="#fff"/><path d="M375.9 935.25s10.15-50.54 57.64-39.1c-13.27-9.77-30.68-9.63-43.84.37-12.56 8.94-17.87 23.9-13.8 38.73z" stroke="#000" stroke-opacity="0" fill="#c3f1ff"/><path d="M180 748a8 8 0 0 1 8-8h435.8a8 8 0 0 1 8 8v146.3a8 8 0 0 1-8 8H188a8 8 0 0 1-8-8z" stroke="#000" stroke-opacity="0" stroke-width="10" fill="#fff" fill-opacity="0"/><g><use xlink:href="#A" transform="matrix(1,0,0,1,185,745) translate(35.43646918402783 51.0730251736111)"/><use xlink:href="#B" transform="matrix(1,0,0,1,185,745) translate(99.98030598958336 51.0730251736111)"/><use xlink:href="#C" transform="matrix(1,0,0,1,185,745) translate(212.93202039930554 51.0730251736111)"/><use xlink:href="#D" transform="matrix(1,0,0,1,185,745) translate(277.4758572048611 51.0730251736111)"/><use xlink:href="#E" transform="matrix(1,0,0,1,185,745) translate(27.368489583333428 81.53309461805554)"/><use xlink:href="#F" transform="matrix(1,0,0,1,185,745) translate(188.72808159722226 81.53309461805554)"/><use xlink:href="#G" transform="matrix(1,0,0,1,185,745) translate(285.54383680555554 81.53309461805554)"/><use xlink:href="#t" transform="matrix(1,0,0,1,185,745) translate(366.22363281249994 81.53309461805554)"/><use xlink:href="#H" transform="matrix(1,0,0,1,185,745) translate(156.45616319444446 111.99316406249997)"/><use xlink:href="#I" transform="matrix(1,0,0,1,185,745) translate(237.13595920138886 111.99316406249997)"/></g><path d="M552.76 620.65c-4.27-.1-7.6.42-10.43 1.67-.8.33-2.06.33-2.2 1.42.46.5.46 1.26.86 1.85.62 1.16 1.8 2.75 2.83 3.58l3.4 2.6c2.13 1.42 4.42 2.26 6.47 3.6 1.2.84 2.37 1.92 3.56 2.76.63.5.95 1.25 1.74 1.5v-.16c-.4-.5-.48-1.26-.87-1.84l-1.58-1.68c-1.58-2.26-3.56-4.26-5.6-5.86-1.75-1.34-5.46-3-6.17-5.2l-.16-.07c1.18-.17 2.6-.58 3.7-1 1.83-.5 3.57-.34 5.38-.92l2.6-.75v-.58c-.94-1-1.65-2.43-2.67-3.35-2.77-2.6-5.77-5.1-8.85-7.2-1.66-1.1-3.87-1.92-5.6-2.85-.64-.33-1.75-.58-2.14-1.08-.95-1.35-1.5-3.03-2.14-4.53l-4.42-10.05c-.95-2.26-1.58-4.52-2.77-6.6-5.52-9.88-11.52-15.83-20.76-21.7-1.98-1.24-4.35-1.74-6.88-2.4l-4.02-.27c-.87-.33-1.74-1.5-2.45-2-3.1-2.1-11-6.62-13.28-.67-1.43 3.76 2.2 7.53 3.4 9.46.94 1.33 2.13 2.84 2.76 4.35.3.9.47 2 .87 3 .8 2.6 1.66 5.44 2.76 7.78.64 1.26 1.28 2.5 2 3.6.46.67 1.17.92 1.33 2-.7 1.18-.8 2.86-1.26 4.36-1.9 6.53-1.2 14.65 1.57 19.5.87 1.43 2.93 4.6 5.7 3.35 2.36-1 1.8-4.36 2.52-7.2.16-.76.08-1.18.4-1.68v.17l2.2 4.76c1.67 2.85 4.6 5.86 6.96 7.78 1.34 1.1 2.37 2.85 3.95 3.52v-.17h-.08c-.32-.5-.88-.76-1.27-1.18-.95-1.1-2.06-2.34-2.77-3.52-2.3-3.17-4.26-6.77-6.08-10.54-.8-1.76-1.58-3.77-2.3-5.52-.3-.76-.3-1.76-.86-2.1-.8 1.26-1.98 2.35-2.53 3.94-1.04 2.5-1.2 5.52-1.5 8.78-.25 0-.17 0-.25.1-1.74-.43-2.3-2.36-3-4.03-1.58-4.1-1.82-10.7-.47-15.48.4-1.18 2.05-5.03 1.34-6.2-.32-1.1-1.34-1.75-1.98-2.6-.7-1.08-1.42-2.5-1.9-3.67-1.33-3.27-1.96-6.87-3.3-10.13-.72-1.5-1.83-3.1-2.77-4.44-.95-1.58-2.14-2.67-2.93-4.5-.23-.68-.63-1.68-.23-2.43.16-.42.32-.6.8-.76.7-.58 2.68.18 3.4.6 1.97.83 3.63 1.67 5.3 2.84.78.6 1.57 1.68 2.5 2h1.12c1.74.43 3.7.1 5.3.68 2.84.92 5.44 2.43 7.74 3.93 7.03 4.86 12.87 11.72 16.74 19.84.63 1.33.95 2.6 1.5 3.93 1.2 2.84 2.53 5.77 3.64 8.53 1.18 2.77 2.2 5.53 3.87 7.8.8 1.24 4.04 1.83 5.46 2.5 1.1.5 2.76 1 3.7 1.6 1.83 1.24 3.64 2.58 5.38 3.92.87.76 3.56 2.18 3.72 3.35zm-54.83-50.4c-.7 0-1.42.1-2.13.34v.16h.08c.4.92 1.18 1.5 1.74 2.35l1.18 2.77.16-.1c.7-.57 1.1-1.5 1.1-2.92-.3-.4-.4-.83-.63-1.25-.3-.5-1.02-.84-1.5-1.26z" stroke="#000" stroke-opacity="0" stroke-width=".97" fill="#00678c"/><path d="M620 393a13 13 0 0 1 13-13h854a13 13 0 0 1 13 13v374a13 13 0 0 1-13 13H633a13 13 0 0 1-13-13z" fill-opacity="0"/><path d="M668.58 380h23.73m23.73 0h23.72m23.72 0h23.72m23.72 0h23.72m23.72 0h23.72m23.73 0h23.73m23.72 0h23.72m23.72 0h23.72m23.72 0h23.72m23.72 0h23.73m23.73 0h23.72m23.72 0h23.72m23.72 0h23.72m23.72 0h23.72m23.73 0h23.73m23.72 0h23.72m23.72 0h23.72m23.72 0H1487l2.03.16 2 .48 1.87.78 1.74 1.06 1.55 1.33 1.32 1.56 1.06 1.74.78 1.88.48 2 .16 2.02v11.7m0 23.36v23.38m0 23.37v23.4m0 23.36v23.38m0 23.37v23.4m0 23.36v23.38m0 23.37v23.4m0 23.36v23.38m0 23.37V767l-.16 2.03-.48 2-.78 1.87-1.06 1.74-1.33 1.55-1.56 1.32-1.74 1.06-1.88.78-2 .48-2.02.16h-11.86m-23.72 0h-23.73m-23.73 0h-23.72m-23.72 0h-23.72m-23.72 0h-23.72m-23.72 0h-23.72m-23.73 0h-23.73m-23.72 0h-23.72m-23.72 0h-23.72m-23.72 0h-23.72m-23.72 0h-23.73m-23.73 0h-23.72m-23.72 0H905.8m-23.72 0h-23.72m-23.72 0h-23.72m-23.73 0h-23.73m-23.72 0h-23.72m-23.72 0H668.6m-23.72 0H633l-2.03-.16-2-.48-1.87-.78-1.74-1.06-1.55-1.33-1.32-1.56-1.06-1.74-.78-1.88-.48-2L620 767v-11.7m0-23.36v-23.38m0-23.37v-23.4m0-23.36v-23.38m0-23.37v-23.4m0-23.36v-23.38m0-23.37v-23.4m0-23.36v-23.38m0-23.37V393l.16-2.03.48-2 .78-1.87 1.06-1.74 1.33-1.55 1.56-1.32 1.74-1.06 1.88-.78 2-.48L633 380h11.86" stroke="#ff80df" stroke-width="6" fill="none"/><path d="M960 293.43a8 8 0 0 1 8-8h224a8 8 0 0 1 8 8v44.6a8 8 0 0 1-8 8H968a8 8 0 0 1-8-8z" stroke="#000" stroke-opacity="0" stroke-width="10" fill="#fff" fill-opacity="0"/><g><use xlink:href="#J" transform="matrix(1,0,0,1,965,290.4314965207003) translate(21.18473307291677 40.37337239583329)"/></g><path d="M944.84 280.2c-.57.3-.93.87-1.14 1.5-.15.66-.07 1.37.2 2.02.3.35.5.64.87.85.36.22.78.36 1.57.43.78.14 1.36.3 1.86.5.5.3.92.57 1.35 1 1.93 1.93 1.93 5.36 0 7.3-.35.35-1 .78-1.5 1l-.92.42h-.08l-17.63.07c-8.36.06-12.78.06-15.2.14-1.15 0-1.87.07-2.3.07-.35.08-.5.15-.57.15-.7.5-1.07 1.14-1.07 2.14 0 .5.14.92.3 1.28.2.36.5.64.84.86.08.07.08.07.22.14.07 0 .14 0 .36.07.35 0 1 .07 2.2.07 2.3.07 6.8.07 15.57.07h2.86c8.07 0 12.07 0 14.35-.15 1.22-.07 1.93-.14 2.43-.35.44-.08.72-.3 1.08-.5.14-.08.3-.08.36-.15 2.85-1.5 4.78-4.36 5.14-7.57.57-5.08-1.86-9.37-6.43-11.08-.64-.3-1.64-.43-2.57-.5h-1.28c-.36.07-.65.14-.86.2zM954.48 305.65c-.8.58-1.3 1.72-1.14 2.65.14 1.07.7 1.57 3.5 3.3l2.5 1.5-28.92.06c-27.5.07-28.92.07-29.35.36-1.43.93-1.43 3.43 0 4.36.43.28 1.86.28 29.35.35l28.92.07-2.5 1.58c-2.93 1.7-3.3 2.07-3.3 3.43 0 1.65.94 2.58 2.58 2.58.93 0 .93 0 7.7-4.07 7.65-4.57 7.58-4.5 7.58-6.14 0-1.57.07-1.5-7.57-6.08-6.64-4.07-6.85-4.2-7.78-4.2-.78-.08-1.07 0-1.57.27zM911.35 331.3c-1.5.94-1.57 3.5-.07 4.44.43.3 1.43.3 18.14.43 20 .07 18.42-.07 20 1.36 1.13 1.07 1.63 2.2 1.63 3.7 0 1.44-.28 2.3-1.28 3.37-.8.93-1.86 1.43-3.43 1.64-1.57.3-2 .5-2.5 1.36-.64 1.15-.3 2.65.8 3.5.56.43 2.56.5 4 .15 2.77-.72 5.4-2.8 6.63-5.36 1.5-3.08 1.5-6.23 0-9.3-.86-1.8-2.72-3.65-4.43-4.5-2.3-1.15-1.14-1.08-21-1.08-17.63 0-18 0-18.5.3z" stroke="#635dff" fill="#635dff"/><path d="M459.23 940H1048a12 12 0 0 0 12-12V805.74" stroke="#635dff" stroke-width="4" fill="none"/><path d="M459.28 942h-2.66l.2-.53.95-3.47h1.5z" stroke="#635dff" stroke-width=".05" fill="#635dff"/><path d="M1060 789.47l4.63 14.27h-9.27z" stroke="#635dff" stroke-width="4" fill="#635dff"/><defs><radialGradient gradientUnits="userSpaceOnUse" id="a" fx="1438.88" fy="528.87" cx="1438.88" cy="528.87" r="230"><stop offset="0%" stop-color="#fff0f0"/><stop offset="71.04%" stop-color="#fff0f0"/><stop offset="100%" stop-color="#fff3d9"/></radialGradient><path fill="#635dff" d="M762-1121V0H467v-1121H61v-228h1107v228H762" id="K"/><path fill="#635dff" d="M471 20c-247 0-336-169-336-415v-687h281v607c4 148 31 285 172 285 152 0 207-150 207-312v-580h281c4 359-9 736 8 1082H816c-7-63-11-146-12-215h-5C736-76 644 20 471 20" id="L"/><path fill="#635dff" d="M875-1102c70 0 148 7 206 17v237c-110-17-267-37-359 15-123 69-192 207-192 395V0H250c-10-367 32-789-52-1082h271c19 69 36 149 46 228h4c52-151 151-250 356-248" id="M"/><path fill="#635dff" d="M429-1484c1 190-1 388 0 572 54-116 155-191 317-191 300 0 386 257 386 563 0 241-73 429-226 518-49 28-106 42-169 42-162 0-251-81-306-196h-4c-1 59-5 127-15 176H140c4-67 9-153 8-236v-1248h281zm66 648c-93 114-92 466 1 585 35 45 77 79 142 79 64 0 112-31 148-92 69-115 68-440-2-561-39-68-131-111-221-70-25 11-46 32-68 59" id="N"/><path fill="#635dff" d="M794-190h353V0H118v-190h395v-702H223v-190h571v892zM513-1277v-207h281v207H513" id="O"/><path fill="#635dff" d="M768-1103c247 0 336 167 336 416V0H824v-619c-3-164-24-273-171-273-164 0-229 142-229 312V0H143c-4-359 9-736-8-1082h268c7 63 12 146 13 215h4c67-145 160-236 348-236" id="P"/><path fill="#635dff" d="M1113-274C1038-96 884 20 626 20c-352 0-526-209-526-566 0-358 185-556 530-556 358 0 496 251 499 615H395c5 180 68 319 245 319 102 0 186-45 208-129zM857-663c-6-177-128-307-315-247-94 30-141 121-145 247h460" id="Q"/><g id="b"><use transform="matrix(0.013129340277777773,0,0,0.013129340277777773,0,0)" xlink:href="#K"/><use transform="matrix(0.013129340277777773,0,0,0.013129340277777773,16.135959201388882,0)" xlink:href="#L"/><use transform="matrix(0.013129340277777773,0,0,0.013129340277777773,32.271918402777764,0)" xlink:href="#M"/><use transform="matrix(0.013129340277777773,0,0,0.013129340277777773,48.40787760416664,0)" xlink:href="#N"/><use transform="matrix(0.013129340277777773,0,0,0.013129340277777773,64.54383680555553,0)" xlink:href="#O"/><use transform="matrix(0.013129340277777773,0,0,0.013129340277777773,80.67979600694441,0)" xlink:href="#P"/><use transform="matrix(0.013129340277777773,0,0,0.013129340277777773,96.8157552083333,0)" xlink:href="#Q"/></g><path fill="#635dff" d="M622-916c-112 2-200 14-200 111 0 90 89 101 168 121 234 58 514 77 514 368C1104-4 751 54 434 5 267-21 161-112 121-270l247-37c24 111 113 145 252 141 114-3 226-12 226-124 0-101-103-113-192-134-225-54-490-76-490-351 0-247 201-328 458-328 245 0 413 88 457 292l-249 26c-16-98-92-133-208-131" id="R"/><path fill="#635dff" d="M711 13c-250 0-386-99-385-349l2-556H161v-190h181l88-282h176v282h385v190H606v530c-10 130 45 186 174 184 91-2 176-11 255-27v186C933-1 833 13 711 13" id="S"/><g id="c"><use transform="matrix(0.013129340277777773,0,0,0.013129340277777773,0,0)" xlink:href="#R"/><use transform="matrix(0.013129340277777773,0,0,0.013129340277777773,16.135959201388882,0)" xlink:href="#Q"/><use transform="matrix(0.013129340277777773,0,0,0.013129340277777773,32.271918402777764,0)" xlink:href="#S"/><use transform="matrix(0.013129340277777773,0,0,0.013129340277777773,48.40787760416664,0)" xlink:href="#R"/></g><path fill="#635dff" d="M427-171c3 195 2 397 2 596H148V-846c1-83-4-168-8-236h272c10 49 14 118 15 176h4c59-114 151-197 316-197 291 0 385 259 385 560 0 243-65 433-220 521-50 28-109 42-176 42-162-2-253-78-309-191zm69-661c-91 113-92 463-1 586 46 62 145 101 225 54 96-57 118-191 119-351 0-123-18-215-53-276-46-82-128-115-220-74-25 12-48 33-70 61" id="T"/><g id="d"><use transform="matrix(0.013129340277777773,0,0,0.013129340277777773,0,0)" xlink:href="#L"/><use transform="matrix(0.013129340277777773,0,0,0.013129340277777773,16.135959201388882,0)" xlink:href="#T"/></g><path fill="#635dff" d="M775-193C708-75 621 20 439 20 226 20 106-93 106-306c0-251 170-341 417-346l223-4c4-143-12-264-148-264-103 0-141 58-150 153l-293-14c37-219 194-321 455-321 263 0 418 130 417 390v392c1 84 5 161 89 160 21 0 42-2 62-6v152c-57 15-108 27-180 26-145 0-202-73-217-205h-6zm-256 17c168 0 234-139 227-325-166 4-347-25-347 173 0 94 33 152 120 152" id="U"/><use transform="matrix(0.013129340277777773,0,0,0.013129340277777773,0,0)" xlink:href="#U" id="e"/><path fill="#635dff" d="M1109-360C1066-122 902 20 624 20c-347 0-514-209-514-555 0-353 168-567 518-567 270 0 425 136 473 361l-283 14c-16-106-75-183-196-182-75 0-130 31-165 93s-52 152-52 270c0 249 74 374 221 374 120 0 188-82 201-201" id="V"/><path fill="#635dff" d="M616-1102c361 0 521 202 521 560 0 354-171 562-527 562C259 20 92-192 92-542c0-351 169-560 524-560zm-9 930c200-2 236-165 236-370 0-199-27-367-223-367-195 0-233 146-233 367 0 129 18 223 55 282s92 88 165 88" id="W"/><g id="f"><use transform="matrix(0.013129340277777773,0,0,0.013129340277777773,0,0)" xlink:href="#V"/><use transform="matrix(0.013129340277777773,0,0,0.013129340277777773,16.135959201388882,0)" xlink:href="#W"/><use transform="matrix(0.013129340277777773,0,0,0.013129340277777773,32.271918402777764,0)" xlink:href="#P"/><use transform="matrix(0.013129340277777773,0,0,0.013129340277777773,48.40787760416664,0)" xlink:href="#S"/><use transform="matrix(0.013129340277777773,0,0,0.013129340277777773,64.54383680555553,0)" xlink:href="#O"/><use transform="matrix(0.013129340277777773,0,0,0.013129340277777773,80.67979600694441,0)" xlink:href="#P"/><use transform="matrix(0.013129340277777773,0,0,0.013129340277777773,96.8157552083333,0)" xlink:href="#L"/><use transform="matrix(0.013129340277777773,0,0,0.013129340277777773,112.95171440972219,0)" xlink:href="#W"/><use transform="matrix(0.013129340277777773,0,0,0.013129340277777773,129.08767361111106,0)" xlink:href="#L"/><use transform="matrix(0.013129340277777773,0,0,0.013129340277777773,145.22363281249994,0)" xlink:href="#R"/></g><path fill="#635dff" d="M802-909c-3-189-2-383-2-575h281v1248c-1 83 4 168 8 236H817c-9-50-14-117-15-176h-4C735-49 651 20 482 20 191 20 97-238 97-539c0-243 66-432 221-519 50-28 108-42 175-42 162 2 253 78 309 191zm-70 658c91-113 93-462 2-584-46-61-145-100-224-53-96 56-119 190-120 349 0 123 17 214 52 275 46 82 130 115 222 74 25-12 46-33 68-61" id="X"/><g id="g"><use transform="matrix(0.013129340277777773,0,0,0.013129340277777773,0,0)" xlink:href="#X"/><use transform="matrix(0.013129340277777773,0,0,0.013129340277777773,16.135959201388882,0)" xlink:href="#U"/><use transform="matrix(0.013129340277777773,0,0,0.013129340277777773,32.271918402777764,0)" xlink:href="#S"/><use transform="matrix(0.013129340277777773,0,0,0.013129340277777773,48.40787760416664,0)" xlink:href="#U"/></g><path fill="#635dff" d="M934-1102c199 0 220 177 220 381V0H926c-2-260 10-533-4-785-4-72-14-138-83-138-34 0-61 27-81 81s-29 134-29 241V0H501c-2-260 9-533-5-785-4-72-13-138-82-138-46 0-65 47-80 93-21 67-30 155-30 248V0H75c-3-360 6-732-6-1082h209c6 50 3 123 8 175 36-100 83-195 216-195 135 0 166 79 196 196 42-105 93-196 236-196" id="Y"/><g id="h"><use transform="matrix(0.013129340277777773,0,0,0.013129340277777773,0,0)" xlink:href="#R"/><use transform="matrix(0.013129340277777773,0,0,0.013129340277777773,16.135959201388882,0)" xlink:href="#S"/><use transform="matrix(0.013129340277777773,0,0,0.013129340277777773,32.271918402777764,0)" xlink:href="#M"/><use transform="matrix(0.013129340277777773,0,0,0.013129340277777773,48.40787760416664,0)" xlink:href="#Q"/><use transform="matrix(0.013129340277777773,0,0,0.013129340277777773,64.54383680555553,0)" xlink:href="#U"/><use transform="matrix(0.013129340277777773,0,0,0.013129340277777773,80.67979600694441,0)" xlink:href="#Y"/></g><g id="i"><use transform="matrix(0.013129340277777773,0,0,0.013129340277777773,0,0)" xlink:href="#S"/><use transform="matrix(0.013129340277777773,0,0,0.013129340277777773,16.135959201388882,0)" xlink:href="#W"/></g><path fill="#635dff" d="M143 212c82 12 185 12 233-31 50-45 83-117 110-192L38-1082h297c100 284 211 557 291 861 72-305 176-578 270-861h294L742 57c-80 192-156 368-417 368-60 0-131-4-182-13V212" id="Z"/><g id="j"><use transform="matrix(0.013129340277777773,0,0,0.013129340277777773,0,0)" xlink:href="#R"/><use transform="matrix(0.013129340277777773,0,0,0.013129340277777773,16.135959201388882,0)" xlink:href="#Z"/><use transform="matrix(0.013129340277777773,0,0,0.013129340277777773,32.271918402777764,0)" xlink:href="#P"/><use transform="matrix(0.013129340277777773,0,0,0.013129340277777773,48.40787760416664,0)" xlink:href="#V"/></g><g id="k"><use transform="matrix(0.013129340277777773,0,0,0.013129340277777773,0,0)" xlink:href="#Z"/><use transform="matrix(0.013129340277777773,0,0,0.013129340277777773,16.135959201388882,0)" xlink:href="#W"/><use transform="matrix(0.013129340277777773,0,0,0.013129340277777773,32.271918402777764,0)" xlink:href="#L"/><use transform="matrix(0.013129340277777773,0,0,0.013129340277777773,48.40787760416664,0)" xlink:href="#M"/></g><g id="l"><use transform="matrix(0.013129340277777773,0,0,0.013129340277777773,0,0)" xlink:href="#X"/><use transform="matrix(0.013129340277777773,0,0,0.013129340277777773,16.135959201388882,0)" xlink:href="#U"/><use transform="matrix(0.013129340277777773,0,0,0.013129340277777773,32.271918402777764,0)" xlink:href="#S"/><use transform="matrix(0.013129340277777773,0,0,0.013129340277777773,48.40787760416664,0)" xlink:href="#U"/></g><path fill="#635dff" d="M761-556V0H467v-556L3-1349h309l300 566 304-566h309" id="aa"/><g id="m"><use transform="matrix(0.013129340277777757,0,0,0.013129340277777757,0,0)" xlink:href="#aa"/><use transform="matrix(0.013129340277777757,0,0,0.013129340277777757,16.135959201388864,0)" xlink:href="#W"/><use transform="matrix(0.013129340277777757,0,0,0.013129340277777757,32.27191840277773,0)" xlink:href="#L"/></g><g id="n"><use transform="matrix(0.013129340277777757,0,0,0.013129340277777757,0,0)" xlink:href="#V"/><use transform="matrix(0.013129340277777757,0,0,0.013129340277777757,16.135959201388864,0)" xlink:href="#W"/><use transform="matrix(0.013129340277777757,0,0,0.013129340277777757,32.27191840277773,0)" xlink:href="#P"/><use transform="matrix(0.013129340277777757,0,0,0.013129340277777757,48.40787760416659,0)" xlink:href="#P"/><use transform="matrix(0.013129340277777757,0,0,0.013129340277777757,64.54383680555546,0)" xlink:href="#Q"/><use transform="matrix(0.013129340277777757,0,0,0.013129340277777757,80.67979600694431,0)" xlink:href="#V"/><use transform="matrix(0.013129340277777757,0,0,0.013129340277777757,96.81575520833317,0)" xlink:href="#S"/></g><g id="o"><use transform="matrix(0.013129340277777757,0,0,0.013129340277777757,0,0)" xlink:href="#Z"/><use transform="matrix(0.013129340277777757,0,0,0.013129340277777757,16.135959201388864,0)" xlink:href="#W"/><use transform="matrix(0.013129340277777757,0,0,0.013129340277777757,32.27191840277773,0)" xlink:href="#L"/><use transform="matrix(0.013129340277777757,0,0,0.013129340277777757,48.40787760416659,0)" xlink:href="#M"/></g><g id="p"><use transform="matrix(0.013129340277777757,0,0,0.013129340277777757,0,0)" xlink:href="#X"/><use transform="matrix(0.013129340277777757,0,0,0.013129340277777757,16.135959201388864,0)" xlink:href="#U"/><use transform="matrix(0.013129340277777757,0,0,0.013129340277777757,32.27191840277773,0)" xlink:href="#S"/><use transform="matrix(0.013129340277777757,0,0,0.013129340277777757,48.40787760416659,0)" xlink:href="#U"/><use transform="matrix(0.013129340277777757,0,0,0.013129340277777757,64.54383680555546,0)" xlink:href="#N"/><use transform="matrix(0.013129340277777757,0,0,0.013129340277777757,80.67979600694431,0)" xlink:href="#U"/><use transform="matrix(0.013129340277777757,0,0,0.013129340277777757,96.81575520833317,0)" xlink:href="#R"/><use transform="matrix(0.013129340277777757,0,0,0.013129340277777757,112.95171440972202,0)" xlink:href="#Q"/></g><path fill="#635dff" d="M794-190h353V0H118v-190h395v-1104H223v-190h571v1294" id="ab"/><g id="q"><use transform="matrix(0.013129340277777773,0,0,0.013129340277777773,0,0)" xlink:href="#U"/><use transform="matrix(0.013129340277777773,0,0,0.013129340277777773,16.135959201388882,0)" xlink:href="#L"/><use transform="matrix(0.013129340277777773,0,0,0.013129340277777773,32.271918402777764,0)" xlink:href="#S"/><use transform="matrix(0.013129340277777773,0,0,0.013129340277777773,48.40787760416664,0)" xlink:href="#W"/><use transform="matrix(0.013129340277777773,0,0,0.013129340277777773,64.54383680555553,0)" xlink:href="#Y"/><use transform="matrix(0.013129340277777773,0,0,0.013129340277777773,80.67979600694441,0)" xlink:href="#U"/><use transform="matrix(0.013129340277777773,0,0,0.013129340277777773,96.8157552083333,0)" xlink:href="#S"/><use transform="matrix(0.013129340277777773,0,0,0.013129340277777773,112.95171440972219,0)" xlink:href="#O"/><use transform="matrix(0.013129340277777773,0,0,0.013129340277777773,129.08767361111106,0)" xlink:href="#V"/><use transform="matrix(0.013129340277777773,0,0,0.013129340277777773,145.22363281249994,0)" xlink:href="#U"/><use transform="matrix(0.013129340277777773,0,0,0.013129340277777773,161.35959201388883,0)" xlink:href="#ab"/><use transform="matrix(0.013129340277777773,0,0,0.013129340277777773,177.49555121527771,0)" xlink:href="#ab"/><use transform="matrix(0.013129340277777773,0,0,0.013129340277777773,193.6315104166666,0)" xlink:href="#Z"/></g><g id="r"><use transform="matrix(0.013129340277777773,0,0,0.013129340277777773,0,0)" xlink:href="#V"/><use transform="matrix(0.013129340277777773,0,0,0.013129340277777773,16.135959201388882,0)" xlink:href="#M"/><use transform="matrix(0.013129340277777773,0,0,0.013129340277777773,32.271918402777764,0)" xlink:href="#Q"/><use transform="matrix(0.013129340277777773,0,0,0.013129340277777773,48.40787760416664,0)" xlink:href="#U"/><use transform="matrix(0.013129340277777773,0,0,0.013129340277777773,64.54383680555553,0)" xlink:href="#S"/><use transform="matrix(0.013129340277777773,0,0,0.013129340277777773,80.67979600694441,0)" xlink:href="#Q"/><use transform="matrix(0.013129340277777773,0,0,0.013129340277777773,96.8157552083333,0)" xlink:href="#R"/></g><path fill="#635dff" d="M1108-33c-3 314-178 467-492 467-243 0-400-94-447-291l281-33c17 79 82 141 174 141 176 0 212-155 205-347-2-40 5-80 0-115C773-85 665-12 501-12c-288 0-377-242-377-538 0-242 65-426 223-510 50-26 108-39 175-39 160 0 253 78 307 191h5c1-58 5-125 14-174h266c-12 335-3 703-6 1049zM811-384c25-82 27-259 1-342-30-99-77-180-190-180-172 0-205 171-205 356 0 116 18 202 54 258 48 76 129 107 221 70 62-25 96-86 119-162" id="ac"/><g id="s"><use transform="matrix(0.013129340277777773,0,0,0.013129340277777773,0,0)" xlink:href="#Q"/><use transform="matrix(0.013129340277777773,0,0,0.013129340277777773,16.135959201388882,0)" xlink:href="#Y"/><use transform="matrix(0.013129340277777773,0,0,0.013129340277777773,32.271918402777764,0)" xlink:href="#N"/><use transform="matrix(0.013129340277777773,0,0,0.013129340277777773,48.40787760416664,0)" xlink:href="#Q"/><use transform="matrix(0.013129340277777773,0,0,0.013129340277777773,64.54383680555553,0)" xlink:href="#X"/><use transform="matrix(0.013129340277777773,0,0,0.013129340277777773,80.67979600694441,0)" xlink:href="#X"/><use transform="matrix(0.013129340277777773,0,0,0.013129340277777773,96.8157552083333,0)" xlink:href="#O"/><use transform="matrix(0.013129340277777773,0,0,0.013129340277777773,112.95171440972219,0)" xlink:href="#P"/><use transform="matrix(0.013129340277777773,0,0,0.013129340277777773,129.08767361111106,0)" xlink:href="#ac"/><use transform="matrix(0.013129340277777773,0,0,0.013129340277777773,145.22363281249994,0)" xlink:href="#R"/></g><g id="t"><use transform="matrix(0.013129340277777773,0,0,0.013129340277777773,0,0)" xlink:href="#U"/><use transform="matrix(0.013129340277777773,0,0,0.013129340277777773,16.135959201388882,0)" xlink:href="#P"/><use transform="matrix(0.013129340277777773,0,0,0.013129340277777773,32.271918402777764,0)" xlink:href="#X"/></g><g id="u"><use transform="matrix(0.013129340277777773,0,0,0.013129340277777773,0,0)" xlink:href="#R"/><use transform="matrix(0.013129340277777773,0,0,0.013129340277777773,16.135959201388882,0)" xlink:href="#S"/><use transform="matrix(0.013129340277777773,0,0,0.013129340277777773,32.271918402777764,0)" xlink:href="#W"/><use transform="matrix(0.013129340277777773,0,0,0.013129340277777773,48.40787760416664,0)" xlink:href="#M"/><use transform="matrix(0.013129340277777773,0,0,0.013129340277777773,64.54383680555553,0)" xlink:href="#Q"/><use transform="matrix(0.013129340277777773,0,0,0.013129340277777773,80.67979600694441,0)" xlink:href="#R"/></g><path fill="#635dff" d="M424-1484c-2 206 5 424-8 618h4c67-145 160-234 348-236 251-3 335 167 336 416V0H824v-621c0-150-23-276-173-270-163 7-227 142-227 312V0H143v-1484h281" id="ad"/><g id="v"><use transform="matrix(0.013129340277777773,0,0,0.013129340277777773,0,0)" xlink:href="#S"/><use transform="matrix(0.013129340277777773,0,0,0.013129340277777773,16.135959201388882,0)" xlink:href="#ad"/><use transform="matrix(0.013129340277777773,0,0,0.013129340277777773,32.271918402777764,0)" xlink:href="#Q"/><use transform="matrix(0.013129340277777773,0,0,0.013129340277777773,48.40787760416664,0)" xlink:href="#Y"/></g><g id="w"><use transform="matrix(0.013129340277777773,0,0,0.013129340277777773,0,0)" xlink:href="#O"/><use transform="matrix(0.013129340277777773,0,0,0.013129340277777773,16.135959201388882,0)" xlink:href="#P"/></g><path fill="#635dff" d="M774 0H438L31-1082h297c94 290 200 568 280 872 83-304 194-581 291-872h294" id="ae"/><g id="x"><use transform="matrix(0.013129340277777773,0,0,0.013129340277777773,0,0)" xlink:href="#ae"/><use transform="matrix(0.013129340277777773,0,0,0.013129340277777773,16.135959201388882,0)" xlink:href="#Q"/><use transform="matrix(0.013129340277777773,0,0,0.013129340277777773,32.271918402777764,0)" xlink:href="#V"/><use transform="matrix(0.013129340277777773,0,0,0.013129340277777773,48.40787760416664,0)" xlink:href="#S"/><use transform="matrix(0.013129340277777773,0,0,0.013129340277777773,64.54383680555553,0)" xlink:href="#W"/><use transform="matrix(0.013129340277777773,0,0,0.013129340277777773,80.67979600694441,0)" xlink:href="#M"/></g><g id="y"><use transform="matrix(0.013129340277777773,0,0,0.013129340277777773,0,0)" xlink:href="#X"/><use transform="matrix(0.013129340277777773,0,0,0.013129340277777773,16.135959201388882,0)" xlink:href="#U"/><use transform="matrix(0.013129340277777773,0,0,0.013129340277777773,32.271918402777764,0)" xlink:href="#S"/><use transform="matrix(0.013129340277777773,0,0,0.013129340277777773,48.40787760416664,0)" xlink:href="#U"/><use transform="matrix(0.013129340277777773,0,0,0.013129340277777773,64.54383680555553,0)" xlink:href="#N"/><use transform="matrix(0.013129340277777773,0,0,0.013129340277777773,80.67979600694441,0)" xlink:href="#U"/><use transform="matrix(0.013129340277777773,0,0,0.013129340277777773,96.8157552083333,0)" xlink:href="#R"/><use transform="matrix(0.013129340277777773,0,0,0.013129340277777773,112.95171440972219,0)" xlink:href="#Q"/></g><radialGradient gradientUnits="userSpaceOnUse" id="z" fx="400.15" fy="940" cx="400.15" cy="940" r="60"><stop offset="22.5%" stop-color="#32d4f5"/><stop offset="59%" stop-color="#32d2f2"/><stop offset="82.5%" stop-color="#32caea"/><stop offset="100%" stop-color="#32bedd"/></radialGradient><g id="A"><use transform="matrix(0.013129340277777773,0,0,0.013129340277777773,0,0)" xlink:href="#aa"/><use transform="matrix(0.013129340277777773,0,0,0.013129340277777773,16.135959201388882,0)" xlink:href="#W"/><use transform="matrix(0.013129340277777773,0,0,0.013129340277777773,32.271918402777764,0)" xlink:href="#L"/></g><g id="B"><use transform="matrix(0.013129340277777773,0,0,0.013129340277777773,0,0)" xlink:href="#R"/><use transform="matrix(0.013129340277777773,0,0,0.013129340277777773,16.135959201388882,0)" xlink:href="#Q"/><use transform="matrix(0.013129340277777773,0,0,0.013129340277777773,32.271918402777764,0)" xlink:href="#U"/><use transform="matrix(0.013129340277777773,0,0,0.013129340277777773,48.40787760416664,0)" xlink:href="#M"/><use transform="matrix(0.013129340277777773,0,0,0.013129340277777773,64.54383680555553,0)" xlink:href="#V"/><use transform="matrix(0.013129340277777773,0,0,0.013129340277777773,80.67979600694441,0)" xlink:href="#ad"/></g><g id="C"><use transform="matrix(0.013129340277777773,0,0,0.013129340277777773,0,0)" xlink:href="#U"/><use transform="matrix(0.013129340277777773,0,0,0.013129340277777773,16.135959201388882,0)" xlink:href="#P"/><use transform="matrix(0.013129340277777773,0,0,0.013129340277777773,32.271918402777764,0)" xlink:href="#X"/></g><g id="D"><use transform="matrix(0.013129340277777773,0,0,0.013129340277777773,0,0)" xlink:href="#M"/><use transform="matrix(0.013129340277777773,0,0,0.013129340277777773,16.135959201388882,0)" xlink:href="#Q"/><use transform="matrix(0.013129340277777773,0,0,0.013129340277777773,32.271918402777764,0)" xlink:href="#S"/><use transform="matrix(0.013129340277777773,0,0,0.013129340277777773,48.40787760416664,0)" xlink:href="#M"/><use transform="matrix(0.013129340277777773,0,0,0.013129340277777773,64.54383680555553,0)" xlink:href="#O"/><use transform="matrix(0.013129340277777773,0,0,0.013129340277777773,80.67979600694441,0)" xlink:href="#Q"/><use transform="matrix(0.013129340277777773,0,0,0.013129340277777773,96.8157552083333,0)" xlink:href="#ae"/><use transform="matrix(0.013129340277777773,0,0,0.013129340277777773,112.95171440972219,0)" xlink:href="#Q"/></g><g id="E"><use transform="matrix(0.013129340277777773,0,0,0.013129340277777773,0,0)" xlink:href="#X"/><use transform="matrix(0.013129340277777773,0,0,0.013129340277777773,16.135959201388882,0)" xlink:href="#W"/><use transform="matrix(0.013129340277777773,0,0,0.013129340277777773,32.271918402777764,0)" xlink:href="#V"/><use transform="matrix(0.013129340277777773,0,0,0.013129340277777773,48.40787760416664,0)" xlink:href="#L"/><use transform="matrix(0.013129340277777773,0,0,0.013129340277777773,64.54383680555553,0)" xlink:href="#Y"/><use transform="matrix(0.013129340277777773,0,0,0.013129340277777773,80.67979600694441,0)" xlink:href="#Q"/><use transform="matrix(0.013129340277777773,0,0,0.013129340277777773,96.8157552083333,0)" xlink:href="#P"/><use transform="matrix(0.013129340277777773,0,0,0.013129340277777773,112.95171440972219,0)" xlink:href="#S"/><use transform="matrix(0.013129340277777773,0,0,0.013129340277777773,129.08767361111106,0)" xlink:href="#R"/></g><g id="F"><use transform="matrix(0.013129340277777773,0,0,0.013129340277777773,0,0)" xlink:href="#L"/><use transform="matrix(0.013129340277777773,0,0,0.013129340277777773,16.135959201388882,0)" xlink:href="#R"/><use transform="matrix(0.013129340277777773,0,0,0.013129340277777773,32.271918402777764,0)" xlink:href="#O"/><use transform="matrix(0.013129340277777773,0,0,0.013129340277777773,48.40787760416664,0)" xlink:href="#P"/><use transform="matrix(0.013129340277777773,0,0,0.013129340277777773,64.54383680555553,0)" xlink:href="#ac"/></g><path fill="#635dff" d="M609-1161c-125 0-218 36-218 153 0 149 166 161 290 196 235 67 484 129 484 421 0 300-239 408-554 411C302 23 93-114 38-367l285-37c32 128 131 205 296 203 143-2 259-31 259-173 0-164-197-172-333-212-218-64-441-131-441-405 0-276 231-379 511-379 299 0 463 114 513 363l-286 29c-28-115-96-183-233-183" id="af"/><path fill="#635dff" d="M496-1349c439 0 656 222 653 664C1146-265 969 0 556 0H135v-1349h361zm36 1121c245-7 319-187 320-457 1-273-91-439-361-436h-61v893h102" id="ag"/><path fill="#635dff" d="M881 0L558-557 431-415V0H136v-1349h295v599l436-599h343L750-770 1229 0H881" id="ah"/><g id="G"><use transform="matrix(0.013129340277777773,0,0,0.013129340277777773,0,0)" xlink:href="#af"/><use transform="matrix(0.013129340277777773,0,0,0.013129340277777773,16.135959201388882,0)" xlink:href="#ag"/><use transform="matrix(0.013129340277777773,0,0,0.013129340277777773,32.271918402777764,0)" xlink:href="#ah"/><use transform="matrix(0.013129340277777773,0,0,0.013129340277777773,48.40787760416664,0)" xlink:href="#R"/></g><path fill="#635dff" d="M796 0v-574H433V0H138v-1349h295v531h363v-531h295V0H796" id="ai"/><path fill="#635dff" d="M616-1349c316 3 526 118 526 426 0 301-201 442-514 447H431V0H136v-1349h480zm-25 646c164 1 254-62 254-215 0-157-99-200-262-202H431v417h160" id="aj"/><g id="H"><use transform="matrix(0.013129340277777773,0,0,0.013129340277777773,0,0)" xlink:href="#ai"/><use transform="matrix(0.013129340277777773,0,0,0.013129340277777773,16.135959201388882,0)" xlink:href="#K"/><use transform="matrix(0.013129340277777773,0,0,0.013129340277777773,32.271918402777764,0)" xlink:href="#K"/><use transform="matrix(0.013129340277777773,0,0,0.013129340277777773,48.40787760416664,0)" xlink:href="#aj"/></g><path fill="#635dff" d="M1229 0H935l-92-330H387L295 0H0l443-1349h344zM615-1167c-46 213-110 412-166 615h332c-56-204-119-401-166-615" id="ak"/><path fill="#635dff" d="M157-1349h916v228H757v893h316V0H157v-228h316v-893H157v-228" id="al"/><g id="I"><use transform="matrix(0.013129340277777773,0,0,0.013129340277777773,0,0)" xlink:href="#ak"/><use transform="matrix(0.013129340277777773,0,0,0.013129340277777773,16.135959201388882,0)" xlink:href="#aj"/><use transform="matrix(0.013129340277777773,0,0,0.013129340277777773,32.271918402777764,0)" xlink:href="#al"/></g><g id="J"><use transform="matrix(0.02180989583333331,0,0,0.02180989583333331,0,0)" xlink:href="#K"/><use transform="matrix(0.02180989583333331,0,0,0.02180989583333331,26.80436197916664,0)" xlink:href="#L"/><use transform="matrix(0.02180989583333331,0,0,0.02180989583333331,53.60872395833328,0)" xlink:href="#M"/><use transform="matrix(0.02180989583333331,0,0,0.02180989583333331,80.41308593749991,0)" xlink:href="#N"/><use transform="matrix(0.02180989583333331,0,0,0.02180989583333331,107.21744791666656,0)" xlink:href="#O"/><use transform="matrix(0.02180989583333331,0,0,0.02180989583333331,134.0218098958332,0)" xlink:href="#P"/><use transform="matrix(0.02180989583333331,0,0,0.02180989583333331,160.82617187499983,0)" xlink:href="#Q"/></g></defs></g></svg>