<svg xmlns="http://www.w3.org/2000/svg" xmlns:xlink="http://www.w3.org/1999/xlink" xmlns:lucid="lucid" width="884" height="827"><g transform="translate(-478.00000000000006 -115.00000000000003)" lucid:page-tab-id="0_0"><path d="M500 252a8 8 0 0 1 8-8h313.85a8 8 0 0 1 8 8v141.62a8 8 0 0 1-8 8H508a8 8 0 0 1-8-8zM1010.15 252.58a8 8 0 0 1 8-8H1332a8 8 0 0 1 8 8v141.6a8 8 0 0 1-8 8h-313.85a8 8 0 0 1-8-8z" stroke="#635dff" stroke-width="2" fill-opacity="0"/><path d="M674.8 271.82l3.56 5.02c.84.9 1.68 1.7 2.7 2.5 3 2.22 5.83 4.63 8.42 7.13 6 5.93 10.1 12.55 13.03 19.68 1.76 4.4 2.72 8.93 2.78 13.45.3 13.54-5.9 25.2-18.4 34.82-2.03 1.5-4.25 3-6.54 4.22-1.26 0-1.86-.7-2.34-1.3-.96-1.2-1.56-2.62-1.86-4.02-.42-1.6-.73-3.2-.54-4.92v-.8c-.13-.1-1.2-75.38-.8-75.78z" stroke="#000" stroke-opacity="0" stroke-width="2" fill="#599636"/><path d="M674.8 271.62c-.1-.2-.3 0-.4.1.05 1.1-.5 2-1.27 3-.84.9-2.04 1.62-3.18 2.42-6.5 4.22-11.6 9.23-15.7 14.96-5.4 7.62-8.22 15.85-9 24.48-.36 3.12 1.32 14.06 2.58 17.27 3.6 8.43 10.04 15.45 18.33 21.58 2.04 1.5 4.2 2.8 6.5 4.1.65 0 .7-.4.83-.7.3-.8.53-1.4.65-2.1l1.5-8.23-.84-76.88z" stroke="#000" stroke-opacity="0" stroke-width="2" fill="#6cac48"/><path d="M678.36 361.95c.18-1.2.96-2.3 1.86-3.3-.9-.3-1.56-.8-2.04-1.42-.42-.5-.84-1.2-1.08-1.8-1.02-2.3-1.26-4.72-1.57-7.03V347c-.36.2-.4 2-.4 2.3-.26 2.6-.62 4.82-1.34 7.43-.2.9-.37 1.9-1.15 2.8 0 .1 0 .2.06.4 1.33 2.92 1.7 5.83 1.87 8.84v1.1c0 1.3-.06 1 1.4 1.5.6.12 1.25.2 1.85.52.42 0 .48-.3.48-.52l-.18-1.8v-5.02c-.12-.9.12-1.7.24-2.6z" stroke="#000" stroke-opacity="0" stroke-width="2" fill="#c2bfbf"/><path d="M623.6 333.5c-.52-1.85-2.28-4-6-4-.8 0-1.64.1-2.56.28-1.76.3-3.2.5-4.54.5 10.1-15.7 16.7-37.5 10.2-45.05-8.55-10-20.1-11.5-26.18-11.5h-.62c-2.26 0-4.63.3-7 .8l-8.77 1.67c-1.13-.1-2.37-.2-3.6-.2H574c-3.9 0-7.4.8-10.6 2.16l-3.1-1.08c-4.12-1.57-10.5-3.34-16.7-3.34h-1.13c-6.08.2-11.44 2.36-15.26 6.2-4.83 4.8-7 11.76-6.48 20.8 0 .48 5.98 46.6 23 46.6h.2c2.16-.1 4.22-.87 6.18-2.44 1.54 1.08 3.5 1.67 5.25 1.96 1.24.2 3.4.6 5.98.6 3.1 0 5.98-.6 8.35-1.68v7.96c.2 3.13.83 5.98 1.75 8.23 2.58 6.38 7 9.92 12.48 9.92h.73c4.53-.3 9.07-2.56 12.16-6.2 3.5-3.92 4.22-8.04 4.53-11.2V345h.3l1.04.1H603.8c3.7 0 8.25-.9 11.34-2.17 2.9-1.17 9.6-4.6 8.45-9.42z" stroke="#000" stroke-opacity="0" stroke-width="10" fill="#fff"/><path d="M596.48 342.93v-1.27-.98l.1-.1c.3-5.9 2.17-8.25 4.02-9.52-.2-.4-.5-.7-.82-1.08-.82-.98-1.86-2.16-2.88-3.73l-.2-.4c-.22-.3-.63-.97-1.15-1.76-2.88-4.82-8.86-14.73-4.74-21 1.77-2.76 5.17-4.33 10.12-4.72-2.07-5.2-9.5-17.67-26.5-17.96-14.74-.2-19.58 12.07-21.23 19.33 2.15-.78 4.63-1.27 6.9-1.27h.1c5.67 0 9.48 2.74 10.62 7.45.82 3.44 1.23 6.48 1.23 9.23-.1 6.08-1.44 9.22-2.57 12.07l-.42.88c-.3.8-.6 1.5-.92 2.17-.3.6-.52 1.18-.73 1.77 1.15.2 2.08.6 2.7.88l.4.1c.1 0 .2.1.32.2 2.06 1.08 3.4 2.84 3.7 4.9.1 1.18.1 8.74 0 15.32.2 2.84.83 5.3 1.45 7.06 1.03 2.45 3.5 7.17 8.35 6.87 3.3-.2 6.6-1.96 8.66-4.42 2.37-2.64 3.2-5.6 3.5-8.83v-11.2z" stroke="#000" stroke-opacity="0" stroke-width="10" fill="#0277bd"/><path d="M552.78 331.55c-4.02-3.73-5.88-8.83-5.16-13.54.62-4.5.3-8.93.1-11.28-.1-.88-.2-1.47-.2-1.77h.1v-.1c.2-6.67 3.1-17.37 10.93-23.65-3.8-1.37-10-3.14-15.88-2.94-9.17.3-18.03 6-17.1 22.28.3 6.08 7.83 42.6 18.14 42.4 1.55-.1 3.1-1 4.64-2.66 2.48-2.74 4.85-5.2 6.6-6.96-.72-.5-1.55-1.08-2.16-1.77zm53.5-31.6c.1.3 0 .6 0 .88 0 2.06-.2 4.03-.42 6-.2 1.36-.4 2.83-.4 4.3-.1 1.48.1 2.85.4 4.42.52 3.44 1.03 7.46-1.96 12.07.62.7 1.03 1.28 1.45 1.87 11.34-16.7 15.87-36.52 11.54-41.52-6.6-7.66-15.68-9.92-22.9-9.72-2.26 0-4.32.3-6.07.6 12.47 5.48 17.93 17.26 18.35 21.1zm9.8 34.15c-6.6 1.28-9.7.6-11.25-.3-.2.2-.5.3-.72.5-.92.5-2.36 1.27-2.67 6.18.2 0 .4 0 .62.1l1.03.1c3.3.1 7.52-.7 10-1.77 5.25-2.25 8.24-5.78 3-4.8zm-46.5 4.6c0-.67-.4-1.16-1.13-1.65l-.32-.1c-.82-.4-1.85-.8-3.4-.8h-.1c-.3.1-.62.1-.93.1h-.3c-1.24.8-2.9 1.38-6.9 2.17-7.33 1.67-3 3.73-.22 4.02 2.68.6 9.18 1.38 13.4-1.86 0-.98 0-1.67-.1-1.87z" stroke="#000" stroke-opacity="0" stroke-width="10" fill="#0277bd"/><path d="M566.38 308.3c-.72.68-1.85 1.27-3.1 1.07-2.05-.3-3.6-2.45-3.5-3.34.1-.78 1.86-1.27 3.92-.98.62.1 1.34.3 1.86.5-.83-1.48-2.27-2.36-4.43-2.56-3.82-.4-7.84 1.36-8.66 2.35 0 .3.1.58.1.98.2 2.55.62 7.36-.1 12.36-.52 3.23.92 7.06 3.8 9.8 1.87 1.77 4.03 2.85 6.1 3.15.3-1.08.82-2.06 1.33-3.14.2-.58.52-1.27.83-1.86l.4-.98c1.04-2.55 2.18-5.3 2.18-10.5 0-2.06-.2-4.32-.72-6.87zm34.64 7.84c-.3-1.67-.52-3.33-.52-5.1.1-1.67.3-3.24.52-4.7l.3-3.55c-3.2.3-5.25 1.07-6.28 2.45.4-.1.93-.2 1.44-.2 2.17-.3 3.7.3 3.92 1.38.2.78-.62 1.57-.93 1.86-.72.58-1.55.97-2.37 1.07h-.5c-.84 0-1.66-.2-2.28-.6.2 4.33 3.8 10.22 5.56 13.16.3.6.62 1.08.93 1.47.94-2.45.53-4.7.22-7.26z" stroke="#000" stroke-opacity="0" stroke-width="10" fill="#0277bd"/><path d="M764.14 667.1a8 8 0 0 1 8-8H1192a8 8 0 0 1 8 8v216.05a8 8 0 0 1-8 8H772.14a8 8 0 0 1-8-8z" fill-opacity="0"/><path d="M765.64 667.1c0 .82-.67 1.5-1.5 1.5s-1.5-.68-1.5-1.5c0-.84.67-1.5 1.5-1.5s1.5.66 1.5 1.5zm2.34-5.67c0 .83-.67 1.5-1.5 1.5s-1.5-.67-1.5-1.5.67-1.5 1.5-1.5 1.5.67 1.5 1.5zm5.66-2.34c0 .82-.67 1.5-1.5 1.5s-1.5-.68-1.5-1.5c0-.84.67-1.5 1.5-1.5s1.5.66 1.5 1.5zm6 0c0 .82-.68 1.5-1.5 1.5-.83 0-1.5-.68-1.5-1.5 0-.84.67-1.5 1.5-1.5.82 0 1.5.66 1.5 1.5zm6 0c0 .82-.68 1.5-1.5 1.5-.84 0-1.5-.68-1.5-1.5 0-.84.66-1.5 1.5-1.5.82 0 1.5.66 1.5 1.5zm6 0c0 .82-.68 1.5-1.5 1.5-.84 0-1.5-.68-1.5-1.5 0-.84.66-1.5 1.5-1.5.82 0 1.5.66 1.5 1.5zm6 0c0 .82-.68 1.5-1.5 1.5-.84 0-1.5-.68-1.5-1.5 0-.84.66-1.5 1.5-1.5.82 0 1.5.66 1.5 1.5zm6 0c0 .82-.68 1.5-1.5 1.5-.84 0-1.5-.68-1.5-1.5 0-.84.66-1.5 1.5-1.5.82 0 1.5.66 1.5 1.5zm6 0c0 .82-.7 1.5-1.5 1.5-.84 0-1.5-.68-1.5-1.5 0-.84.66-1.5 1.5-1.5.8 0 1.5.66 1.5 1.5zm5.98 0c0 .82-.67 1.5-1.5 1.5s-1.5-.68-1.5-1.5c0-.84.67-1.5 1.5-1.5s1.5.66 1.5 1.5zm6 0c0 .82-.67 1.5-1.5 1.5s-1.5-.68-1.5-1.5c0-.84.67-1.5 1.5-1.5s1.5.66 1.5 1.5zm6 0c0 .82-.67 1.5-1.5 1.5s-1.5-.68-1.5-1.5c0-.84.67-1.5 1.5-1.5s1.5.66 1.5 1.5zm6 0c0 .82-.67 1.5-1.5 1.5s-1.5-.68-1.5-1.5c0-.84.67-1.5 1.5-1.5s1.5.66 1.5 1.5zm6 0c0 .82-.68 1.5-1.5 1.5-.83 0-1.5-.68-1.5-1.5 0-.84.67-1.5 1.5-1.5.82 0 1.5.66 1.5 1.5zm6 0c0 .82-.68 1.5-1.5 1.5-.83 0-1.5-.68-1.5-1.5 0-.84.67-1.5 1.5-1.5.82 0 1.5.66 1.5 1.5zm6 0c0 .82-.68 1.5-1.5 1.5-.84 0-1.5-.68-1.5-1.5 0-.84.66-1.5 1.5-1.5.82 0 1.5.66 1.5 1.5zm6 0c0 .82-.68 1.5-1.5 1.5-.84 0-1.5-.68-1.5-1.5 0-.84.66-1.5 1.5-1.5.82 0 1.5.66 1.5 1.5zm6 0c0 .82-.68 1.5-1.5 1.5-.84 0-1.5-.68-1.5-1.5 0-.84.66-1.5 1.5-1.5.82 0 1.5.66 1.5 1.5zm6 0c0 .82-.7 1.5-1.5 1.5-.84 0-1.5-.68-1.5-1.5 0-.84.66-1.5 1.5-1.5.8 0 1.5.66 1.5 1.5zm5.98 0c0 .82-.67 1.5-1.5 1.5-.82 0-1.5-.68-1.5-1.5 0-.84.68-1.5 1.5-1.5.83 0 1.5.66 1.5 1.5zm6 0c0 .82-.67 1.5-1.5 1.5s-1.5-.68-1.5-1.5c0-.84.67-1.5 1.5-1.5s1.5.66 1.5 1.5zm6 0c0 .82-.67 1.5-1.5 1.5s-1.5-.68-1.5-1.5c0-.84.67-1.5 1.5-1.5s1.5.66 1.5 1.5zm6 0c0 .82-.67 1.5-1.5 1.5s-1.5-.68-1.5-1.5c0-.84.67-1.5 1.5-1.5s1.5.66 1.5 1.5zm6 0c0 .82-.68 1.5-1.5 1.5-.83 0-1.5-.68-1.5-1.5 0-.84.67-1.5 1.5-1.5.82 0 1.5.66 1.5 1.5zm6 0c0 .82-.68 1.5-1.5 1.5-.83 0-1.5-.68-1.5-1.5 0-.84.67-1.5 1.5-1.5.82 0 1.5.66 1.5 1.5zm6 0c0 .82-.68 1.5-1.5 1.5-.84 0-1.5-.68-1.5-1.5 0-.84.66-1.5 1.5-1.5.82 0 1.5.66 1.5 1.5zm6 0c0 .82-.68 1.5-1.5 1.5-.84 0-1.5-.68-1.5-1.5 0-.84.66-1.5 1.5-1.5.82 0 1.5.66 1.5 1.5zm6 0c0 .82-.68 1.5-1.5 1.5-.84 0-1.5-.68-1.5-1.5 0-.84.66-1.5 1.5-1.5.82 0 1.5.66 1.5 1.5zm6 0c0 .82-.7 1.5-1.5 1.5-.84 0-1.5-.68-1.5-1.5 0-.84.66-1.5 1.5-1.5.8 0 1.5.66 1.5 1.5zm6 0c0 .82-.7 1.5-1.5 1.5-.84 0-1.5-.68-1.5-1.5 0-.84.66-1.5 1.5-1.5.8 0 1.5.66 1.5 1.5zm5.98 0c0 .82-.67 1.5-1.5 1.5s-1.5-.68-1.5-1.5c0-.84.67-1.5 1.5-1.5s1.5.66 1.5 1.5zm6 0c0 .82-.67 1.5-1.5 1.5s-1.5-.68-1.5-1.5c0-.84.67-1.5 1.5-1.5s1.5.66 1.5 1.5zm6 0c0 .82-.67 1.5-1.5 1.5s-1.5-.68-1.5-1.5c0-.84.67-1.5 1.5-1.5s1.5.66 1.5 1.5zm6 0c0 .82-.68 1.5-1.5 1.5-.83 0-1.5-.68-1.5-1.5 0-.84.67-1.5 1.5-1.5.82 0 1.5.66 1.5 1.5zm6 0c0 .82-.68 1.5-1.5 1.5-.83 0-1.5-.68-1.5-1.5 0-.84.67-1.5 1.5-1.5.82 0 1.5.66 1.5 1.5zm6 0c0 .82-.68 1.5-1.5 1.5-.84 0-1.5-.68-1.5-1.5 0-.84.66-1.5 1.5-1.5.82 0 1.5.66 1.5 1.5zm6 0c0 .82-.68 1.5-1.5 1.5-.84 0-1.5-.68-1.5-1.5 0-.84.66-1.5 1.5-1.5.82 0 1.5.66 1.5 1.5zm6 0c0 .82-.68 1.5-1.5 1.5-.84 0-1.5-.68-1.5-1.5 0-.84.66-1.5 1.5-1.5.82 0 1.5.66 1.5 1.5zm6 0c0 .82-.7 1.5-1.5 1.5-.84 0-1.5-.68-1.5-1.5 0-.84.66-1.5 1.5-1.5.8 0 1.5.66 1.5 1.5zm6 0c0 .82-.7 1.5-1.5 1.5-.84 0-1.5-.68-1.5-1.5 0-.84.66-1.5 1.5-1.5.8 0 1.5.66 1.5 1.5zm5.98 0c0 .82-.67 1.5-1.5 1.5s-1.5-.68-1.5-1.5c0-.84.67-1.5 1.5-1.5s1.5.66 1.5 1.5zm6 0c0 .82-.67 1.5-1.5 1.5s-1.5-.68-1.5-1.5c0-.84.67-1.5 1.5-1.5s1.5.66 1.5 1.5zm6 0c0 .82-.67 1.5-1.5 1.5s-1.5-.68-1.5-1.5c0-.84.67-1.5 1.5-1.5s1.5.66 1.5 1.5zm6 0c0 .82-.67 1.5-1.5 1.5s-1.5-.68-1.5-1.5c0-.84.67-1.5 1.5-1.5s1.5.66 1.5 1.5zm6 0c0 .82-.68 1.5-1.5 1.5-.83 0-1.5-.68-1.5-1.5 0-.84.67-1.5 1.5-1.5.82 0 1.5.66 1.5 1.5zm6 0c0 .82-.68 1.5-1.5 1.5-.84 0-1.5-.68-1.5-1.5 0-.84.66-1.5 1.5-1.5.82 0 1.5.66 1.5 1.5zm6 0c0 .82-.68 1.5-1.5 1.5-.84 0-1.5-.68-1.5-1.5 0-.84.66-1.5 1.5-1.5.82 0 1.5.66 1.5 1.5zm6 0c0 .82-.68 1.5-1.5 1.5-.84 0-1.5-.68-1.5-1.5 0-.84.66-1.5 1.5-1.5.82 0 1.5.66 1.5 1.5zm6 0c0 .82-.68 1.5-1.5 1.5-.84 0-1.5-.68-1.5-1.5 0-.84.66-1.5 1.5-1.5.82 0 1.5.66 1.5 1.5zm6 0c0 .82-.7 1.5-1.5 1.5-.84 0-1.5-.68-1.5-1.5 0-.84.66-1.5 1.5-1.5.8 0 1.5.66 1.5 1.5zm5.98 0c0 .82-.67 1.5-1.5 1.5s-1.5-.68-1.5-1.5c0-.84.67-1.5 1.5-1.5s1.5.66 1.5 1.5zm6 0c0 .82-.67 1.5-1.5 1.5s-1.5-.68-1.5-1.5c0-.84.67-1.5 1.5-1.5s1.5.66 1.5 1.5zm6 0c0 .82-.67 1.5-1.5 1.5s-1.5-.68-1.5-1.5c0-.84.67-1.5 1.5-1.5s1.5.66 1.5 1.5zm6 0c0 .82-.67 1.5-1.5 1.5s-1.5-.68-1.5-1.5c0-.84.67-1.5 1.5-1.5s1.5.66 1.5 1.5zm6 0c0 .82-.68 1.5-1.5 1.5-.83 0-1.5-.68-1.5-1.5 0-.84.67-1.5 1.5-1.5.82 0 1.5.66 1.5 1.5zm6 0c0 .82-.68 1.5-1.5 1.5-.84 0-1.5-.68-1.5-1.5 0-.84.66-1.5 1.5-1.5.82 0 1.5.66 1.5 1.5zm6 0c0 .82-.68 1.5-1.5 1.5-.84 0-1.5-.68-1.5-1.5 0-.84.66-1.5 1.5-1.5.82 0 1.5.66 1.5 1.5zm6 0c0 .82-.68 1.5-1.5 1.5-.84 0-1.5-.68-1.5-1.5 0-.84.66-1.5 1.5-1.5.82 0 1.5.66 1.5 1.5zm6 0c0 .82-.68 1.5-1.5 1.5-.84 0-1.5-.68-1.5-1.5 0-.84.66-1.5 1.5-1.5.82 0 1.5.66 1.5 1.5zm6 0c0 .82-.7 1.5-1.5 1.5-.84 0-1.5-.68-1.5-1.5 0-.84.66-1.5 1.5-1.5.8 0 1.5.66 1.5 1.5zm5.98 0c0 .82-.67 1.5-1.5 1.5s-1.5-.68-1.5-1.5c0-.84.67-1.5 1.5-1.5s1.5.66 1.5 1.5zm6 0c0 .82-.67 1.5-1.5 1.5s-1.5-.68-1.5-1.5c0-.84.67-1.5 1.5-1.5s1.5.66 1.5 1.5zm6 0c0 .82-.67 1.5-1.5 1.5s-1.5-.68-1.5-1.5c0-.84.67-1.5 1.5-1.5s1.5.66 1.5 1.5zm6 0c0 .82-.67 1.5-1.5 1.5s-1.5-.68-1.5-1.5c0-.84.67-1.5 1.5-1.5s1.5.66 1.5 1.5zm6 0c0 .82-.68 1.5-1.5 1.5-.83 0-1.5-.68-1.5-1.5 0-.84.67-1.5 1.5-1.5.82 0 1.5.66 1.5 1.5zm6 0c0 .82-.68 1.5-1.5 1.5-.84 0-1.5-.68-1.5-1.5 0-.84.66-1.5 1.5-1.5.82 0 1.5.66 1.5 1.5zm6 0c0 .82-.68 1.5-1.5 1.5-.84 0-1.5-.68-1.5-1.5 0-.84.66-1.5 1.5-1.5.82 0 1.5.66 1.5 1.5zm6 0c0 .82-.68 1.5-1.5 1.5-.84 0-1.5-.68-1.5-1.5 0-.84.66-1.5 1.5-1.5.82 0 1.5.66 1.5 1.5zm6 0c0 .82-.68 1.5-1.5 1.5-.84 0-1.5-.68-1.5-1.5 0-.84.66-1.5 1.5-1.5.82 0 1.5.66 1.5 1.5zm6 0c0 .82-.7 1.5-1.5 1.5-.84 0-1.5-.68-1.5-1.5 0-.84.66-1.5 1.5-1.5.8 0 1.5.66 1.5 1.5zm5.98 0c0 .82-.67 1.5-1.5 1.5-.82 0-1.5-.68-1.5-1.5 0-.84.68-1.5 1.5-1.5.83 0 1.5.66 1.5 1.5zm6 0c0 .82-.67 1.5-1.5 1.5s-1.5-.68-1.5-1.5c0-.84.67-1.5 1.5-1.5s1.5.66 1.5 1.5zm6 0c0 .82-.67 1.5-1.5 1.5s-1.5-.68-1.5-1.5c0-.84.67-1.5 1.5-1.5s1.5.66 1.5 1.5zm5.66 2.33c0 .83-.68 1.5-1.5 1.5-.83 0-1.5-.67-1.5-1.5s.67-1.5 1.5-1.5c.82 0 1.5.67 1.5 1.5zm2.34 5.66c0 .82-.67 1.5-1.5 1.5s-1.5-.68-1.5-1.5c0-.84.67-1.5 1.5-1.5s1.5.66 1.5 1.5zm0 6c0 .82-.67 1.5-1.5 1.5s-1.5-.68-1.5-1.5c0-.84.67-1.5 1.5-1.5s1.5.66 1.5 1.5zm0 6c0 .82-.67 1.5-1.5 1.5s-1.5-.68-1.5-1.5c0-.84.67-1.5 1.5-1.5s1.5.66 1.5 1.5zm0 6c0 .82-.67 1.5-1.5 1.5s-1.5-.68-1.5-1.5c0-.84.67-1.5 1.5-1.5s1.5.66 1.5 1.5zm0 6c0 .82-.67 1.5-1.5 1.5s-1.5-.68-1.5-1.5c0-.83.67-1.5 1.5-1.5s1.5.67 1.5 1.5zm0 6c0 .83-.67 1.5-1.5 1.5s-1.5-.67-1.5-1.5.67-1.5 1.5-1.5 1.5.67 1.5 1.5zm0 6c0 .83-.67 1.5-1.5 1.5s-1.5-.67-1.5-1.5.67-1.5 1.5-1.5 1.5.67 1.5 1.5zm0 6c0 .83-.67 1.5-1.5 1.5s-1.5-.67-1.5-1.5.67-1.5 1.5-1.5 1.5.67 1.5 1.5zm0 6c0 .83-.67 1.5-1.5 1.5s-1.5-.67-1.5-1.5.67-1.5 1.5-1.5 1.5.67 1.5 1.5zm0 6c0 .83-.67 1.5-1.5 1.5s-1.5-.67-1.5-1.5c0-.82.67-1.5 1.5-1.5s1.5.68 1.5 1.5zm0 6c0 .83-.67 1.5-1.5 1.5s-1.5-.67-1.5-1.5c0-.82.67-1.5 1.5-1.5s1.5.68 1.5 1.5zm0 6c0 .84-.67 1.5-1.5 1.5s-1.5-.66-1.5-1.5c0-.82.67-1.5 1.5-1.5s1.5.68 1.5 1.5zm0 6c0 .84-.67 1.5-1.5 1.5s-1.5-.66-1.5-1.5c0-.82.67-1.5 1.5-1.5s1.5.68 1.5 1.5zm0 6c0 .84-.67 1.5-1.5 1.5s-1.5-.66-1.5-1.5c0-.82.67-1.5 1.5-1.5s1.5.68 1.5 1.5zm0 6c0 .84-.67 1.5-1.5 1.5s-1.5-.66-1.5-1.5c0-.82.67-1.5 1.5-1.5s1.5.68 1.5 1.5zm0 6.02c0 .82-.67 1.5-1.5 1.5s-1.5-.68-1.5-1.5c0-.83.67-1.5 1.5-1.5s1.5.67 1.5 1.5zm0 6c0 .83-.67 1.5-1.5 1.5s-1.5-.67-1.5-1.5.67-1.5 1.5-1.5 1.5.67 1.5 1.5zm0 6c0 .83-.67 1.5-1.5 1.5s-1.5-.67-1.5-1.5.67-1.5 1.5-1.5 1.5.67 1.5 1.5zm0 6c0 .83-.67 1.5-1.5 1.5s-1.5-.67-1.5-1.5.67-1.5 1.5-1.5 1.5.67 1.5 1.5zm0 6c0 .83-.67 1.5-1.5 1.5s-1.5-.67-1.5-1.5.67-1.5 1.5-1.5 1.5.67 1.5 1.5zm0 6c0 .83-.67 1.5-1.5 1.5s-1.5-.67-1.5-1.5c0-.82.67-1.5 1.5-1.5s1.5.68 1.5 1.5zm0 6c0 .84-.67 1.5-1.5 1.5s-1.5-.66-1.5-1.5c0-.82.67-1.5 1.5-1.5s1.5.68 1.5 1.5zm0 6c0 .84-.67 1.5-1.5 1.5s-1.5-.66-1.5-1.5c0-.82.67-1.5 1.5-1.5s1.5.68 1.5 1.5zm0 6c0 .84-.67 1.5-1.5 1.5s-1.5-.66-1.5-1.5c0-.82.67-1.5 1.5-1.5s1.5.68 1.5 1.5zm0 6c0 .84-.67 1.5-1.5 1.5s-1.5-.66-1.5-1.5c0-.82.67-1.5 1.5-1.5s1.5.68 1.5 1.5zm0 6c0 .84-.67 1.5-1.5 1.5s-1.5-.66-1.5-1.5c0-.8.67-1.5 1.5-1.5s1.5.7 1.5 1.5zm0 6.02c0 .83-.67 1.5-1.5 1.5s-1.5-.67-1.5-1.5.67-1.5 1.5-1.5 1.5.67 1.5 1.5zm0 6c0 .83-.67 1.5-1.5 1.5s-1.5-.67-1.5-1.5.67-1.5 1.5-1.5 1.5.67 1.5 1.5zm0 6c0 .83-.67 1.5-1.5 1.5s-1.5-.67-1.5-1.5.67-1.5 1.5-1.5 1.5.67 1.5 1.5zm0 6c0 .83-.67 1.5-1.5 1.5s-1.5-.67-1.5-1.5.67-1.5 1.5-1.5 1.5.67 1.5 1.5zm0 6c0 .83-.67 1.5-1.5 1.5s-1.5-.67-1.5-1.5c0-.82.67-1.5 1.5-1.5s1.5.68 1.5 1.5zm0 6c0 .83-.67 1.5-1.5 1.5s-1.5-.67-1.5-1.5c0-.82.67-1.5 1.5-1.5s1.5.68 1.5 1.5zm0 6c0 .84-.67 1.5-1.5 1.5s-1.5-.66-1.5-1.5c0-.82.67-1.5 1.5-1.5s1.5.68 1.5 1.5zm0 6c0 .84-.67 1.5-1.5 1.5s-1.5-.66-1.5-1.5c0-.82.67-1.5 1.5-1.5s1.5.68 1.5 1.5zm0 6c0 .84-.67 1.5-1.5 1.5s-1.5-.66-1.5-1.5c0-.82.67-1.5 1.5-1.5s1.5.68 1.5 1.5zm0 6c0 .84-.67 1.5-1.5 1.5s-1.5-.66-1.5-1.5c0-.82.67-1.5 1.5-1.5s1.5.68 1.5 1.5zm0 6c0 .84-.67 1.5-1.5 1.5s-1.5-.66-1.5-1.5c0-.8.67-1.5 1.5-1.5s1.5.7 1.5 1.5zm-2.34 5.67c0 .84-.68 1.5-1.5 1.5-.83 0-1.5-.66-1.5-1.5 0-.82.67-1.5 1.5-1.5.82 0 1.5.68 1.5 1.5zm-5.66 2.36c0 .82-.67 1.5-1.5 1.5s-1.5-.68-1.5-1.5c0-.83.67-1.5 1.5-1.5s1.5.67 1.5 1.5zm-6 0c0 .82-.67 1.5-1.5 1.5s-1.5-.68-1.5-1.5c0-.83.67-1.5 1.5-1.5s1.5.67 1.5 1.5zm-6 0c0 .82-.67 1.5-1.5 1.5-.82 0-1.5-.68-1.5-1.5 0-.83.68-1.5 1.5-1.5.83 0 1.5.67 1.5 1.5zm-6 0c0 .82-.67 1.5-1.5 1.5-.82 0-1.5-.68-1.5-1.5 0-.83.68-1.5 1.5-1.5.83 0 1.5.67 1.5 1.5zm-6 0c0 .82-.66 1.5-1.5 1.5-.82 0-1.5-.68-1.5-1.5 0-.83.68-1.5 1.5-1.5.84 0 1.5.67 1.5 1.5zm-6 0c0 .82-.66 1.5-1.5 1.5-.82 0-1.5-.68-1.5-1.5 0-.83.68-1.5 1.5-1.5.84 0 1.5.67 1.5 1.5zm-6 0c0 .82-.66 1.5-1.5 1.5-.82 0-1.5-.68-1.5-1.5 0-.83.68-1.5 1.5-1.5.84 0 1.5.67 1.5 1.5zm-6 0c0 .82-.66 1.5-1.5 1.5-.82 0-1.5-.68-1.5-1.5 0-.83.68-1.5 1.5-1.5.84 0 1.5.67 1.5 1.5zm-5.98 0c0 .82-.68 1.5-1.5 1.5-.83 0-1.5-.68-1.5-1.5 0-.83.67-1.5 1.5-1.5.82 0 1.5.67 1.5 1.5zm-6 0c0 .82-.67 1.5-1.5 1.5s-1.5-.68-1.5-1.5c0-.83.67-1.5 1.5-1.5s1.5.67 1.5 1.5zm-6 0c0 .82-.67 1.5-1.5 1.5s-1.5-.68-1.5-1.5c0-.83.67-1.5 1.5-1.5s1.5.67 1.5 1.5zm-6 0c0 .82-.67 1.5-1.5 1.5s-1.5-.68-1.5-1.5c0-.83.67-1.5 1.5-1.5s1.5.67 1.5 1.5zm-6 0c0 .82-.67 1.5-1.5 1.5s-1.5-.68-1.5-1.5c0-.83.67-1.5 1.5-1.5s1.5.67 1.5 1.5zm-6 0c0 .82-.67 1.5-1.5 1.5-.82 0-1.5-.68-1.5-1.5 0-.83.68-1.5 1.5-1.5.83 0 1.5.67 1.5 1.5zm-6 0c0 .82-.66 1.5-1.5 1.5-.82 0-1.5-.68-1.5-1.5 0-.83.68-1.5 1.5-1.5.84 0 1.5.67 1.5 1.5zm-6 0c0 .82-.66 1.5-1.5 1.5-.82 0-1.5-.68-1.5-1.5 0-.83.68-1.5 1.5-1.5.84 0 1.5.67 1.5 1.5zm-6 0c0 .82-.66 1.5-1.5 1.5-.82 0-1.5-.68-1.5-1.5 0-.83.68-1.5 1.5-1.5.84 0 1.5.67 1.5 1.5zm-6 0c0 .82-.66 1.5-1.5 1.5-.82 0-1.5-.68-1.5-1.5 0-.83.68-1.5 1.5-1.5.84 0 1.5.67 1.5 1.5zm-5.98 0c0 .82-.68 1.5-1.5 1.5-.83 0-1.5-.68-1.5-1.5 0-.83.67-1.5 1.5-1.5.82 0 1.5.67 1.5 1.5zm-6 0c0 .82-.67 1.5-1.5 1.5s-1.5-.68-1.5-1.5c0-.83.67-1.5 1.5-1.5s1.5.67 1.5 1.5zm-6 0c0 .82-.67 1.5-1.5 1.5s-1.5-.68-1.5-1.5c0-.83.67-1.5 1.5-1.5s1.5.67 1.5 1.5zm-6 0c0 .82-.67 1.5-1.5 1.5s-1.5-.68-1.5-1.5c0-.83.67-1.5 1.5-1.5s1.5.67 1.5 1.5zm-6 0c0 .82-.67 1.5-1.5 1.5s-1.5-.68-1.5-1.5c0-.83.67-1.5 1.5-1.5s1.5.67 1.5 1.5zm-6 0c0 .82-.67 1.5-1.5 1.5-.82 0-1.5-.68-1.5-1.5 0-.83.68-1.5 1.5-1.5.83 0 1.5.67 1.5 1.5zm-6 0c0 .82-.66 1.5-1.5 1.5-.82 0-1.5-.68-1.5-1.5 0-.83.68-1.5 1.5-1.5.84 0 1.5.67 1.5 1.5zm-6 0c0 .82-.66 1.5-1.5 1.5-.82 0-1.5-.68-1.5-1.5 0-.83.68-1.5 1.5-1.5.84 0 1.5.67 1.5 1.5zm-6 0c0 .82-.66 1.5-1.5 1.5-.82 0-1.5-.68-1.5-1.5 0-.83.68-1.5 1.5-1.5.84 0 1.5.67 1.5 1.5zm-6 0c0 .82-.66 1.5-1.5 1.5-.82 0-1.5-.68-1.5-1.5 0-.83.68-1.5 1.5-1.5.84 0 1.5.67 1.5 1.5zm-5.98 0c0 .82-.68 1.5-1.5 1.5-.83 0-1.5-.68-1.5-1.5 0-.83.67-1.5 1.5-1.5.82 0 1.5.67 1.5 1.5zm-6 0c0 .82-.67 1.5-1.5 1.5s-1.5-.68-1.5-1.5c0-.83.67-1.5 1.5-1.5s1.5.67 1.5 1.5zm-6 0c0 .82-.67 1.5-1.5 1.5s-1.5-.68-1.5-1.5c0-.83.67-1.5 1.5-1.5s1.5.67 1.5 1.5zm-6 0c0 .82-.67 1.5-1.5 1.5s-1.5-.68-1.5-1.5c0-.83.67-1.5 1.5-1.5s1.5.67 1.5 1.5zm-6 0c0 .82-.67 1.5-1.5 1.5s-1.5-.68-1.5-1.5c0-.83.67-1.5 1.5-1.5s1.5.67 1.5 1.5zm-6 0c0 .82-.67 1.5-1.5 1.5-.82 0-1.5-.68-1.5-1.5 0-.83.68-1.5 1.5-1.5.83 0 1.5.67 1.5 1.5zm-6 0c0 .82-.66 1.5-1.5 1.5-.82 0-1.5-.68-1.5-1.5 0-.83.68-1.5 1.5-1.5.84 0 1.5.67 1.5 1.5zm-6 0c0 .82-.66 1.5-1.5 1.5-.82 0-1.5-.68-1.5-1.5 0-.83.68-1.5 1.5-1.5.84 0 1.5.67 1.5 1.5zm-6 0c0 .82-.66 1.5-1.5 1.5-.82 0-1.5-.68-1.5-1.5 0-.83.68-1.5 1.5-1.5.84 0 1.5.67 1.5 1.5zm-6 0c0 .82-.66 1.5-1.5 1.5-.82 0-1.5-.68-1.5-1.5 0-.83.68-1.5 1.5-1.5.84 0 1.5.67 1.5 1.5zm-5.98 0c0 .82-.68 1.5-1.5 1.5-.83 0-1.5-.68-1.5-1.5 0-.83.67-1.5 1.5-1.5.82 0 1.5.67 1.5 1.5zm-6 0c0 .82-.68 1.5-1.5 1.5-.83 0-1.5-.68-1.5-1.5 0-.83.67-1.5 1.5-1.5.82 0 1.5.67 1.5 1.5zm-6 0c0 .82-.67 1.5-1.5 1.5s-1.5-.68-1.5-1.5c0-.83.67-1.5 1.5-1.5s1.5.67 1.5 1.5zm-6 0c0 .82-.67 1.5-1.5 1.5s-1.5-.68-1.5-1.5c0-.83.67-1.5 1.5-1.5s1.5.67 1.5 1.5zm-6 0c0 .82-.67 1.5-1.5 1.5s-1.5-.68-1.5-1.5c0-.83.67-1.5 1.5-1.5s1.5.67 1.5 1.5zm-6 0c0 .82-.67 1.5-1.5 1.5-.82 0-1.5-.68-1.5-1.5 0-.83.68-1.5 1.5-1.5.83 0 1.5.67 1.5 1.5zm-6 0c0 .82-.67 1.5-1.5 1.5-.82 0-1.5-.68-1.5-1.5 0-.83.68-1.5 1.5-1.5.83 0 1.5.67 1.5 1.5zm-6 0c0 .82-.66 1.5-1.5 1.5-.82 0-1.5-.68-1.5-1.5 0-.83.68-1.5 1.5-1.5.84 0 1.5.67 1.5 1.5zm-6 0c0 .82-.66 1.5-1.5 1.5-.82 0-1.5-.68-1.5-1.5 0-.83.68-1.5 1.5-1.5.84 0 1.5.67 1.5 1.5zm-6 0c0 .82-.66 1.5-1.5 1.5-.82 0-1.5-.68-1.5-1.5 0-.83.68-1.5 1.5-1.5.84 0 1.5.67 1.5 1.5zm-6 0c0 .82-.66 1.5-1.5 1.5-.8 0-1.5-.68-1.5-1.5 0-.83.7-1.5 1.5-1.5.84 0 1.5.67 1.5 1.5zm-5.98 0c0 .82-.68 1.5-1.5 1.5-.83 0-1.5-.68-1.5-1.5 0-.83.67-1.5 1.5-1.5.82 0 1.5.67 1.5 1.5zm-6 0c0 .82-.67 1.5-1.5 1.5s-1.5-.68-1.5-1.5c0-.83.67-1.5 1.5-1.5s1.5.67 1.5 1.5zm-6 0c0 .82-.67 1.5-1.5 1.5s-1.5-.68-1.5-1.5c0-.83.67-1.5 1.5-1.5s1.5.67 1.5 1.5zm-6 0c0 .82-.67 1.5-1.5 1.5s-1.5-.68-1.5-1.5c0-.83.67-1.5 1.5-1.5s1.5.67 1.5 1.5zm-6 0c0 .82-.67 1.5-1.5 1.5-.82 0-1.5-.68-1.5-1.5 0-.83.68-1.5 1.5-1.5.83 0 1.5.67 1.5 1.5zm-6 0c0 .82-.67 1.5-1.5 1.5-.82 0-1.5-.68-1.5-1.5 0-.83.68-1.5 1.5-1.5.83 0 1.5.67 1.5 1.5zm-6 0c0 .82-.66 1.5-1.5 1.5-.82 0-1.5-.68-1.5-1.5 0-.83.68-1.5 1.5-1.5.84 0 1.5.67 1.5 1.5zm-6 0c0 .82-.66 1.5-1.5 1.5-.82 0-1.5-.68-1.5-1.5 0-.83.68-1.5 1.5-1.5.84 0 1.5.67 1.5 1.5zm-6 0c0 .82-.66 1.5-1.5 1.5-.82 0-1.5-.68-1.5-1.5 0-.83.68-1.5 1.5-1.5.84 0 1.5.67 1.5 1.5zm-6 0c0 .82-.66 1.5-1.5 1.5-.8 0-1.5-.68-1.5-1.5 0-.83.7-1.5 1.5-1.5.84 0 1.5.67 1.5 1.5zm-5.98 0c0 .82-.68 1.5-1.5 1.5-.83 0-1.5-.68-1.5-1.5 0-.83.67-1.5 1.5-1.5.82 0 1.5.67 1.5 1.5zm-6 0c0 .82-.67 1.5-1.5 1.5s-1.5-.68-1.5-1.5c0-.83.67-1.5 1.5-1.5s1.5.67 1.5 1.5zm-6 0c0 .82-.67 1.5-1.5 1.5s-1.5-.68-1.5-1.5c0-.83.67-1.5 1.5-1.5s1.5.67 1.5 1.5zm-6 0c0 .82-.67 1.5-1.5 1.5s-1.5-.68-1.5-1.5c0-.83.67-1.5 1.5-1.5s1.5.67 1.5 1.5zm-6 0c0 .82-.67 1.5-1.5 1.5s-1.5-.68-1.5-1.5c0-.83.67-1.5 1.5-1.5s1.5.67 1.5 1.5zm-6 0c0 .82-.67 1.5-1.5 1.5-.82 0-1.5-.68-1.5-1.5 0-.83.68-1.5 1.5-1.5.83 0 1.5.67 1.5 1.5zm-6 0c0 .82-.66 1.5-1.5 1.5-.82 0-1.5-.68-1.5-1.5 0-.83.68-1.5 1.5-1.5.84 0 1.5.67 1.5 1.5zm-6 0c0 .82-.66 1.5-1.5 1.5-.82 0-1.5-.68-1.5-1.5 0-.83.68-1.5 1.5-1.5.84 0 1.5.67 1.5 1.5zm-6 0c0 .82-.66 1.5-1.5 1.5-.82 0-1.5-.68-1.5-1.5 0-.83.68-1.5 1.5-1.5.84 0 1.5.67 1.5 1.5zm-6 0c0 .82-.66 1.5-1.5 1.5-.82 0-1.5-.68-1.5-1.5 0-.83.68-1.5 1.5-1.5.84 0 1.5.67 1.5 1.5zm-5.98 0c0 .82-.68 1.5-1.5 1.5-.83 0-1.5-.68-1.5-1.5 0-.83.67-1.5 1.5-1.5.82 0 1.5.67 1.5 1.5zm-6 0c0 .82-.67 1.5-1.5 1.5s-1.5-.68-1.5-1.5c0-.83.67-1.5 1.5-1.5s1.5.67 1.5 1.5zm-5.66-2.35c0 .84-.67 1.5-1.5 1.5s-1.5-.66-1.5-1.5c0-.82.67-1.5 1.5-1.5s1.5.68 1.5 1.5zm-2.34-5.64c0 .82-.67 1.5-1.5 1.5s-1.5-.68-1.5-1.5c0-.83.67-1.5 1.5-1.5s1.5.67 1.5 1.5zm0-6c0 .82-.67 1.5-1.5 1.5s-1.5-.68-1.5-1.5c0-.84.67-1.5 1.5-1.5s1.5.66 1.5 1.5zm0-6c0 .82-.67 1.5-1.5 1.5s-1.5-.68-1.5-1.5c0-.84.67-1.5 1.5-1.5s1.5.66 1.5 1.5zm0-6c0 .82-.67 1.5-1.5 1.5s-1.5-.68-1.5-1.5c0-.84.67-1.5 1.5-1.5s1.5.66 1.5 1.5zm0-6c0 .82-.67 1.5-1.5 1.5s-1.5-.68-1.5-1.5c0-.84.67-1.5 1.5-1.5s1.5.66 1.5 1.5zm0-6c0 .8-.67 1.5-1.5 1.5s-1.5-.7-1.5-1.5c0-.84.67-1.5 1.5-1.5s1.5.66 1.5 1.5zm0-6.02c0 .83-.67 1.5-1.5 1.5s-1.5-.67-1.5-1.5c0-.82.67-1.5 1.5-1.5s1.5.68 1.5 1.5zm0-6c0 .83-.67 1.5-1.5 1.5s-1.5-.67-1.5-1.5.67-1.5 1.5-1.5 1.5.67 1.5 1.5zm0-6c0 .83-.67 1.5-1.5 1.5s-1.5-.67-1.5-1.5.67-1.5 1.5-1.5 1.5.67 1.5 1.5zm0-6c0 .83-.67 1.5-1.5 1.5s-1.5-.67-1.5-1.5.67-1.5 1.5-1.5 1.5.67 1.5 1.5zm0-6c0 .83-.67 1.5-1.5 1.5s-1.5-.67-1.5-1.5.67-1.5 1.5-1.5 1.5.67 1.5 1.5zm0-6c0 .82-.67 1.5-1.5 1.5s-1.5-.68-1.5-1.5c0-.83.67-1.5 1.5-1.5s1.5.67 1.5 1.5zm0-6c0 .82-.67 1.5-1.5 1.5s-1.5-.68-1.5-1.5c0-.84.67-1.5 1.5-1.5s1.5.66 1.5 1.5zm0-6c0 .82-.67 1.5-1.5 1.5s-1.5-.68-1.5-1.5c0-.84.67-1.5 1.5-1.5s1.5.66 1.5 1.5zm0-6c0 .82-.67 1.5-1.5 1.5s-1.5-.68-1.5-1.5c0-.84.67-1.5 1.5-1.5s1.5.66 1.5 1.5zm0-6c0 .82-.67 1.5-1.5 1.5s-1.5-.68-1.5-1.5c0-.84.67-1.5 1.5-1.5s1.5.66 1.5 1.5zm0-6c0 .8-.67 1.5-1.5 1.5s-1.5-.7-1.5-1.5c0-.84.67-1.5 1.5-1.5s1.5.66 1.5 1.5zm0-6.02c0 .83-.67 1.5-1.5 1.5s-1.5-.67-1.5-1.5.67-1.5 1.5-1.5 1.5.67 1.5 1.5zm0-6c0 .83-.67 1.5-1.5 1.5s-1.5-.67-1.5-1.5.67-1.5 1.5-1.5 1.5.67 1.5 1.5zm0-6c0 .83-.67 1.5-1.5 1.5s-1.5-.67-1.5-1.5.67-1.5 1.5-1.5 1.5.67 1.5 1.5zm0-6c0 .83-.67 1.5-1.5 1.5s-1.5-.67-1.5-1.5.67-1.5 1.5-1.5 1.5.67 1.5 1.5zm0-6c0 .82-.67 1.5-1.5 1.5s-1.5-.68-1.5-1.5c0-.83.67-1.5 1.5-1.5s1.5.67 1.5 1.5zm0-6c0 .82-.67 1.5-1.5 1.5s-1.5-.68-1.5-1.5c0-.84.67-1.5 1.5-1.5s1.5.66 1.5 1.5zm0-6c0 .82-.67 1.5-1.5 1.5s-1.5-.68-1.5-1.5c0-.84.67-1.5 1.5-1.5s1.5.66 1.5 1.5zm0-6c0 .82-.67 1.5-1.5 1.5s-1.5-.68-1.5-1.5c0-.84.67-1.5 1.5-1.5s1.5.66 1.5 1.5zm0-6c0 .82-.67 1.5-1.5 1.5s-1.5-.68-1.5-1.5c0-.84.67-1.5 1.5-1.5s1.5.66 1.5 1.5zm0-6c0 .8-.67 1.5-1.5 1.5s-1.5-.7-1.5-1.5c0-.84.67-1.5 1.5-1.5s1.5.66 1.5 1.5zm0-6c0 .8-.67 1.5-1.5 1.5s-1.5-.7-1.5-1.5c0-.84.67-1.5 1.5-1.5s1.5.66 1.5 1.5zm0-6.02c0 .83-.67 1.5-1.5 1.5s-1.5-.67-1.5-1.5.67-1.5 1.5-1.5 1.5.67 1.5 1.5zm0-6c0 .83-.67 1.5-1.5 1.5s-1.5-.67-1.5-1.5.67-1.5 1.5-1.5 1.5.67 1.5 1.5zm0-6c0 .83-.67 1.5-1.5 1.5s-1.5-.67-1.5-1.5.67-1.5 1.5-1.5 1.5.67 1.5 1.5zm0-6c0 .83-.67 1.5-1.5 1.5s-1.5-.67-1.5-1.5.67-1.5 1.5-1.5 1.5.67 1.5 1.5zm0-6c0 .82-.67 1.5-1.5 1.5s-1.5-.68-1.5-1.5c0-.83.67-1.5 1.5-1.5s1.5.67 1.5 1.5zm0-6c0 .82-.67 1.5-1.5 1.5s-1.5-.68-1.5-1.5c0-.84.67-1.5 1.5-1.5s1.5.66 1.5 1.5zm0-6c0 .82-.67 1.5-1.5 1.5s-1.5-.68-1.5-1.5c0-.84.67-1.5 1.5-1.5s1.5.66 1.5 1.5zm0-6c0 .82-.67 1.5-1.5 1.5s-1.5-.68-1.5-1.5c0-.84.67-1.5 1.5-1.5s1.5.66 1.5 1.5z" fill="#ba23f6"/><path d="M612.36 522.05a8 8 0 0 1 8-8h283.96a8 8 0 0 1 8 8v109.13a8 8 0 0 1-8 8H620.36a8 8 0 0 1-8-8z" stroke="#000" stroke-opacity="0" stroke-width="10" fill="#fff" fill-opacity="0"/><use xlink:href="#a" transform="matrix(1,0,0,1,617.359579598345,519.0463302774988) translate(40.591500946969774 38.395833333333314)"/><use xlink:href="#b" transform="matrix(1,0,0,1,617.359579598345,519.0463302774988) translate(140.67720170454544 38.395833333333314)"/><use xlink:href="#c" transform="matrix(1,0,0,1,617.359579598345,519.0463302774988) translate(198.4371448863636 38.395833333333314)"/><use xlink:href="#d" transform="matrix(1,0,0,1,617.359579598345,519.0463302774988) translate(235.09552556818176 38.395833333333314)"/><use xlink:href="#e" transform="matrix(1,0,0,1,617.359579598345,519.0463302774988) translate(1.673177083333428 68.24810606060602)"/><use xlink:href="#f" transform="matrix(1,0,0,1,617.359579598345,519.0463302774988) translate(143.65542140151516 68.24810606060602)"/><use xlink:href="#g" transform="matrix(1,0,0,1,617.359579598345,519.0463302774988) translate(203.25485321969694 68.24810606060602)"/><use xlink:href="#h" transform="matrix(1,0,0,1,617.359579598345,519.0463302774988) translate(40.547703598484915 98.10037878787873)"/><use xlink:href="#i" transform="matrix(1,0,0,1,617.359579598345,519.0463302774988) translate(70.98686079545459 98.10037878787873)"/><use xlink:href="#j" transform="matrix(1,0,0,1,617.359579598345,519.0463302774988) translate(134.84339488636363 98.10037878787873)"/><use xlink:href="#k" transform="matrix(1,0,0,1,617.359579598345,519.0463302774988) translate(195.5727982954545 98.10037878787873)"/><path d="M541.23 168a8 8 0 0 1 8-8h231.4a8 8 0 0 1 8 8v64a8 8 0 0 1-8 8h-231.4a8 8 0 0 1-8-8z" stroke="#000" stroke-opacity="0" stroke-width="10" fill="#fff" fill-opacity="0"/><use xlink:href="#l" transform="matrix(1,0,0,1,546.2317245191218,165) translate(12.046875000000227 28.270833333333282)"/><use xlink:href="#m" transform="matrix(1,0,0,1,546.2317245191218,165) translate(66.11032196969708 28.270833333333282)"/><use xlink:href="#n" transform="matrix(1,0,0,1,546.2317245191218,165) translate(170.9436553030302 28.270833333333282)"/><use xlink:href="#o" transform="matrix(1,0,0,1,546.2317245191218,165) translate(62.768584280303145 58.12310606060595)"/><path d="M764.14 667.1a8 8 0 0 1 8-8H1192a8 8 0 0 1 8 8v109.38a8 8 0 0 1-8 8H772.14a8 8 0 0 1-8-8z" stroke="#000" stroke-opacity="0" stroke-width="10" fill="#fff" fill-opacity="0"/><use xlink:href="#a" transform="matrix(1,0,0,1,769.1376049168867,664.0879963585297) translate(32.12133049242436 38.395833333333314)"/><use xlink:href="#p" transform="matrix(1,0,0,1,769.1376049168867,664.0879963585297) translate(132.20703125000006 38.395833333333314)"/><use xlink:href="#q" transform="matrix(1,0,0,1,769.1376049168867,664.0879963585297) translate(302.0706676136363 38.395833333333314)"/><use xlink:href="#r" transform="matrix(1,0,0,1,769.1376049168867,664.0879963585297) translate(22.880089962121332 68.24810606060602)"/><use xlink:href="#s" transform="matrix(1,0,0,1,769.1376049168867,664.0879963585297) translate(179.11399147727278 68.24810606060602)"/><use xlink:href="#t" transform="matrix(1,0,0,1,769.1376049168867,664.0879963585297) translate(230.15542140151516 68.24810606060602)"/><use xlink:href="#u" transform="matrix(1,0,0,1,769.1376049168867,664.0879963585297) translate(313.133877840909 68.24810606060602)"/><use xlink:href="#v" transform="matrix(1,0,0,1,769.1376049168867,664.0879963585297) translate(381.072324810606 68.24810606060602)"/><use xlink:href="#w" transform="matrix(1,0,0,1,769.1376049168867,664.0879963585297) translate(114.66619318181826 98.10037878787873)"/><use xlink:href="#x" transform="matrix(1,0,0,1,769.1376049168867,664.0879963585297) translate(198.87097537878788 98.10037878787873)"/><path d="M988.5 834.85v-22.02c1.2-.57 2.08-1.4 2.68-2.6 1.4-2.78.2-6.2-2.68-7.55-2.88-1.4-6.26-.2-7.64 2.6-1.4 2.8-.2 6.2 2.57 7.55v21.97H962v-14c1.88-1.02 3.08-2.84 3.08-5 0-3.17-2.6-5.7-5.76-5.66-2.2 0-4.07 1.1-5.06 3-1.5 2.8-.4 6.22 2.38 7.67v14.05h-1.1c-10.6-.05-19.15-8.55-19.15-19.06 0-10.48 8.73-18.92 19.35-18.92 2.48.05 4.56.4 6.84 1.3 6.15-12.96 21.83-18.6 34.93-12.54 5.75 2.64 9.92 6.63 12.6 12.33 2.1-.73 3.97-1 6.26-1.04 10.6 0 19.24 8.55 19.24 19.06 0 10.5-8.63 19-19.25 19h-1.3v-14.2c1.1-.56 1.88-1.33 2.38-2.37 1.5-2.8.4-6.22-2.38-7.67-2.78-1.45-6.26-.36-7.75 2.38-1.5 2.8-.4 6.22 2.4 7.67v14.05z" stroke="#000" stroke-opacity="0" fill="#4285f4"/><path d="M962 849.53c4.74 1.1 7.92 5.14 7.78 9.9 0 5.68-4.67 10.3-10.44 10.35-5.78 0-10.44-4.63-10.44-10.3 0-4.76 3.1-8.76 7.85-9.95V834.8h5.03zm-2.66 14.9c2.8 0 5.03-2.23 5.03-5 0-2.7-2.22-4.95-5.03-4.95-2.82 0-5.04 2.24-5.04 4.96 0 2.76 2.22 5 5.04 5zm55.82-14.9c5.56 1.43 8.9 7.05 7.4 12.58-1.47 5.48-7.18 8.77-12.73 7.3-5.55-1.43-8.88-7.1-7.4-12.58.96-3.67 3.7-6.34 7.4-7.3v-14.66h5.33zm-2.66 14.9c2.3.1 4.22-1.18 5.03-3.28.9-2.62-.44-5.43-3.03-6.38-.52-.14-.97-.24-1.5-.3-2.73-.13-5.1 1.97-5.24 4.73-.15 2.7 2 5.1 4.74 5.24zm-23.92-2.13c5.55 1.38 8.96 6.9 7.55 12.38-1.4 5.48-7.03 8.82-12.58 7.48-5.56-1.38-8.96-6.95-7.55-12.43.96-3.77 3.7-6.48 7.55-7.43v-27.35h5.33zm-2.74 14.9c.67 0 1.26-.14 1.85-.37 2.58-1.05 3.84-3.96 2.8-6.48-1.1-2.58-4-3.77-6.58-2.72-2.6 1.05-3.85 3.96-2.74 6.48.8 1.87 2.6 3 4.66 2.96z" stroke="#000" stroke-opacity="0" fill="#669df6"/><path d="M951.28 803.05v31.76h69.47v-31.75z" stroke="#000" stroke-opacity="0" fill-opacity="0"/><path d="M1084.1 352.6l26.8-25.17c2.44-2.26 4.85-2.26 7.25 0l.54.5c2.4 2.26 2.4 4.5 0 6.8l-26.82 25.17c-2.44 2.25-4.84 2.25-7.25 0l-.53-.5c-2.4-2.26-2.4-4.52 0-6.8z" stroke="#000" stroke-opacity="0" stroke-width=".71" fill="#198ab3"/><path d="M1164.77 313.3c0 17.1-14.8 31-33.03 31s-33.03-13.9-33.03-31c0-17.12 14.8-31 33.04-31 18.23 0 33.03 13.88 33.03 31z" stroke="#000" stroke-opacity="0" fill="url(#y)"/><path d="M1157.6 312.77c0 13.46-11.63 24.38-25.94 24.38-14.32 0-25.94-10.92-25.94-24.38 0-13.46 11.62-24.38 25.94-24.38 14.3 0 25.93 10.9 25.93 24.37z" stroke="#000" stroke-opacity="0" fill="#fff"/><path d="M1106.6 318.8s7.08-33.4 40.27-25.84c-9.28-6.45-21.44-6.36-30.63.25-8.8 5.92-12.5 15.8-9.65 25.6z" stroke="#000" stroke-opacity="0" fill="#c3f1ff"/><path d="M1020 148a8 8 0 0 1 8-8h298.5a8 8 0 0 1 8 8v84a8 8 0 0 1-8 8H1028a8 8 0 0 1-8-8z" stroke="#000" stroke-opacity="0" stroke-width="10" fill="#fff" fill-opacity="0"/><g><use xlink:href="#z" transform="matrix(1,0,0,1,1025,145.00000000000003) translate(8.07824337121221 26.708333333333318)"/><use xlink:href="#A" transform="matrix(1,0,0,1,1025,145.00000000000003) translate(62.14169034090915 26.708333333333318)"/><use xlink:href="#s" transform="matrix(1,0,0,1,1025,145.00000000000003) translate(150.7437263257576 26.708333333333318)"/><use xlink:href="#B" transform="matrix(1,0,0,1,1025,145.00000000000003) translate(201.78515624999997 26.708333333333318)"/><use xlink:href="#C" transform="matrix(1,0,0,1,1025,145.00000000000003) translate(12.54557291666677 56.56060606060602)"/><use xlink:href="#D" transform="matrix(1,0,0,1,1025,145.00000000000003) translate(154.91323390151516 56.56060606060602)"/><use xlink:href="#E" transform="matrix(1,0,0,1,1025,145.00000000000003) translate(227.494199810606 56.56060606060602)"/><use xlink:href="#s" transform="matrix(1,0,0,1,1025,145.00000000000003) translate(69.77118844696975 86.41287878787873)"/><use xlink:href="#F" transform="matrix(1,0,0,1,1025,145.00000000000003) translate(120.81261837121214 86.41287878787873)"/><use xlink:href="#G" transform="matrix(1,0,0,1,1025,145.00000000000003) translate(193.88411458333331 86.41287878787873)"/></g><path d="M801.77 345.4c-4.4-.1-7.82.4-10.75 1.6-.8.34-2.12.34-2.28 1.4.5.48.5 1.2.9 1.77.65 1.13 1.87 2.67 2.93 3.48l3.5 2.5c2.2 1.4 4.56 2.2 6.68 3.5 1.22.8 2.44 1.85 3.66 2.66.66.5 1 1.22 1.8 1.47v-.16c-.4-.48-.5-1.2-.9-1.78l-1.62-1.6c-1.63-2.2-3.66-4.14-5.78-5.68-1.8-1.3-5.62-2.9-6.35-5.02l-.17-.08c1.23-.16 2.7-.56 3.83-.97 1.88-.5 3.67-.32 5.55-.9l2.68-.72v-.56c-.97-1-1.7-2.36-2.76-3.25-2.85-2.5-5.95-4.94-9.12-6.96-1.7-1.06-4-1.87-5.78-2.76-.66-.33-1.8-.57-2.2-1.06-.98-1.3-1.55-2.9-2.2-4.37l-4.56-9.7c-.97-2.18-1.62-4.37-2.84-6.4-5.7-9.54-11.9-15.3-21.42-20.95-2.03-1.22-4.48-1.7-7.08-2.35l-4.16-.24c-.9-.33-1.8-1.46-2.52-1.95-3.17-2-11.32-6.38-13.68-.63-1.47 3.64 2.28 7.28 3.5 9.14.98 1.3 2.2 2.76 2.85 4.22.33.9.5 1.94.9 2.9.8 2.52 1.7 5.27 2.85 7.54.65 1.22 1.3 2.43 2.03 3.48.5.65 1.23.9 1.4 1.94-.75 1.14-.83 2.75-1.3 4.2-1.97 6.32-1.24 14.18 1.6 18.87.9 1.38 3.03 4.45 5.88 3.24 2.45-1 1.88-4.22 2.6-6.97.18-.73.1-1.14.42-1.62v.17l2.28 4.6c1.7 2.76 4.72 5.68 7.16 7.54 1.4 1.06 2.45 2.76 4.08 3.4v-.15h-.1c-.3-.5-.88-.73-1.3-1.14-.97-1.04-2.1-2.25-2.84-3.38-2.36-3.08-4.4-6.56-6.27-10.2-.8-1.7-1.63-3.65-2.36-5.34-.33-.73-.33-1.7-.9-2.03-.8 1.22-2.03 2.27-2.6 3.8-1.06 2.43-1.22 5.35-1.55 8.5-.24 0-.16 0-.24.08-1.8-.4-2.36-2.26-3.1-3.88-1.63-3.97-1.87-10.36-.5-14.97.42-1.13 2.13-4.86 1.4-6-.33-1.04-1.38-1.7-2.04-2.5-.73-1.05-1.46-2.43-1.95-3.56-1.4-3.16-2.05-6.64-3.43-9.8-.73-1.45-1.87-3-2.85-4.28-.98-1.54-2.2-2.6-3-4.37-.26-.65-.67-1.62-.26-2.35.16-.4.33-.57.82-.73.73-.58 2.76.15 3.5.56 2.03.8 3.74 1.62 5.45 2.75.82.58 1.63 1.63 2.6 1.95H743c1.8.4 3.83.08 5.45.65 2.94.9 5.62 2.35 8 3.8 7.23 4.7 13.26 11.33 17.25 19.18.65 1.3.98 2.5 1.55 3.8 1.22 2.76 2.6 5.6 3.74 8.26 1.22 2.67 2.28 5.34 4 7.53.8 1.2 4.14 1.78 5.6 2.43 1.15.48 2.86.97 3.84 1.54 1.88 1.2 3.75 2.5 5.54 3.8.9.73 3.67 2.1 3.83 3.24zm-56.5-48.73c-.74 0-1.48.08-2.2.33v.16h.07c.4.9 1.22 1.46 1.8 2.27l1.2 2.67.18-.1c.73-.55 1.14-1.44 1.14-2.82-.33-.4-.4-.8-.65-1.2-.32-.5-1.05-.82-1.54-1.23z" stroke="#000" stroke-opacity="0" stroke-width=".97" fill="#00678c"/><path d="M500 516.56a13 13 0 0 1 13-13h814a13 13 0 0 1 13 13V907a13 13 0 0 1-13 13H513a13 13 0 0 1-13-13z" fill-opacity="0"/><path d="M509.64 504.04l1.33-.3 2.03-.18h4m15.95 0h7.98m15.96 0h7.97m15.96 0h7.98m15.98 0h7.98m15.96 0h7.98m15.96 0h7.98m15.96 0h7.98m15.96 0h7.98m15.96 0h7.98m15.96 0h7.98m15.96 0h7.98m15.96 0h7.98m15.97 0h7.98m15.96 0h7.97m15.96 0h7.98m15.97 0h7.98m15.96 0h8m15.95 0h7.98m15.96 0h7.97m15.96 0h7.98m15.98 0h7.98m15.96 0h7.98m15.96 0h7.98m15.96 0h7.98m15.96 0h7.98m15.96 0h7.98m15.96 0h7.98m15.96 0h7.98m15.96 0h7.98m15.96 0h7.98m15.97 0h7.97m15.96 0h7.98m15.97 0h7.98m15.96 0h4l2.03.17 1.33.3m9.16 9.18l.32 1.33.16 2.03v4.07m0 16.27v8.13m0 16.27v8.14m0 16.26v8.14m0 16.27v8.14m0 16.27v8.14m0 16.27v8.14m0 16.27v8.15m0 16.26v8.15m0 16.27v8.13m0 16.27v8.13m0 16.27v8.14m0 16.26v8.14m0 16.27v8.13m0 16.27v8.13m0 16.27v8.13m0 16.27V907l-.16 2.03-.32 1.33m-9.16 9.16l-1.33.32-2.03.16h-4m-15.95 0h-7.98m-15.96 0h-7.97m-15.96 0h-7.98m-15.98 0h-7.98m-15.96 0h-7.98m-15.96 0h-7.98m-15.96 0h-7.98m-15.96 0h-7.98m-15.96 0h-7.98m-15.96 0h-7.98m-15.96 0h-7.98m-15.96 0h-7.98m-15.97 0h-7.98m-15.96 0h-7.97m-15.96 0h-7.98m-15.97 0h-7.98M924 920h-8m-15.95 0h-7.98m-15.96 0h-7.97m-15.96 0h-7.98m-15.98 0h-7.98m-15.96 0h-7.98m-15.96 0h-7.98m-15.96 0h-7.98m-15.96 0h-7.98m-15.96 0h-7.98m-15.96 0h-7.98m-15.96 0h-7.98m-15.96 0h-7.98m-15.97 0h-7.98m-15.96 0h-7.97m-15.96 0h-7.98m-15.97 0h-7.98M517 920h-4l-2.03-.16-1.33-.32m-9.16-9.16l-.32-1.33L500 907v-4.07m0-16.26v-8.14m0-16.27v-8.13m0-16.27v-8.13m0-16.27v-8.14m0-16.26v-8.14m0-16.27v-8.13m0-16.27v-8.13m0-16.27v-8.13m0-16.27v-8.14m0-16.25v-8.14m0-16.26v-8.13m0-16.26v-8.13m0-16.26v-8.14m0-16.26v-8.14m0-16.27v-8.13m0-16.27v-4.07l.16-2.03.32-1.32" stroke="#ff80df" stroke-width="4" fill="none"/><path d="M1267.2 300.35c.4.3.64.78.64 1.25v50.3c0 1.97-1.82 3.54-4.12 3.54h-35.75v-3.53h35.75l-.08-49.6v1.5h-16.72c-1.2 0-2.14-.8-2.14-1.8v-14.27h-31.48v40.98h-4.2v-40.97c0-1.96 1.9-3.52 4.2-3.52h34.25c.56 0 1.1.16 1.5.56zm-42.32 45.53c.95.4 1.42 1.33 1.1 2.2l-3.08 7.9c-.32.87-1.35 1.34-2.38 1.18l-5-.86-.63.4-.64 4.3c-.08.86-1.04 1.57-2.07 1.57h-9.84c-1.03 0-1.9-.7-2.06-1.57l-.55-4.3-.64-.4-4.98.86c-1.1.16-2.06-.4-2.46-1.26l-3-7.9c-.33-.87.15-1.73 1.1-2.12l4.68-1.88.23-.55-2.45-3.84c-.56-.78-.32-1.72.55-2.27l7.93-4.85c.87-.55 2.06-.47 2.77.23l3.5 3.15h.78l3.4-3.14c.73-.7 1.92-.77 2.8-.22l7.9 4.85c.9.55 1.13 1.57.65 2.36l-2.54 3.75.24.62zm-5.4 7.44l1.9-4.86-3.8-1.5c-.55-.22-.95-.6-1.1-1.08l-.8-2.12c-.16-.47-.08-.94.16-1.4l2.06-3.07-4.9-3.06-2.8 2.58c-.38.4-.94.55-1.5.55l-2.7.08c-.62-.08-1.1-.24-1.5-.63l-2.85-2.58-4.92 3.05 2.07 3.05c.3.47.3.94.15 1.5l-.8 2.03c-.15.47-.54.86-1.1 1.1l-3.8 1.48 1.82 4.86 4.12-.7c.55-.08 1.18.07 1.66.3l2.06 1.34c.47.3.8.78.87 1.25l.47 3.46 6.1.08.48-3.53c.08-.54.3-.93.8-1.24l2.13-1.33c.48-.24 1.03-.4 1.66-.32zm-14.5-22.8h-4.2v-35.66c0-1.96 1.82-3.52 4.12-3.52h2.14v3.52h-2.14zm50.26 26.72h4.2v1.8c0 1.96-1.82 3.53-4.12 3.53h-31.47v-3.6h31.47zm-35.6-39.18v-3.6h35.6v3.6zm-17.2 24.92c2.62-2.28 6.9-2.36 9.52-.16 1.34 1.02 2.06 2.5 2.06 4 .08 1.56-.64 2.97-1.83 4.07-1.28 1.1-2.94 1.7-4.76 1.8h-.16c-1.74 0-3.4-.63-4.68-1.65-2.62-2.2-2.77-5.8-.16-8.07zm17.2-16.07v-3.5h25.14v3.5zm29.34-26.63h12.2l-12.2-10.58zm-29.34 8.86v-3.53h16.73v3.52zm-10.46 39.33c.48-.47.7-1.02.7-1.57-.07-.55-.3-1.1-.78-1.5-.47-.4-1.1-.62-1.82-.62-.7 0-1.35.23-1.83.63-.95.87-.95 2.28.1 3.06.46.47 1.1.63 1.8.63.72 0 1.36-.25 1.83-.64z" stroke="#000" stroke-opacity="0" fill="#fe7070"/><path d="M1223.83 362.57h-21.57l-1.6-7.77-7.43.08-2.83-7.7 6.58-2.83-2.98-6 6.73-5.84v-2l.08-35.73 6.2-3.46h2.14l3.6-5.53 34.88-.07 18.67 16.14.6 49.58-7.42 4-.08 1.84-4.05 4.38z" stroke="#000" stroke-opacity="0" fill-opacity="0"/><path d="M665.04 403.62l.03.3.2 1.25.25 1.24.3 1.24.35 1.22.4 1.2.47 1.22.52 1.2.6 1.24.65 1.24.75 1.26.84 1.28.92 1.32 1.05 1.36 1.18 1.4 1.35 1.47 1.52 1.53 1.76 1.62 2.03 1.72 2.37 1.84 2.8 2 3.34 2.17 4.1 2.42 5.1 2.75 6.64 3.2 9.1 3.96 14 5.38 35.42 11.77 66.6 21.8 22.63 8.7 16.78 7.3 13.5 6.55 11.32 6.1 9.7 5.74 8.45 5.5 7.46 5.3 6.65 5.18 5.96 5.05 5.4 4.97 4.88 4.9 4.45 4.86 4.08 4.84 3.75 4.84 3.43 4.85 3.16 4.87 2.9 4.93 2.67 5 2.46 5.1 2.23 5.18 2.03 5.33 1.83 5.48 1.63 5.66 1.42 5.87 1.22 6.12 1 6.38.76 6.7.2 2.6" stroke="#635dff" stroke-width="2" stroke-linejoin="round" fill="none"/><path d="M666.04 403.53l-2 .23-.12-1.14h2z" stroke="#635dff" stroke-width=".05" fill="#635dff"/><path d="M981.98 654.35l-5-14.14 9.26-.23z" stroke="#635dff" stroke-width="2" fill="#635dff"/><path d="M629.76 403.63l.04 1.6.15 2.48.25 2.37.33 2.25.42 2.18.5 2.1.56 2.03.65 1.98.72 1.95.8 1.9.9 1.88.96 1.86 1.07 1.84 1.17 1.85 1.28 1.84 1.42 1.86 1.55 1.88 1.72 1.9 1.9 1.95 2.13 2 2.38 2.04 2.7 2.13 3.04 2.22 3.5 2.33 4.1 2.48 4.84 2.66 5.84 2.88 7.26 3.23 9.42 3.72 13.24 4.6 23.08 6.9 94.1 26.07 18.94 6.56 14.62 5.78 12 5.33 10.2 5.06 8.86 4.87 7.82 4.73 6.97 4.63 6.28 4.56 5.7 4.52 5.22 4.5 4.78 4.5 4.42 4.5 4.1 4.54 3.78 4.6 3.53 4.63 3.3 4.75 3.07 4.84 2.87 4.94 2.66 5.1 2.48 5.27 2.3 5.48 2.1 5.68 1.94 5.95 1.75 6.25 1.54 6.58 1.34 6.97.15 1" stroke="#635dff" stroke-width="2" stroke-linejoin="round" fill="none"/><path d="M630.76 403.63l-2 .04-.02-1.05h2z" stroke="#635dff" stroke-width=".05" fill="#635dff"/><path d="M966.2 655.87l-6.2-13.65 9.2-1.04z" stroke="#635dff" stroke-width="2" fill="#635dff"/><path d="M1175.07 404.2v48.1a.1.1 0 0 0 .1.08.1.1 0 0 1 .1.1v30.58" stroke="#635dff" stroke-width="2" fill="none"/><path d="M1176.07 404.22h-2v-1.03h2z" stroke="#635dff" stroke-width=".05" fill="#635dff"/><path d="M1175.26 498.33l-4.63-14.27h9.27z" stroke="#635dff" stroke-width="2" fill="#635dff"/><defs><path fill="#3a414a" d="M100-1691v-357h1682v357h-627V0H727v-1691H100" id="H"/><path fill="#3a414a" d="M862-340c181-5 293-121 293-314v-882h426V0h-409v-279h-16C1091-107 926 25 690 20c-339-8-520-231-520-578v-978h426v902c-2 171 100 299 266 294" id="I"/><path fill="#3a414a" d="M922-1188c-196 6-326 123-326 319V0H170v-1536h413v268h16c51-208 247-335 503-275v378c-39-12-127-24-180-23" id="J"/><path fill="#3a414a" d="M1053 25C821 27 691-95 617-246h-19V0H178v-2048h426v770h13c75-152 201-281 437-278 264 7 438 150 537 350 107 217 109 653 3 874-98 204-271 351-541 357zM918-1217c-238 0-318 201-323 449-1 177 52 320 148 398 91 74 261 72 351-2 95-78 147-221 147-396-5-246-86-449-323-449" id="K"/><path fill="#3a414a" d="M170 0v-1536h426V0H170zm444-1950c0 117-110 216-230 216s-230-99-230-216c0-116 111-215 230-215s230 99 230 215" id="L"/><path fill="#3a414a" d="M887-1202c-189 5-291 122-291 314V0H170v-1536h406v271h18c64-171 229-295 462-291 345 6 530 227 530 578V0h-426v-902c4-180-98-301-273-300" id="M"/><path fill="#3a414a" d="M1566-440c-72 303-322 466-696 470-330 0-552-147-670-370-119-225-120-610 0-837 116-220 332-379 653-379 350 0 567 173 667 438 50 125 59 283 55 459H278v-264h896c-6-192-121-315-314-315-200 0-331 133-331 329v251c4 228 123 370 348 370 153 0 252-66 295-178" id="N"/><g id="a"><use transform="matrix(0.008759469696969691,0,0,0.008759469696969691,0,0)" xlink:href="#H"/><use transform="matrix(0.008759469696969691,0,0,0.008759469696969691,16.485321969696958,0)" xlink:href="#I"/><use transform="matrix(0.008759469696969691,0,0,0.008759469696969691,31.82315340909089,0)" xlink:href="#J"/><use transform="matrix(0.008759469696969691,0,0,0.008759469696969691,41.905303030303,0)" xlink:href="#K"/><use transform="matrix(0.008759469696969691,0,0,0.008759469696969691,57.57599431818178,0)" xlink:href="#L"/><use transform="matrix(0.008759469696969691,0,0,0.008759469696969691,64.28574810606057,0)" xlink:href="#M"/><use transform="matrix(0.008759469696969691,0,0,0.008759469696969691,79.62357954545449,0)" xlink:href="#N"/></g><path fill="#3a414a" d="M800-277c126 3 250-49 250-156 0-102-90-132-197-153l-266-53c-150-30-260-84-335-156-133-126-143-389-28-538 110-143 314-223 570-223 361 0 612 158 654 458l-390 24c-27-112-117-179-257-180-113-2-234 49-235 152 0 37 15 68 44 93 90 69 294 86 429 117 149 34 259 82 334 148 141 124 140 385 21 533C1276-63 1065 30 799 30c-377 0-651-164-697-475l419-22c24 124 129 191 279 190" id="O"/><path fill="#3a414a" d="M987-1536v320H62v-320h925zM842-322c33 1 81-10 106-14l67 317c-131 47-368 57-501-1-147-64-242-189-242-396v-1488h426v1432c-2 104 46 150 144 150" id="P"/><g id="b"><use transform="matrix(0.008759469696969691,0,0,0.008759469696969691,0,0)" xlink:href="#O"/><use transform="matrix(0.008759469696969691,0,0,0.008759469696969691,13.857481060606052,0)" xlink:href="#N"/><use transform="matrix(0.008759469696969691,0,0,0.008759469696969691,28.59966856060604,0)" xlink:href="#P"/><use transform="matrix(0.008759469696969691,0,0,0.008759469696969691,38.182528409090885,0)" xlink:href="#O"/></g><path fill="#3a414a" d="M1045 25C813 27 683-95 609-246h-13v822H170v-2112h420v258h19c75-152 201-281 437-278 264 7 438 150 537 350 107 217 109 653 3 874-98 204-271 351-541 357zM910-1217c-238 0-318 201-323 449-1 177 52 320 148 398 91 74 261 72 351-2 95-78 147-221 147-396-5-246-86-449-323-449" id="Q"/><g id="c"><use transform="matrix(0.008759469696969691,0,0,0.008759469696969691,0,0)" xlink:href="#I"/><use transform="matrix(0.008759469696969691,0,0,0.008759469696969691,15.337831439393929,0)" xlink:href="#Q"/></g><path fill="#3a414a" d="M1057-213C978-65 835 29 608 29 303 29 98-121 98-429c0-345 264-439 577-473 140-18 250-18 335-64 26-18 37-43 37-80 0-132-91-199-228-199-145 0-241 72-273 177l-394-32c69-295 305-456 669-456 282 0 499 96 599 284 35 66 53 145 53 236V0h-404v-213h-12zM505-443c-2 120 103 179 225 178 185-5 311-104 320-284v-163c-172 97-533 15-545 269" id="R"/><use transform="matrix(0.008759469696969691,0,0,0.008759469696969691,0,0)" xlink:href="#R" id="d"/><path fill="#3a414a" d="M869-307c166-4 255-106 279-256h402c-32 376-281 588-686 593-329 1-550-156-666-380-118-229-117-599 2-826 116-222 335-380 662-380 276-1 479 109 591 278 59 88 91 191 97 310h-402c-20-144-117-261-279-256-238 8-325 203-328 456-1 186 52 331 155 407 49 36 107 54 173 54" id="S"/><path fill="#3a414a" d="M1266-70C1051 59 677 59 462-70 250-197 108-434 108-762c0-330 142-566 354-694 215-129 589-129 804 0 213 128 354 364 354 694 0 328-142 565-354 692zM686-360c91 78 267 79 357 0 93-82 144-229 144-405s-51-323-144-405c-90-80-266-79-357 0-95 82-145 228-145 405s50 323 145 405" id="T"/><g id="e"><use transform="matrix(0.008759469696969691,0,0,0.008759469696969691,0,0)" xlink:href="#S"/><use transform="matrix(0.008759469696969691,0,0,0.008759469696969691,14.488162878787868,0)" xlink:href="#T"/><use transform="matrix(0.008759469696969691,0,0,0.008759469696969691,29.624526515151494,0)" xlink:href="#M"/><use transform="matrix(0.008759469696969691,0,0,0.008759469696969691,44.962357954545425,0)" xlink:href="#P"/><use transform="matrix(0.008759469696969691,0,0,0.008759469696969691,54.54521780303026,0)" xlink:href="#L"/><use transform="matrix(0.008759469696969691,0,0,0.008759469696969691,61.25497159090905,0)" xlink:href="#M"/><use transform="matrix(0.008759469696969691,0,0,0.008759469696969691,76.59280303030297,0)" xlink:href="#I"/><use transform="matrix(0.008759469696969691,0,0,0.008759469696969691,91.93063446969688,0)" xlink:href="#T"/><use transform="matrix(0.008759469696969691,0,0,0.008759469696969691,107.06699810606051,0)" xlink:href="#I"/><use transform="matrix(0.008759469696969691,0,0,0.008759469696969691,122.40482954545445,0)" xlink:href="#O"/></g><path fill="#3a414a" d="M1172-246C1097-96 968 27 736 25c-270-6-442-153-540-357-106-221-106-657 2-874 100-201 271-343 537-350 236-3 362 126 437 278h13v-770h425V0h-420v-246h-18zm-301-971c-237 0-318 203-323 449 0 175 51 318 146 396 90 74 262 76 352 2 96-78 149-221 148-398-4-248-86-449-323-449" id="U"/><g id="f"><use transform="matrix(0.008759469696969691,0,0,0.008759469696969691,0,0)" xlink:href="#U"/><use transform="matrix(0.008759469696969691,0,0,0.008759469696969691,15.670691287878777,0)" xlink:href="#R"/><use transform="matrix(0.008759469696969691,0,0,0.008759469696969691,29.983664772727252,0)" xlink:href="#P"/><use transform="matrix(0.008759469696969691,0,0,0.008759469696969691,39.566524621212096,0)" xlink:href="#R"/></g><path fill="#3a414a" d="M846-1205c-159 5-250 118-250 283V0H170v-1536h406v271h18c58-168 209-291 428-291 214-2 373 120 417 291h16c58-170 236-293 463-291 297 0 484 209 484 523V0h-425v-949c5-159-93-254-238-256-155-3-246 112-246 267V0h-413v-958c3-145-93-251-234-247" id="V"/><g id="g"><use transform="matrix(0.008759469696969691,0,0,0.008759469696969691,0,0)" xlink:href="#O"/><use transform="matrix(0.008759469696969691,0,0,0.008759469696969691,13.857481060606052,0)" xlink:href="#P"/><use transform="matrix(0.008759469696969691,0,0,0.008759469696969691,23.440340909090892,0)" xlink:href="#J"/><use transform="matrix(0.008759469696969691,0,0,0.008759469696969691,33.522490530303,0)" xlink:href="#N"/><use transform="matrix(0.008759469696969691,0,0,0.008759469696969691,48.26467803030299,0)" xlink:href="#R"/><use transform="matrix(0.008759469696969691,0,0,0.008759469696969691,62.577651515151466,0)" xlink:href="#V"/></g><g id="h"><use transform="matrix(0.008759469696969691,0,0,0.008759469696969691,0,0)" xlink:href="#P"/><use transform="matrix(0.008759469696969691,0,0,0.008759469696969691,9.582859848484842,0)" xlink:href="#T"/></g><path fill="#3a414a" d="M703 526c-137 64-396 64-538 6l96-318c88 25 171 42 241-3 46-26 75-106 97-167L48-1536h448L814-408h16l321-1128h451L1005 166c-58 163-152 290-302 360" id="W"/><g id="i"><use transform="matrix(0.008759469696969691,0,0,0.008759469696969691,0,0)" xlink:href="#O"/><use transform="matrix(0.008759469696969691,0,0,0.008759469696969691,13.857481060606052,0)" xlink:href="#W"/><use transform="matrix(0.008759469696969691,0,0,0.008759469696969691,28.31060606060604,0)" xlink:href="#M"/><use transform="matrix(0.008759469696969691,0,0,0.008759469696969691,43.64843749999997,0)" xlink:href="#S"/></g><g id="j"><use transform="matrix(0.008759469696969691,0,0,0.008759469696969691,0,0)" xlink:href="#W"/><use transform="matrix(0.008759469696969691,0,0,0.008759469696969691,14.45312499999999,0)" xlink:href="#T"/><use transform="matrix(0.008759469696969691,0,0,0.008759469696969691,29.589488636363615,0)" xlink:href="#I"/><use transform="matrix(0.008759469696969691,0,0,0.008759469696969691,44.92732007575754,0)" xlink:href="#J"/></g><g id="k"><use transform="matrix(0.008759469696969691,0,0,0.008759469696969691,0,0)" xlink:href="#U"/><use transform="matrix(0.008759469696969691,0,0,0.008759469696969691,15.670691287878777,0)" xlink:href="#R"/><use transform="matrix(0.008759469696969691,0,0,0.008759469696969691,29.983664772727252,0)" xlink:href="#P"/><use transform="matrix(0.008759469696969691,0,0,0.008759469696969691,39.566524621212096,0)" xlink:href="#R"/></g><path fill="#3a414a" d="M58-2048h485l467 882h20l467-882h485L1235-724V0H805v-724" id="X"/><g id="l"><use transform="matrix(0.008759469696969679,0,0,0.008759469696969679,0,0)" xlink:href="#X"/><use transform="matrix(0.008759469696969679,0,0,0.008759469696969679,17.869318181818144,0)" xlink:href="#T"/><use transform="matrix(0.008759469696969679,0,0,0.008759469696969679,33.00568181818175,0)" xlink:href="#I"/></g><g id="m"><use transform="matrix(0.008759469696969679,0,0,0.008759469696969679,0,0)" xlink:href="#S"/><use transform="matrix(0.008759469696969679,0,0,0.008759469696969679,14.488162878787849,0)" xlink:href="#T"/><use transform="matrix(0.008759469696969679,0,0,0.008759469696969679,29.624526515151448,0)" xlink:href="#M"/><use transform="matrix(0.008759469696969679,0,0,0.008759469696969679,44.96235795454536,0)" xlink:href="#M"/><use transform="matrix(0.008759469696969679,0,0,0.008759469696969679,60.30018939393927,0)" xlink:href="#N"/><use transform="matrix(0.008759469696969679,0,0,0.008759469696969679,75.04237689393923,0)" xlink:href="#S"/><use transform="matrix(0.008759469696969679,0,0,0.008759469696969679,89.53053977272708,0)" xlink:href="#P"/></g><g id="n"><use transform="matrix(0.008759469696969679,0,0,0.008759469696969679,0,0)" xlink:href="#W"/><use transform="matrix(0.008759469696969679,0,0,0.008759469696969679,14.45312499999997,0)" xlink:href="#T"/><use transform="matrix(0.008759469696969679,0,0,0.008759469696969679,29.589488636363576,0)" xlink:href="#I"/><use transform="matrix(0.008759469696969679,0,0,0.008759469696969679,44.927320075757486,0)" xlink:href="#J"/></g><g id="o"><use transform="matrix(0.008759469696969679,0,0,0.008759469696969679,0,0)" xlink:href="#U"/><use transform="matrix(0.008759469696969679,0,0,0.008759469696969679,15.670691287878755,0)" xlink:href="#R"/><use transform="matrix(0.008759469696969679,0,0,0.008759469696969679,29.98366477272721,0)" xlink:href="#P"/><use transform="matrix(0.008759469696969679,0,0,0.008759469696969679,39.56652462121204,0)" xlink:href="#R"/><use transform="matrix(0.008759469696969679,0,0,0.008759469696969679,53.879498106060495,0)" xlink:href="#K"/><use transform="matrix(0.008759469696969679,0,0,0.008759469696969679,69.55018939393925,0)" xlink:href="#R"/><use transform="matrix(0.008759469696969679,0,0,0.008759469696969679,83.8631628787877,0)" xlink:href="#O"/><use transform="matrix(0.008759469696969679,0,0,0.008759469696969679,97.72064393939374,0)" xlink:href="#N"/></g><path fill="#3a414a" d="M596-2048V0H170v-2048h426" id="Y"/><g id="p"><use transform="matrix(0.008759469696969691,0,0,0.008759469696969691,0,0)" xlink:href="#R"/><use transform="matrix(0.008759469696969691,0,0,0.008759469696969691,14.312973484848476,0)" xlink:href="#I"/><use transform="matrix(0.008759469696969691,0,0,0.008759469696969691,29.650804924242404,0)" xlink:href="#P"/><use transform="matrix(0.008759469696969691,0,0,0.008759469696969691,39.233664772727245,0)" xlink:href="#T"/><use transform="matrix(0.008759469696969691,0,0,0.008759469696969691,54.37002840909087,0)" xlink:href="#V"/><use transform="matrix(0.008759469696969691,0,0,0.008759469696969691,76.86434659090904,0)" xlink:href="#R"/><use transform="matrix(0.008759469696969691,0,0,0.008759469696969691,91.1773200757575,0)" xlink:href="#P"/><use transform="matrix(0.008759469696969691,0,0,0.008759469696969691,100.76017992424235,0)" xlink:href="#L"/><use transform="matrix(0.008759469696969691,0,0,0.008759469696969691,107.46993371212113,0)" xlink:href="#S"/><use transform="matrix(0.008759469696969691,0,0,0.008759469696969691,121.95809659090901,0)" xlink:href="#R"/><use transform="matrix(0.008759469696969691,0,0,0.008759469696969691,136.27107007575748,0)" xlink:href="#Y"/><use transform="matrix(0.008759469696969691,0,0,0.008759469696969691,142.98082386363626,0)" xlink:href="#Y"/><use transform="matrix(0.008759469696969691,0,0,0.008759469696969691,149.69057765151504,0)" xlink:href="#W"/></g><g id="q"><use transform="matrix(0.008759469696969691,0,0,0.008759469696969691,0,0)" xlink:href="#S"/><use transform="matrix(0.008759469696969691,0,0,0.008759469696969691,14.488162878787868,0)" xlink:href="#J"/><use transform="matrix(0.008759469696969691,0,0,0.008759469696969691,24.570312499999982,0)" xlink:href="#N"/><use transform="matrix(0.008759469696969691,0,0,0.008759469696969691,39.31249999999997,0)" xlink:href="#R"/><use transform="matrix(0.008759469696969691,0,0,0.008759469696969691,53.62547348484845,0)" xlink:href="#P"/><use transform="matrix(0.008759469696969691,0,0,0.008759469696969691,63.20833333333329,0)" xlink:href="#N"/><use transform="matrix(0.008759469696969691,0,0,0.008759469696969691,77.95052083333329,0)" xlink:href="#O"/></g><path fill="#3a414a" d="M735-1556c237-3 363 127 439 278h16v-258h423V15c-9 421-324 586-751 593-265 2-467-76-589-210-58-65-96-137-113-218l394-53c47 111 153 176 318 175 190-3 320-88 320-293v-281h-18C1103-123 962-16 736-22 316-33 113-322 113-771c-4-332 116-575 311-698 94-58 198-87 311-87zM548-773c0 244 87 431 323 431 235 0 323-187 323-431 0-246-87-444-323-444s-323 200-323 444" id="Z"/><g id="r"><use transform="matrix(0.008759469696969691,0,0,0.008759469696969691,0,0)" xlink:href="#N"/><use transform="matrix(0.008759469696969691,0,0,0.008759469696969691,14.74218749999999,0)" xlink:href="#V"/><use transform="matrix(0.008759469696969691,0,0,0.008759469696969691,37.23650568181816,0)" xlink:href="#K"/><use transform="matrix(0.008759469696969691,0,0,0.008759469696969691,52.90719696969693,0)" xlink:href="#N"/><use transform="matrix(0.008759469696969691,0,0,0.008759469696969691,67.64938446969693,0)" xlink:href="#U"/><use transform="matrix(0.008759469696969691,0,0,0.008759469696969691,83.32007575757572,0)" xlink:href="#U"/><use transform="matrix(0.008759469696969691,0,0,0.008759469696969691,98.99076704545449,0)" xlink:href="#L"/><use transform="matrix(0.008759469696969691,0,0,0.008759469696969691,105.70052083333327,0)" xlink:href="#M"/><use transform="matrix(0.008759469696969691,0,0,0.008759469696969691,121.0383522727272,0)" xlink:href="#Z"/><use transform="matrix(0.008759469696969691,0,0,0.008759469696969691,136.65648674242416,0)" xlink:href="#O"/></g><g id="s"><use transform="matrix(0.008759469696969691,0,0,0.008759469696969691,0,0)" xlink:href="#R"/><use transform="matrix(0.008759469696969691,0,0,0.008759469696969691,14.312973484848476,0)" xlink:href="#M"/><use transform="matrix(0.008759469696969691,0,0,0.008759469696969691,29.650804924242404,0)" xlink:href="#U"/></g><g id="t"><use transform="matrix(0.008759469696969691,0,0,0.008759469696969691,0,0)" xlink:href="#O"/><use transform="matrix(0.008759469696969691,0,0,0.008759469696969691,13.857481060606052,0)" xlink:href="#P"/><use transform="matrix(0.008759469696969691,0,0,0.008759469696969691,23.440340909090892,0)" xlink:href="#T"/><use transform="matrix(0.008759469696969691,0,0,0.008759469696969691,38.57670454545452,0)" xlink:href="#J"/><use transform="matrix(0.008759469696969691,0,0,0.008759469696969691,48.65885416666662,0)" xlink:href="#N"/><use transform="matrix(0.008759469696969691,0,0,0.008759469696969691,63.401041666666615,0)" xlink:href="#O"/></g><path fill="#3a414a" d="M892-1202c-190 5-296 121-296 314V0H170v-2048h414v783h18c67-175 220-295 459-291 345 6 531 226 531 578V0h-426v-902c4-182-97-301-274-300" id="aa"/><g id="u"><use transform="matrix(0.008759469696969691,0,0,0.008759469696969691,0,0)" xlink:href="#P"/><use transform="matrix(0.008759469696969691,0,0,0.008759469696969691,9.582859848484842,0)" xlink:href="#aa"/><use transform="matrix(0.008759469696969691,0,0,0.008759469696969691,24.98200757575756,0)" xlink:href="#N"/><use transform="matrix(0.008759469696969691,0,0,0.008759469696969691,39.72419507575755,0)" xlink:href="#V"/></g><g id="v"><use transform="matrix(0.008759469696969691,0,0,0.008759469696969691,0,0)" xlink:href="#L"/><use transform="matrix(0.008759469696969691,0,0,0.008759469696969691,6.709753787878784,0)" xlink:href="#M"/></g><path fill="#3a414a" d="M1602-1536L1065 0H585L48-1536h450L817-437h16l318-1099h451" id="ab"/><g id="w"><use transform="matrix(0.008759469696969691,0,0,0.008759469696969691,0,0)" xlink:href="#ab"/><use transform="matrix(0.008759469696969691,0,0,0.008759469696969691,14.45312499999999,0)" xlink:href="#N"/><use transform="matrix(0.008759469696969691,0,0,0.008759469696969691,29.19531249999998,0)" xlink:href="#S"/><use transform="matrix(0.008759469696969691,0,0,0.008759469696969691,43.68347537878785,0)" xlink:href="#P"/><use transform="matrix(0.008759469696969691,0,0,0.008759469696969691,53.26633522727269,0)" xlink:href="#T"/><use transform="matrix(0.008759469696969691,0,0,0.008759469696969691,68.40269886363632,0)" xlink:href="#J"/></g><g id="x"><use transform="matrix(0.008759469696969691,0,0,0.008759469696969691,0,0)" xlink:href="#U"/><use transform="matrix(0.008759469696969691,0,0,0.008759469696969691,15.670691287878777,0)" xlink:href="#R"/><use transform="matrix(0.008759469696969691,0,0,0.008759469696969691,29.983664772727252,0)" xlink:href="#P"/><use transform="matrix(0.008759469696969691,0,0,0.008759469696969691,39.566524621212096,0)" xlink:href="#R"/><use transform="matrix(0.008759469696969691,0,0,0.008759469696969691,53.87949810606057,0)" xlink:href="#K"/><use transform="matrix(0.008759469696969691,0,0,0.008759469696969691,69.55018939393935,0)" xlink:href="#R"/><use transform="matrix(0.008759469696969691,0,0,0.008759469696969691,83.86316287878782,0)" xlink:href="#O"/><use transform="matrix(0.008759469696969691,0,0,0.008759469696969691,97.72064393939387,0)" xlink:href="#N"/></g><radialGradient gradientUnits="userSpaceOnUse" id="y" fx="1123.53" fy="321.94" cx="1123.53" cy="321.94" r="41.23"><stop offset="22.5%" stop-color="#32d4f5"/><stop offset="59%" stop-color="#32d2f2"/><stop offset="82.5%" stop-color="#32caea"/><stop offset="100%" stop-color="#32bedd"/></radialGradient><g id="z"><use transform="matrix(0.008759469696969691,0,0,0.008759469696969691,0,0)" xlink:href="#X"/><use transform="matrix(0.008759469696969691,0,0,0.008759469696969691,17.86931818181817,0)" xlink:href="#T"/><use transform="matrix(0.008759469696969691,0,0,0.008759469696969691,33.0056818181818,0)" xlink:href="#I"/></g><g id="A"><use transform="matrix(0.008759469696969691,0,0,0.008759469696969691,0,0)" xlink:href="#O"/><use transform="matrix(0.008759469696969691,0,0,0.008759469696969691,13.857481060606052,0)" xlink:href="#N"/><use transform="matrix(0.008759469696969691,0,0,0.008759469696969691,28.59966856060604,0)" xlink:href="#R"/><use transform="matrix(0.008759469696969691,0,0,0.008759469696969691,42.91264204545452,0)" xlink:href="#J"/><use transform="matrix(0.008759469696969691,0,0,0.008759469696969691,52.99479166666663,0)" xlink:href="#S"/><use transform="matrix(0.008759469696969691,0,0,0.008759469696969691,67.4829545454545,0)" xlink:href="#aa"/></g><g id="B"><use transform="matrix(0.008759469696969691,0,0,0.008759469696969691,0,0)" xlink:href="#J"/><use transform="matrix(0.008759469696969691,0,0,0.008759469696969691,10.082149621212114,0)" xlink:href="#N"/><use transform="matrix(0.008759469696969691,0,0,0.008759469696969691,24.824337121212103,0)" xlink:href="#P"/><use transform="matrix(0.008759469696969691,0,0,0.008759469696969691,34.40719696969695,0)" xlink:href="#J"/><use transform="matrix(0.008759469696969691,0,0,0.008759469696969691,44.489346590909065,0)" xlink:href="#L"/><use transform="matrix(0.008759469696969691,0,0,0.008759469696969691,51.19910037878785,0)" xlink:href="#N"/><use transform="matrix(0.008759469696969691,0,0,0.008759469696969691,65.94128787878783,0)" xlink:href="#ab"/><use transform="matrix(0.008759469696969691,0,0,0.008759469696969691,80.39441287878782,0)" xlink:href="#N"/></g><g id="C"><use transform="matrix(0.008759469696969691,0,0,0.008759469696969691,0,0)" xlink:href="#U"/><use transform="matrix(0.008759469696969691,0,0,0.008759469696969691,15.670691287878777,0)" xlink:href="#T"/><use transform="matrix(0.008759469696969691,0,0,0.008759469696969691,30.8070549242424,0)" xlink:href="#S"/><use transform="matrix(0.008759469696969691,0,0,0.008759469696969691,45.29521780303027,0)" xlink:href="#I"/><use transform="matrix(0.008759469696969691,0,0,0.008759469696969691,60.6330492424242,0)" xlink:href="#V"/><use transform="matrix(0.008759469696969691,0,0,0.008759469696969691,83.12736742424237,0)" xlink:href="#N"/><use transform="matrix(0.008759469696969691,0,0,0.008759469696969691,97.86955492424235,0)" xlink:href="#M"/><use transform="matrix(0.008759469696969691,0,0,0.008759469696969691,113.20738636363627,0)" xlink:href="#P"/><use transform="matrix(0.008759469696969691,0,0,0.008759469696969691,122.7902462121211,0)" xlink:href="#O"/></g><g id="D"><use transform="matrix(0.008759469696969691,0,0,0.008759469696969691,0,0)" xlink:href="#I"/><use transform="matrix(0.008759469696969691,0,0,0.008759469696969691,15.337831439393929,0)" xlink:href="#O"/><use transform="matrix(0.008759469696969691,0,0,0.008759469696969691,29.19531249999998,0)" xlink:href="#L"/><use transform="matrix(0.008759469696969691,0,0,0.008759469696969691,35.90506628787876,0)" xlink:href="#M"/><use transform="matrix(0.008759469696969691,0,0,0.008759469696969691,51.24289772727269,0)" xlink:href="#Z"/></g><path fill="#3a414a" d="M531-643c17 213 175 305 401 309 142 1 257-44 318-121 56-66 62-182 4-247-110-118-345-146-530-196-172-46-309-108-409-197s-150-210-149-361c2-278 170-448 376-542 222-101 579-102 798 0 203 94 356 268 364 539h-415c-17-169-155-257-350-255-181 2-329 63-329 229 0 178 174 218 324 254 392 93 798 184 798 646 0 279-156 447-368 539-226 98-630 97-858-1-230-98-387-286-394-596h419" id="ac"/><path fill="#3a414a" d="M904 0H178v-2048h732c430 0 721 186 876 474 156 289 156 808 0 1098S1337 0 904 0zm570-1026c0-421-175-650-587-651H611v1306h275c413-1 588-231 588-655" id="ad"/><path fill="#3a414a" d="M178 0v-2048h433v903h27l737-903h519l-760 917L1903 0h-518L824-842 611-582V0H178" id="ae"/><g id="E"><use transform="matrix(0.008759469696969691,0,0,0.008759469696969691,0,0)" xlink:href="#ac"/><use transform="matrix(0.008759469696969691,0,0,0.008759469696969691,16.15246212121211,0)" xlink:href="#ad"/><use transform="matrix(0.008759469696969691,0,0,0.008759469696969691,34.091856060606034,0)" xlink:href="#ae"/><use transform="matrix(0.008759469696969691,0,0,0.008759469696969691,51.102746212121176,0)" xlink:href="#O"/></g><path fill="#3a414a" d="M178 0v-2048h433v845h879v-845h432V0h-432v-846H611V0H178" id="af"/><path fill="#3a414a" d="M1274-1354c0-226-136-340-371-340H611V0H178v-2048h808c315-2 534 132 648 334 113 200 113 521-2 720-117 202-339 330-657 330H460v-347h445c234 0 369-118 369-343" id="ag"/><g id="F"><use transform="matrix(0.008759469696969691,0,0,0.008759469696969691,0,0)" xlink:href="#af"/><use transform="matrix(0.008759469696969691,0,0,0.008759469696969691,18.40364583333332,0)" xlink:href="#H"/><use transform="matrix(0.008759469696969691,0,0,0.008759469696969691,34.88896780303028,0)" xlink:href="#H"/><use transform="matrix(0.008759469696969691,0,0,0.008759469696969691,51.37428977272724,0)" xlink:href="#ag"/></g><path fill="#3a414a" d="M531 0H67l707-2048h558L2038 0h-464l-513-1580h-16zm-29-805h1096v338H502v-338" id="ah"/><path fill="#3a414a" d="M611-2048V0H178v-2048h433" id="ai"/><g id="G"><use transform="matrix(0.008759469696969691,0,0,0.008759469696969691,0,0)" xlink:href="#ah"/><use transform="matrix(0.008759469696969691,0,0,0.008759469696969691,18.44744318181817,0)" xlink:href="#ag"/><use transform="matrix(0.008759469696969691,0,0,0.008759469696969691,34.424715909090885,0)" xlink:href="#ai"/></g></defs></g></svg>